<svg width="64" height="64" viewBox="0 0 64 64" fill="none" xmlns="http://www.w3.org/2000/svg">
<g clip-path="url(#clip0_1053_2361)">
<path d="M40.7146 35.2986C46.6739 37.5546 54.6954 37.1434 59.8026 34.32L64 32L59.8026 29.6799C54.6954 26.8568 46.6742 26.4457 40.7146 28.7013L36.2454 30.393C36.2176 30.3029 36.184 30.216 36.151 30.1285L40.4947 28.1703C46.304 25.5513 51.6848 19.5888 53.3002 13.981L54.6275 9.37242L50.0189 10.6997C44.4112 12.3149 38.4486 17.696 35.8294 23.5051L33.9382 27.7005C33.8509 27.6581 33.7635 27.616 33.6733 27.5792L35.2986 23.2853C37.5542 17.3259 37.143 9.30454 34.32 4.19722L32 0L29.6799 4.19734C26.8568 9.3047 26.4457 17.3259 28.7013 23.2854L30.3266 27.5794C30.2363 27.6162 30.1489 27.6583 30.0617 27.7007L28.1703 23.5052C25.5513 17.6962 19.5888 12.3151 13.981 10.6999L9.37242 9.37258L10.6997 13.9812C12.3149 19.5888 17.696 25.5515 23.5051 28.1704L27.8488 30.1287C27.8159 30.2162 27.7821 30.3031 27.7546 30.3932L23.2853 28.7015C17.3259 26.4457 9.30454 26.8569 4.19722 29.6801L0 32L4.19734 34.32C9.3047 37.1434 17.3259 37.5546 23.2854 35.2986L27.9636 33.528C28.0004 33.6086 28.0375 33.6896 28.079 33.7677L23.5053 35.8298C17.6962 38.4486 12.3151 44.4112 10.6999 50.0189L9.37258 54.6275L13.9812 53.3002C19.5888 51.6851 25.5515 46.304 28.1704 40.495L30.293 35.7869C30.3714 35.8195 30.4528 35.8464 30.5335 35.8749L28.7015 40.7149C26.4457 46.6742 26.8569 54.6957 29.6801 59.8029L32 64.0003L34.3203 59.8029C37.1434 54.6957 37.5546 46.6746 35.2989 40.7149L33.4666 35.8746C33.5472 35.8464 33.6288 35.8195 33.7072 35.7866L35.8298 40.4947C38.4486 46.304 44.4112 51.6848 50.0189 53.3002L54.6275 54.6275L53.3002 50.0189C51.6851 44.4112 46.304 38.4486 40.495 35.8294L35.921 33.7677C35.9626 33.6896 35.9997 33.6086 36.0365 33.5277L40.7146 35.2986Z" fill="#883F27"/>
</g>
<defs>
<clipPath id="clip0_1053_2361">
<rect width="64" height="64" fill="white"/>
</clipPath>
</defs>
</svg>
