<svg width="64" height="64" viewBox="0 0 64 64" fill="none" xmlns="http://www.w3.org/2000/svg">
<g clip-path="url(#clip0_1053_397)">
<path d="M17.1411 10.6168C17.8174 10.617 18.4871 10.484 19.1119 10.2253C19.7368 9.96671 20.3046 9.58754 20.7829 9.10948C21.2612 8.63141 21.6407 8.06382 21.8997 7.4391C22.1587 6.81438 22.292 6.14477 22.2922 5.4685C22.2922 4.05425 21.7098 2.79162 20.7844 1.86484C17.6832 3.03262 14.7823 4.67526 12.1856 6.73396C12.4598 7.84137 13.0966 8.82521 13.9946 9.52884C14.8926 10.2325 16.0003 10.6154 17.1411 10.6168ZM5.30558 14.2148C3.41451 17.068 1.99576 20.2075 1.10391 23.5123C1.63351 23.7033 2.19183 23.8025 2.75482 23.8056C3.43102 23.8058 4.10064 23.6728 4.72542 23.4142C5.3502 23.1555 5.91791 22.7763 6.39613 22.2982C6.87434 21.8202 7.25368 21.2526 7.5125 20.6278C7.77131 20.0031 7.90452 19.3336 7.90452 18.6574C7.90452 16.7457 6.85304 15.1005 5.30558 14.2148ZM17.1411 13.5062C15.7753 13.5062 14.4655 14.0488 13.4997 15.0145C12.534 15.9803 11.9914 17.2901 11.9914 18.6559C11.9914 20.0217 12.534 21.3316 13.4997 22.2973C14.4655 23.2631 15.7753 23.8056 17.1411 23.8056C18.5069 23.8056 19.8167 23.2631 20.7825 22.2973C21.7483 21.3316 22.2908 20.0217 22.2908 18.6559C22.2908 17.2901 21.7483 15.9803 20.7825 15.0145C19.8167 14.0488 18.5069 13.5062 17.1411 13.5062ZM31.4183 0.317383C30.0525 0.317383 28.7427 0.859939 27.7769 1.8257C26.8111 2.79145 26.2686 4.1013 26.2686 5.46709C26.2686 6.83287 26.8111 8.14272 27.7769 9.10847C28.7427 10.0742 30.0525 10.6168 31.4183 10.6168C32.7841 10.6168 34.0939 10.0742 35.0597 9.10847C36.0254 8.14272 36.568 6.83287 36.568 5.46709C36.568 4.1013 36.0254 2.79145 35.0597 1.8257C34.0939 0.859939 32.7841 0.317383 31.4183 0.317383ZM45.8046 10.6168C48.4545 10.6168 50.617 8.60452 50.8976 6.02825C48.3215 4.13685 45.4765 2.64223 42.4574 1.59418C41.8943 2.07081 41.4416 2.66417 41.1305 3.33316C40.8195 4.00215 40.6577 4.73076 40.6563 5.4685C40.6561 6.14464 40.7891 6.81418 41.0478 7.43889C41.3065 8.06359 41.6857 8.63121 42.1638 9.10931C42.6419 9.5874 43.2095 9.96662 43.8342 10.2253C44.4589 10.4839 45.1284 10.617 45.8046 10.6168ZM31.4183 13.5062C30.0525 13.5062 28.7427 14.0488 27.7769 15.0145C26.8111 15.9803 26.2686 17.2901 26.2686 18.6559C26.2686 20.0217 26.8111 21.3316 27.7769 22.2973C28.7427 23.2631 30.0525 23.8056 31.4183 23.8056C32.7841 23.8056 34.0939 23.2631 35.0597 22.2973C36.0254 21.3316 36.568 20.0217 36.568 18.6559C36.568 17.2901 36.0254 15.9803 35.0597 15.0145C34.0939 14.0488 32.7841 13.5062 31.4183 13.5062ZM45.8046 13.5062C44.4388 13.5062 43.1289 14.0488 42.1632 15.0145C41.1974 15.9803 40.6549 17.2901 40.6549 18.6559C40.6549 20.0217 41.1974 21.3316 42.1632 22.2973C43.1289 23.2631 44.4388 23.8056 45.8046 23.8056C47.1704 23.8056 48.4802 23.2631 49.446 22.2973C50.4117 21.3316 50.9543 20.0217 50.9543 18.6559C50.9543 17.2901 50.4117 15.9803 49.446 15.0145C48.4802 14.0488 47.1704 13.5062 45.8046 13.5062ZM2.75482 26.6809C1.87056 26.6809 1.05148 26.9246 0.324513 27.3143C0.110772 28.8103 0.00233404 30.3195 0 31.8306C0 33.3667 0.114784 34.8717 0.324513 36.3469C1.06975 36.7558 1.90479 36.9734 2.75482 36.9803C4.12061 36.9803 5.43045 36.4378 6.39621 35.472C7.36197 34.5062 7.90452 33.1964 7.90452 31.8306C7.90452 30.4648 7.36197 29.155 6.39621 28.1892C5.43045 27.2235 4.12061 26.6809 2.75482 26.6809ZM17.1411 26.6809C15.7753 26.6809 14.4655 27.2235 13.4997 28.1892C12.534 29.155 11.9914 30.4648 11.9914 31.8306C11.9914 33.1964 12.534 34.5062 13.4997 35.472C14.4655 36.4378 15.7753 36.9803 17.1411 36.9803C18.5069 36.9803 19.8167 36.4378 20.7825 35.472C21.7483 34.5062 22.2908 33.1964 22.2908 31.8306C22.2908 30.4648 21.7483 29.155 20.7825 28.1892C19.8167 27.2235 18.5069 26.6809 17.1411 26.6809ZM2.75482 39.8683C2.17381 39.8683 1.62398 39.9789 1.10675 40.1588C2.00084 43.469 3.42399 46.613 5.32117 49.4691C6.10639 49.0206 6.75898 48.3723 7.21269 47.5901C7.6664 46.8079 7.90509 45.9195 7.90452 45.0152C7.90377 43.6499 7.36088 42.3408 6.39521 41.3757C5.42953 40.4105 4.12012 39.8683 2.75482 39.8683ZM17.1411 39.8683C15.7753 39.8683 14.4655 40.4109 13.4997 41.3767C12.534 42.3424 11.9914 43.6523 11.9914 45.018C11.9914 46.3838 12.534 47.6937 13.4997 48.6594C14.4655 49.6252 15.7753 50.1677 17.1411 50.1677C18.5069 50.1677 19.8167 49.6252 20.7825 48.6594C21.7483 47.6937 22.2908 46.3838 22.2908 45.018C22.2908 43.6523 21.7483 42.3424 20.7825 41.3767C19.8167 40.4109 18.5069 39.8683 17.1411 39.8683ZM31.4183 26.6809C30.0525 26.6809 28.7427 27.2235 27.7769 28.1892C26.8111 29.155 26.2686 30.4648 26.2686 31.8306C26.2686 33.1964 26.8111 34.5062 27.7769 35.472C28.7427 36.4378 30.0525 36.9803 31.4183 36.9803C32.7841 36.9803 34.0939 36.4378 35.0597 35.472C36.0254 34.5062 36.568 33.1964 36.568 31.8306C36.568 30.4648 36.0254 29.155 35.0597 28.1892C34.0939 27.2235 32.7841 26.6809 31.4183 26.6809ZM45.8046 26.6809C44.4388 26.6809 43.1289 27.2235 42.1632 28.1892C41.1974 29.155 40.6549 30.4648 40.6549 31.8306C40.6549 33.1964 41.1974 34.5062 42.1632 35.472C43.1289 36.4378 44.4388 36.9803 45.8046 36.9803C47.1704 36.9803 48.4802 36.4378 49.446 35.472C50.4117 34.5062 50.9543 33.1964 50.9543 31.8306C50.9543 30.4648 50.4117 29.155 49.446 28.1892C48.4802 27.2235 47.1704 26.6809 45.8046 26.6809ZM31.4183 39.8683C30.0525 39.8683 28.7427 40.4109 27.7769 41.3767C26.8111 42.3424 26.2686 43.6523 26.2686 45.018C26.2686 46.3838 26.8111 47.6937 27.7769 48.6594C28.7427 49.6252 30.0525 50.1677 31.4183 50.1677C32.7841 50.1677 34.0939 49.6252 35.0597 48.6594C36.0254 47.6937 36.568 46.3838 36.568 45.018C36.568 43.6523 36.0254 42.3424 35.0597 41.3767C34.0939 40.4109 32.7841 39.8683 31.4183 39.8683ZM45.8046 39.8683C44.4388 39.8683 43.1289 40.4109 42.1632 41.3767C41.1974 42.3424 40.6549 43.6523 40.6549 45.018C40.6549 46.3838 41.1974 47.6937 42.1632 48.6594C43.1289 49.6252 44.4388 50.1677 45.8046 50.1677C47.1704 50.1677 48.4802 49.6252 49.446 48.6594C50.4117 47.6937 50.9543 46.3838 50.9543 45.018C50.9543 43.6523 50.4117 42.3424 49.446 41.3767C48.4802 40.4109 47.1704 39.8683 45.8046 39.8683ZM59.6198 23.8042C60.7761 23.8042 61.8276 23.406 62.6807 22.7584C61.722 19.525 60.257 16.4639 58.3401 13.689C57.2353 13.9701 56.2555 14.611 55.5553 15.5106C54.855 16.4102 54.4742 17.5173 54.4729 18.6574C54.4723 19.3334 54.6051 20.0029 54.8636 20.6276C55.122 21.2523 55.5011 21.8199 55.9791 22.298C56.4572 22.776 57.0248 23.1551 57.6495 23.4136C58.2742 23.672 58.9437 23.8048 59.6198 23.8042ZM63.8597 28.9171C63.3883 28.2275 62.7557 27.6633 62.0168 27.2736C61.2779 26.8839 60.4551 26.6805 59.6198 26.6809C58.7325 26.6798 57.86 26.908 57.0869 27.3433C56.3138 27.7786 55.6662 28.4063 55.207 29.1655C54.7478 29.9247 54.4926 30.7896 54.4661 31.6765C54.4395 32.5634 54.6425 33.442 55.0555 34.2273C55.4684 35.0127 56.0773 35.6779 56.823 36.1587C57.5687 36.6395 58.426 36.9195 59.3117 36.9715C60.1974 37.0235 61.0816 36.8457 61.8784 36.4555C62.6752 36.0652 63.3577 35.4757 63.8597 34.7441C63.9476 33.7819 64 32.8169 64 31.8306C64 30.8486 63.949 29.8764 63.8597 28.9171ZM54.4701 45.018C54.4701 47.4129 56.1139 49.4153 58.3331 49.9864C60.2552 47.2098 61.7232 44.145 62.6821 40.9071C61.8017 40.2382 60.7269 39.8749 59.6212 39.8726C58.945 39.8717 58.2752 40.0041 57.6502 40.2623C57.0251 40.5204 56.4572 40.8993 55.9787 41.3772C55.5003 41.8551 55.1208 42.4227 54.8619 43.0474C54.603 43.6722 54.4699 44.3418 54.4701 45.018ZM17.3721 53.3803C16.254 53.3823 15.1673 53.7502 14.2778 54.4277C13.3884 55.1053 12.7452 56.0553 12.4463 57.1327C15.0915 59.1845 18.0424 60.8084 21.1912 61.9452C22.0445 61.0122 22.5189 59.7944 22.5218 58.53C22.522 57.8537 22.3889 57.1839 22.1302 56.5591C21.8714 55.9342 21.4921 55.3664 21.0139 54.8882C20.5357 54.41 19.9679 54.0306 19.343 53.7719C18.7181 53.5132 18.0484 53.3801 17.3721 53.3803ZM31.6493 53.3803C30.2831 53.3803 28.9729 53.923 28.0069 54.889C27.0409 55.855 26.4982 57.1652 26.4982 58.5314C26.4982 59.8976 27.0409 61.2078 28.0069 62.1738C28.9729 63.1398 30.2831 63.6825 31.6493 63.6825C33.0154 63.6825 34.3256 63.1398 35.2917 62.1738C36.2577 61.2078 36.8004 59.8976 36.8004 58.5314C36.8004 57.1652 36.2577 55.855 35.2917 54.889C34.3256 53.923 33.0154 53.3803 31.6493 53.3803ZM46.0356 53.3803C45.359 53.3803 44.689 53.5136 44.064 53.7725C43.4389 54.0315 42.871 54.411 42.3927 54.8895C41.9143 55.368 41.5349 55.936 41.2761 56.5611C41.0174 57.1863 40.8843 57.8563 40.8844 58.5328C40.8859 59.8674 41.4075 61.149 42.3384 62.1053C45.4627 61.038 48.4023 59.4919 51.0521 57.5224C50.583 55.1644 48.5311 53.3803 46.0356 53.3803Z" fill="#883F27"/>
</g>
<defs>
<clipPath id="clip0_1053_397">
<rect width="64" height="64" fill="white"/>
</clipPath>
</defs>
</svg>
