<svg width="44" height="59" viewBox="0 0 44 59" fill="none" xmlns="http://www.w3.org/2000/svg">
<circle cx="2" cy="17" r="2" fill="#883F27"/>
<circle cx="2" cy="12" r="2" fill="#883F27"/>
<circle cx="7" cy="17" r="2" fill="#883F27"/>
<circle cx="7" cy="12" r="2" fill="#883F27"/>
<circle cx="7" cy="7" r="2" fill="#883F27"/>
<circle cx="7" cy="52" r="2" fill="#883F27"/>
<circle cx="17" cy="27" r="2" fill="#883F27"/>
<circle cx="17" cy="32" r="2" fill="#883F27"/>
<circle cx="12" cy="2" r="2" fill="#883F27"/>
<circle cx="17" cy="7" r="2" fill="#883F27"/>
<circle cx="17" cy="52" r="2" fill="#883F27"/>
<circle cx="17" cy="57" r="2" fill="#883F27"/>
<circle cx="27" cy="27" r="2" fill="#883F27"/>
<circle cx="27" cy="32" r="2" fill="#883F27"/>
<circle cx="22" cy="2" r="2" fill="#883F27"/>
<circle cx="27" cy="7" r="2" fill="#883F27"/>
<circle cx="27" cy="52" r="2" fill="#883F27"/>
<circle cx="27" cy="57" r="2" fill="#883F27"/>
<circle cx="37" cy="27" r="2" fill="#883F27"/>
<circle cx="32" cy="2" r="2" fill="#883F27"/>
<circle cx="12" cy="12" r="2" fill="#883F27"/>
<circle cx="12" cy="7" r="2" fill="#883F27"/>
<circle cx="12" cy="52" r="2" fill="#883F27"/>
<circle cx="12" cy="57" r="2" fill="#883F27"/>
<circle cx="22" cy="27" r="2" fill="#883F27"/>
<circle cx="22" cy="32" r="2" fill="#883F27"/>
<circle cx="17" cy="2" r="2" fill="#883F27"/>
<circle cx="22" cy="7" r="2" fill="#883F27"/>
<circle cx="22" cy="52" r="2" fill="#883F27"/>
<circle cx="22" cy="57" r="2" fill="#883F27"/>
<circle cx="32" cy="27" r="2" fill="#883F27"/>
<circle cx="32" cy="32" r="2" fill="#883F27"/>
<circle cx="27" cy="2" r="2" fill="#883F27"/>
<circle cx="32" cy="7" r="2" fill="#883F27"/>
<circle cx="32" cy="52" r="2" fill="#883F27"/>
<circle cx="32" cy="57" r="2" fill="#883F27"/>
<circle cx="37" cy="7" r="2" fill="#883F27"/>
<circle cx="37" cy="52" r="2" fill="#883F27"/>
<circle cx="32" cy="12" r="2" fill="#883F27"/>
<circle cx="32" cy="22" r="2" fill="#883F27"/>
<circle cx="32" cy="37" r="2" fill="#883F27"/>
<circle cx="2" cy="47" r="2" fill="#883F27"/>
<circle cx="2" cy="42" r="2" fill="#883F27"/>
<circle cx="32" cy="47" r="2" fill="#883F27"/>
<circle cx="37" cy="42" r="2" fill="#883F27"/>
<circle cx="37" cy="12" r="2" fill="#883F27"/>
<circle cx="37" cy="22" r="2" fill="#883F27"/>
<circle cx="37" cy="37" r="2" fill="#883F27"/>
<circle cx="7" cy="47" r="2" fill="#883F27"/>
<circle cx="7" cy="42" r="2" fill="#883F27"/>
<circle cx="37" cy="47" r="2" fill="#883F27"/>
<circle cx="42" cy="42" r="2" fill="#883F27"/>
<circle cx="37" cy="17" r="2" fill="#883F27"/>
<circle cx="42" cy="12" r="2" fill="#883F27"/>
<circle cx="42" cy="22" r="2" fill="#883F27"/>
<circle cx="42" cy="37" r="2" fill="#883F27"/>
<circle cx="12" cy="47" r="2" fill="#883F27"/>
<circle cx="42" cy="47" r="2" fill="#883F27"/>
<circle cx="42" cy="17" r="2" fill="#883F27"/>
</svg>
