<svg width="162" height="86" viewBox="0 0 162 86" fill="none" xmlns="http://www.w3.org/2000/svg">
<path d="M65.0139 46.6217C63.0407 46.9104 61.1673 47.6054 59.3949 48.5459C58.8283 49.1408 58.3239 49.8025 57.9062 50.5506C60.4037 48.4517 63.776 47.523 66.9438 48.0619C68.0996 47.63 69.28 47.2864 70.4736 46.9948C68.7068 46.4872 66.8193 46.3577 65.0139 46.6217Z" fill="#C76A63"/>
<path d="M24.4651 61.3862C23.2989 60.6067 22.0101 60.0255 20.6657 59.6721C21.8451 56.5649 25.0648 54.4366 28.2674 54.6486C24.451 52.8697 19.8248 53.1083 16.1969 55.271C15.3956 52.6273 16.4317 49.6438 18.2899 47.6578C20.1481 45.6717 22.704 44.5506 25.2797 43.8507C26.0943 43.6298 27.0031 43.3853 27.4538 42.6441C27.7828 42.1032 27.7828 41.4209 27.9525 40.8044C28.6841 38.137 32.0008 37.599 34.2607 36.1304C36.7185 34.5331 38.0959 31.5575 40.5057 29.8837C42.7278 28.3404 45.7372 28.1176 48.1469 29.3182C50.5567 30.5189 52.2782 33.0988 52.5177 35.8692C58.429 34.3702 64.5429 36.7361 70.2015 39.0618C67.1865 39.9316 64.294 41.2619 61.6457 42.9975C64.2441 41.847 67.3562 42.0472 69.7989 43.5218C66.0712 44.5329 62.0332 45.7856 59.4066 48.5433C61.1791 47.6028 63.0524 46.9077 65.0256 46.6191C66.8311 46.355 68.7185 46.4846 70.4853 46.9912C72.7932 46.4267 75.154 46.0654 77.5034 45.713C78.729 45.5284 79.9556 45.3448 81.1812 45.1603C86.1723 44.4102 91.2426 43.6602 96.2365 44.3827C96.5957 44.4348 96.9681 44.4937 97.316 44.3886C98.189 44.1255 98.5096 42.9681 98.3549 42.0354C98.0438 40.1594 96.2704 38.673 94.4443 38.7594C94.0351 35.1752 89.3014 33.0802 86.539 35.2616C84.9825 32.8956 82.1739 31.692 79.4285 31.4741C76.6832 31.2561 73.9481 31.8903 71.2621 32.5216C69.9715 30.406 71.0453 27.4343 72.9535 25.9067C74.8617 24.3792 77.345 23.9295 79.7199 23.527C75.944 21.6519 71.2263 22.0171 67.7587 24.4548C67.935 22.0868 69.4624 20.0095 71.3385 18.6587C73.2146 17.3078 75.4236 16.5676 77.5958 15.846C75.0832 13.4261 71.2527 12.6054 68.0265 13.7962C69.8555 10.6233 73.2995 8.52926 76.8529 8.42913C78.8968 8.37219 81.3443 8.76585 82.6217 7.10478C83.0884 6.49709 83.2874 5.71957 83.6126 5.01862C84.7628 2.5437 87.2904 1.32145 89.901 0.511531C89.0713 0.254319 88.2153 0.0903701 87.3677 0.0304851C83.5419 -0.239489 79.7283 1.30182 76.8566 3.93382C72.3199 3.14942 67.4806 2.90399 63.4172 5.09814C59.1756 7.3885 56.3916 13.1973 58.7146 17.5444C46.4678 17.0585 34.2135 24.1161 28.1005 35.1771C27.5961 36.0892 27.1342 37.1229 26.9211 38.1557C20.6365 39.587 14.6979 42.6706 9.9736 47.2229C6.70402 50.3732 3.93601 55.6843 6.62012 59.3854C7.7854 60.9915 9.70113 61.7906 11.5688 62.311C16.1055 63.5744 20.8119 63.6147 25.5192 63.2259C25.5267 63.2004 25.5418 63.1778 25.5484 63.1513C25.7068 62.4229 25.0676 61.7887 24.4651 61.3862Z" fill="#C76A63"/>
<path d="M161.978 63.1201C161.704 60.1887 158.905 58.3077 156.315 57.1247C153.167 55.6875 149.864 54.6302 146.494 53.9351C146.877 52.0728 146.13 50.017 144.891 48.5621C143.469 46.8903 141.508 45.8418 139.595 44.8316C136.047 42.9575 132.472 41.0726 128.654 39.9082C127.31 39.4989 125.897 39.2132 124.467 39.0551C124.337 38.8941 124.206 38.7341 124.072 38.58C121.115 35.1636 117.251 32.7417 113.052 31.3702C113.367 30.2481 113.376 29.0681 112.944 27.9666C112.268 26.2397 110.696 25.045 109.925 23.3603C109.288 21.9702 109.252 20.371 108.844 18.8896C107.6 14.3736 103.227 11.7073 99.1439 9.70947C98.1577 9.22745 97.0754 8.77291 95.977 8.44796C96.1062 7.64295 96.0864 6.81928 95.8611 6.03783C95.055 3.2468 92.6179 1.35796 89.8838 0.511719C87.2732 1.32164 84.7456 2.54388 83.5954 5.01881C83.2701 5.71976 83.0721 6.49728 82.6045 7.10497C81.3261 8.76604 78.8786 8.37237 76.8356 8.42931C73.2831 8.52945 69.8391 10.6235 68.0091 13.7964C71.2354 12.6056 75.0659 13.4263 77.5785 15.8462C75.4053 16.5678 73.1964 17.308 71.3212 18.6589C69.446 20.0097 67.9168 22.087 67.7414 24.455C71.209 22.0173 75.9258 21.6521 79.7026 23.5272C77.3268 23.9297 74.8444 24.3803 72.9362 25.9069C71.028 27.4345 69.9541 30.4061 71.2448 32.5218C73.9308 31.8905 76.6658 31.2563 79.4113 31.4743C82.1567 31.6922 84.9652 32.8958 86.5218 35.2617C89.2842 33.0813 94.0179 35.1754 94.4271 38.7596C96.2533 38.6742 98.0276 40.1596 98.3378 42.0356C98.4924 42.9683 98.1719 44.1257 97.2988 44.3888C96.95 44.4939 96.5785 44.435 96.2193 44.3829C91.2244 43.6594 86.1541 44.4104 81.1639 45.1605C79.9383 45.345 78.7117 45.5286 77.4861 45.7132C75.1367 46.0666 72.7759 46.4269 70.4679 46.9914C72.9814 47.712 75.2488 49.2012 76.6696 51.4612C72.4054 51.2628 67.5019 51.3375 64.732 54.7195C67.006 54.9139 69.2574 54.2591 71.5145 53.9135C76.6291 53.1301 81.8314 53.9341 86.9442 54.7372C88.7647 55.0228 89.8489 61.998 88.7807 61.8095C83.7773 60.9289 78.6014 61.1292 73.6753 62.3936C71.8284 62.8678 70.0031 63.4912 68.1081 63.6581C65.8068 63.8603 63.5007 63.3802 61.1918 63.3881C56.1507 63.4058 51.1681 65.8935 47.9975 69.9745C51.3557 67.9678 55.6821 67.8402 59.1441 69.6456C55.6171 70.2022 52.0486 70.7716 48.7555 72.2001C46.308 73.2613 44.0255 74.7928 41.4422 75.4181C39.5029 75.8874 37.4882 75.8226 35.4979 75.8805C30.7925 76.018 26.1058 76.8603 21.6295 78.3751C19.6543 79.0436 17.6028 79.8536 15.5588 79.4697C14.65 79.2989 13.7788 78.8954 12.8568 78.8679C9.92754 78.7805 8.29086 82.1645 7.41406 85.1519C19.0924 87.9577 31.6485 83.0049 43.8548 81.8199C54.1822 80.8166 64.5472 82.568 74.9009 83.213C85.2547 83.859 96.11 83.2739 105.196 78.0649C106.024 77.5897 106.909 76.9153 107.197 76.0376C123.973 77.896 140.936 77.9107 155.989 70.5615C158.995 69.0949 162.301 66.565 161.978 63.1201Z" fill="#FF9A70"/>
<path d="M41.939 62.093C42.5311 61.5108 42.8083 60.6734 43.1844 59.9214C44.0556 58.1818 45.565 56.8005 47.3336 56.1251C48.4499 55.6981 49.6585 55.5429 50.7286 55.004C51.7459 54.4915 52.5783 53.662 53.4231 52.8805C55.236 51.2037 57.2404 49.688 59.3975 48.5433C62.0241 45.7856 66.062 44.532 69.7898 43.5218C67.348 42.0472 64.2349 41.8469 61.6366 42.9975C64.2849 41.2618 67.1774 39.9316 70.1924 39.0618C64.5328 36.7361 58.4198 34.3711 52.5086 35.8692C52.2691 33.0988 50.5476 30.5189 48.1378 29.3182C45.7281 28.1176 42.7187 28.3404 40.4966 29.8837C38.0859 31.5585 36.7094 34.5331 34.2515 36.1304C31.9917 37.599 28.675 38.137 27.9434 40.8044C27.7746 41.4209 27.7737 42.1032 27.4446 42.6441C26.994 43.3853 26.0861 43.6288 25.2706 43.8506C22.694 44.5506 20.139 45.6717 18.2808 47.6578C16.4226 49.6438 15.3864 52.6272 16.1878 55.271C19.8166 53.1083 24.4428 52.8697 28.2583 54.6486C25.0566 54.4365 21.836 56.5649 20.6566 59.6721C22.001 60.0245 23.2898 60.6057 24.456 61.3862C25.0585 61.7887 25.6986 62.4229 25.5402 63.1503C25.5346 63.1768 25.5195 63.1994 25.511 63.2249C28.0537 63.0148 30.5973 62.682 33.1127 62.3443C33.1306 62.3424 33.1485 62.3394 33.1673 62.3374C33.1994 63.1081 33.5331 63.8414 34.194 64.1654C33.321 64.3804 32.4555 64.6268 31.5854 64.8526C34.2044 64.2872 36.8235 63.7217 39.4425 63.1552C40.3363 62.9628 41.2772 62.7439 41.939 62.093Z" fill="#FF9A70"/>
<path d="M92.14 7.53184C92.2749 7.49159 92.3465 7.36691 92.404 7.29328C92.4747 7.21376 92.4738 7.07042 92.4728 6.96538C92.4992 6.68853 92.4474 6.49121 92.3295 6.37046C92.1202 6.08968 91.6423 5.85113 91.0841 5.6862C90.7928 5.59882 90.4987 5.59588 90.2281 5.5625C89.9405 5.52716 89.652 5.47905 89.3786 5.54679C89.1627 5.58901 88.8714 5.6646 88.8007 5.93359C88.7489 6.12994 88.6451 6.23989 88.5395 6.38322C88.4368 6.52361 88.3642 6.70719 88.4038 6.89372C88.4377 7.0557 88.4754 7.23732 88.5509 7.42974C88.6517 7.67517 88.8808 7.82537 89.0835 7.98441C89.2683 8.10713 89.4503 8.2426 89.6511 8.33881C90.0273 8.55185 90.4553 8.6402 90.8663 8.72266C91.1652 8.79727 91.4848 8.68241 91.7676 8.8336C91.8478 8.87876 91.9477 8.77961 92.0363 8.74427C92.0722 8.73052 92.1127 8.68733 92.141 8.72856C92.371 9.05155 92.6378 8.86698 92.8839 8.84145C92.9819 8.83655 93.0762 8.75506 93.1733 8.75408C93.6372 8.77077 94.1142 8.77666 94.5866 8.71284C95.0334 8.65001 95.4662 8.51847 95.9159 8.42913C96.0149 8.40459 96.1243 8.40557 96.2251 8.38888C96.2968 8.38005 96.3449 8.38004 96.3439 8.4203C96.3439 8.46153 96.31 8.51258 96.2477 8.58032C96.0187 8.80906 95.766 8.99656 95.4832 9.09179C95.2644 9.15266 95.0721 9.34508 94.8562 9.45699C94.5498 9.63174 94.2302 9.80943 93.8889 9.87815C93.4778 9.96356 93.0489 9.91546 92.6322 9.8487C92.5737 9.83987 92.5134 9.81827 92.4559 9.84183C92.224 9.93705 91.9996 9.779 91.7922 9.61505C91.7865 9.61113 91.7818 9.59935 91.7761 9.60229C91.5367 9.71028 91.3519 9.38533 91.136 9.3598C90.904 9.29207 90.69 9.1556 90.4779 9.04074C90.2997 8.95631 90.1328 8.84636 89.949 8.79531C89.62 8.6991 89.3617 8.46251 89.0694 8.29856C88.795 8.14934 88.5198 7.97754 88.2718 7.738C88.154 7.6251 88.0823 7.46999 88.0069 7.3188C87.8061 6.95065 87.7683 6.45391 87.9249 6.05336C88.0116 5.81971 88.1502 5.62042 88.2954 5.4339C88.4151 5.27976 88.5169 5.08146 88.6913 4.97347C89.159 4.68778 89.6784 4.67208 90.1413 4.72018C90.6288 4.77319 91.0832 4.90278 91.5187 5.07753C91.7573 5.17669 91.9751 5.32394 92.1947 5.44568C92.4842 5.60472 92.7849 5.80695 92.948 6.13386C93.2044 6.67774 92.9565 7.45723 92.3757 7.6143C92.2079 7.63884 92.158 7.57994 92.14 7.53184Z" fill="#FFB885"/>
<path d="M81.9453 14.8172C81.9727 14.7033 81.9651 14.5659 82.0028 14.4461C82.0471 14.3283 82.049 14.1692 82.0811 14.0357C82.2008 13.7275 82.3837 13.4663 82.5591 13.1973C82.8806 12.7889 83.2539 12.4277 83.6612 12.1145C83.8648 11.9437 84.0439 11.7414 84.2664 11.5952C84.4993 11.4342 84.7708 11.334 85.0207 11.2064C85.2385 11.0925 85.493 11.0454 85.6401 10.8216C85.873 10.475 86.3415 10.5663 86.6658 10.4102C86.8129 10.3425 86.976 10.3101 87.1476 10.2993C87.3616 10.2757 87.5379 10.1599 87.7284 10.0784C87.8943 10.0156 88.0593 9.95274 88.2205 9.89089C88.5307 9.75345 88.8088 9.63073 89.1576 9.4766C89.3858 9.39119 89.5922 9.18797 89.8553 9.23706C89.9298 9.2567 89.9778 9.133 90.0391 9.07213C90.0636 9.04759 90.0853 8.99458 90.1183 9.02698C90.3757 9.30186 90.5378 9.07213 90.7387 9.02501C90.8169 9.00832 90.8848 8.91604 90.9649 8.91211C91.3496 8.92389 91.7314 8.94647 92.1076 8.98475C92.464 9.00537 92.8194 8.99261 93.1701 9.08588C93.2484 9.10257 93.3266 9.14183 93.402 9.16146C93.4548 9.17815 93.4878 9.19779 93.4746 9.23412C93.4614 9.2724 93.4218 9.30087 93.3605 9.33327C93.1362 9.44322 92.9222 9.5679 92.7091 9.55612C92.545 9.54532 92.381 9.67883 92.2207 9.75835C91.9907 9.87518 91.7672 9.98317 91.5419 10.0519C91.2666 10.0971 90.9838 10.0666 90.6944 10.047C90.6538 10.0431 90.6104 10.0332 90.5765 10.0647C90.4398 10.1766 90.2692 10.0745 90.0891 9.97139C90.0844 9.96845 90.0749 9.96255 90.0749 9.96255C89.9477 10.1108 89.7403 9.89187 89.5856 9.93408C89.4169 9.96059 89.2312 9.9331 89.0549 9.94685C88.9115 9.96157 88.7617 9.96746 88.6353 10.0332C88.4157 10.1609 88.1592 10.1736 87.9367 10.2875C87.7331 10.3965 87.5445 10.5408 87.3522 10.6704C87.2626 10.7322 87.1533 10.7479 87.0618 10.8068C86.8261 10.9462 86.6036 11.0778 86.3783 11.2103C86.2472 11.2889 86.1105 11.3586 85.9861 11.4499C85.8833 11.5274 85.8126 11.659 85.708 11.7297C85.4289 11.9093 85.1065 12.0271 84.8218 12.2078C84.5144 12.3815 84.225 12.5828 83.9365 12.7909C83.7743 12.8989 83.5924 12.9872 83.4594 13.1325C83.2831 13.324 83.1229 13.5301 82.9635 13.7343C82.6816 14.0583 82.4082 14.3882 82.1329 14.721C82.05 14.8162 82.0019 14.8309 81.9453 14.8172Z" fill="#FFB885"/>
<path d="M35.5625 41.0705C35.6803 40.9625 35.7784 40.8123 35.9189 40.7171C36.0641 40.6238 36.1989 40.4824 36.3469 40.3725C36.7325 40.132 37.1549 39.9788 37.5848 39.862C38.29 39.6745 39.0244 39.6195 39.7494 39.6519C40.1237 39.6696 40.5027 39.6401 40.876 39.702C41.272 39.7697 41.6557 39.9091 42.0347 40.0309C42.3685 40.1359 42.6739 40.3322 43.0322 40.3224C43.5639 40.2773 44.0711 40.9419 44.2625 40.883C44.3342 40.8899 44.4954 40.7436 44.6802 40.5747C44.9055 40.3695 45.0526 40.1015 45.2534 39.8767C45.4118 39.6755 45.5947 39.4978 45.7606 39.3034C46.1038 38.9539 46.4243 38.573 46.793 38.2431C47.0635 38.0193 47.2672 37.6728 47.6254 37.5765C47.7282 37.5569 47.764 37.4087 47.8319 37.3164C47.8592 37.2791 47.8762 37.2143 47.9262 37.228C48.3278 37.3645 48.4881 37.0435 48.7539 36.9119C48.8567 36.8609 48.9312 36.7391 49.0396 36.6989C49.5619 36.53 50.0974 36.4201 50.6282 36.3317C51.1269 36.2326 51.6304 36.1531 52.1376 36.1678C52.2507 36.1717 52.3667 36.2021 52.4761 36.2139C52.5534 36.2247 52.6024 36.2385 52.5882 36.2767C52.5741 36.317 52.5232 36.3563 52.4402 36.4054C52.1385 36.5526 51.8548 36.6881 51.5578 36.7411C51.3296 36.7814 51.1213 36.9541 50.9139 37.069C50.6131 37.2428 50.335 37.4489 50.0371 37.5795C49.6788 37.7385 49.2942 37.8259 48.9076 37.9408C48.8539 37.9575 48.7954 37.9692 48.7587 38.0183C48.6088 38.2049 48.3599 38.1833 48.1053 38.1833C48.0987 38.1833 48.0883 38.1774 48.0855 38.1823C47.9573 38.3973 47.6396 38.2991 47.452 38.4326C47.2493 38.5661 47.0041 38.6466 46.7892 38.7772C46.6185 38.8891 46.4337 38.9932 46.3055 39.1542C46.0736 39.431 45.7776 39.6342 45.5588 39.9219C45.3675 40.1958 45.193 40.4805 45.0403 40.776C44.9639 40.9085 44.8725 41.0283 44.7386 41.1863C44.5897 41.4013 44.2116 41.5054 43.9863 41.4308C43.7449 41.3768 43.5856 41.2875 43.4112 41.2286C43.2123 41.1451 43.0124 41.0646 42.804 41.0106C42.6315 40.9596 42.4345 41.0008 42.2666 40.9448C41.8216 40.8133 41.3757 40.6493 40.9128 40.5531C40.432 40.4451 39.9389 40.3911 39.443 40.3597C39.1724 40.3362 38.8962 40.3028 38.6247 40.3273C38.2645 40.3715 37.9147 40.4736 37.564 40.5521C36.9814 40.6876 36.4072 40.8555 35.8416 41.0597C35.6775 41.1157 35.6125 41.1078 35.5625 41.0705Z" fill="#FFB885"/>
<path d="M44.8665 55.1051C44.7977 54.9048 44.6987 54.7222 44.6336 54.519C44.5809 54.307 44.446 54.1087 44.3565 53.9123C44.1387 53.4097 43.9275 52.9257 43.6682 52.4653C43.2468 51.7162 42.7547 51.0064 42.1447 50.4076C41.8279 50.0964 41.4508 49.8725 41.0888 49.6261C40.7032 49.363 40.3072 49.0891 39.8679 48.8997C39.4898 48.7318 39.0948 48.5197 38.6677 48.5668C38.0276 48.6365 37.4213 48.289 36.7652 48.3352C36.4786 48.3499 36.1901 48.3391 35.8912 48.3342C35.5122 48.3293 35.1587 48.5099 34.7382 48.5246C34.3799 48.5472 34.0094 48.3636 33.7784 48.0946C33.5465 47.8414 33.3796 47.5498 33.2014 47.2837C33.0176 47.0246 32.8309 46.7742 32.6235 46.5416C32.3416 46.1832 31.9098 46.0075 31.6553 45.6266C31.5799 45.5215 31.412 45.5264 31.2885 45.4842C31.2386 45.4675 31.1688 45.4715 31.1547 45.4126C31.0283 44.9463 30.6041 44.9139 30.2826 44.7636C30.1515 44.7057 29.9922 44.7214 29.8687 44.6547C29.2747 44.3543 28.6412 44.0902 27.9699 43.9793C27.3345 43.8762 26.6868 43.885 26.0382 43.9478C25.958 43.9537 25.7902 43.9665 25.5979 43.9812C25.4951 43.9891 25.4282 43.9881 25.4386 43.9478C25.4489 43.9056 25.5093 43.8536 25.6139 43.7849C25.9957 43.5483 26.4209 43.3784 26.8593 43.3529C27.1921 43.3264 27.5381 43.2135 27.8907 43.1733C28.3951 43.1242 28.9203 43.1085 29.4209 43.2302C30.0186 43.3902 30.5786 43.6867 31.0717 44.0656C31.1415 44.1187 31.2122 44.1707 31.2942 44.1982C31.6289 44.2934 31.8325 44.6095 32.0013 44.9256C32.006 44.9335 32.0069 44.9472 32.0145 44.9502C32.3445 45.069 32.4208 45.4911 32.6367 45.7287C32.8724 45.9918 33.0214 46.3324 33.1996 46.6319C33.3325 46.8891 33.4598 47.1541 33.6116 47.376C33.8765 47.7559 34.1027 48.1987 34.5327 48.2399C34.9145 48.2723 35.3048 48.0554 35.7441 47.9356C35.9459 47.8747 36.1571 47.862 36.3645 47.8325C36.8755 47.752 37.3959 47.7167 37.9135 47.75C38.2133 47.7697 38.5103 47.8178 38.8082 47.8551C39.0561 47.8895 39.3211 47.861 39.5662 47.9346C40.2054 48.1221 40.7984 48.4481 41.348 48.8162C41.9203 49.2001 42.452 49.6477 42.8914 50.1759C43.1365 50.4616 43.3251 50.7904 43.5447 51.0869C43.8313 51.4845 44.1189 51.891 44.3291 52.3445C44.6827 53.0916 44.8882 53.9153 44.9353 54.7429C44.9419 54.9814 44.9146 55.0609 44.8665 55.1051Z" fill="#FFB885"/>
<path d="M36.6195 59.1385C36.53 59.1002 36.4121 59.0963 36.3263 59.056C36.2462 59.006 36.1104 59.0128 36.0152 58.9883C35.8342 58.8999 35.6108 58.791 35.4222 58.6997C35.1196 58.5338 34.8283 58.359 34.5134 58.2078C34.3512 58.1273 34.1664 58.1254 33.9986 58.0645C33.8204 57.9977 33.6403 57.8898 33.4471 57.8426C33.2821 57.7945 33.0992 57.6914 32.9361 57.8191C32.674 58.0076 32.4675 57.7435 32.0602 57.8004C32.015 57.8024 31.9801 57.8043 31.9386 57.8053C31.9132 57.7808 31.8905 57.7484 31.8679 57.717C31.8227 57.6532 31.7821 57.5795 31.7519 57.4971C31.7416 57.4725 31.734 57.4529 31.7274 57.4362C31.685 57.1397 31.5691 57.0278 31.5049 56.8992C31.4371 56.7745 31.3645 56.6528 31.2768 56.5418C31.1184 56.319 30.8968 56.1531 30.6885 55.9901C30.5433 55.8605 30.3076 55.8615 30.2256 55.6583C30.2048 55.5965 30.1002 55.6485 30.0333 55.6544C30.005 55.6573 29.9616 55.6819 29.9663 55.6396C30.0097 55.2892 29.7693 55.3657 29.6326 55.3059C29.5779 55.2784 29.493 55.3157 29.4431 55.2843C29.213 55.1154 28.9783 54.925 28.7096 54.8042C28.455 54.6864 28.1835 54.6432 27.912 54.546C27.8507 54.5274 27.7894 54.4861 27.7272 54.4645C27.6838 54.4459 27.6565 54.4262 27.6659 54.3899C27.6753 54.3526 27.7074 54.3241 27.7602 54.2937C27.9497 54.1847 28.1581 54.0767 28.3513 54.115C28.4956 54.1484 28.6672 54.0689 28.8378 54.0326C29.0801 53.9864 29.3309 53.9727 29.56 54.0296C29.8287 54.119 30.054 54.3133 30.2539 54.5215C30.2831 54.5499 30.3076 54.5853 30.351 54.5863C30.5207 54.598 30.5848 54.7865 30.6121 54.9986C30.6131 55.0035 30.614 55.0153 30.614 55.0153C30.7969 55.0153 30.7573 55.3108 30.861 55.404C30.9723 55.513 31.0204 55.6907 31.0986 55.8262C31.1674 55.9332 31.2155 56.0588 31.3126 56.1344C31.4785 56.2778 31.5455 56.4987 31.6756 56.6685C31.7388 56.7461 31.8 56.8226 31.8594 56.8953C31.9 56.9434 31.8773 57.0268 31.916 57.0602L31.9216 57.0661C31.9433 57.0887 31.9565 57.1603 31.9801 57.2124C32.0687 57.2654 32.2545 57.177 32.5005 57.1407C32.6335 57.1181 32.7683 57.123 32.9003 57.0926C33.0106 57.0779 33.1218 56.9925 33.2359 56.9954C33.5329 57.0219 33.8214 57.1181 34.0938 57.2271C34.3795 57.3302 34.6529 57.4598 34.9084 57.6119C35.0451 57.7042 35.1658 57.8201 35.3025 57.8986C35.4873 57.9938 35.6881 58.0714 35.8597 58.198C36.1463 58.4032 36.3999 58.6614 36.596 58.9598C36.6525 59.0462 36.6497 59.0914 36.6195 59.1385Z" fill="#FFB885"/>
<path d="M55.0859 46.9801C55.1039 46.9026 55.0925 46.7936 55.117 46.7151C55.1472 46.6414 55.1416 46.5197 55.1614 46.4294C55.2434 46.2409 55.3556 46.0887 55.4725 45.9405C55.6789 45.7176 55.9231 45.5429 56.1786 45.3868C56.3097 45.3043 56.4068 45.1737 56.5454 45.1001C56.6915 45.0216 56.8697 44.9921 57.0224 44.9273C57.1582 44.8724 57.3326 44.8802 57.3863 44.7015C57.4787 44.4365 57.8228 44.5818 58.0067 44.4728C58.0915 44.4286 58.1981 44.4208 58.3084 44.4198C58.446 44.4139 58.5346 44.3197 58.6421 44.2598C58.7355 44.2058 58.8278 44.1528 58.9136 44.1027C59.0843 43.9947 59.2361 43.8504 59.3963 43.7198C59.5189 43.6423 59.5764 43.4292 59.7555 43.4626C59.8074 43.4754 59.798 43.3585 59.8159 43.2987C59.8225 43.2741 59.8197 43.224 59.8498 43.2515C60.0931 43.4803 60.1148 43.2476 60.2185 43.1828C60.2599 43.1593 60.2694 43.067 60.3156 43.0532C60.5381 42.9992 60.7738 42.9776 60.9934 42.9256C61.2018 42.8755 61.3913 42.7823 61.6138 42.7705C61.6619 42.7656 61.7194 42.7813 61.7684 42.7793C61.8033 42.7813 61.8287 42.7901 61.8363 42.8274C61.8438 42.8657 61.8344 42.902 61.8137 42.9482C61.7345 43.1072 61.6647 43.279 61.544 43.3242C61.4488 43.3546 61.4035 43.5087 61.3413 43.6177C61.2546 43.7797 61.1612 43.923 61.0481 44.0192C60.902 44.1115 60.72 44.1253 60.5333 44.1361C60.5069 44.137 60.4777 44.1331 60.4664 44.1665C60.4202 44.2882 60.2816 44.2126 60.1345 44.1272L60.1232 44.1204C60.0893 44.2666 59.8913 44.0781 59.8074 44.1272C59.7112 44.1655 59.5802 44.137 59.4718 44.1567C59.3841 44.1734 59.2908 44.1822 59.2285 44.245C59.1192 44.3569 58.9532 44.3628 58.8382 44.462C58.7317 44.5533 58.6384 44.6682 58.5412 44.7742C58.496 44.8243 58.4272 44.8331 58.3763 44.8743C58.2509 44.9745 58.1245 45.0726 57.9925 45.16C57.9152 45.2101 57.8323 45.2513 57.7634 45.3151C57.7059 45.3671 57.6852 45.4791 57.6201 45.5183C57.4476 45.6204 57.243 45.6734 57.0554 45.7559C56.8584 45.8394 56.6717 45.9395 56.4775 46.0308C56.371 46.0799 56.2437 46.1025 56.1551 46.1771C56.0372 46.2762 55.9439 46.4058 55.8298 46.5089C55.6375 46.6758 55.4395 46.8348 55.2302 46.9811C55.168 47.0204 55.1312 47.0135 55.0859 46.9801Z" fill="#FFB885"/>
<path d="M12.8571 78.8707C13.7801 78.8982 14.6512 79.3026 15.5591 79.4725C17.6031 79.8553 19.6546 79.0454 21.6297 78.3778C26.107 76.863 30.7926 76.0197 35.4981 75.8833C37.4883 75.8254 39.5039 75.8902 41.4423 75.4209C44.0246 74.7955 46.3071 73.2641 48.7555 72.2028C52.0486 70.7744 55.6171 70.206 59.144 69.6484C55.6821 67.843 51.3557 67.9706 47.9975 69.9772C51.1671 65.8962 56.1507 63.4085 61.1918 63.3909C63.5006 63.383 65.8067 63.8631 68.108 63.6608C70.003 63.4939 71.8292 62.8706 73.6752 62.3964C78.6022 61.1319 83.7781 60.9317 88.7805 61.8123C89.8486 61.9998 91.0168 62.2207 91.9586 61.663C93.5594 60.7157 93.3596 58.0395 92.0359 56.7073C90.7122 55.3751 88.7654 55.0256 86.9439 54.7399C81.8322 53.9369 76.6289 53.1328 71.5143 53.9163C69.2563 54.2618 67.0059 54.9176 64.7319 54.7223C67.5018 51.3402 72.4052 51.2656 76.6695 51.4639C75.2477 49.205 72.9813 47.7147 70.4678 46.9941C69.2743 47.2867 68.0929 47.6293 66.938 48.0613C63.7703 47.5223 60.3989 48.451 57.9005 50.5499C58.3182 49.8019 58.8225 49.1402 59.3892 48.5453C57.2321 49.69 55.2277 51.2057 53.4147 52.8825C52.5691 53.664 51.7375 54.4935 50.7202 55.006C49.6502 55.5449 48.4406 55.7001 47.3253 56.1271C45.5566 56.8025 44.0472 58.1848 43.1761 59.9234C42.7999 60.6754 42.5227 61.5128 41.9307 62.095C41.2679 62.7459 40.327 62.9638 39.4351 63.1572C36.8161 63.7227 34.197 64.2882 31.578 64.8546C23.5096 66.9477 15.5506 69.4972 7.7651 72.5376C5.05177 73.5969 2.16591 74.878 0.685734 77.4727C0.196429 78.3307 -0.114691 79.3419 0.0399256 80.3266C0.343502 82.2596 2.24604 83.419 4.00905 84.1003C5.13568 84.5352 6.27173 84.8808 7.41533 85.1557C8.29212 82.1673 9.92879 78.7833 12.8571 78.8707Z" fill="#C76A63"/>
<path d="M98.2225 70C98.2894 69.6741 98.5063 69.3354 98.8598 69.1763C99.2152 69.0193 99.6357 68.9181 100.069 69.033C100.589 69.1911 101.007 69.5572 101.307 69.9539C101.603 70.3583 101.829 70.7785 101.997 71.2586C102.247 72.0165 102.392 72.9678 101.882 73.8729C101.633 74.3098 101.205 74.6367 100.766 74.7879C100.325 74.941 99.8884 74.9528 99.4858 74.9037C98.6486 74.7918 97.8963 74.4992 97.2298 74.031C96.5359 73.5175 95.9975 72.8254 95.5902 72.0812C95.2244 71.4235 95.0689 70.6892 94.8285 69.9853C94.6446 69.4326 94.6795 68.817 94.8266 68.2653C94.9718 67.7077 95.215 67.1991 95.4705 66.7112C95.7005 66.2753 96.0286 65.8984 96.4067 65.6019C96.8847 65.2288 97.3872 64.8538 97.9802 64.7026C98.4752 64.5642 98.9928 64.5367 99.4971 64.5956C100.469 64.7115 101.405 65.0639 102.254 65.5597C102.851 65.9268 103.522 66.2312 103.979 66.8055C104.099 66.9714 104.325 67.0372 104.498 67.1618C104.567 67.2109 104.666 67.2443 104.689 67.3278C104.867 67.9786 105.37 68.3163 105.71 68.8239C105.839 69.0212 106.027 69.1842 106.131 69.4011C106.635 70.4212 106.904 71.5521 106.989 72.6713C107.074 73.7315 106.986 74.8193 106.621 75.8098C106.54 76.0297 106.426 76.2398 106.317 76.4391C106.24 76.5785 106.185 76.663 106.166 76.6168C106.146 76.5697 106.158 76.4529 106.19 76.2762C106.301 75.6302 106.356 75.0146 106.424 74.4001C106.478 73.9269 106.357 73.436 106.253 72.9766C106.115 72.308 105.855 71.6856 105.619 71.0799C105.334 70.3475 105.012 69.6142 104.596 68.9142C104.537 68.816 104.478 68.7139 104.392 68.6413C104.046 68.3595 103.864 67.9433 103.632 67.5339C103.627 67.5231 103.625 67.5064 103.615 67.5015C103.217 67.2816 103.047 66.7849 102.675 66.511C102.291 66.2056 101.923 65.8581 101.501 65.598C101.158 65.382 100.793 65.1797 100.409 65.0835C99.7366 64.9117 99.0484 64.7429 98.3686 64.8911C97.7483 65.0276 97.1854 65.3633 96.7631 65.8336C96.5604 66.0456 96.3567 66.2636 96.1917 66.5149C95.7958 67.1412 95.5563 67.8716 95.4762 68.6118C95.429 69.0409 95.4375 69.4767 95.5242 69.9018C95.5902 70.2611 95.7807 70.5782 95.9032 70.9091C96.2342 71.7749 96.7706 72.5819 97.4881 73.1896C98.2329 73.8003 99.1832 74.2587 100.151 74.1988C100.666 74.1723 101.221 73.8974 101.441 73.3585C101.73 72.6516 101.547 71.8564 101.281 71.182C101.046 70.6195 100.734 70.0638 100.259 69.7016C99.7988 69.3305 99.1087 69.2706 98.6194 69.6279C98.3498 69.84 98.3064 69.9647 98.2225 70Z" fill="#FFB885"/>
<path d="M82.9186 79.3024C82.7423 79.162 82.5396 79.0609 82.3737 78.9009C82.2031 78.736 81.9975 78.5976 81.7939 78.467C81.5563 78.2814 81.3282 78.092 81.1094 77.8946C80.8785 77.7101 80.6465 77.5245 80.4203 77.3439C79.6585 76.7607 78.8929 76.1835 78.0557 75.7133C77.6315 75.4492 77.1563 75.3 76.7113 75.082C76.2315 74.869 75.7591 74.6069 75.2547 74.438C74.8182 74.2839 74.3798 74.059 73.9056 74.113C73.5455 74.1307 73.2061 74.0482 72.8601 73.9609C72.516 73.8598 72.1662 73.7655 71.8107 73.7636C71.4949 73.7508 71.1791 73.688 70.8576 73.6624C70.4456 73.6192 70.0327 73.685 69.6254 73.7557C69.2775 73.8048 68.9296 73.8568 68.5921 73.9589C67.9227 74.1062 67.3212 74.4056 66.6792 74.6756C66.4444 74.7669 66.1295 74.8974 65.7798 74.7679C65.4479 74.6334 65.2631 74.3899 65.1556 74.172C65.0925 74.0414 64.9209 73.9982 64.7955 73.9197C64.7455 73.8882 64.6701 73.8715 64.6635 73.8077C64.6201 73.2884 64.1968 73.1186 63.9046 72.8398C63.7877 72.7308 63.6236 72.6758 63.5142 72.5609C62.9957 72.0181 62.4602 71.4781 61.838 71.0589C61.2459 70.6662 60.5963 70.3835 59.9213 70.1665C59.7714 70.1135 59.6187 70.0556 59.4659 70.0114C59.3594 69.978 59.2925 69.9505 59.3179 69.9172C59.3443 69.8818 59.4254 69.8573 59.5574 69.8357C60.0354 69.7699 60.5284 69.8053 60.9763 69.9761C61.3176 70.1047 61.7041 70.1577 62.0661 70.2843C62.5771 70.4748 63.0938 70.6927 63.534 71.0177C64.0601 71.4143 64.4891 71.9189 64.8794 72.4363C64.936 72.5079 64.985 72.5884 65.0623 72.6356C65.3696 72.825 65.495 73.1853 65.6148 73.5368C65.6176 73.5456 65.6157 73.5603 65.6233 73.5643C65.9504 73.7626 65.9155 74.1749 66.0871 74.2122C66.2474 74.2907 66.616 74.2132 66.9752 74.1209C67.2675 74.0483 67.5635 73.9835 67.8331 73.8607C68.33 73.7027 68.8381 73.6084 69.3454 73.523C69.8111 73.4111 70.2797 73.3071 70.7577 73.2462C70.9811 73.2118 71.2064 73.2099 71.4308 73.2158C71.9861 73.1971 72.5433 73.1951 73.0958 73.2648C73.4182 73.2855 73.7331 73.3552 74.0517 73.4003C74.3167 73.4415 74.6033 73.3885 74.8625 73.473C75.5498 73.6497 76.2013 73.9403 76.8443 74.2289C77.1733 74.3968 77.4995 74.5637 77.8248 74.7296L78.7628 75.3029C79.0919 75.5326 79.3907 75.8075 79.7264 76.0186C80.1393 76.3455 80.6107 76.5978 80.9935 76.9708C81.3263 77.2595 81.6478 77.5618 81.9334 77.9015C82.2417 78.2196 82.5019 78.5799 82.7603 78.9412C82.9073 79.1483 82.9318 79.2347 82.9186 79.3024Z" fill="#FFB885"/>
<path d="M81.3874 70.2067C81.3101 70.2332 81.2272 70.3039 81.1527 70.3275C81.0782 70.3402 80.9905 70.4276 80.9179 70.4678C80.7407 70.5228 80.5785 70.5592 80.4183 70.5915C80.1562 70.6308 79.8931 70.6426 79.615 70.6701C79.4708 70.6838 79.3416 70.7653 79.1964 70.7879C79.0409 70.8075 78.8655 70.7849 78.7024 70.8124C78.56 70.8301 78.3837 70.7908 78.3008 70.9597C78.1716 71.2041 77.8463 71.0176 77.6427 71.1217C77.5513 71.1609 77.44 71.1658 77.325 71.1658C77.1817 71.1727 77.0818 71.268 76.9677 71.3318C76.8696 71.3848 76.7744 71.4437 76.6811 71.5065C76.501 71.6263 76.3501 71.7932 76.1936 71.9453C76.0701 72.0406 76.0371 72.2644 75.8505 72.2634C75.7958 72.2605 75.8194 72.3743 75.8099 72.4372C75.8062 72.4627 75.8165 72.5118 75.7826 72.4902C75.5016 72.3135 75.513 72.553 75.4215 72.6414C75.3838 72.6748 75.3913 72.768 75.348 72.7926C75.1377 72.9055 74.9039 72.9928 74.7003 73.1224C74.5051 73.2422 74.3458 73.4042 74.1327 73.5102C74.0865 73.5357 74.0252 73.5455 73.9781 73.5681C73.9423 73.5819 73.914 73.5838 73.8951 73.5524C73.8744 73.52 73.8716 73.4807 73.8782 73.4277C73.9036 73.2412 73.9234 73.0429 74.0347 72.9447C74.1223 72.8741 74.1308 72.7062 74.1695 72.5717C74.2213 72.3753 74.2911 72.1937 74.3967 72.0553C74.5391 71.9061 74.738 71.8305 74.9397 71.7657C74.968 71.7569 75.0001 71.7519 75.0086 71.7156C75.0444 71.5772 75.2065 71.6145 75.3753 71.6695L75.3885 71.6744C75.4121 71.5173 75.644 71.6655 75.7289 71.5998C75.8288 71.5399 75.974 71.5487 76.0881 71.5134C76.1814 71.4829 76.2804 71.4623 76.3454 71.3897C76.4623 71.263 76.6396 71.2434 76.7659 71.1344C76.8828 71.0333 76.9903 70.9165 77.1025 70.8036C77.1562 70.7516 77.2307 70.7417 77.2901 70.7005C77.4372 70.6004 77.5871 70.5032 77.7464 70.4237C77.8388 70.3775 77.9378 70.3471 78.0255 70.2902C78.099 70.244 78.148 70.1341 78.231 70.1046C78.4478 70.0329 78.6845 70.0192 78.9126 69.9976C79.1493 69.9711 79.384 69.9515 79.6188 69.9534C79.7479 69.9613 79.878 69.9976 80.0006 69.9878C80.1628 69.9681 80.3268 69.9171 80.4937 69.92C80.769 69.92 81.0462 69.974 81.3007 70.082C81.3742 70.1134 81.3903 70.1507 81.3874 70.2067Z" fill="#FFB885"/>
<path d="M117.075 58.2303C116.975 58.0271 116.847 57.8455 116.756 57.6335C116.667 57.4136 116.52 57.2084 116.395 57.0061C116.113 56.479 115.852 55.9586 115.55 55.4629C115.055 54.6549 114.514 53.8764 113.865 53.1941C113.532 52.8348 113.131 52.5589 112.753 52.2605C112.354 51.9375 111.947 51.6067 111.493 51.3514C111.103 51.1197 110.699 50.8596 110.237 50.8399C109.541 50.8095 108.931 50.3717 108.223 50.3177C107.914 50.2863 107.607 50.2323 107.289 50.1773C106.884 50.1252 106.475 50.1979 106.074 50.2588C105.73 50.3088 105.391 50.3834 105.058 50.4826C104.733 50.5729 104.43 50.7005 104.112 50.839C103.948 50.9038 103.754 50.9793 103.522 50.9332C103.285 50.89 103.105 50.6868 103.018 50.5091C102.803 49.9692 102.523 49.6373 102.401 49.1386C102.368 49.0012 102.209 48.9256 102.108 48.8274C102.07 48.7862 101.996 48.7607 102.002 48.6988C102.052 48.1942 101.663 47.9586 101.399 47.6729C101.299 47.5522 101.143 47.4893 101.041 47.3735C100.574 46.8119 100.05 46.2749 99.4317 45.8656C98.8453 45.4807 98.1995 45.2019 97.5329 44.9712C97.4471 44.9388 97.2793 44.876 97.0861 44.8033C96.9823 44.766 96.9164 44.7356 96.9437 44.7032C96.971 44.6688 97.0531 44.6482 97.1841 44.6315C97.6583 44.5775 98.1354 44.6325 98.5813 44.7876C98.9132 44.9251 99.2988 44.9643 99.6599 45.087C100.164 45.2795 100.688 45.4905 101.127 45.8351C101.652 46.2533 102.071 46.8002 102.413 47.3794C102.46 47.4628 102.502 47.5502 102.576 47.6101C102.862 47.8545 102.94 48.2511 102.984 48.632C102.985 48.6419 102.981 48.6556 102.987 48.6615C103.258 48.9275 103.169 49.3723 103.287 49.7011C103.418 50.0771 103.392 50.4433 103.584 50.5454C103.737 50.6495 104.043 50.5533 104.305 50.4315C104.779 50.2038 105.298 50.1576 105.793 50.03C106.254 49.9171 106.723 49.8209 107.199 49.76C107.423 49.7306 107.648 49.7591 107.872 49.7551C108.425 49.7561 108.98 49.8082 109.526 49.9142C109.842 49.978 110.15 50.0713 110.463 50.1508C110.721 50.2264 111.007 50.2264 111.256 50.3402C111.911 50.622 112.513 51.0245 113.068 51.4663C113.647 51.9267 114.182 52.4401 114.644 53.0125C114.897 53.3266 115.108 53.6722 115.339 53.9962C115.653 54.4203 115.969 54.8503 116.215 55.3254C116.627 56.1098 116.929 56.958 117.09 57.8347C117.131 58.088 117.116 58.1764 117.075 58.2303Z" fill="#FFB885"/>
<path d="M142.242 61.8635C141.87 62.1944 141.222 62.0707 140.911 61.5523C140.594 60.9672 140.796 60.2447 141.187 59.8009C141.734 59.2138 142.461 59.0666 143.042 58.9547C143.634 58.8457 144.241 58.7632 144.868 58.7387C145.89 58.7043 146.991 58.8428 147.979 59.4338C148.927 60.0051 149.752 60.9741 149.937 62.2228C150.126 63.5246 149.546 64.7743 148.696 65.5568C147.764 66.404 146.627 66.7437 145.573 67.0068C144.637 67.2375 143.678 67.3082 142.754 67.5231C141.304 67.8393 139.844 67.4711 138.438 67.2434C137.808 67.1236 137.19 66.9459 136.592 66.7073C135.827 66.4148 135.034 66.1733 134.285 65.8208C133.649 65.5234 133.019 65.1798 132.478 64.6948C131.954 64.2373 131.537 63.6129 131.362 62.9032C131.175 62.1944 131.239 61.4404 131.426 60.7483C131.71 59.7666 132.139 58.7573 132.894 58.0751C133.103 57.8875 133.234 57.593 133.422 57.3594C133.497 57.2671 133.56 57.1365 133.664 57.0982C134.474 56.7939 135.027 56.1656 135.749 55.7503C136.029 55.5913 136.284 55.3753 136.581 55.2477C137.991 54.6498 139.488 54.3632 140.969 54.2179C142.376 54.0736 143.788 54.0608 145.186 54.1825C145.498 54.209 145.812 54.2669 146.117 54.3062C146.33 54.3376 146.464 54.3632 146.417 54.3975C146.371 54.4338 146.217 54.4594 145.973 54.4849C145.085 54.5782 144.218 54.6312 143.35 54.6547C142.686 54.6665 142.014 54.8275 141.362 54.9689C140.421 55.1623 139.514 55.4568 138.632 55.7425C137.566 56.0871 136.516 56.4817 135.535 57.0364C135.395 57.111 135.255 57.1915 135.142 57.3034C134.7 57.7452 134.163 58.0201 133.646 58.3794C133.633 58.3882 133.613 58.3931 133.606 58.4059C133.27 58.9439 132.691 59.2629 132.387 59.8304C132.059 60.4214 131.733 61.0487 131.637 61.7408C131.555 62.2994 131.595 62.9041 131.851 63.3999C132.289 64.2776 133.078 64.9373 133.967 65.3643C134.799 65.7462 135.672 66.0437 136.557 66.2587C136.971 66.3608 137.379 66.4845 137.797 66.5709C138.832 66.7672 139.881 66.8644 140.929 66.8752C141.537 66.888 142.146 66.8605 142.749 66.7918C143.254 66.724 143.744 66.5679 144.239 66.4717C145.524 66.2037 146.859 65.9367 147.908 65.1523C148.444 64.7488 148.888 64.1882 149.116 63.5364C149.349 62.8865 149.308 62.1463 149.008 61.5091C148.682 60.817 148.125 60.2113 147.435 59.8657C146.511 59.4082 145.465 59.369 144.465 59.4269C144.046 59.4504 143.63 59.4995 143.213 59.5555C142.797 59.6114 142.379 59.6703 142 59.8392C141.622 60.0002 141.296 60.3075 141.156 60.7071C140.997 61.1037 141.146 61.5926 141.525 61.7909C141.954 62.0049 142.14 61.8527 142.242 61.8635Z" fill="#FFB885"/>
<path d="M100.807 31.5717C100.656 31.4706 100.476 31.4038 100.333 31.2792C100.187 31.1496 99.9942 31.0563 99.8329 30.9415C99.4426 30.6302 99.1004 30.2837 98.7535 29.9499C98.1906 29.3972 97.6466 28.8474 97.0611 28.3576C96.7566 28.1033 96.4059 27.9325 96.0835 27.7194C95.7365 27.5035 95.3943 27.257 95.0144 27.0921C94.6863 26.9468 94.3431 26.7583 93.9716 26.8202C93.4173 26.9134 92.8893 26.5806 92.3171 26.6346C92.0682 26.6494 91.8146 26.6386 91.5544 26.6366C91.2197 26.6307 90.9104 26.777 90.5974 26.8781C90.3334 26.9763 90.0761 27.0911 89.8281 27.2266C89.5839 27.3523 89.3859 27.529 89.0871 27.6605C88.776 27.8068 88.3658 27.6586 88.1518 27.4504C87.8341 27.1353 87.4825 26.9704 87.2769 26.5993C87.2241 26.4942 87.0676 26.4884 86.9592 26.4393C86.9158 26.4196 86.8489 26.4177 86.8442 26.3627C86.8169 25.9082 86.4454 25.8247 86.1899 25.6293C86.09 25.5498 85.9476 25.5282 85.8524 25.4458C85.4102 25.0413 84.9567 24.6329 84.4401 24.3227C83.9489 24.0331 83.4209 23.823 82.8807 23.6345C82.8204 23.6109 82.6799 23.555 82.5187 23.4912C82.4338 23.4588 82.3811 23.4323 82.4037 23.3979C82.4263 23.3625 82.4932 23.338 82.6007 23.3144C82.9901 23.2428 83.3861 23.2595 83.7528 23.3743C84.0272 23.4764 84.3505 23.4745 84.6513 23.551C85.0802 23.6581 85.5177 23.7867 85.8976 24.0134C86.3502 24.2962 86.7245 24.6849 87.0667 25.0855C87.1148 25.1424 87.1591 25.2052 87.2279 25.2347C87.4994 25.3545 87.6088 25.6578 87.7087 25.9533C87.7116 25.9612 87.7097 25.9739 87.7163 25.9769C87.9953 26.0898 87.9963 26.4844 88.1839 26.6857C88.3819 26.9174 88.4799 27.1873 88.6694 27.3091C88.8099 27.4131 89.0173 27.4023 89.2012 27.2649C89.5292 27.0175 89.946 26.8742 90.3221 26.6975C90.6719 26.5237 91.033 26.3637 91.4082 26.238C91.5836 26.1732 91.7693 26.1683 91.9503 26.134C92.3972 26.0525 92.8535 26.0122 93.3089 26.0289C93.5728 26.0407 93.834 26.08 94.097 26.1045C94.3158 26.132 94.5505 26.0888 94.7664 26.1526C95.3311 26.3116 95.8544 26.5983 96.338 26.9125C96.8443 27.2384 97.3176 27.6075 97.7466 28.0198C97.9823 28.2447 98.1821 28.5078 98.4159 28.7277C98.7233 29.0222 99.0532 29.2971 99.3408 29.6151C99.8226 30.1374 100.264 30.698 100.688 31.2693C100.806 31.4353 100.824 31.5089 100.807 31.5717Z" fill="#FFB885"/>
<path d="M101.7 25.116C101.609 25.0934 101.495 25.1071 101.409 25.0816C101.328 25.0463 101.199 25.0728 101.105 25.0649C100.927 25.008 100.702 24.9373 100.516 24.8784C100.204 24.7557 99.8934 24.633 99.6087 24.5211C99.4456 24.4612 99.2683 24.4798 99.1024 24.4317C98.9242 24.3826 98.7442 24.2884 98.5547 24.2481C98.3916 24.2128 98.2143 24.1058 98.0559 24.2393C97.8202 24.4248 97.5355 24.1451 97.2725 24.1941C97.1574 24.2108 97.033 24.1824 96.9038 24.1608C96.7388 24.1323 96.5984 24.2138 96.4494 24.255C96.3231 24.2923 96.1986 24.3365 96.0761 24.3866C95.8404 24.4847 95.6245 24.634 95.4114 24.7783C95.2474 24.8627 95.1578 25.0934 94.9466 25.0777C94.8853 25.0698 94.8863 25.1926 94.8599 25.2564C94.8495 25.2829 94.8495 25.3339 94.8165 25.3094C94.5412 25.1062 94.4978 25.3555 94.3743 25.4439C94.3244 25.4772 94.3112 25.5744 94.2556 25.598C93.9925 25.706 93.7069 25.7816 93.4466 25.9043C93.1978 26.0172 92.9762 26.1762 92.7103 26.2646C92.6519 26.2862 92.5821 26.2891 92.5227 26.3088C92.4793 26.3186 92.4482 26.3186 92.436 26.2832C92.4228 26.2469 92.4313 26.2047 92.453 26.1497C92.535 25.9563 92.6085 25.7512 92.7546 25.6599C92.8697 25.5951 92.9196 25.4183 92.9941 25.2819C93.0978 25.0797 93.2166 24.8961 93.3646 24.7586C93.5551 24.6133 93.7945 24.5476 94.0359 24.4936C94.0708 24.4867 94.1085 24.4837 94.1255 24.4464C94.198 24.3031 94.3725 24.3542 94.5506 24.4239C94.5554 24.4258 94.5648 24.4298 94.5648 24.4298C94.6289 24.2658 94.857 24.4406 94.9692 24.3787C95.0965 24.3227 95.2624 24.3493 95.4001 24.3218C95.5142 24.3011 95.6339 24.2913 95.7263 24.2236C95.8951 24.1097 96.1034 24.1136 96.2797 24.0243C96.4588 23.9261 96.621 23.8378 96.7709 23.7563C96.8492 23.716 96.9387 23.719 97.0226 23.6954C97.2272 23.6316 97.4365 23.5776 97.6486 23.5501C97.7721 23.5393 97.8956 23.5325 98.0191 23.5138C98.1219 23.4991 98.2228 23.4039 98.3284 23.4127C98.6037 23.4274 98.8752 23.5079 99.1373 23.5914C99.4107 23.6719 99.6784 23.7622 99.9321 23.8839C100.071 23.9536 100.194 24.0557 100.331 24.1117C100.514 24.1804 100.714 24.2236 100.888 24.3227C101.18 24.4798 101.448 24.6909 101.663 24.9491C101.724 25.0217 101.725 25.0649 101.7 25.116Z" fill="#FFB885"/>
<path d="M124.063 54.2512C123.946 54.1992 123.799 54.1835 123.694 54.1138C123.588 54.0382 123.431 54.0117 123.308 53.9567C123.015 53.7977 122.76 53.6082 122.503 53.4207C122.085 53.0977 121.671 52.7767 121.273 52.4704C121.058 52.3074 120.805 52.2112 120.585 52.0571C120.348 51.8961 120.129 51.6939 119.883 51.5368C119.669 51.4033 119.473 51.1971 119.2 51.2216C118.79 51.2462 118.529 50.8221 118.153 50.7161C117.99 50.664 117.837 50.5678 117.678 50.4755C117.476 50.3548 117.244 50.3577 117.026 50.3096C116.838 50.2782 116.648 50.2497 116.459 50.2321C116.092 50.1987 115.723 50.2262 115.359 50.2645C115.095 50.2625 114.841 50.4451 114.576 50.344C114.501 50.3116 114.43 50.4255 114.359 50.4736C114.33 50.4932 114.301 50.5413 114.272 50.506C114.033 50.2164 113.83 50.4294 113.622 50.4775C113.538 50.4932 113.466 50.5825 113.383 50.5865C112.985 50.6149 112.572 50.6081 112.172 50.6846C111.793 50.7563 111.426 50.8731 111.044 50.9566C110.96 50.9772 110.864 50.9743 110.778 50.987C110.715 50.9939 110.674 50.9919 110.672 50.9536C110.669 50.9134 110.696 50.8643 110.744 50.7995C110.928 50.5816 111.133 50.4009 111.371 50.3106C111.555 50.2497 111.707 50.0671 111.883 49.9484C112.132 49.7756 112.39 49.5939 112.671 49.5076C113.01 49.4113 113.37 49.4231 113.723 49.4516C113.773 49.4575 113.824 49.4693 113.869 49.4388C114.048 49.3191 114.251 49.4447 114.443 49.5733C114.448 49.5763 114.454 49.5871 114.458 49.5841C114.638 49.4457 114.836 49.7167 115.019 49.7068C115.219 49.7078 115.419 49.8109 115.615 49.8463C115.776 49.8855 115.938 49.9307 116.098 49.914C116.383 49.8953 116.653 50.0043 116.933 50.019C117.208 50.0308 117.469 50.0426 117.72 50.0534C117.845 50.0593 117.96 50.1094 118.08 50.1368C118.377 50.1958 118.673 50.2674 118.962 50.3656C119.131 50.4274 119.295 50.4873 119.459 50.5472C119.598 50.5924 119.768 50.5659 119.901 50.6346C120.251 50.8054 120.569 51.042 120.884 51.2717C121.212 51.5083 121.536 51.7488 121.837 52.0159C122.002 52.1621 122.144 52.3388 122.315 52.4714C122.542 52.6451 122.793 52.7924 123.008 52.9848C123.371 53.297 123.701 53.6494 123.996 54.0313C124.079 54.1413 124.086 54.1972 124.063 54.2512Z" fill="#FFB885"/>
<path d="M106.32 40.6946C106.449 40.6052 106.563 40.4688 106.712 40.3981C106.866 40.3343 107.013 40.1998 107.172 40.1222C107.577 39.9386 108.007 39.8552 108.44 39.8022C109.15 39.7207 109.871 39.7717 110.569 39.9141C110.931 39.9818 111.303 40.0162 111.656 40.1291C112.032 40.2567 112.383 40.4531 112.734 40.6278C113.04 40.7819 113.298 41.0185 113.6 40.9734C113.829 40.941 113.979 40.9969 114.183 41.0382C114.383 41.0784 114.621 41.0804 114.839 41.0018C115.034 40.9321 115.248 40.884 115.471 40.8379C115.755 40.776 115.998 40.6092 116.264 40.4982C116.49 40.401 116.715 40.3038 116.937 40.2076C117.369 40.0162 117.776 39.8356 118.236 39.6314C118.558 39.5263 118.845 39.2652 119.204 39.2956C119.304 39.3064 119.381 39.1827 119.469 39.1169C119.505 39.0914 119.539 39.0354 119.581 39.0649C119.914 39.3084 120.156 39.0737 120.436 39.0119C120.545 38.9932 120.645 38.9 120.757 38.8941C121.288 38.8725 121.82 38.9196 122.342 38.9638C122.837 38.9923 123.333 39.0384 123.814 39.168C123.921 39.1974 124.025 39.2534 124.128 39.2897C124.199 39.3182 124.243 39.3427 124.222 39.3771C124.2 39.4134 124.143 39.4399 124.054 39.4684C123.735 39.544 123.434 39.6107 123.138 39.5891C122.91 39.5774 122.674 39.6863 122.448 39.7521C122.12 39.8444 121.804 39.972 121.486 40.0191C121.102 40.0751 120.71 40.0496 120.31 40.0476C120.254 40.0466 120.195 40.0398 120.146 40.0741C119.952 40.2047 119.72 40.1173 119.479 40.026C119.472 40.024 119.465 40.0142 119.46 40.0182C119.277 40.1929 119.003 39.9769 118.789 40.0456C118.558 40.1055 118.3 40.0839 118.062 40.1311C117.864 40.1625 117.661 40.1978 117.487 40.293C117.175 40.454 116.828 40.512 116.521 40.6798C116.236 40.831 115.968 41.0136 115.695 41.1923C115.568 41.2797 115.42 41.3258 115.28 41.3965C114.936 41.5722 114.555 41.7371 114.126 41.7587C113.877 41.7735 113.632 41.7214 113.404 41.6704C113.213 41.6282 113.006 41.638 112.835 41.5634C112.401 41.3621 112.009 41.1442 111.571 40.9744C111.12 40.7996 110.651 40.673 110.175 40.5669C109.916 40.508 109.654 40.4256 109.386 40.4167C109.032 40.401 108.679 40.4589 108.328 40.4805C107.746 40.5286 107.167 40.6062 106.591 40.724C106.426 40.7564 106.364 40.7387 106.32 40.6946Z" fill="#FFB885"/>
<path d="M56.0817 79.4842C55.9516 79.4548 55.7998 79.4676 55.6773 79.4185C55.5509 79.3655 55.3878 79.3674 55.2511 79.334C54.9155 79.2339 54.6147 79.0886 54.3121 78.9561C53.82 78.7322 53.3458 78.4956 52.8555 78.3003C52.601 78.1982 52.3285 78.1746 52.0721 78.1059C51.7986 78.0254 51.5243 77.9213 51.2377 77.8752C50.9916 77.8379 50.722 77.7476 50.491 77.9017C50.1573 78.1246 49.7226 77.9351 49.2824 78.045C49.0891 78.0823 48.8751 78.0647 48.6724 78.0058C48.4178 77.9371 48.1604 77.9174 47.9285 77.7976C47.7334 77.7005 47.5561 77.5787 47.3883 77.4472C47.08 77.189 46.7962 76.9494 46.4597 76.6677C46.257 76.4635 45.9553 76.4016 45.8176 76.1562C45.778 76.0836 45.6602 76.1209 45.5753 76.1238C45.5414 76.1238 45.4914 76.1474 45.4886 76.1012C45.4565 75.7144 45.1558 75.793 44.9597 75.74C44.8777 75.7193 44.7796 75.7635 44.7023 75.739C44.3365 75.6035 43.9349 75.4847 43.521 75.4975C43.1297 75.5171 42.7507 75.6271 42.3699 75.7615C42.3359 75.7714 42.2266 75.8038 42.1021 75.8401C42.0399 75.8597 41.9965 75.8676 41.9871 75.8303C41.9767 75.791 41.9965 75.737 42.0389 75.6604C42.2011 75.3973 42.4311 75.1814 42.7027 75.0812C42.9091 75.0105 43.0996 74.8299 43.3221 74.7327C43.636 74.5884 43.9839 74.4549 44.3365 74.4676C44.7608 74.4843 45.169 74.6591 45.5254 74.8908C45.5763 74.9222 45.6244 74.9615 45.6856 74.9654C45.9345 74.9762 46.0759 75.2255 46.1749 75.467C46.1778 75.4729 46.1768 75.4857 46.1825 75.4867C46.4399 75.5191 46.4295 75.8774 46.5766 76.0089C46.7274 76.169 46.8113 76.3889 46.932 76.5646C47.0291 76.7099 47.1234 76.8621 47.2591 76.9573C47.4939 77.1281 47.6636 77.3775 47.921 77.4884C48.1557 77.5915 48.4056 77.616 48.6347 77.5846C48.7421 77.5669 48.8543 77.5826 48.9684 77.5581C49.2475 77.4963 49.5331 77.3804 49.848 77.297C50.0385 77.2577 50.2242 77.2204 50.4099 77.1821C50.5664 77.1566 50.7192 77.0437 50.8813 77.0486C51.3056 77.0368 51.7195 77.1517 52.1145 77.2606C52.5274 77.3775 52.9234 77.5316 53.3024 77.7162C53.5089 77.8192 53.6965 77.9626 53.902 78.0558C54.1754 78.1786 54.4611 78.2777 54.7269 78.423C55.1653 78.6655 55.5773 78.9571 55.9648 79.2781C56.0723 79.3704 56.0911 79.4253 56.0817 79.4842Z" fill="#FFB885"/>
<path d="M66.359 26.6509C66.259 26.757 66.1836 26.9003 66.0714 26.9896C65.9564 27.0839 65.8631 27.2282 65.7612 27.344C65.4859 27.6042 65.2003 27.8241 64.9165 28.046C64.4536 28.4082 63.9822 28.7528 63.5306 29.1337C63.2959 29.3301 63.1139 29.5843 62.8923 29.7934C62.6585 30.0192 62.387 30.2166 62.1626 30.462C61.9609 30.6682 61.711 30.8616 61.5856 31.1914C61.3839 31.7323 60.6183 31.8403 60.1677 31.857C59.949 31.8816 59.7425 31.8384 59.5417 31.7922C59.2871 31.7451 59.0335 31.8001 58.7818 31.8335C58.5668 31.857 58.3538 31.8963 58.1426 31.9454C57.7334 32.0337 57.345 32.2036 56.966 32.3764C56.6822 32.4794 56.4729 32.7543 56.158 32.7671C56.0685 32.77 56.0317 32.9075 55.9732 32.984C55.9497 33.0155 55.9355 33.0734 55.8922 33.0528C55.5415 32.879 55.4038 33.1774 55.202 33.3139C55.121 33.3679 55.0776 33.4857 54.9918 33.5289C54.5892 33.74 54.1631 33.9353 53.7888 34.2141C53.4315 34.4743 53.1119 34.7816 52.7678 35.0712C52.6933 35.1379 52.599 35.188 52.5189 35.2499C52.4604 35.2911 52.4199 35.3127 52.402 35.2783C52.3831 35.242 52.3888 35.1821 52.4114 35.0938C52.5038 34.7855 52.6405 34.5028 52.8423 34.2868C53.0063 34.1327 53.0874 33.8754 53.225 33.6752C53.4155 33.3816 53.6153 33.0822 53.8756 32.8594C54.1961 32.6041 54.576 32.4392 54.9607 32.3076C55.0154 32.29 55.0729 32.2772 55.1106 32.2281C55.2577 32.0298 55.5207 32.0691 55.7649 32.1005C55.7715 32.1015 55.7809 32.1083 55.7837 32.1034C55.9318 31.8973 56.2325 32.072 56.423 31.9837C56.6426 31.9169 56.883 31.914 57.1102 31.8855C57.296 31.859 57.4836 31.8374 57.6542 31.7706C57.9569 31.645 58.2859 31.6607 58.5961 31.5841C58.8987 31.5115 59.1881 31.4418 59.47 31.374C59.6077 31.3446 59.7434 31.3632 59.8735 31.3465C60.1969 31.3033 60.4713 31.2268 60.6966 31.0608C60.8314 30.9666 60.9662 30.8488 61.0756 30.6986C61.168 30.5729 61.1991 30.3923 61.3 30.2627C61.5715 29.9152 61.9024 29.5971 62.2315 29.3016C62.5737 28.9894 62.9206 28.689 63.2902 28.423C63.492 28.2767 63.7182 28.1667 63.9115 28.0155C64.1651 27.8113 64.4093 27.5885 64.6799 27.4039C65.1305 27.1025 65.6123 26.8532 66.1119 26.6559C66.2562 26.6028 66.3146 26.6127 66.359 26.6509Z" fill="#994E4E"/>
<path d="M66.7944 34.2135C66.7991 34.1555 66.7821 34.0603 66.7925 34.0053C66.8066 33.9553 66.7934 33.8522 66.7991 33.7835C66.8406 33.6558 66.9056 33.5665 66.9744 33.4831C67.0979 33.3682 67.2507 33.3064 67.41 33.2641C67.4911 33.2406 67.5486 33.162 67.6344 33.1483C67.7249 33.1336 67.8371 33.1719 67.9314 33.1699C68.0153 33.1709 68.1237 33.2416 68.1529 33.1022C68.2048 32.8999 68.4207 33.1542 68.5291 33.1228C68.58 33.1139 68.6441 33.1453 68.7101 33.1846C68.7921 33.2288 68.844 33.1768 68.9072 33.1611C68.9618 33.1503 69.0146 33.1345 69.0665 33.1169C69.1674 33.0815 69.256 33.002 69.3512 32.9392C69.4238 32.9127 69.4625 32.736 69.5643 32.8283C69.5935 32.8587 69.5926 32.7477 69.6048 32.6987C69.6095 32.678 69.6105 32.6319 69.6265 32.6672C69.7547 32.9627 69.7755 32.7556 69.8377 32.7311C69.8622 32.7232 69.8716 32.6407 69.899 32.6447C70.0262 32.6702 70.1582 32.732 70.2817 32.7576C70.3986 32.7821 70.5089 32.7585 70.6277 32.8214C70.6541 32.8332 70.6834 32.8665 70.7088 32.8822C70.7277 32.896 70.7399 32.9127 70.7409 32.95C70.7418 32.9883 70.7333 33.0197 70.7182 33.056C70.6626 33.1787 70.6136 33.3172 70.5467 33.3191C70.4948 33.3152 70.4599 33.4438 70.4213 33.5243C70.3656 33.646 70.31 33.7471 70.2468 33.7982C70.1667 33.8335 70.0705 33.7815 69.9706 33.7255C69.9565 33.7177 69.9414 33.703 69.9338 33.7295C69.9056 33.8257 69.8339 33.7069 69.7557 33.5753L69.7491 33.5645C69.7274 33.6863 69.6227 33.4428 69.5746 33.4585C69.5209 33.4605 69.4474 33.3859 69.3861 33.3653C69.3361 33.3486 69.2824 33.324 69.2466 33.3594C69.1834 33.4212 69.0882 33.3662 69.0212 33.4143C68.9599 33.4585 68.9062 33.5272 68.8506 33.5871C68.8251 33.6156 68.7846 33.5989 68.7554 33.6166C68.6828 33.6598 68.6111 33.702 68.5348 33.7305C68.4904 33.7462 68.4414 33.7521 68.4028 33.7825C68.3698 33.807 68.3622 33.8983 68.3236 33.9081C68.2236 33.9327 68.1001 33.9042 67.9879 33.9052C67.8701 33.9042 67.7579 33.9209 67.6391 33.9278C67.5741 33.9307 67.4939 33.9023 67.4411 33.9337C67.3714 33.9739 67.3195 34.0505 67.2526 34.0937C67.1394 34.1634 67.0206 34.2223 66.8924 34.2665C66.8538 34.2773 66.8283 34.2576 66.7944 34.2135Z" fill="#994E4E"/>
<path d="M50.7656 25.5585C50.8373 25.4004 50.875 25.2139 50.9721 25.0578C51.0739 24.8998 51.1474 24.7034 51.2436 24.5316C51.5123 24.1203 51.8479 23.7727 52.1977 23.4449C52.7775 22.9128 53.4328 22.4769 54.1182 22.1077C54.4727 21.9173 54.8055 21.6817 55.176 21.5236C55.571 21.3567 55.9915 21.2595 56.3959 21.1349C56.7551 21.0337 57.1341 21.0121 57.4481 20.7883C57.9364 20.4545 58.5841 20.6332 59.0848 20.5252C59.3044 20.4761 59.5118 20.4585 59.7079 20.3711C59.9653 20.2533 60.0549 19.9215 60.1888 19.6309C60.3123 19.3805 60.4226 19.1243 60.5621 18.8838C60.8129 18.4096 61.0806 17.9403 61.3908 17.4986C61.6312 17.2011 61.7821 16.7927 62.1403 16.6091C62.244 16.5649 62.2601 16.4069 62.3176 16.2969C62.3402 16.2528 62.3496 16.1831 62.4024 16.185C62.8399 16.2312 62.9662 15.8777 63.2302 15.6892C63.3311 15.6156 63.3933 15.4752 63.5074 15.4203C64.0325 15.1336 64.6066 14.9657 65.161 14.7939C65.6852 14.6221 66.2263 14.5063 66.7713 14.4768C66.8938 14.4739 67.0192 14.4974 67.138 14.5033C67.2219 14.5102 67.2747 14.521 67.2606 14.5593C67.2474 14.6005 67.1927 14.6427 67.1069 14.6957C66.7892 14.8587 66.4941 15.0177 66.1811 15.0973C65.9416 15.163 65.7304 15.3486 65.5221 15.4978C65.2176 15.704 64.9432 15.9484 64.6491 16.132C64.2861 16.3372 63.9052 16.507 63.5149 16.6916C63.4602 16.7171 63.4037 16.7436 63.3716 16.8006C63.2443 17.0205 62.9832 17.0489 62.723 17.1088C62.7164 17.1108 62.7041 17.1069 62.7022 17.1127C62.6013 17.3562 62.2648 17.3376 62.0922 17.5152C61.9169 17.7096 61.6661 17.8422 61.4841 18.0415C61.3248 18.1956 61.1655 18.3605 61.0712 18.5618C60.894 18.9083 60.6432 19.2077 60.5046 19.5749C60.3613 19.8949 60.3217 20.2955 60.0143 20.6499C59.8729 20.8119 59.6778 20.8875 59.5071 20.9572C59.0697 21.1241 58.6869 21.1908 58.2956 21.2959C58.0722 21.3616 57.8412 21.4048 57.6225 21.4902C57.4396 21.5639 57.2765 21.6954 57.0945 21.7602C56.6109 21.9124 56.1178 22.0488 55.6342 22.2246C55.1354 22.419 54.6433 22.6398 54.1644 22.8912C53.8994 23.0217 53.6223 23.1405 53.379 23.3123C53.0585 23.544 52.7719 23.8218 52.4711 24.0771C51.9714 24.5002 51.4916 24.9479 51.0249 25.4132C50.8929 25.5457 50.8269 25.5693 50.7656 25.5585Z" fill="#994E4E"/>
<path d="M23.4947 43.9964C23.4005 44.022 23.3015 44.0907 23.2053 44.1103C23.1082 44.1231 22.9969 44.1947 22.897 44.2271C22.6547 44.2566 22.4209 44.2743 22.1918 44.2664C21.8175 44.2556 21.4527 44.1908 21.0812 44.1447C20.8889 44.1123 20.6947 44.1614 20.5014 44.1388C20.2959 44.1093 20.0875 44.0357 19.8773 44.017C19.6944 43.9915 19.4992 43.8943 19.3314 44.0406C19.075 44.235 18.7638 43.9621 18.482 44.0112C18.3575 44.0249 18.2246 43.9925 18.0898 43.9689C17.9182 43.9405 17.7636 44.0112 17.6033 44.0436C17.4675 44.074 17.3336 44.1172 17.2007 44.1584C16.9414 44.233 16.7067 44.3842 16.4672 44.5079C16.2853 44.5747 16.175 44.8152 15.9553 44.7818C15.8921 44.77 15.8818 44.8918 15.8488 44.9546C15.8356 44.9801 15.8308 45.0312 15.7978 45.0047C15.532 44.7877 15.4669 45.041 15.3321 45.1215C15.2774 45.1519 15.2567 45.2491 15.1973 45.2697C14.9267 45.3807 14.6194 45.4366 14.3535 45.575C14.0923 45.6909 13.8661 45.8617 13.5983 45.9775C13.5389 46.004 13.4654 46.0139 13.4051 46.0374C13.3607 46.0522 13.3278 46.0541 13.3127 46.0198C13.2976 45.9844 13.3051 45.9412 13.3249 45.8833C13.4041 45.6801 13.4795 45.4612 13.6332 45.3522C13.7548 45.2766 13.8142 45.0979 13.8981 44.9526C14.0141 44.7366 14.1517 44.5442 14.3224 44.4068C14.5355 44.2536 14.7947 44.1888 15.0568 44.1466C15.0936 44.1398 15.1332 44.1388 15.1549 44.1005C15.2435 43.9562 15.4217 44.0131 15.6036 44.0966C15.6083 44.0985 15.6178 44.1034 15.6178 44.1034C15.7017 43.9434 15.9232 44.1319 16.0458 44.074C16.1834 44.022 16.355 44.0661 16.5012 44.0485C16.6218 44.0347 16.7463 44.0298 16.8491 43.967C17.0357 43.8678 17.2535 43.8865 17.443 43.8011C17.6202 43.7274 17.7956 43.642 17.9738 43.5566C18.0577 43.5173 18.1501 43.5223 18.2368 43.5026C18.4518 43.4506 18.6677 43.3897 18.8874 43.3603C19.0156 43.3465 19.1438 43.3446 19.2701 43.3151C19.3757 43.2935 19.4747 43.1934 19.5841 43.1953C19.8669 43.1993 20.1507 43.2425 20.4297 43.2974C20.7201 43.3416 21.0077 43.3829 21.2924 43.4535C21.448 43.4869 21.5979 43.5605 21.7525 43.5802C21.9571 43.6057 22.1701 43.5733 22.3738 43.6136C22.7151 43.6626 23.0507 43.7461 23.375 43.8659C23.4674 43.9012 23.491 43.9385 23.4947 43.9964Z" fill="#994E4E"/>
<path d="M12.5577 58.8316C12.5445 58.7727 12.4964 58.6883 12.4879 58.6294C12.4861 58.5734 12.438 58.4802 12.422 58.4105C12.4201 58.2681 12.4521 58.1523 12.4908 58.0404C12.5709 57.8725 12.6963 57.7419 12.834 57.6231C12.9047 57.5613 12.9301 57.4592 13.0074 57.4032C13.0894 57.3443 13.213 57.3237 13.3025 57.2737C13.3836 57.2314 13.5175 57.2403 13.4892 57.096C13.459 56.8829 13.7673 57.0037 13.8597 56.9153C13.905 56.88 13.9804 56.8741 14.0596 56.8731C14.1567 56.8682 14.1859 56.7916 14.2406 56.7425C14.2887 56.7023 14.333 56.6581 14.3763 56.612C14.4584 56.5226 14.5102 56.3999 14.5734 56.29C14.6309 56.2242 14.5894 56.0436 14.7271 56.0681C14.7685 56.0779 14.7176 55.9797 14.7073 55.9297C14.7025 55.9091 14.6818 55.8668 14.7129 55.8894C14.9684 56.0769 14.8949 55.8796 14.942 55.8227C14.9609 55.8021 14.9326 55.7235 14.9599 55.7107C15.091 55.6568 15.2456 55.6342 15.3738 55.5802C15.4964 55.5311 15.5878 55.4427 15.7311 55.4221C15.7613 55.4153 15.8056 55.427 15.8377 55.4231C15.8622 55.4231 15.882 55.43 15.9008 55.4614C15.9206 55.4938 15.9282 55.5262 15.9319 55.5664C15.9404 55.7068 15.9593 55.857 15.8961 55.9022C15.8443 55.9326 15.8725 56.0651 15.8725 56.1604C15.8763 56.3027 15.8688 56.4264 15.8292 56.5118C15.766 56.5943 15.6472 56.61 15.5228 56.6218C15.5049 56.6238 15.4832 56.6208 15.4888 56.6483C15.5039 56.7524 15.3795 56.6905 15.2437 56.6208L15.2333 56.6149C15.2654 56.7376 15.0552 56.5825 15.0165 56.6247C14.9646 56.6591 14.86 56.6355 14.7921 56.6522C14.7365 56.6669 14.6743 56.6748 14.6545 56.7278C14.6186 56.8211 14.5027 56.826 14.4584 56.9085C14.4169 56.984 14.3924 57.0773 14.3622 57.1637C14.3481 57.2049 14.3028 57.2118 14.2802 57.2442C14.2264 57.3247 14.1718 57.4042 14.1077 57.4729C14.0699 57.5122 14.0237 57.5446 13.9973 57.5947C13.9738 57.6359 14.0011 57.7262 13.9672 57.7567C13.8767 57.8342 13.7447 57.8745 13.6334 57.9353C13.5062 58.0119 13.4138 58.0679 13.2969 58.1385C13.2337 58.1749 13.1451 58.1886 13.1036 58.2446C13.0489 58.3182 13.0244 58.4183 12.9716 58.4929C12.883 58.6166 12.7849 58.7315 12.6708 58.8356C12.636 58.865 12.6039 58.8582 12.5577 58.8316Z" fill="#994E4E"/>
<path d="M47.1953 62.4729C47.2491 62.3119 47.266 62.1254 47.3471 61.9634C47.448 61.7199 47.4998 61.5933 47.5705 61.4224C47.8044 60.9944 48.1221 60.6331 48.4596 60.2964C49.0215 59.7535 49.6767 59.3225 50.3668 58.9838C50.7213 58.8042 51.0654 58.5941 51.4426 58.4645C51.8432 58.3271 52.2675 58.2701 52.6776 58.1955C53.0387 58.1298 53.4139 58.168 53.7477 57.9854C54.2813 57.741 54.862 58.0021 55.3966 58.0267C55.6417 58.0316 55.8727 58.1062 56.0971 58.1651C56.3884 58.2377 56.675 58.1543 56.9135 58.0139C57.1228 57.8922 57.3076 57.7086 57.5056 57.5309C57.8846 57.1863 58.257 56.828 58.6567 56.5011C58.9565 56.291 59.1856 55.9395 59.5628 55.8571C59.6693 55.8394 59.7155 55.6902 59.7909 55.5989C59.8201 55.5616 59.8428 55.4978 59.8937 55.5144C60.2981 55.6538 60.4876 55.3476 60.7648 55.2091C60.8732 55.1581 60.9562 55.0412 61.0712 55.003C61.6161 54.8302 62.179 54.734 62.7315 54.6319C63.2538 54.5337 63.778 54.4414 64.3087 54.4395C64.4275 54.4395 64.5491 54.4669 64.6651 54.4758C64.7462 54.4846 64.798 54.4974 64.7848 54.5357C64.7716 54.5759 64.7179 54.6171 64.6331 54.6682C64.3201 54.8272 64.0202 54.9676 63.7072 55.0304C63.4649 55.0707 63.2462 55.2513 63.0247 55.3701C62.7051 55.5488 62.4043 55.7579 62.0847 55.8914C61.701 56.0554 61.2881 56.1359 60.8779 56.2527C60.8195 56.2684 60.7573 56.2763 60.7148 56.3253C60.5508 56.5197 60.2868 56.4863 60.0219 56.4834C60.0153 56.4834 60.0049 56.4765 60.0012 56.4824C59.8531 56.7004 59.5269 56.5884 59.3242 56.718C59.1065 56.8525 58.8406 56.9163 58.6124 57.0459C58.4211 57.1441 58.2297 57.2541 58.0798 57.4062C57.8101 57.6752 57.5065 57.8716 57.2067 58.1425C56.9324 58.4007 56.5242 58.5509 56.1593 58.5862C55.9858 58.6098 55.8208 58.5745 55.6606 58.5735C55.2703 58.5774 54.8847 58.597 54.4981 58.6275C54.2747 58.6471 54.0503 58.6667 53.8297 58.707C53.6458 58.7531 53.4771 58.87 53.2932 58.8984C52.8181 58.9976 52.3269 59.0575 51.8508 59.2008C51.3511 59.3363 50.8731 59.5444 50.3951 59.7604C50.1396 59.888 49.8596 59.9832 49.6268 60.158C49.3109 60.3779 49.0385 60.6567 48.7566 60.9169C48.2852 61.3449 47.8421 61.8063 47.4376 62.306C47.3188 62.4493 47.2566 62.4778 47.1953 62.4729Z" fill="#994E4E"/>
<path d="M27.0547 69.4749C27.2055 69.3699 27.3385 69.2216 27.5119 69.1303C27.6901 69.041 27.857 68.8859 28.0399 68.7897C28.5047 68.5511 28.9978 68.4038 29.4965 68.2801C30.3158 68.0966 31.1558 68.0063 31.993 68.0161C32.4257 68.0043 32.8594 67.9729 33.2931 67.9974C33.7532 68.0494 34.2085 68.1427 34.6592 68.2379C35.0561 68.3096 35.437 68.4775 35.8443 68.4264C36.4788 68.3616 37.0114 68.8113 37.5856 68.9791C37.8449 69.0528 38.0853 69.1902 38.3228 69.3306C38.6292 69.4985 38.9658 69.5858 39.2854 69.7213C39.5607 69.8244 39.8256 69.954 40.0962 70.0698C40.6129 70.2976 41.1465 70.5224 41.6537 70.758C42.0138 70.9485 42.423 70.9612 42.7407 71.1762C42.8322 71.242 42.9642 71.1625 43.066 71.134C43.1084 71.1213 43.1556 71.0839 43.1857 71.1242C43.4507 71.4668 43.7721 71.2273 44.005 71.0938C44.1097 71.0417 44.1738 70.9151 44.2784 70.8591C44.7696 70.5872 45.3362 70.1749 45.9424 69.9442C46.5072 69.7056 47.1087 69.5515 47.7111 69.5711C47.845 69.5741 47.9807 69.6084 48.109 69.631C48.1995 69.6506 48.2551 69.6683 48.2353 69.7056C48.2155 69.7439 48.1514 69.7783 48.0533 69.8175C47.6951 69.9491 47.3736 70.0875 47.0445 70.1749C46.7881 70.2357 46.5741 70.4478 46.3686 70.6088C46.0603 70.8532 45.851 71.1222 45.5521 71.3863C45.1854 71.6906 44.6546 72.0598 43.9588 72.1648C43.8626 72.1727 43.7665 72.1815 43.6769 72.2149C43.313 72.3622 42.9425 72.1737 42.6785 71.9646C42.6719 71.9587 42.6663 71.9459 42.6578 71.9469C42.3146 71.9832 42.126 71.6092 41.8724 71.4943C41.5962 71.352 41.3756 71.1232 41.1323 70.9495C40.9334 70.8081 40.7317 70.6657 40.5101 70.5803C40.1207 70.4242 39.7681 70.1925 39.375 70.0492C39.0054 69.9373 38.6368 69.8244 38.2587 69.7527C38.0824 69.7164 37.9193 69.6359 37.7468 69.5858C37.315 69.4867 36.8879 69.3728 36.4543 69.2884C36.2044 69.2344 35.9574 69.1627 35.7019 69.1401C35.4888 69.1166 35.2673 69.1627 35.058 69.1254C34.5102 69.038 33.9625 68.9163 33.4053 68.8446C32.8255 68.7759 32.2409 68.7474 31.6536 68.7337C31.333 68.7229 31.0087 68.7023 30.6882 68.7317C30.2668 68.7956 29.8491 68.8859 29.4333 68.9801C28.7423 69.1195 28.054 69.2805 27.3743 69.4769C27.1801 69.526 27.1065 69.5152 27.0547 69.4749Z" fill="#994E4E"/>
<path d="M70.5465 47.1612C70.4853 47.2152 70.4315 47.3133 70.3665 47.3634C70.2986 47.4066 70.2373 47.5107 70.1732 47.5745C70.0044 47.6815 69.8366 47.763 69.6669 47.8268C69.3879 47.922 69.1022 47.9613 68.8128 48.0074C68.6619 48.0261 68.529 48.1174 68.3791 48.139C68.2179 48.1586 68.0406 48.1331 67.8766 48.1557C67.7323 48.1694 67.5579 48.1164 67.4683 48.2843C67.326 48.5189 67.0139 48.3117 66.8093 48.4011C66.717 48.4335 66.6066 48.4256 66.4945 48.4207C66.353 48.4178 66.2512 48.5061 66.1343 48.5601C66.0353 48.6063 65.941 48.6622 65.8468 48.7182C65.6629 48.8222 65.5121 48.9852 65.3527 49.1266C65.2255 49.21 65.1934 49.4388 65.0077 49.427C64.9539 49.4211 64.9756 49.536 64.9643 49.5968C64.9605 49.6223 64.969 49.6704 64.936 49.6469C64.6636 49.4623 64.672 49.7019 64.5806 49.7853C64.5429 49.8177 64.5495 49.909 64.5061 49.9316C64.3044 50.0445 64.0649 50.1152 63.8688 50.2467C63.6755 50.3616 63.52 50.5206 63.3126 50.6266C63.2673 50.6512 63.206 50.661 63.1589 50.6836C63.124 50.6973 63.0957 50.6993 63.0759 50.6689C63.0552 50.6365 63.0514 50.5982 63.0571 50.5461C63.0806 50.3626 63.0976 50.1643 63.206 50.0651C63.2937 49.9944 63.3012 49.8295 63.3399 49.696C63.3889 49.4977 63.4606 49.317 63.569 49.1816C63.7114 49.0333 63.9103 48.9597 64.1158 48.9027C64.1441 48.8949 64.1771 48.891 64.1856 48.8546C64.2233 48.7152 64.3836 48.7575 64.5514 48.8193L64.5646 48.8242C64.5929 48.6681 64.8201 48.8262 64.904 48.7624C65.003 48.7035 65.15 48.7251 65.2632 48.6946C65.3565 48.6691 65.4546 48.6524 65.5206 48.5827C65.6422 48.4669 65.8194 48.457 65.9467 48.354C66.0664 48.2617 66.1805 48.1537 66.2965 48.0486C66.3511 47.9996 66.4247 47.9917 66.4869 47.9583C66.6387 47.8729 66.7895 47.7826 66.9498 47.7158C67.0441 47.6795 67.1412 47.654 67.2298 47.6029C67.3043 47.5627 67.3543 47.4498 67.4363 47.4292C67.6513 47.3742 67.8775 47.3624 68.1 47.3487C68.3301 47.3271 68.5554 47.2986 68.7845 47.2937C68.9089 47.2878 69.04 47.3192 69.1588 47.2947C69.3162 47.2613 69.4652 47.1769 69.6254 47.1523C69.8885 47.1003 70.1562 47.0738 70.4259 47.0787C70.5013 47.0797 70.5286 47.1072 70.5465 47.1612Z" fill="#994E4E"/>
<path d="M74.3181 40.8709C74.2747 40.7491 74.1842 40.6205 74.1663 40.4791C74.1616 40.3378 74.0881 40.1728 74.0796 40.0177C74.0635 39.6221 74.1833 39.2461 74.3332 38.8946C74.5943 38.3223 75.0035 37.8413 75.4692 37.4662C75.7125 37.2758 75.9265 37.0421 76.2008 36.8978C76.4874 36.7378 76.8127 36.6612 77.1163 36.568C77.3897 36.4914 77.6735 36.5051 77.9016 36.3206C78.2693 36.0408 78.736 36.2852 79.1254 36.2489C79.3035 36.242 79.4846 36.2793 79.6618 36.3333C79.8881 36.3952 80.1134 36.3539 80.3387 36.3706C80.531 36.3824 80.7234 36.3932 80.9119 36.405C81.2796 36.4178 81.6152 36.4295 82.0216 36.4433C82.2837 36.4806 82.575 36.3579 82.8154 36.5218C82.8814 36.5729 82.9757 36.4806 83.0568 36.4511C83.0888 36.4394 83.1294 36.3991 83.1482 36.4413C83.3047 36.7888 83.548 36.6288 83.745 36.6278C83.8251 36.6308 83.9034 36.5532 83.9769 36.5621C84.3295 36.6013 84.6774 36.6053 85.0064 36.3991C85.3166 36.2126 85.607 35.9063 86.0039 35.7747C86.0916 35.7463 86.1906 35.7502 86.2773 35.7502C86.3395 35.7541 86.3773 35.7629 86.3716 35.8022C86.3669 35.8434 86.3348 35.8857 86.2905 35.9397C86.1274 36.1252 86.036 36.3078 85.8606 36.458C85.7239 36.566 85.6636 36.7938 85.5278 36.9793C85.3543 37.2493 85.0234 37.5683 84.6529 37.6773C84.2041 37.8089 83.7818 37.7185 83.431 37.6037C83.3811 37.586 83.3311 37.5634 83.2802 37.5811C83.0718 37.6508 82.9106 37.4721 82.7626 37.3033C82.7588 37.2993 82.756 37.2876 82.7513 37.2895C82.5552 37.3779 82.4374 37.0736 82.262 37.049C82.0791 37.0068 81.9056 36.887 81.7218 36.8232C81.5719 36.7722 81.4191 36.7123 81.2645 36.7231C80.9911 36.7329 80.73 36.6357 80.4594 36.6475C80.2096 36.6622 79.9616 36.7034 79.7174 36.7525C79.6033 36.78 79.4874 36.7545 79.3733 36.7722C79.0914 36.8055 78.8152 36.8644 78.538 36.9135C78.3796 36.9489 78.2165 36.9675 78.0638 37.0274C77.9337 37.0706 77.8309 37.1963 77.7027 37.2316C77.3727 37.3308 77.0295 37.4162 76.7005 37.5634C76.3583 37.7146 76.0415 37.9257 75.7379 38.1613C75.572 38.2889 75.3844 38.4057 75.2562 38.5795C75.0799 38.8043 74.9696 39.0743 74.8432 39.3246C74.6415 39.7478 74.4935 40.1974 74.4265 40.6696C74.4067 40.8031 74.3718 40.8473 74.3181 40.8709Z" fill="#994E4E"/>
<path d="M88.989 41.2918C88.989 41.228 88.9597 41.1318 88.9663 41.068C88.9786 41.0081 88.9522 40.9021 88.9531 40.8255C88.989 40.6714 89.0578 40.5526 89.1313 40.4367C89.268 40.2679 89.4434 40.1462 89.6301 40.046C89.7253 39.992 89.7885 39.8899 89.8912 39.8467C89.9996 39.7996 90.1382 39.8035 90.2523 39.7721C90.3541 39.7466 90.4908 39.7849 90.5172 39.6317C90.5672 39.405 90.8472 39.6042 90.9792 39.5414C91.0414 39.5179 91.1225 39.5316 91.2055 39.5542C91.3092 39.5768 91.3705 39.509 91.4487 39.4756C91.5156 39.4501 91.5807 39.4207 91.6448 39.3892C91.7674 39.3264 91.8758 39.2253 91.9918 39.1379C92.0804 39.0928 92.1218 38.9062 92.2529 38.9779C92.2906 39.0024 92.284 38.8896 92.2972 38.8375C92.3029 38.8159 92.3 38.7678 92.3227 38.8012C92.499 39.0741 92.5159 38.8601 92.5932 38.8228C92.6234 38.81 92.6319 38.7246 92.6658 38.7227C92.8289 38.7246 92.9986 38.7619 93.158 38.7678C93.3079 38.7727 93.4474 38.7315 93.603 38.7776C93.6369 38.7855 93.6756 38.8149 93.7095 38.8267C93.734 38.8375 93.751 38.8532 93.7529 38.8896C93.7557 38.9278 93.7463 38.9612 93.7284 38.9995C93.6633 39.1311 93.6058 39.2764 93.5209 39.2881C93.4549 39.293 93.4163 39.4285 93.3701 39.5149C93.305 39.6465 93.2391 39.7574 93.1617 39.8202C93.0609 39.8703 92.9374 39.8359 92.8091 39.8006C92.7912 39.7947 92.7705 39.7839 92.7629 39.8124C92.7318 39.9154 92.6357 39.8094 92.5301 39.6936L92.5216 39.6847C92.5009 39.8134 92.3566 39.5885 92.2972 39.615C92.2293 39.6288 92.1341 39.5709 92.0559 39.564C91.9927 39.5591 91.9239 39.5463 91.8814 39.5905C91.806 39.67 91.6844 39.6386 91.6033 39.7054C91.5298 39.7672 91.4666 39.8526 91.4025 39.9292C91.3723 39.9655 91.3214 39.9586 91.2865 39.9861C91.2008 40.0519 91.114 40.1147 91.0216 40.1678C90.9679 40.1982 90.9094 40.2188 90.8632 40.262C90.8246 40.2983 90.8208 40.3945 90.7756 40.4171C90.6558 40.475 90.504 40.4829 90.3692 40.5231C90.2269 40.5614 90.0939 40.6174 89.9534 40.6665C89.8761 40.692 89.7781 40.691 89.7187 40.743C89.6395 40.8118 89.5839 40.9109 89.5094 40.9836C89.3821 41.1004 89.2492 41.2094 89.1049 41.3075C89.0635 41.337 89.0314 41.3252 88.989 41.2918Z" fill="#994E4E"/>
<path d="M74.7518 36.8877C74.7405 36.9437 74.7471 37.0389 74.7358 37.0909C74.7207 37.1361 74.7283 37.2372 74.7236 37.3C74.6906 37.409 74.65 37.4885 74.6038 37.5523C74.5237 37.6466 74.419 37.6878 74.3087 37.732C74.2493 37.7516 74.2305 37.8292 74.1701 37.8488C74.1041 37.8675 74.0051 37.8488 73.9335 37.8694C73.8684 37.8822 73.7497 37.8468 73.7911 37.9774C73.8439 38.158 73.5639 38.0069 73.497 38.0805C73.4631 38.107 73.3961 38.105 73.3282 38.106C73.2434 38.1099 73.234 38.1767 73.1962 38.2199C73.1632 38.2562 73.1378 38.2984 73.1133 38.3406C73.0633 38.4211 73.0633 38.5331 73.0482 38.6303C73.0181 38.6911 73.1368 38.8256 73.0086 38.8325C72.969 38.8335 73.0548 38.8973 73.0859 38.9316C73.0991 38.9464 73.135 38.9719 73.0991 38.9621C72.8022 38.8826 72.9549 39.0161 72.9464 39.0671C72.9407 39.0877 73.003 39.1349 72.9879 39.1506C72.9181 39.2271 72.7984 39.2929 72.738 39.3832C72.6721 39.4667 72.6579 39.5639 72.5702 39.6493C72.5523 39.6689 72.5127 39.6856 72.492 39.7052C72.4741 39.718 72.4552 39.7259 72.4203 39.717C72.3845 39.7082 72.3581 39.6925 72.3289 39.6689C72.2318 39.5845 72.1215 39.4883 72.1403 39.4176C72.1611 39.3665 72.063 39.2841 72.0093 39.2075C71.9235 39.0966 71.865 38.9856 71.8594 38.8894C71.8716 38.7795 71.9706 38.7009 72.079 38.6352C72.0941 38.6253 72.1149 38.6185 72.0988 38.5959C72.0413 38.5075 72.179 38.5075 72.3308 38.5223L72.343 38.5232C72.2676 38.4251 72.5174 38.4918 72.5344 38.4447C72.5665 38.3976 72.6749 38.3956 72.7296 38.3662C72.7748 38.3416 72.8286 38.323 72.8295 38.2729C72.838 38.1865 72.9426 38.1669 72.9624 38.0883C72.9822 38.0167 72.9898 37.9332 73.0011 37.8508C73.0067 37.8125 73.0473 37.8017 73.0652 37.7732C73.1076 37.7006 73.1472 37.624 73.2038 37.5631C73.2377 37.5297 73.2801 37.5032 73.3037 37.4591C73.3245 37.4227 73.2962 37.3324 73.3311 37.3098C73.4225 37.2509 73.5432 37.2303 73.6535 37.2048C73.7657 37.1744 73.8684 37.1371 73.9806 37.1194C74.041 37.1076 74.1183 37.1282 74.1645 37.0997C74.2258 37.0615 74.2654 36.979 74.3314 36.9437C74.4369 36.8798 74.552 36.8357 74.6755 36.819C74.7066 36.8141 74.7273 36.8386 74.7518 36.8877Z" fill="#994E4E"/>
</svg>
