<svg width="118" height="138" viewBox="0 0 118 138" fill="none" xmlns="http://www.w3.org/2000/svg">
<path d="M113.413 109.234C107.85 127.593 78.6513 134.995 48.1936 125.769C17.7363 116.541 -2.44454 94.1787 3.11698 75.8181C8.68004 57.4575 37.8792 50.0557 68.3361 59.2835C98.793 68.5106 118.975 90.8734 113.413 109.234Z" fill="url(#paint0_linear_670_48102)"/>
<path d="M113.698 108.292C108.294 126.13 79.223 133.11 48.765 123.882C18.3077 114.655 -2.00185 92.7151 3.40196 74.8764C8.80732 57.0369 37.8785 50.0563 68.3358 59.2842C98.7927 68.5112 119.103 90.4535 113.698 108.292Z" fill="url(#paint1_linear_670_48102)"/>
<path d="M111.178 106.011C106.006 123.081 78.4366 129.835 49.6 121.099C20.7619 112.362 1.57649 91.4429 6.74838 74.3738C11.9191 57.3031 39.4893 50.5487 68.3263 59.2856C97.1632 68.0225 116.349 88.9428 111.178 106.011Z" fill="url(#paint2_linear_670_48102)"/>
<path d="M106.921 85.1203L106.074 83.9375C106.662 91.5828 96.7832 92.9937 96.7832 92.9937L87.8445 94.0517L82.4345 95.8166L78.7891 100.403L84.6699 100.05L102.427 101.343L110.804 92.9674C109.939 90.3336 108.631 87.7008 106.921 85.1203Z" fill="url(#paint3_linear_670_48102)"/>
<path d="M111.184 106.01C111.703 104.297 111.972 102.547 112.016 100.773C112.236 96.5681 110.759 93.3984 110.759 93.3984C106.624 98.0315 99.6166 97.3063 99.6166 97.3063L91.1054 112.581L70.8516 124.102C70.8516 124.102 71.8438 124.432 73.296 124.91C92.2488 125.185 107.476 118.251 111.184 106.01Z" fill="url(#paint4_linear_670_48102)"/>
<path d="M17.9248 76.6795C10.4893 75.6022 12.4645 65.3365 12.4692 65.3164C9.76108 67.883 7.79476 70.9166 6.74801 74.373C2.80339 87.3939 13.0339 102.658 30.9117 113.04C31.3272 112.554 31.524 111.992 31.524 111.992C31.524 111.992 20.9058 99.9475 19.5981 98.6689C18.2904 97.389 17.9248 76.6795 17.9248 76.6795Z" fill="url(#paint5_linear_670_48102)"/>
<path d="M100.739 108.288C100.739 108.288 108.249 110.073 111.415 105.22C111.415 105.22 113.139 97.432 110.636 92.4062L99.8828 96.659L100.739 108.288Z" fill="url(#paint6_linear_670_48102)"/>
<path d="M100.408 109.905C96.2592 123.6 73.4565 128.814 49.4787 121.549C25.5006 114.284 9.42599 97.2933 13.5739 83.5975C17.7234 69.9028 40.5261 64.6896 64.5046 71.9538C88.4824 79.2192 104.557 96.2091 100.408 109.905Z" fill="url(#paint7_linear_670_48102)"/>
<path d="M96.6626 93.0078L87.8445 94.0522L82.4345 95.8172L78.7891 100.404L84.6699 100.051L100.518 101.205C99.8372 98.4653 98.5234 95.7047 96.6626 93.0078Z" fill="url(#paint8_linear_670_48102)"/>
<path d="M100.188 97.7775L84.0904 97.2031L71.7266 110.337C71.7266 110.337 99.458 115.317 85.9632 122.56C85.9632 122.56 86.6261 122.41 87.3211 122.11C93.9691 119.611 98.8824 115.501 100.4 109.902C101.358 106.368 101.725 102.729 100.188 97.7775Z" fill="url(#paint9_linear_670_48102)"/>
<path d="M88.8359 103.308C88.8359 103.308 97.4778 103.229 100.747 108.291C100.747 108.291 102.139 101.175 100.122 96.6406L89.2905 97.1489L88.8359 103.308Z" fill="url(#paint10_linear_670_48102)"/>
<path d="M89.9708 105.148C86.7649 115.732 69.5979 119.898 51.6274 114.453C33.6568 109.008 21.6884 96.0167 24.8944 85.4329C28.1015 74.8507 45.2669 70.6861 63.2378 76.1293C81.2084 81.5745 93.1768 94.5664 89.9708 105.148Z" fill="url(#paint11_linear_670_48102)"/>
<path d="M86.8219 104.821C83.7207 115.059 67.9696 119.347 51.6415 114.399C35.3114 109.452 24.5888 97.1436 27.6904 86.9069C30.792 76.6699 46.5426 72.382 62.8719 77.3293C79.2013 82.2762 89.9231 94.5859 86.8219 104.821Z" fill="url(#paint12_linear_670_48102)"/>
<path d="M84.6699 100.052L87.3188 100.245C87.1885 98.4031 86.6806 96.5423 85.8368 94.707L82.4345 95.8179L78.7891 100.405L84.6699 100.052Z" fill="url(#paint13_linear_670_48102)"/>
<path d="M86.9691 97.9492L81.9788 99.4645L77.6875 106.625C77.6875 106.625 80.9541 105.555 82.7809 107.211C84.6069 108.87 83.033 110.673 83.033 110.673C83.033 110.673 83.0886 110.637 83.1837 110.569C84.9015 108.95 86.1554 107.025 86.8222 104.822C87.4959 102.598 87.5168 100.273 86.9691 97.9492Z" fill="url(#paint14_linear_670_48102)"/>
<path d="M82.8841 100.896C80.4876 108.808 67.4125 111.85 53.6796 107.688C39.947 103.528 30.7563 93.7427 33.1536 85.8295C35.5521 77.9186 48.626 74.8789 62.3597 79.0392C76.0922 83.1991 85.2818 92.9848 82.8841 100.896Z" fill="url(#paint15_linear_670_48102)"/>
<path d="M104.49 107.681C105.931 109.337 102.147 113.302 99.1977 114.151C96.2481 114.999 94.2875 114.527 94.0633 113.746C93.8384 112.966 94.1901 110.765 97.139 109.916C100.088 109.068 103.108 106.094 104.49 107.681Z" fill="url(#paint16_linear_670_48102)"/>
<path d="M80.1414 120.82C80.7124 122.998 73.9676 124.689 70.5646 123.886C67.1615 123.081 66.3065 121.412 66.4928 120.623C66.6795 119.833 68.1931 118.116 71.5962 118.92C74.9993 119.724 79.5945 118.73 80.1414 120.82Z" fill="url(#paint17_linear_670_48102)"/>
<path d="M94.6101 117.004C94.7863 118.503 91.6994 121.503 85.6571 122.384C81.7654 122.952 77.7048 121.564 77.498 120.267C77.2916 118.971 82.6111 118.682 86.4955 118.062C90.3794 117.443 94.457 115.699 94.6101 117.004Z" fill="url(#paint18_linear_670_48102)"/>
<path d="M66.6249 121.143C66.6249 121.143 66.1305 123.43 71.8138 123.871C77.4982 124.312 79.4294 120.206 77.901 119.119C76.3726 118.033 74.2958 118.189 74.2958 118.189C74.2958 118.189 74.2544 117.458 72.1644 117.3C69.5494 117.104 64.4367 119.544 66.6249 121.143Z" fill="#2E0F00"/>
<path d="M67.0009 121.013C67.0009 121.013 66.4841 122.982 71.2354 123.419C75.9864 123.856 78.4366 121.102 77.7938 119.719C77.1529 118.335 73.4812 119.012 71.673 119.381C69.8651 119.751 67.3909 119.624 67.0009 121.013Z" fill="#784A26"/>
<path d="M66.8126 120.84C66.8126 120.84 66.7801 119.55 68.3062 119.151C69.8311 118.753 72.6018 118.248 73.1561 118.12C73.7092 117.992 72.5295 117.473 70.9401 117.656C69.3498 117.837 67.1554 118.746 66.8354 119.865C66.6046 120.671 66.8126 120.84 66.8126 120.84Z" fill="#784A26"/>
<path d="M68.1923 119.979C67.5514 120.311 67.3404 120.643 67.4235 121.171C67.5058 121.698 69.2495 120.858 70.4756 120.243C71.7017 119.628 74.2648 119.393 75.259 120.257C76.2544 121.121 75.5265 121.62 75.5265 121.62C75.5265 121.62 77.5806 121.201 77.632 119.853C77.6845 118.504 73.8922 118.983 72.8899 119.176C71.8873 119.369 68.6206 119.757 68.1923 119.979Z" fill="#542905"/>
<path d="M75.3713 121.802C75.3713 121.802 73.7888 122.689 71.4344 122.694C69.0796 122.698 67.5906 121.973 67.7364 121.556C67.8829 121.139 69.0726 121.373 70.1128 121.815C71.1557 122.257 73.7119 122.471 75.3713 121.802Z" fill="#C2A370"/>
<path d="M67.7031 120.068C67.7031 120.068 68.4994 119.357 69.1217 119.36C69.7433 119.363 70.3173 119.434 70.4943 119.329C70.6694 119.224 70.7077 119.116 71.1414 119.112C71.5759 119.107 71.5878 119.108 71.7799 119.104C71.9728 119.098 72.5244 119.267 72.6276 119.044C72.7316 118.819 73.0636 118.78 73.2476 118.835C73.4312 118.892 73.9241 118.911 73.9241 118.911C73.9241 118.911 72.6431 119.192 71.1518 119.335C69.625 119.483 68.5006 119.643 67.7031 120.068Z" fill="#C2A370"/>
<path d="M66.8109 120.84C66.8109 120.84 66.5759 120.285 67.1762 119.493C67.7777 118.702 69.148 118.575 69.9655 118.418C70.7838 118.261 72.2716 117.664 72.6624 117.853C73.0555 118.041 72.4185 118.171 71.0683 118.429C69.7181 118.69 66.782 118.821 66.8109 120.84Z" fill="white"/>
<path d="M72.3076 122.474C72.3076 122.474 70.6355 122.559 69.38 122.293C68.1253 122.027 68.0453 121.784 68.1972 121.602C68.3507 121.42 69.4241 121.804 70.1357 122.099C70.8457 122.396 72.3076 122.474 72.3076 122.474Z" fill="white"/>
<path d="M69.6333 119.871C69.6333 119.871 69.1493 119.982 68.6144 120.421C68.0778 120.86 67.5765 121.205 67.6198 120.863C67.6631 120.521 68.1667 119.953 69.6333 119.871Z" fill="#2E0F00"/>
<path d="M72.1875 119.429C72.1875 119.429 74.5512 119.272 75.4274 119.603C76.3049 119.936 76.2655 120.915 76.2655 120.915C76.2655 120.915 77.4158 120.322 77.165 119.636C76.8797 118.851 73.0692 119.217 72.1875 119.429Z" fill="#2E0F00"/>
<path d="M89.3337 117.669C89.3337 117.669 90.1593 118.838 89.2286 120.128C88.2974 121.417 84.851 122.521 81.2833 121.435C77.7159 120.347 76.8265 117.97 76.8686 117.866C76.9115 117.762 76.586 116.666 78.6243 116.137C80.6625 115.608 89.4547 113.709 89.3337 117.669Z" fill="#2E0F00"/>
<path d="M88.8981 117.891C88.8981 117.891 89.6862 118.408 88.5591 119.065C87.4323 119.72 84.202 119.552 83.0822 119.6C81.964 119.648 81.7154 120.559 82.0583 120.93C82.3988 121.302 78.569 120.184 77.5744 118.167C76.5799 116.151 80.2098 115.91 82.8657 116.381C85.5232 116.853 88.8981 117.891 88.8981 117.891Z" fill="#784A26"/>
<path d="M88.605 116.896C88.605 116.896 84.8757 115.994 82.6875 115.832C82.6875 115.832 87.6959 114.656 88.605 116.896Z" fill="#542905"/>
<path d="M88.7054 117.06C88.7054 117.06 88.906 117.392 88.7811 117.531C88.6566 117.671 88.3285 117.509 88.0652 117.407C87.8028 117.304 87.5357 117.189 87.2508 117.138C86.9682 117.087 85.2134 116.689 84.6946 116.567C84.1739 116.444 82.462 116.114 82.5088 116.095C82.5555 116.075 85.0796 116.386 86.216 116.59C87.3509 116.793 88.5871 116.795 88.7054 117.06Z" fill="#C2A370"/>
<path d="M88.365 118.316C88.365 118.316 87.3743 118.618 86.0891 118.631C85.3748 118.637 84.8537 118.495 84.0196 118.382C83.3493 118.291 82.3261 118.367 81.7135 118.342C80.3382 118.285 80.2183 117.581 80.4066 117.113C80.5956 116.644 81.313 116.337 81.313 116.337C81.313 116.337 78.9451 116.295 78.1465 116.853C77.3483 117.411 78.6482 118.901 81.3953 119.06C84.1444 119.219 87.4284 119.471 88.365 118.316Z" fill="#C2A370"/>
<path d="M85.3828 116.619C85.3828 116.619 87.0824 116.896 87.358 116.893C87.634 116.89 88.1299 116.985 88.3584 117.054C88.5868 117.121 88.7399 117.299 88.6726 117.357C88.6058 117.414 88.162 117.274 87.7929 117.131C87.423 116.986 87.1226 117.052 86.8706 116.958C86.6186 116.865 85.3828 116.619 85.3828 116.619Z" fill="white"/>
<path d="M87.5748 118.634C87.5748 118.634 86.2459 118.745 86.0364 118.847C85.8284 118.952 85.646 118.944 85.4326 118.864C85.2192 118.782 84.1083 118.567 83.5188 118.692C82.929 118.814 82.1022 118.479 81.0887 118.511C80.0744 118.543 79.5603 118.332 79.5317 117.771C79.5027 117.208 80.1625 116.738 80.1625 116.738C80.1625 116.738 78.6353 116.803 78.4312 117.307C78.2298 117.811 79.2739 118.556 80.5622 118.722C81.849 118.889 82.8006 119.014 83.0894 118.904C83.3793 118.795 84.0329 119.046 84.5644 119.019C85.0955 118.993 85.8508 119.042 86.1315 118.981C86.4113 118.916 87.39 118.727 87.5748 118.634Z" fill="white"/>
<path d="M94.3884 113.775C94.3884 113.775 95.3834 114.535 97.3659 114.126C99.3485 113.716 99.3543 113.295 100.526 112.169C101.698 111.041 101.773 109.622 101.305 108.763C100.836 107.902 100.517 106.993 98.9457 106.89C97.3748 106.788 95.0197 108.159 94.2516 109.659C93.1716 111.772 94.3884 113.775 94.3884 113.775Z" fill="#2E0F00"/>
<path d="M94.4185 113.762C94.4185 113.762 94.9956 113.247 95.2267 113.21C95.4571 113.172 95.4877 113.237 95.742 113.408C95.9952 113.578 96.306 113.811 96.241 113.978C96.241 113.978 96.3949 113.907 96.0976 113.513C95.7988 113.117 95.7076 113.009 95.8553 112.73C96.0033 112.45 96.0304 112.41 96.4154 112.121C96.7988 111.833 96.955 111.638 97.1973 111.571C97.4397 111.503 97.7354 111.574 97.7632 111.353C97.7899 111.131 97.6561 110.989 97.9062 110.74C98.1575 110.49 98.4799 110.158 98.8289 109.777C99.1768 109.394 99.2742 109.348 99.4551 109.057C99.636 108.765 99.6642 108.505 100.116 108.383C100.568 108.26 100.915 108.317 100.922 108.355C100.929 108.393 100.782 107.956 100.074 107.986C99.3658 108.014 98.878 108.493 98.607 108.6C98.3376 108.707 98.0137 108.763 98.0137 108.763C98.0137 108.763 97.8525 108.977 97.6519 109.164C97.4513 109.354 97.0454 109.626 96.9747 109.622C96.9024 109.617 96.7911 109.454 96.5452 109.274C96.2982 109.094 96.3083 109.103 96.105 108.919C95.9013 108.735 95.6334 108.537 95.6334 108.537C95.6334 108.537 96.0849 109.045 96.3419 109.32C96.599 109.595 96.4849 109.46 96.7142 109.69C96.9445 109.92 96.9751 109.85 96.9318 109.988C96.8877 110.126 96.2604 110.386 96.195 110.411C96.1285 110.436 95.9565 110.412 95.8649 110.391C95.7725 110.368 95.4587 110.346 95.4587 110.346C95.4587 110.346 95.5313 110.446 95.5889 110.556C95.6461 110.666 95.8197 110.747 95.7107 110.909C95.6009 111.071 95.7265 110.946 95.4691 111.206C95.2113 111.465 95.1811 111.581 95.0431 111.823C94.9055 112.063 94.8321 112.184 94.7799 112.187C94.7269 112.192 94.2994 111.94 94.1587 111.807C94.0184 111.676 93.9141 111.322 93.9141 111.322C93.9141 111.322 93.9222 111.503 94.0405 111.79C94.1584 112.075 94.1978 112.101 94.3903 112.316C94.5816 112.528 94.6744 112.549 94.638 112.725C94.6025 112.899 94.6168 112.975 94.565 113.16C94.5128 113.345 94.4185 113.762 94.4185 113.762Z" fill="black"/>
<path d="M100.973 108.628C100.973 108.628 100.463 108.498 99.8567 109.14C99.251 109.78 98.5885 110.359 98.3775 110.54C98.1652 110.719 97.9538 110.86 97.8981 111.017C97.8401 111.175 97.9194 111.398 97.752 111.526C97.5819 111.654 97.0651 111.897 96.8255 112.069C96.5858 112.241 96.1552 112.514 96.0725 112.675C95.9883 112.834 95.9384 113.077 96.0451 113.212C96.151 113.347 96.4784 113.673 96.4216 113.83C96.3651 113.987 96.4641 114.047 96.8232 113.989C97.1823 113.931 97.7949 113.815 98.2263 113.274C98.6569 112.732 99.2158 112.296 99.8687 111.85C100.522 111.405 101.12 110.592 101.239 109.981C101.356 109.371 101.212 108.809 100.973 108.628Z" fill="#784A26"/>
<path d="M95.386 113.278C95.4935 113.282 95.8943 113.609 95.9941 113.715C96.0934 113.822 95.7791 113.934 95.3079 113.857C94.8368 113.782 94.6419 113.733 94.6756 113.701C94.7088 113.668 95.0865 113.266 95.386 113.278Z" fill="#784A26"/>
<path d="M95.9375 108.168C96.0048 108.068 97.1767 107.294 98.0789 107.135C98.9834 106.975 99.7383 107.143 100.008 107.303C100.277 107.463 100.535 107.785 100 107.848C99.465 107.91 99.3626 107.966 98.9525 108.172C98.5432 108.376 98.4508 108.49 98.0097 108.622C97.5691 108.751 97.515 108.976 97.346 109.104C97.1771 109.232 97.1435 109.512 96.9232 109.377C96.7044 109.242 95.9375 108.168 95.9375 108.168Z" fill="#784A26"/>
<path d="M95.488 108.654C95.488 108.654 96.0094 109.108 96.2186 109.406C96.4257 109.705 96.4474 110.037 96.3028 110.106C96.1575 110.175 95.8904 110.206 95.7462 110.189C95.602 110.172 95.372 110.124 95.3403 110.279C95.309 110.435 95.4733 111.043 95.1003 110.987C94.7284 110.931 94.587 110.665 94.4455 110.839C94.3036 111.014 94.5901 111.535 94.4478 111.526C94.3056 111.52 94.0787 111.146 94.1691 110.556C94.2576 109.977 94.5877 109.281 95.488 108.654Z" fill="#784A26"/>
<path d="M101.017 108.825C101.017 108.825 101.207 109.306 100.849 109.908C100.491 110.51 99.9342 110.679 99.7804 110.797C99.6273 110.915 99.833 110.974 99.579 111.253C99.3243 111.532 99.0456 111.277 98.6989 111.305C98.3514 111.333 98.0881 111.336 98.2899 111.51C98.4905 111.684 98.6521 111.786 98.3923 111.856C98.1322 111.925 98.1276 111.896 97.9057 112.029C97.685 112.161 97.4828 112.072 97.6046 112.378C97.7263 112.683 97.9505 112.837 97.6722 113.04C97.3958 113.246 97.0735 113.538 96.8133 113.56C96.5532 113.58 96.0685 113.133 96.2776 112.715C96.4871 112.297 96.9645 112.219 97.3166 111.943C97.6676 111.666 97.9845 111.574 97.9869 111.448C97.9888 111.325 97.9602 111.088 98.099 110.943C98.2381 110.798 99.1094 110.116 99.3258 109.917C99.5431 109.719 100.194 109.035 100.444 108.871C100.693 108.708 100.986 108.674 101.017 108.825Z" fill="#C2A370"/>
<path d="M95.3032 113.384C95.1961 113.354 95.0662 113.454 95.1722 113.553C95.2761 113.651 95.4269 113.711 95.6372 113.737C95.8467 113.762 95.7709 113.511 95.3032 113.384Z" fill="white"/>
<path d="M100.876 108.84C100.876 108.84 100.908 109.476 100.557 109.84C100.205 110.205 99.8295 110.244 99.5944 110.363C99.3602 110.482 99.2207 110.614 99.153 110.707C99.0854 110.798 99.3907 110.874 99.063 110.958C98.7359 111.041 98.5218 111.03 98.4012 111.09C98.2802 111.15 98.0974 111.358 98.0974 111.358C98.0974 111.358 97.9841 111.152 98.47 110.798C98.9555 110.443 99.2744 110.181 99.6575 109.806C100.041 109.432 100.393 109.073 100.567 108.952C100.742 108.829 100.876 108.84 100.876 108.84Z" fill="white"/>
<path d="M98.0833 111.555C98.0833 111.555 98.3311 111.6 98.3477 111.656C98.3655 111.712 98.2302 111.766 97.9906 111.857C97.7501 111.948 97.5831 112.106 97.4714 112.106C97.3586 112.108 97.2812 112.115 97.2812 112.115C97.2812 112.115 97.6492 111.84 97.7741 111.767C97.8985 111.692 98.0833 111.555 98.0833 111.555Z" fill="white"/>
<path d="M97.0041 112.359C97.2074 112.487 97.5155 112.611 97.5267 112.804C97.5375 112.996 97.1795 113.126 96.8749 113.157C96.5707 113.189 96.2936 112.925 96.5611 112.667C96.8278 112.41 97.0041 112.359 97.0041 112.359Z" fill="white"/>
<path d="M101.212 110.668C101.212 110.668 100.669 111.401 100.433 111.613C100.197 111.826 100.065 112.094 99.9346 112.241C99.8047 112.389 99.3672 112.616 99.1561 112.756C98.9447 112.894 98.5697 113.411 98.3753 113.563C98.1809 113.716 98.9265 113.304 99.4808 112.829C100.036 112.355 100.631 111.647 100.738 111.517C100.845 111.385 101.212 110.668 101.212 110.668Z" fill="#C2A370"/>
<path d="M95.3916 108.998C95.5745 108.91 96.0627 109.452 96.0716 109.666C96.0797 109.88 95.9127 110.037 95.7055 110.026C95.4983 110.014 95.3139 109.922 95.1613 110.048C95.0078 110.175 95.0959 110.426 94.9305 110.49C94.7643 110.553 94.6502 110.512 94.515 110.566C94.3804 110.62 94.3267 110.545 94.4264 110.279C94.5266 110.013 94.682 110.065 94.8416 110.067C95.0001 110.068 95.1995 109.973 95.2834 109.731C95.3685 109.487 95.1369 109.119 95.3916 108.998Z" fill="white"/>
<path d="M96.5797 107.957C96.5175 107.973 96.2109 108.129 96.2032 108.194C96.1966 108.26 96.6388 108.761 96.7675 108.879C96.897 108.998 97.0779 109.148 97.1317 109.05C97.1854 108.952 97.3141 108.734 97.56 108.572C97.8058 108.408 97.9793 108.451 98.1943 108.297C98.4088 108.145 98.6809 107.879 98.9437 107.771C99.207 107.664 99.5174 107.595 99.7771 107.603C100.036 107.611 99.7895 107.229 98.8046 107.396C97.8178 107.562 97.9983 107.841 97.7134 107.872C97.4285 107.9 97.4239 107.709 97.1993 107.741C96.9739 107.774 96.783 107.902 96.5797 107.957Z" fill="white"/>
<path d="M99.2974 108.42C99.2088 108.465 98.1319 108.906 97.9526 109.111C97.7721 109.317 97.556 109.611 97.345 109.791C97.1335 109.97 96.9492 110.244 96.7319 110.395C96.5143 110.547 96.4594 110.494 96.023 110.92C95.5877 111.348 95.5054 111.649 95.2553 111.947C95.0052 112.245 94.8359 112.554 94.8359 112.554C94.8359 112.554 95.8398 111.422 96.1455 111.188C96.4532 110.952 96.5587 110.772 96.7563 110.613C96.9553 110.453 97.0365 110.188 97.3631 110.019C97.6909 109.849 98.2328 109.509 98.3171 109.264C98.4014 109.018 98.6001 108.906 98.8235 108.793C99.0481 108.679 99.2974 108.42 99.2974 108.42Z" fill="#542905"/>
<path d="M98.0679 110.065C98.2739 109.763 97.3918 110.934 96.9222 111.239C96.4537 111.543 96.1623 111.902 95.9632 112.053C95.763 112.202 95.5859 112.512 95.5859 112.512C95.5859 112.512 96.7262 111.626 96.9009 111.489C97.0768 111.351 97.4127 111.313 97.4699 111.243C97.5264 111.171 97.4363 110.939 97.4896 110.848C97.5438 110.759 97.9245 110.279 98.0679 110.065Z" fill="#C2A370"/>
<path d="M98.4062 109.792C98.4666 109.739 98.5902 109.605 98.7244 109.431C98.8585 109.259 98.942 109.28 99.1016 109.152C99.2617 109.024 99.3768 108.891 99.3768 108.891C99.3768 108.891 99.0239 109.34 98.8655 109.477C98.707 109.614 98.4062 109.792 98.4062 109.792Z" fill="#C2A370"/>
<path d="M94.7295 112.95C94.6781 113.062 94.6321 113.259 94.5977 113.355C94.5633 113.45 94.5312 113.559 94.5312 113.559C94.5312 113.559 94.7724 113.305 94.9128 113.243C95.0523 113.182 94.9074 113.179 94.8702 113.06C94.8331 112.941 94.8559 112.789 94.8876 112.744C94.9186 112.698 94.7295 112.95 94.7295 112.95Z" fill="#C2A370"/>
<path d="M94.8323 62.2678C94.8323 62.2678 103.678 57.69 110.752 63.6481C117.825 69.6055 113.271 83.7014 99.356 86.0743C85.4402 88.4446 82.4062 90.4434 82.4062 90.4434L88.6999 80.4711C88.6999 80.4711 102.508 80.1185 106.742 75.3711C110.975 70.6236 106.459 65.9527 101.797 67.6728C97.1349 69.3925 96.3429 75.3494 90.9406 73.736L94.8323 62.2678Z" fill="url(#paint19_radial_670_48102)"/>
<path d="M90.2845 84.565C96.9913 82.974 103.914 81.1364 106.683 77.0093C109.114 73.3859 108.847 71.2715 108.184 70.1289C108.734 71.5974 108.44 73.4767 106.752 75.37C102.518 80.1174 88.7101 80.47 88.7101 80.47L82.6484 90.3C83.8583 89.7937 87.3735 85.2542 90.2845 84.565Z" fill="url(#paint20_radial_670_48102)"/>
<path d="M110.756 63.6497C105.627 59.3301 99.5676 60.5489 96.6226 61.5461C96.3729 62.2303 95.5419 64.6002 95.5082 65.8209C95.4696 67.2619 98.1618 65.9245 100.674 65.1982C103.185 64.4715 110.393 63.9465 111.69 71.8114C112.746 78.2199 107.07 83.4478 101.071 85.7125C113.638 82.5259 117.53 69.3558 110.756 63.6497Z" fill="url(#paint21_radial_670_48102)"/>
<path d="M93.1944 48.6456L63.9508 40.1093L63.959 40.0564L63.7263 40.0436L63.5017 39.9779L63.4924 40.0316L33.0703 38.4414C33.0703 38.4414 27.1261 41.5685 26.3318 51.8295C25.3704 64.2486 26.5285 82.7522 35.9867 93.4362L36.0165 93.442C39.7253 97.7476 45.8608 101.132 53.1598 102.371C60.4573 103.61 67.3667 102.439 72.2869 99.598L72.2966 99.5991C84.7501 92.6333 91.9478 75.5472 95.1379 63.508C97.7745 53.5582 93.1944 48.6456 93.1944 48.6456Z" fill="white"/>
<path d="M91.7303 48.397L63.9308 40.1065L63.9394 40.0531L63.7175 40.0423L63.5045 39.9793L63.4952 40.0326L34.5164 38.6875C34.5164 38.6875 28.8285 41.8575 27.9889 52.1116C26.9731 64.5206 27.9294 82.991 36.8569 93.5829L36.8863 93.5891C40.386 97.8588 46.2042 101.191 53.1491 102.369C60.0945 103.548 66.6869 102.324 71.3995 99.4471L71.4081 99.4475C83.3316 92.3928 90.3272 75.2718 93.4624 63.223C96.0537 53.2666 91.7303 48.397 91.7303 48.397Z" fill="url(#paint22_radial_670_48102)"/>
<path d="M91.7365 48.397L63.9371 40.1065L63.9456 40.0531L63.7237 40.0423L63.5107 39.9793L63.5015 40.0326L34.5227 38.6875C34.5227 38.6875 28.8348 41.8575 27.9952 52.1116C27.563 57.3886 27.4915 63.7646 28.2341 70.1622C29.8359 76.2509 32.4419 81.993 36.4963 86.4165L36.5284 86.4215C40.393 90.755 46.7651 94.1797 54.3293 95.463C61.8923 96.746 69.0382 95.6161 74.1154 92.8009L74.1247 92.8025C79.4133 89.9645 83.7669 85.4045 87.2879 80.1855C90.0996 74.3897 92.1355 68.3466 93.4686 63.223C96.06 53.2666 91.7365 48.397 91.7365 48.397Z" fill="url(#paint23_radial_670_48102)"/>
<path d="M91.7305 48.397L63.931 40.1065L63.9395 40.0531L63.7176 40.0423L63.5047 39.9793L63.4954 40.0326L34.5166 38.6875C34.5166 38.6875 28.8287 41.8575 27.9891 52.1116C27.6687 56.0176 27.5446 60.525 27.804 65.199C29.3041 67.0567 30.9914 68.8101 32.9001 70.4115L32.943 70.4196C38.2637 74.9989 46.8379 78.7978 56.8659 80.499C66.8938 82.2009 76.2415 81.4429 82.7755 78.8767L82.7887 78.8786C85.1187 77.9957 87.2911 76.8961 89.3196 75.639C91.1054 71.3117 92.4757 67.0165 93.4629 63.223C96.0539 53.2666 91.7305 48.397 91.7305 48.397Z" fill="url(#paint24_radial_670_48102)"/>
<path d="M95.1514 56.0113C93.6408 64.9113 77.5613 69.6051 59.2389 66.4946C40.9135 63.3865 27.2838 53.6495 28.794 44.7495C30.3046 35.8491 46.3842 31.1546 64.7081 34.265C83.0312 37.3747 96.6616 47.1105 95.1514 56.0113Z" fill="white"/>
<path d="M95.6587 56.9819C94.0681 66.3589 80.801 71.9278 58.9573 68.2201C36.8844 64.4745 26.4254 54.8795 28.0172 45.5025C29.6082 36.125 46.0403 31.0931 64.7198 34.2635C83.3973 37.4335 97.2505 47.6044 95.6587 56.9819Z" fill="white"/>
<path d="M93.7047 56.129C92.2559 64.6719 79.8249 69.6853 59.2973 66.201C38.5557 62.6808 28.6889 53.8832 30.1396 45.3411C31.5895 36.7986 46.9934 32.2904 64.5473 35.2702C82.0992 38.2492 95.1546 47.5869 93.7047 56.129Z" fill="#EEECEB"/>
<path d="M93.377 55.4829C91.9812 63.7073 79.7419 68.4888 59.4853 65.0506C39.0162 61.5775 29.2518 53.0621 30.6465 44.8369C32.0423 36.6141 47.2162 32.3308 64.5397 35.2712C81.8617 38.2105 94.7721 47.2597 93.377 55.4829Z" fill="#C9C4BF"/>
<path d="M92.7299 55.3513C91.3859 63.2707 76.547 67.3564 59.585 64.479C42.6244 61.6 29.9641 52.8465 31.3089 44.9279C32.6525 37.0058 47.4909 32.9181 64.4534 35.797C81.4143 38.6752 94.0746 47.4311 92.7299 55.3513Z" fill="url(#paint25_radial_670_48102)"/>
<path d="M5.92892 6.09325C5.32283 7.25944 4.19683 7.6997 3.40404 7.9927C2.54979 7.54973 2.23012 5.65261 2.83699 4.48526C3.44308 3.31753 4.62743 2.7323 5.4813 3.17528C6.33555 3.61941 6.53656 4.92552 5.92892 6.09325Z" fill="url(#paint26_linear_670_48102)"/>
<path d="M4.30248 0.232773C4.60282 0.547029 4.57345 1.06035 4.23948 1.38001C3.90435 1.70007 3.39064 1.70355 3.08991 1.39006C2.79112 1.07581 2.81856 0.562101 3.15331 0.242434C3.48766 -0.0772335 4.00253 -0.0810965 4.30248 0.232773Z" fill="url(#paint27_linear_670_48102)"/>
<path d="M88.8995 57.9827C87.8539 64.1415 74.7302 67.0505 59.586 64.4808C44.4426 61.9104 33.013 54.8348 34.0586 48.6745C35.1034 42.5166 48.2275 39.6071 63.371 42.1776C78.5151 44.7484 89.9447 51.8244 88.8995 57.9827Z" fill="#824A05"/>
<path d="M81.6558 50.6844C80.8124 50.4988 79.7568 50.6782 78.4282 50.8529C78.0726 50.9008 77.6996 50.9491 77.3077 50.9967C75.6436 51.1938 73.6475 51.345 71.4558 50.9735C71.0264 50.9008 69.1927 51.1215 68.7768 51.0137C67.6972 50.7308 68.5912 49.8104 67.9476 49.0412C67.1653 48.1104 66.1935 46.9527 64.0478 46.5882C62.0653 46.2515 59.3209 46.7494 57.2513 46.3176C55.1648 45.884 53.6094 44.4916 51.5928 44.1492C47.6358 43.4781 44.949 43.8593 42.9421 44.2346C38.0226 45.158 37.4865 50.0226 37.3624 52.0705C37.2004 54.7094 38.8366 56.8736 43.5999 59.4329C44.3247 59.8225 45.0978 60.1982 45.9049 60.5627C49.8248 62.2392 54.4926 63.6133 59.5837 64.4784C63.6609 65.1691 67.5874 65.461 71.1745 65.4022C76.0866 64.7061 78.8012 62.2245 79.5415 57.8632C79.6277 57.3591 85.4988 56.8319 86.2417 56.1732C87.6201 54.9471 85.0411 51.4292 81.6558 50.6844Z" fill="#592905"/>
<path d="M87.9652 55.5781C87.9652 55.5781 88.4777 58.1822 86.3286 60.4319C84.1798 62.6827 78.0234 64.3514 78.0234 64.3514C78.0234 64.3514 79.6612 62.852 80.1111 61.8938C80.5599 60.9344 81.2499 59.2526 81.8865 58.6047C82.4497 58.035 83.561 57.8904 84.0557 58.9124C84.5513 59.934 84.8049 59.2866 85.3406 58.0945C85.8779 56.9016 86.7847 58.5854 87.9652 55.5781Z" fill="#A1661C"/>
<path d="M81.5101 53.3746C81.1951 53.0252 82.0207 52.3205 80.8047 51.6016C80.8047 51.6016 83.1784 51.8319 84.4598 53.2521C85.3426 54.232 84.8703 55.7963 81.7853 55.9633C81.7853 55.9633 83.9113 55.5346 83.594 54.5918C83.3678 53.9223 82.2801 54.2262 81.5101 53.3746Z" fill="#824A05"/>
<path d="M78.526 49.2321C78.4553 49.6484 77.7143 49.8707 76.8717 49.7281C76.0282 49.585 75.4028 49.1305 75.4743 48.7145C75.5451 48.2982 76.2857 48.0764 77.1279 48.219C77.971 48.362 78.5968 48.8162 78.526 49.2321Z" fill="black"/>
<path d="M77.8195 49.3815C77.7971 49.5106 77.3951 49.5512 76.922 49.4708C76.4465 49.3904 76.0805 49.22 76.1025 49.0897C76.1249 48.9587 76.5277 48.9177 77.0016 48.9985C77.4747 49.0789 77.8416 49.2505 77.8195 49.3815Z" fill="white"/>
<path d="M72.0175 49.438C71.9611 49.765 71.3778 49.9413 70.7138 49.8276C70.0512 49.7151 69.558 49.358 69.6137 49.0298C69.6697 48.702 70.2522 48.5273 70.9155 48.6394C71.5796 48.753 72.0724 49.109 72.0175 49.438Z" fill="black"/>
<path d="M71.6946 49.5512C71.6725 49.6818 71.2702 49.7216 70.7955 49.6408C70.3224 49.5604 69.9548 49.3908 69.9776 49.2605C70 49.1302 70.4024 49.09 70.8751 49.17C71.3513 49.2508 71.7174 49.4217 71.6946 49.5512Z" fill="white"/>
<path d="M52.1094 42.4123C52.1094 42.4123 55.5268 43.8054 56.359 44.3914C57.1908 44.9774 59.0535 44.553 60.9615 44.2843C62.8702 44.0161 66.8508 44.6187 68.4004 45.6206C69.9497 46.624 68.5465 47.7176 70.5036 48.4207C72.4633 49.1226 74.5213 47.5479 76.7489 47.9267C78.9781 48.3047 81.5505 49.1852 81.5505 49.1852C81.5505 49.1852 68.1704 41.0664 52.1094 42.4123Z" fill="#B88A40"/>
<path d="M70.1991 47.0924C70.1743 47.2381 69.9123 47.3177 69.6139 47.2675C69.3154 47.2168 69.0943 47.0553 69.1191 46.9095C69.1438 46.7627 69.4051 46.6834 69.7051 46.7341C70.0031 46.7839 70.2242 46.9451 70.1991 47.0924Z" fill="black"/>
<path d="M63.3355 45.5029C63.2953 45.7414 62.8693 45.8682 62.3846 45.7858C61.9003 45.7039 61.54 45.4441 61.5814 45.2041C61.6219 44.9644 62.0471 44.8373 62.5319 44.9196C63.017 45.0015 63.3768 45.2632 63.3355 45.5029Z" fill="black"/>
<path d="M64.6872 47.9513C64.669 48.0576 64.4804 48.114 64.2651 48.0773C64.0501 48.0417 63.8905 47.9254 63.9075 47.8199C63.926 47.7128 64.1151 47.6567 64.33 47.6923C64.5449 47.7286 64.7053 47.8446 64.6872 47.9513Z" fill="#301405"/>
<path d="M68.9998 50.9532C68.9592 51.1917 68.5336 51.3197 68.0489 51.2377C67.5642 51.1546 67.2051 50.8945 67.2453 50.6552C67.2858 50.4159 67.7114 50.2884 68.1965 50.3707C68.6801 50.4534 69.04 50.7144 68.9998 50.9532Z" fill="black"/>
<path d="M72.2166 46.3182C72.195 46.4446 71.9731 46.5115 71.7184 46.4674C71.4648 46.4253 71.2769 46.2881 71.2986 46.1628C71.3194 46.0376 71.5429 45.9696 71.796 46.0132C72.05 46.0569 72.2379 46.1922 72.2166 46.3182Z" fill="black"/>
<path d="M79.3958 51.7557C79.375 51.8798 79.1527 51.9475 78.898 51.9046C78.6452 51.8609 78.4569 51.7244 78.4782 51.5996C78.4987 51.4751 78.7221 51.4071 78.9745 51.4508C79.23 51.4929 79.4179 51.6301 79.3958 51.7557Z" fill="black"/>
<path d="M77.5186 51.6594C77.4621 51.9965 76.8626 52.1751 76.1815 52.0591C75.4997 51.9428 74.9941 51.5767 75.0513 51.2408C75.1081 50.9037 75.7072 50.7244 76.3883 50.8396C77.0694 50.9548 77.5758 51.322 77.5186 51.6594Z" fill="black"/>
<path d="M77.5582 57.7105C77.5192 57.9335 77.1241 58.0514 76.6734 57.9741C76.2231 57.8983 75.8876 57.656 75.9247 57.4329C75.9637 57.2107 76.3595 57.0936 76.8098 57.1697C77.2605 57.2451 77.5961 57.4882 77.5582 57.7105Z" fill="black"/>
<path d="M80.5394 54.2189C80.5166 54.3542 80.2773 54.4246 80.0072 54.379C79.7354 54.333 79.5336 54.1872 79.5564 54.052C79.5796 53.9182 79.8178 53.8471 80.0895 53.8927C80.3605 53.9391 80.5618 54.0852 80.5394 54.2189Z" fill="black"/>
<path d="M72.733 48.1077C72.6971 48.3192 72.3233 48.4313 71.8965 48.3594C71.4706 48.2863 71.154 48.0567 71.1903 47.8453C71.2259 47.6361 71.6001 47.5237 72.0264 47.5963C72.452 47.6686 72.7678 47.8982 72.733 48.1077Z" fill="black"/>
<path d="M73.1906 49.5808C73.1662 49.7281 72.9038 49.8065 72.6058 49.7563C72.3077 49.7053 72.0859 49.5452 72.1114 49.3964C72.1361 49.2503 72.3986 49.1722 72.6966 49.2221C72.995 49.2731 73.2161 49.4331 73.1906 49.5808Z" fill="black"/>
<path d="M67.2032 45.9463C67.1912 46.0178 67.064 46.0561 66.9203 46.0313C66.7757 46.007 66.6686 45.9289 66.6806 45.8566C66.693 45.787 66.8198 45.7484 66.9639 45.7731C67.1077 45.7979 67.2148 45.8748 67.2032 45.9463Z" fill="black"/>
<path d="M68.5317 47.9739C68.5197 48.0455 68.3926 48.0829 68.2492 48.0586C68.1034 48.035 67.9967 47.9577 68.0087 47.8858C68.0211 47.8139 68.1475 47.7764 68.2928 47.8C68.4355 47.8251 68.5429 47.9032 68.5317 47.9739Z" fill="black"/>
<path d="M67.5384 46.9543C67.5264 47.0255 67.4 47.0641 67.2558 47.0398C67.1109 47.0154 67.0046 46.9377 67.0165 46.8662C67.0281 46.7947 67.1549 46.7564 67.2999 46.7808C67.4441 46.8059 67.5515 46.8824 67.5384 46.9543Z" fill="black"/>
<path d="M76.3321 48.4106C76.2865 48.6808 75.8048 48.8253 75.2563 48.7322C74.7082 48.6382 74.302 48.3433 74.3472 48.0727C74.3936 47.8025 74.8748 47.658 75.4229 47.7507C75.971 47.8443 76.3785 48.1388 76.3321 48.4106Z" fill="black"/>
<path d="M85.8176 54.7062C85.7724 54.9764 85.2896 55.1213 84.7411 55.0289C84.193 54.9362 83.786 54.6393 83.8316 54.3699C83.8768 54.0989 84.36 53.9551 84.9077 54.0475C85.4566 54.1407 85.864 54.4356 85.8176 54.7062Z" fill="black"/>
<path d="M82.465 52.0518C82.3981 52.4426 81.7024 52.6506 80.9123 52.5168C80.1203 52.3819 79.5327 51.956 79.5988 51.5648C79.6649 51.174 80.3607 50.9649 81.1519 51.0994C81.944 51.2347 82.5315 51.6603 82.465 52.0518Z" fill="black"/>
<path d="M66.3163 44.39C66.2703 44.6606 65.7886 44.8052 65.2413 44.7128C64.6936 44.6193 64.285 44.3243 64.3318 44.0541C64.3774 43.7839 64.8594 43.639 65.4067 43.7306C65.9552 43.8241 66.3622 44.1206 66.3163 44.39Z" fill="#592905"/>
<path d="M73.0974 51.118C73.0518 51.3886 72.5706 51.5327 72.0228 51.4407C71.4739 51.3476 71.0669 51.0527 71.1129 50.7817C71.1589 50.5103 71.6402 50.3673 72.1883 50.4597C72.7376 50.5536 73.143 50.8474 73.0974 51.118Z" fill="#592905"/>
<path d="M81.7614 50.3309C81.715 50.6011 81.2338 50.7465 80.6861 50.6533C80.1383 50.5602 79.7313 50.2633 79.7769 49.9935C79.8233 49.7245 80.3042 49.5803 80.8523 49.6723C81.4012 49.7654 81.807 50.0615 81.7614 50.3309Z" fill="#B88A40"/>
<path d="M74.6336 49.8131C74.603 49.9956 74.2787 50.0922 73.9108 50.03C73.5412 49.9681 73.2683 49.7691 73.2993 49.587C73.3302 49.4038 73.6541 49.3083 74.0221 49.3706C74.3905 49.4332 74.6645 49.6315 74.6336 49.8131Z" fill="#B88A40"/>
<path d="M64.5745 45.7863C64.5532 45.9042 64.3433 45.968 64.1021 45.9267C63.8625 45.8857 63.6839 45.7566 63.7048 45.6387C63.7249 45.5189 63.9367 45.4555 64.176 45.4972C64.4164 45.5378 64.5946 45.6677 64.5745 45.7863Z" fill="#B88A40"/>
<path d="M70.4862 45.6938C70.4135 46.1225 69.6497 46.3517 68.7823 46.2044C67.9134 46.0575 67.2679 45.5879 67.3417 45.1604C67.4132 44.7313 68.1766 44.5025 69.0444 44.6505C69.9141 44.7978 70.5592 45.2647 70.4862 45.6938Z" fill="#592905"/>
<path d="M84.1334 51.1001C84.0998 51.3011 83.7414 51.4086 83.3344 51.3394C82.9278 51.269 82.6255 51.051 82.6587 50.8497C82.6935 50.6479 83.0515 50.5416 83.4577 50.6112C83.8655 50.6796 84.1678 50.8987 84.1334 51.1001Z" fill="#592905"/>
<path d="M72.4746 48.1427C72.4623 48.2169 72.2342 48.2386 71.9656 48.1937C71.6962 48.1477 71.4874 48.0515 71.5006 47.9757C71.513 47.903 71.7414 47.8798 72.0104 47.9266C72.2795 47.9718 72.487 48.0677 72.4746 48.1427Z" fill="white"/>
<path d="M66.7025 46.748C66.6681 46.9528 66.3059 47.0611 65.8919 46.9911C65.4783 46.9204 65.171 46.6993 65.2058 46.4944C65.2414 46.2903 65.6043 46.1813 66.0176 46.252C66.4312 46.3224 66.7369 46.5439 66.7025 46.748Z" fill="black"/>
<path d="M66.2795 46.7332C66.2694 46.7904 66.0885 46.809 65.8748 46.7734C65.6625 46.7367 65.4975 46.659 65.5083 46.6026C65.5172 46.5438 65.6989 46.5252 65.9119 46.5616C66.1241 46.5975 66.2895 46.6737 66.2795 46.7332Z" fill="white"/>
<path d="M79.8857 56.7975C79.8049 57.2672 79.1536 57.5482 78.4316 57.4264C77.708 57.3027 77.1865 56.823 77.2658 56.353C77.3466 55.883 77.9967 55.6012 78.7203 55.7241C79.4431 55.8463 79.9646 56.3263 79.8857 56.7975Z" fill="black"/>
<path d="M79.1331 56.7978C79.1091 56.932 78.7895 56.99 78.4165 56.927C78.0438 56.8636 77.7597 56.7031 77.7825 56.5679C77.8057 56.4337 78.1265 56.3765 78.4988 56.4399C78.8714 56.5021 79.1559 56.6626 79.1331 56.7978Z" fill="white"/>
<path d="M66.8146 48.9792C66.7868 49.1435 66.5619 49.2417 66.3118 49.1988C66.0625 49.1563 65.8816 48.9896 65.909 48.8265C65.9376 48.6619 66.1622 48.5633 66.4123 48.6054C66.6631 48.648 66.8425 48.8157 66.8146 48.9792Z" fill="black"/>
<path d="M66.5446 48.9792C66.5372 49.0268 66.4263 49.0457 66.2972 49.0241C66.1685 49.002 66.0691 48.9468 66.0788 48.8996C66.0869 48.8521 66.1978 48.8327 66.3254 48.8548C66.4545 48.8764 66.5531 48.9317 66.5446 48.9792Z" fill="white"/>
<path d="M69.7278 49.3451C69.7004 49.509 69.475 49.6064 69.2249 49.5635C68.9752 49.5218 68.7947 49.3552 68.8233 49.1909C68.8511 49.027 69.0757 48.928 69.3258 48.971C69.5755 49.0123 69.7556 49.1812 69.7278 49.3451Z" fill="black"/>
<path d="M69.4603 49.3445C69.4522 49.3912 69.3409 49.4113 69.2126 49.3885C69.0827 49.3665 68.9849 49.3116 68.9926 49.2652C69.0015 49.2173 69.1121 49.198 69.2408 49.22C69.3695 49.2416 69.4677 49.2969 69.4603 49.3445Z" fill="white"/>
<path d="M68.4361 44.9357C68.4052 45.1209 68.0743 45.2202 67.6971 45.1583C67.321 45.0934 67.0407 44.8905 67.0728 44.7042C67.1037 44.5198 67.4358 44.4208 67.8107 44.4838C68.188 44.5476 68.4682 44.7505 68.4361 44.9357Z" fill="#301405"/>
<path d="M79.1882 52.0615C77.9988 50.7036 73.4338 53.1747 67.8777 51.8605C61.7893 50.4202 59.4129 47.0226 60.1133 44.994C60.9834 42.4734 70.7273 43.892 70.7273 43.892C70.7273 43.892 66.5519 41.9512 63.6126 39.8349C60.6718 37.7182 56.6731 32.5428 53.1459 32.014C49.6157 31.4837 47.7352 31.2499 45.1477 29.3094C45.1477 29.3094 44.1477 24.3103 40.326 23.1929C36.5032 22.0758 33.7985 25.6037 33.7985 25.6037C33.7985 25.6037 26.5652 23.7224 21.4506 23.664C16.3332 23.6045 15.6869 24.5457 15.3344 25.8986C15.3344 25.8986 7.10147 25.7216 4.6914 17.9008C4.6914 17.9008 7.45399 13.3141 5.16105 11.1974C2.86771 9.07994 0.515625 10.727 0.515625 13.0787C0.515625 15.4304 2.80934 14.1966 2.69145 16.7241C2.57356 19.2532 3.57353 20.8415 3.16187 22.0166C2.75059 23.1925 2.8681 24.3103 3.86808 25.0749C4.86766 25.8391 6.16025 25.5449 6.16025 25.5449C6.16025 25.5449 3.86808 26.0161 3.92644 27.7803C3.98558 29.5441 6.27854 29.1324 6.63145 28.5441C6.98436 27.9569 7.51314 29.3094 6.63145 30.3682C5.74975 31.4261 5.10268 31.8965 4.69179 33.4841C4.27936 35.072 6.39604 36.1883 8.0427 35.5412C9.68974 34.8953 10.6893 35.0128 11.8652 34.307C13.0414 33.6019 15.5106 33.1304 17.0989 31.837C18.6868 30.5433 20.0385 29.955 20.686 30.4261C21.3327 30.8966 18.7456 31.9549 19.5094 34.0728C20.2747 36.1891 23.803 35.0132 24.2139 33.5436C24.6252 32.0728 24.5085 31.1907 24.5085 31.1907C24.5085 31.1907 26.8022 31.544 26.3314 34.1903C25.8606 36.8357 24.7435 39.7185 26.2722 40.3061C27.801 40.894 24.5092 41.3049 23.9198 43.4815C23.3314 45.6565 25.2143 46.539 26.6255 46.4211C28.0368 46.3032 32.3084 46.4458 33.3872 49.2448C34.8286 52.9783 36.2109 55.1236 40.6797 57.8882C45.1133 60.6291 52.0339 63.0809 57.8269 64.1524C58.406 64.2676 58.99 64.3785 59.5822 64.4798C72.0214 66.5899 74.9517 62.4717 75.731 57.8839C76.053 55.9818 80.6524 53.7325 79.1882 52.0615Z" fill="url(#paint28_linear_670_48102)"/>
<path d="M54.0486 62.2974C54.0486 62.2974 42.9341 59.4173 39.2887 55.7124C35.6432 52.007 35.2319 49.0678 34.2324 47.7736C33.2324 46.4795 31.1006 45.568 28.5421 45.5251C25.9856 45.4811 24.6176 44.5982 24.9257 43.3203C24.9257 43.3203 26.1603 44.2449 28.4103 44.1572C30.6603 44.0683 32.777 43.2755 34.2327 44.7752C35.6881 46.2742 36.8496 44.8626 38.393 45.6566C39.2168 46.0806 39.739 47.2843 40.8039 48.4794C41.7343 49.5246 43.9839 50.4516 44.8022 51.244C48.3897 54.7124 51.1681 61.3141 54.2118 62.3724C57.2534 63.4304 54.0486 62.2974 54.0486 62.2974Z" fill="#592905"/>
<path d="M27.4762 41.2463C27.4762 41.2463 28.0939 39.8795 27.1674 39.5273C26.2412 39.174 26.2857 38.2479 26.6827 37.0353C27.0789 35.8216 27.8137 32.9009 27.0576 31.8526C25.6232 29.8677 22.4922 29.9122 22.4922 29.9122C22.4922 29.9122 24.8296 27.6633 27.6965 28.5446C28.5276 28.7997 28.9095 31.9632 29.4611 32.5147C30.0127 33.0659 29.3509 35.1606 28.7993 35.822C28.2478 36.4837 27.5868 37.8068 28.1817 38.3364C28.7773 38.8656 28.6231 40.3205 27.4762 41.2463Z" fill="#874A17"/>
<path d="M20.3898 32.3228C20.3898 32.3228 20.4404 33.2385 21.2792 33.0862C22.1172 32.9335 22.0673 32.1717 22.7272 32.4759C23.3877 32.7809 23.7681 31.8161 23.8953 31.5625C23.8953 31.5625 23.8705 34.0251 22.1435 34.3572C20.4153 34.6853 19.7813 33.5938 20.3898 32.3228Z" fill="#A86321"/>
<path d="M35.375 25.633C35.375 25.633 36.8303 23.5171 38.9037 24.4437C40.976 25.369 41.9906 25.1711 42.5635 25.8762C43.1371 26.5824 43.5565 27.6403 43.5344 28.7219C43.5124 29.8011 45.3651 31.1022 45.7184 31.4331C46.0705 31.7647 50.128 33.0202 50.8992 33.1311C51.6715 33.2421 54.2733 33.065 55.0672 33.903C55.8615 34.7411 59.0142 39.6142 59.478 40.0556C59.9407 40.4962 64.0863 42.0841 64.4833 42.2384C64.8806 42.393 66.3363 42.8332 66.3363 42.8332C66.3363 42.8332 61.372 42.2484 59.6102 42.4146C57.0297 42.657 54.5751 41.5035 54.09 39.453C53.6045 37.402 52.5095 35.8871 51.2312 34.8512C49.951 33.8145 47.2394 33.065 45.74 32.9104C44.2406 32.7558 42.3586 31.5436 41.7119 29.6318C41.1901 28.0914 42.388 26.9566 39.8515 26.9345C38.6432 26.9233 37.9652 25.0219 37.0738 25.0378C35.8389 25.0606 35.375 25.633 35.375 25.633Z" fill="#592905"/>
<path d="M21.2666 29.5818C21.2666 29.5818 20.296 27.9213 17.6057 27.7083C14.915 27.4949 13.7249 28.1339 10.505 27.1969C7.28516 26.2607 8.12395 26.8134 7.77104 25.7489C7.41851 24.6844 7.77104 24.4293 6.53682 23.6195C5.30067 22.8108 5.43364 21.945 5.40388 20.8376C5.37643 19.8074 4.19788 18.6795 4.11052 18.2968C4.02161 17.9134 3.97794 16.9339 4.19788 16.167C4.41859 15.4009 4.92263 14.4856 4.64007 13.2293C4.41897 12.2494 3.13992 11.0152 2.21416 12.2069C1.2884 13.3998 4.37568 12.292 3.53728 17.104C3.42132 17.7708 3.40702 18.8326 3.58135 19.6544C3.71509 20.284 4.00925 20.6648 4.15459 21.2581C4.43058 22.3899 4.52025 23.3729 4.75024 23.6605C5.41315 24.4915 6.88819 24.7694 7.19742 25.834C7.50627 26.8977 12.137 29.6236 13.416 29.4102C14.6951 29.1968 16.0627 28.985 16.4156 29.0271C16.6375 29.0538 16.7012 29.4036 16.5787 29.6564C16.2366 30.3634 15.8408 30.8389 14.9595 30.6313C13.8718 30.3758 13.0488 31.2563 12.6658 31.6255C12.2839 31.9931 9.78529 31.7952 8.78531 31.7952C7.78534 31.7952 7.57971 33.0444 6.60911 33.1291C5.63929 33.2141 6.25697 31.6587 6.25697 31.6587C5.91913 32.0255 5.22762 32.9583 6.16729 33.6115C7.10968 34.2648 8.28513 33.8396 9.19737 33.6973C10.0037 34.1047 10.8143 33.7023 11.2395 32.9668C11.5352 32.7399 12.004 32.6204 12.2247 32.5044C12.9309 32.1361 13.401 32.1079 14.1655 31.9366C14.9301 31.7673 16.4589 30.5462 18.1044 29.5803C19.7514 28.6147 20.9864 29.3812 20.9864 29.3812C20.9864 29.3812 20.9501 29.3507 20.8778 29.2904C21.0946 29.4465 21.2666 29.5818 21.2666 29.5818Z" fill="url(#paint29_linear_670_48102)"/>
<path d="M66.3335 42.8333C66.3335 42.8333 64.0387 42.1062 60.9746 41.7522C58.062 41.4182 57.0044 37.2544 55.9469 35.2258C54.8885 33.1973 54.0281 33.4389 49.0448 33.1308C44.0608 32.8223 42.7817 30.6164 42.2966 29.691C41.8127 28.7645 43.5007 28.7525 42.9437 26.6629C42.4733 24.8983 40.9731 26.3834 39.783 25.545C38.5913 24.707 38.4448 23.8396 36.6953 24.4866C36.6953 24.4866 37.8855 23.5613 40.1355 24.2226C42.3848 24.8836 43.1343 26.3397 43.3991 27.2651C43.6638 28.1912 43.5757 29.6465 45.2517 30.529C46.927 31.4111 50.6772 33.3082 52.4839 33.1308C54.2929 32.9545 55.3953 33.8815 56.2333 35.1594C57.0713 36.4392 60.2026 40.8933 66.3335 42.8333Z" fill="#874A17"/>
<path d="M6.82362 30.9923C6.82362 30.9923 7.7053 30.0662 7.52904 28.9197C7.35278 27.7728 6.99987 27.7945 6.4707 28.125C5.94191 28.4559 4.04556 28.7867 4.35402 27.1992C4.35402 27.1992 4.35402 27.7516 4.97094 27.6406C5.58901 27.5301 5.05983 28.5227 5.72081 28.0167C6.38256 27.5088 5.58862 27.2437 5.58862 27.2437C5.58862 27.2437 7.1108 27.0446 7.50701 27.6855C7.90437 28.3237 8.27932 29.8455 6.82362 30.9923Z" fill="url(#paint30_linear_670_48102)"/>
<path d="M50.7269 35.9981C50.7269 35.9981 48.6917 35.4175 46.3756 35.4403C44.0606 35.4619 41.046 36.0719 40.3626 33.9997C39.6788 31.9263 38.8922 30.7129 37.8343 30.6031C36.7759 30.4934 34.8641 31.7863 33.5851 30.6619C32.3056 29.5367 33.9677 27.178 31.3663 26.6048C28.7642 26.0308 27.3892 25.4869 26.1318 25.1781C24.8752 24.87 23.4999 24.9802 22.9266 25.0022C22.3546 25.0239 24.8381 24.5318 27.4619 25.3254C30.0869 26.1193 36.1281 27.0679 36.8563 27.442C37.5842 27.8178 38.9077 29.0752 39.2602 29.1625C39.6135 29.2507 39.944 29.2058 40.583 30.0883C41.2227 30.9704 41.9513 31.7419 42.5462 32.2711C43.1411 32.8002 44.6412 33.4183 45.4568 33.4624C46.2728 33.5064 49.5955 34.278 50.7269 35.9981Z" fill="#592905"/>
<path d="M36.3329 27.2363C36.3329 27.2363 28.4085 25.2367 25.6961 24.8173C22.9838 24.3987 19.4114 24.2665 17.9565 24.6194C16.5012 24.9723 16.3906 26.2297 16.3906 26.2297C16.3906 26.2297 16.6763 25.4574 17.7791 25.193C18.8834 24.9279 19.2796 24.333 19.8088 24.6855C20.3376 25.038 22.2343 25.6329 22.9397 25.2591C23.6463 24.8838 25.7406 24.9499 27.4599 25.6553C29.18 26.3608 30.5766 26.3754 31.4811 26.5304C32.3852 26.6839 36.3329 27.2363 36.3329 27.2363Z" fill="white"/>
<path d="M30.8828 26.4425C30.9563 26.4425 33.6025 26.8391 34.117 27.1332C34.6322 27.4278 35.7926 29.1026 36.8363 28.8831C37.8799 28.6624 38.0129 28.4127 38.5127 28.7358C39.0125 29.0582 40.0272 30.1618 40.8795 31.1316C41.7318 32.1022 42.3793 32.8954 44.9215 33.3805C44.9215 33.3805 42.5806 32.8115 41.7105 31.091C40.8381 29.3709 39.7806 29.2615 39.273 29.074C38.7663 28.8862 38.3473 28.5333 38.4014 28.0586C38.4571 27.5847 34.8854 26.8681 33.5615 26.5708C32.2388 26.2732 30.8828 26.4425 30.8828 26.4425Z" fill="white"/>
<path d="M15.5375 26.6048C15.5375 26.6048 11.8921 26.928 9.68689 25.4869C7.4813 24.0463 5.8934 21.6795 5.33524 20.6796C4.77631 19.6804 4.18761 18.0039 4.05541 17.4902C4.05541 17.4902 3.83509 18.8717 5.0121 20.6946C5.9193 22.102 4.98234 22.4882 5.59925 22.7526C6.21655 23.0173 7.8346 23.6648 8.01125 24.6052C8.18635 25.5457 8.89217 26.5457 10.0394 26.5754C11.1863 26.6048 12.1859 26.5754 12.8619 27.0153C13.5391 27.4579 15.5375 26.6048 15.5375 26.6048Z" fill="white"/>
<path d="M4.35615 14.7687C4.35615 14.7687 4.47366 12.7544 3.8266 12.2411C3.17953 11.7258 2.68089 12.1669 3.0624 12.8282C3.44508 13.4896 4.15052 13.7841 4.35615 14.7687Z" fill="white"/>
<path d="M1.6524 11.0781C1.6524 11.0781 0.675231 11.8999 0.800083 13.1805C0.918364 14.3861 2.03662 14.5709 2.38759 14.8855C2.94614 15.3853 3.07061 16.1128 2.96161 16.841C2.85106 17.5689 3.226 19.4583 3.226 19.4583C3.226 19.4583 3.05476 17.4328 3.226 16.7231C3.44671 15.8124 3.33887 14.182 2.49776 13.7909C1.54997 13.3494 1.03548 12.3348 1.6524 11.0781Z" fill="#592905"/>
<path d="M4.26081 27.1562C4.26081 27.1562 3.84103 28.3143 4.62416 28.7445C5.4069 29.1744 6.42194 28.5907 6.54293 28.38C6.6643 28.1713 7.0949 27.995 7.20391 28.1713C7.20391 28.1713 7.05045 27.8412 6.46562 28.1268C5.88194 28.4144 5.14288 28.7001 4.64618 28.3588C4.15025 28.0178 4.2496 27.421 4.26081 27.1562Z" fill="#592905"/>
<path d="M6.28401 25.4148C6.28401 25.4148 5.93882 25.1183 5.71193 25.0464C5.10931 24.8555 4.27168 23.9289 4.15418 23.4291C4.03551 22.9297 4.08576 21.9325 3.8894 21.4296C3.67603 20.8857 3.56586 20.6797 3.56586 20.6797C3.56586 20.6797 3.81634 21.738 3.52257 22.3113C3.22803 22.8853 3.40506 24.3843 4.27246 24.8698C5.13908 25.3549 5.9338 25.2822 6.25734 25.3993C6.26507 25.4016 6.27434 25.4105 6.28401 25.4148Z" fill="#592905"/>
<path d="M5.34047 33.1031C5.34047 33.1031 4.87006 34.3663 5.98754 35.0137C7.10502 35.66 7.98634 34.8669 8.92717 34.749C9.868 34.6322 11.0732 34.3961 11.5143 34.1317C11.9549 33.8669 13.1026 33.1615 14.0144 32.9257C14.9251 32.691 16.6015 31.9261 17.1457 31.412C17.6892 30.8971 19.3652 29.4275 20.4823 29.9273C21.6006 30.4267 21.1004 30.9419 21.1004 30.9419C21.1004 30.9419 21.4974 30.7065 21.4537 30.2207C21.4089 29.7367 20.3355 29.0889 19.2918 29.3104C18.2474 29.5299 16.6599 31.1476 15.8957 31.5005C15.1315 31.8526 14.1014 32.3965 13.3376 32.5148C12.573 32.6323 11.515 33.0439 11.4118 33.485C11.3094 33.926 10.4122 34.3818 9.44165 34.1765C8.47221 33.9697 8.35431 34.2936 7.59013 34.3377C6.82517 34.3817 5.92878 34.4564 5.34047 33.1031Z" fill="#4A1F05"/>
<path d="M21.2891 33.853C21.2891 33.853 21.9647 33.8229 22.1711 33.4406C22.3764 33.0598 23.0973 33.1028 22.9794 33.4854C22.8619 33.8677 22.1561 34.1023 21.2891 33.853Z" fill="white"/>
<path d="M20.8841 33.7923C20.8841 33.7923 20.7218 33.2932 20.5606 33.3215C20.3975 33.3516 20.2815 33.6609 20.8841 33.7923Z" fill="white"/>
<path d="M3.09375 7.08878C3.09375 7.08878 3.3365 7.5963 3.55644 7.55146C3.77716 7.5074 5.30977 7.09921 5.83933 5.61181C6.28772 4.34899 5.58538 3.73633 5.58538 3.73633C5.58538 3.73633 5.71758 4.66287 5.32099 5.08149C4.92325 5.50049 5.80609 5.96395 5.07863 6.22834C4.35039 6.49273 4.43891 6.29444 4.43891 6.29444C4.43891 6.29444 3.86489 7.70608 3.09375 7.08878Z" fill="#592905"/>
<path d="M3.30965 4.97339C3.30965 4.97339 3.42948 4.56327 4.5172 4.50992C5.21529 4.47629 5.49282 3.58958 4.71472 3.52658C3.93546 3.4628 3.23891 4.38469 3.30965 4.97339Z" fill="white"/>
<path d="M32.125 45.4805C32.125 45.4805 34.6533 46.068 35.9768 49.0965C37.3007 52.1251 39.5929 55.2112 42.8279 57.0349C46.062 58.8574 47.6201 59.2099 49.4133 59.9745C51.2084 60.7391 51.5311 61.0039 51.5311 61.0039C51.5311 61.0039 50.2668 59.5632 48.1203 58.5339C45.9735 57.5053 44.386 57.6804 43.8858 56.4755C43.3864 55.2707 43.0632 53.36 41.5043 52.3887C39.9466 51.4192 38.1824 51.0946 37.1535 49.214C36.1233 47.332 34.5954 45.6274 32.125 45.4805Z" fill="#874A17"/>
<path d="M49.1833 35.1908C49.1833 35.1908 47.5958 34.6025 45.5077 34.691C43.4204 34.7788 41.4209 34.691 41.1259 33.7204C40.8325 32.7502 39.4213 30.6034 38.9219 30.2207C38.9219 30.2207 40.2891 30.901 41.0092 31.9853C42.2009 33.7792 43.8607 33.9694 45.214 33.8522C46.5657 33.7355 48.5954 34.6327 49.1833 35.1908Z" fill="#874A17"/>
<path d="M11.146 32.4043C11.146 32.4043 10.1974 32.0514 9.55884 32.4267C8.91834 32.8009 9.29405 33.2648 8.98521 33.2648C8.67675 33.2648 8.47847 32.9118 7.97017 33.1546C7.46342 33.3973 6.91337 33.5732 6.51562 33.419C6.51562 33.419 7.08847 33.6405 8.10275 33.5523C9.11702 33.4634 9.02928 33.6405 9.22797 33.3749C9.42587 33.1101 9.44751 33.0007 9.80003 33.2651C10.1526 33.5299 10.6613 33.1326 10.771 32.8013C10.8816 32.4712 11.146 32.4043 11.146 32.4043Z" fill="white"/>
<path d="M15.0211 31.0025C15.2449 30.9449 14.2705 30.8595 13.7966 31.1575C13.3227 31.4555 12.9922 31.8409 12.9922 31.8409C12.9922 31.8409 13.9724 31.6975 14.2167 31.5208C14.4583 31.3446 14.6021 31.1134 15.0211 31.0025Z" fill="white"/>
<path d="M4.49219 27.7949C4.49219 27.7949 4.65492 28.1343 4.89574 28.1614C5.13732 28.19 5.19027 27.9132 5.03488 27.8262C4.88066 27.7396 4.85901 27.9816 4.49219 27.7949Z" fill="white"/>
<path d="M15.8624 28.2588C15.8624 28.2588 14.5617 28.2588 14.0982 28.5897C13.6351 28.9202 12.8408 29.2062 12.0031 28.5673C11.6723 28.3156 11.0569 28.1119 10.6367 27.9198C9.99084 27.6268 9.56951 27.403 9.48949 27.3767C9.3573 27.3327 11.8273 28.1479 12.1798 28.1919C12.5319 28.236 12.8632 27.9051 13.2381 28.0818C13.6131 28.2584 13.4144 28.4787 13.7897 28.413C14.1647 28.3465 14.407 28.1034 14.8044 28.1255C15.2002 28.1479 15.8624 28.2588 15.8624 28.2588Z" fill="white"/>
<path d="M5.86878 23.582C5.86878 23.582 6.70602 23.8031 6.83937 24.2878C6.97195 24.773 7.28003 24.8619 7.32448 25.1259C7.36854 25.3906 7.43426 25.6554 7.43426 25.6554C7.43426 25.6554 7.1258 24.8174 6.68515 24.575C6.24411 24.3327 5.84713 23.9798 5.71454 23.8476C5.58235 23.7142 5.86878 23.582 5.86878 23.582Z" fill="white"/>
<path d="M5.02493 22.6445C5.02493 22.6445 4.99207 23.1412 5.23482 23.2622C5.47679 23.3836 5.47679 23.2294 5.4335 23.108C5.38866 22.9866 5.08098 22.8316 5.02493 22.6445Z" fill="white"/>
<path d="M4.89793 16.1952C4.89793 16.1952 5.60375 13.8142 5.13333 12.755C4.66292 11.6967 3.83959 11.0496 2.78125 11.0794C2.78125 11.0794 3.78161 10.638 4.86933 11.4319C5.95705 12.2259 5.92805 14.1373 4.89793 16.1952Z" fill="#592905"/>
<path d="M6.92969 26.7203C6.92969 26.7203 8.20914 27.0763 8.29727 28.7411C8.38192 30.3406 7.13533 31.4539 7.13533 31.4539C7.13533 31.4539 8.5176 30.8362 9.42867 31.1006C10.3397 31.365 11.8399 31.2768 12.3103 30.8949C12.7811 30.513 14.0161 30.0125 14.6044 30.0125C15.192 30.0125 16.3686 29.7488 15.8093 29.5428C15.2507 29.3372 13.3984 30.3078 12.3397 29.9838C11.2813 29.6603 9.90682 29.0102 9.37687 28.4222C8.84809 27.8339 7.41518 26.6237 6.92969 26.7203Z" fill="#592905"/>
<path d="M6.40404 25.5742C6.40404 25.5742 6.41834 25.8545 5.88917 25.9867C5.35999 26.1185 4.74269 26.4277 4.50768 26.7648C4.27227 27.1034 4.62557 27.4713 4.83082 27.207C5.03646 26.941 5.43344 27.4126 5.41913 27.6028C5.40406 27.7941 5.81534 27.8092 5.75659 27.6325C5.69822 27.4571 5.05192 27.0736 5.3453 26.9859C5.63984 26.8973 6.31591 26.941 6.31591 26.7072C6.31591 26.471 6.80101 26.6627 6.80101 26.6627C6.80101 26.6627 6.22739 26.3392 6.3449 26.1919C6.46241 26.045 6.50685 25.7949 6.40404 25.5742Z" fill="#592905"/>
<path d="M20.997 31.3667C20.997 31.3667 20.6441 32.6465 21.394 32.3152C22.1439 31.9851 22.2985 31.6979 22.9815 31.9627C23.6649 32.2279 23.2467 31.1023 23.731 30.9044C24.2165 30.7061 26.1349 31.2128 26.5543 32.2283C26.5543 32.2283 26.3777 30.8383 24.7237 30.5518C23.0708 30.2654 22.7395 30.0884 22.365 30.3311C21.9893 30.5743 21.9672 30.5743 21.6588 30.9044C21.3496 31.2352 20.997 31.3667 20.997 31.3667Z" fill="#381405"/>
<path d="M16.625 26.6341C16.625 26.6341 18.9775 26.6634 19.771 27.3391C20.565 28.0171 22.0945 29.3394 22.3887 28.7515C22.6821 28.1628 26.2691 26.9278 27.4747 27.3689C28.6792 27.8103 30.6718 29.0082 30.8705 28.2587C31.0695 27.5092 32.4151 28.5896 32.5465 29.0082C32.5465 29.0082 32.3923 27.7519 31.1801 27.4419C29.9664 27.1338 30.2752 27.0681 29.0398 26.7141C27.8052 26.3615 26.9015 26.5169 26.0848 26.164C25.2692 25.8103 23.8138 25.1938 23.1965 25.4802C22.5785 25.7667 22.1154 26.2738 20.9032 26.009C19.6899 25.7446 19.8665 25.3256 19.2937 25.2815C18.7196 25.2379 18.1684 25.5459 17.7498 25.6785C17.3304 25.8103 16.7348 26.0898 16.625 26.6341Z" fill="url(#paint31_linear_670_48102)"/>
<path d="M24.2344 29.6233C24.2344 29.6233 26.2196 29.7351 27.0789 30.8371C27.9394 31.9391 27.8064 34.0566 27.6088 34.5853C27.6088 34.5853 27.939 33.8579 28.0936 33.2626C28.2474 32.6669 28.0495 32.2483 27.8064 32.0052C27.5644 31.7636 27.2119 30.7261 27.3217 30.374C27.4314 30.0207 26.8597 29.6454 26.4465 29.6755C26.0356 29.7057 25.2568 29.1015 24.2344 29.6233Z" fill="white"/>
<path d="M19.9812 28.7075C19.9812 28.7075 18.9816 28.1191 18.3496 28.1191C17.7161 28.1191 17.3064 28.2378 17.0551 28.2513C16.805 28.2664 16.3203 28.3248 16.3203 28.3248C16.3203 28.3248 16.9682 28.5741 17.4382 28.457C17.9078 28.3391 18.3199 28.2077 18.1726 28.4137C18.0261 28.6186 18.7613 28.825 18.805 28.6039C18.8491 28.3835 19.805 28.6182 19.9812 28.7075Z" fill="white"/>
<path d="M30.0078 29.2213C30.0078 29.2213 30.949 29.3686 31.2134 29.1626C31.4782 28.9573 32.4778 30.3678 32.5068 31.8092C32.5373 33.2494 35.9767 32.6607 37.5066 32.9557C39.0346 33.2494 40.1525 37.484 42.7392 37.484C45.3263 37.484 50.913 38.2485 52.148 41.1882C53.3822 44.1286 47.8551 41.1302 43.5038 42.7761C39.1521 44.4219 37.2117 42.3644 37.6821 41.1298C38.153 39.8948 38.8584 36.3073 35.3884 35.8964C31.9181 35.4844 30.3313 33.4261 30.8025 32.2498C31.2722 31.0736 30.5667 29.4853 30.0078 29.2213Z" fill="url(#paint32_linear_670_48102)"/>
<path d="M24.5029 27.1332C24.5029 27.1332 22.9154 27.4861 22.4303 27.6847C21.9448 27.8827 21.1288 27.2874 20.5339 26.8684C19.9383 26.449 19.1436 26.1846 18.4609 26.2947C18.4609 26.2947 19.4748 25.8761 19.7844 26.1629C20.0933 26.449 21.9668 27.0887 22.4083 26.604C22.8493 26.1185 24.5466 26.5375 24.5029 27.1332Z" fill="#874A17"/>
<path d="M27.5938 27.0322C27.5938 27.0322 28.6185 26.803 29.0665 27.0728C29.5141 27.3438 30.2056 27.6321 30.4487 27.6291C30.6911 27.6244 30.3339 28.1002 29.4426 27.8007C28.5508 27.5027 28.5771 27.2035 27.5938 27.0322Z" fill="#874A17"/>
<path d="M27.5437 36.1523C27.5437 36.1523 26.9928 37.3877 26.9043 37.7859C26.8162 38.1813 26.662 38.9316 27.2793 39.0421C27.897 39.1519 28.0071 39.615 28.0071 39.615C28.0071 39.615 28.338 38.9752 27.8529 38.6231C27.3674 38.2698 27.3458 37.2555 27.5437 36.1523Z" fill="white"/>
<path d="M38.4531 51.7656C38.4531 51.7656 39.5783 52.6473 40.416 52.7567C41.2548 52.8684 42.1361 54.1026 42.2246 54.7199C42.3131 55.3384 42.5771 55.8448 42.5771 55.8448C42.5771 55.8448 40.2173 54.6538 40.2838 54.0365C40.3499 53.4189 40.7472 53.11 40.1744 53.11C39.6008 53.1104 38.9607 52.6914 38.4531 51.7656Z" fill="white"/>
<path d="M44.9375 57.8594C44.9375 57.8594 47.4083 58.7705 47.7608 59.0198C48.1137 59.2702 49.804 59.8443 49.804 59.8443C49.804 59.8443 48.0549 58.6533 47.3333 58.4767C46.6139 58.2996 44.9375 57.8594 44.9375 57.8594Z" fill="white"/>
<path d="M28.384 44.7508C28.384 44.7508 26.7969 44.861 25.5391 44.0898C25.5391 44.0898 26.0682 44.9051 26.5541 44.9051C27.0396 44.9051 27.0829 45.0156 27.4354 45.038C27.7891 45.0601 28.384 45.0384 28.384 44.7508Z" fill="white"/>
<path d="M33.5822 28.0371C33.5822 28.0371 33.273 29.0954 34.1775 30.1325C34.4496 30.4437 35.6328 30.5512 35.9861 30.2647C36.3386 29.9775 37.1763 29.9547 37.1763 29.9547C37.1763 29.9547 36.3827 29.9335 35.8532 29.603C35.3244 29.2721 35.0151 28.7217 34.7948 28.7217C34.5749 28.7217 34.2656 29.0073 33.9135 28.809C33.5594 28.6107 33.5822 28.0371 33.5822 28.0371Z" fill="#874A17"/>
<path d="M29.2904 38.6094C29.2904 38.6094 29.8633 41.0983 28.3639 41.5977C26.8657 42.0967 26.6887 42.0975 26.3647 42.4794C26.0416 42.8621 27.9233 43.8617 29.4223 43.3035C30.922 42.7453 33.5976 42.8327 34.6854 43.5385C34.6854 43.5385 33.4504 42.5092 31.3928 42.3619C29.3341 42.215 29.4818 42.1559 30.0399 41.1277C30.5989 40.0991 29.7976 39.5475 29.2904 38.6094Z" fill="#874A17"/>
<path d="M21.8359 27.1488C21.8359 27.1488 22.1158 27.5303 22.6886 27.3103C23.263 27.0896 23.6156 26.957 23.6156 26.957C23.6156 26.957 22.8954 27.1194 22.7768 27.0448C22.6596 26.9725 22.4096 26.8983 21.8359 27.1488Z" fill="white"/>
<path d="M34.3754 29.415C34.3754 29.415 34.2644 29.9105 34.8597 29.9658C35.455 30.0211 35.8636 29.8769 35.8636 29.8769C35.8636 29.8769 35.0588 29.8 34.9374 29.58C34.8156 29.3589 34.6614 29.3481 34.3754 29.415Z" fill="white"/>
<path d="M39.0781 24.2904C39.0781 24.2904 39.5408 24.9085 40.1589 25.1285C40.7762 25.3496 41.0622 25.3932 41.3939 25.3932C41.7236 25.3932 42.4518 25.7017 42.4518 25.7017C42.4518 25.7017 40.3127 24.0036 39.0781 24.2904Z" fill="white"/>
<path d="M43.4158 28.457C43.4158 28.457 43.151 29.6043 44.1216 30.5443C45.0918 31.4848 47.0029 32.3386 48.1204 32.4554C49.2367 32.5733 49.6186 32.6908 49.6186 32.6908C49.6186 32.6908 46.9151 31.8385 45.7091 31.1613C44.5035 30.4864 43.945 29.7798 43.4158 28.457Z" fill="white"/>
<path d="M3.19531 1.2226C3.19531 1.2226 3.59151 1.47656 3.9564 1.33238C4.31975 1.18897 4.3414 0.626953 4.3414 0.626953C4.3414 0.626953 4.1002 0.880523 3.9336 0.9903C3.76816 1.10124 3.88954 1.36562 3.19531 1.2226Z" fill="#592905"/>
<path d="M4.04377 0.408628C4.04377 0.550488 3.88606 0.665279 3.69279 0.665279C3.50029 0.665279 3.34375 0.550488 3.34375 0.408628C3.34375 0.267928 3.50029 0.152344 3.69279 0.152344C3.88606 0.152344 4.04377 0.267542 4.04377 0.408628Z" fill="white"/>
<path d="M3.32205 0.82059C3.32205 0.887461 3.27605 0.941961 3.21922 0.941961C3.16318 0.941961 3.11719 0.887461 3.11719 0.82059C3.11719 0.753332 3.16318 0.699219 3.21922 0.699219C3.27605 0.699219 3.32205 0.752946 3.32205 0.82059Z" fill="white"/>
<path d="M18.5671 19.3747C18.6471 19.9128 18.0944 20.4396 17.3333 20.5517C16.5737 20.6642 15.8923 20.3194 15.8122 19.7817C15.733 19.2429 16.2858 18.7157 17.0453 18.6032C17.8072 18.4911 18.4875 18.8355 18.5671 19.3747Z" fill="url(#paint33_linear_670_48102)"/>
<path d="M16.0391 19.8747C16.0391 19.8747 16.5149 20.4413 17.3204 20.3548C18.1256 20.2678 18.3958 19.6169 18.3324 19.4004C18.3324 19.4004 17.9973 19.7463 17.7224 19.8059C17.4476 19.8662 17.4584 20.289 17.194 20.238C16.9293 20.187 16.5663 19.7386 16.0391 19.8747Z" fill="#381405"/>
<path d="M18.1973 19.1732C18.1737 19.3336 17.9074 19.4283 17.6013 19.3854C17.2944 19.3421 17.0644 19.1774 17.0875 19.017C17.1096 18.8566 17.3771 18.7619 17.6836 18.8056C17.9894 18.8485 18.2201 19.0131 18.1973 19.1732Z" fill="white"/>
<path d="M16.7711 19.1933C16.7823 19.2667 16.6741 19.3448 16.5314 19.3653C16.3876 19.3873 16.2616 19.3433 16.2508 19.2698C16.2396 19.1956 16.347 19.1183 16.4916 19.0974C16.635 19.0758 16.7614 19.1187 16.7711 19.1933Z" fill="white"/>
<path d="M19.1756 42.37C19.0856 42.9278 18.5181 43.247 17.9109 43.0812C17.3017 42.915 16.8831 42.3275 16.9731 41.7689C17.0628 41.2108 17.6302 40.8915 18.2379 41.0577C18.8459 41.2247 19.2661 41.8114 19.1756 42.37Z" fill="url(#paint34_linear_670_48102)"/>
<path d="M17.1172 41.9453C17.1172 41.9453 17.3193 42.677 17.9537 42.8831C18.588 43.091 18.9749 42.5472 18.9873 42.3125C18.9873 42.3125 18.6367 42.5302 18.4125 42.49C18.1867 42.4482 18.077 42.8684 17.8906 42.723C17.7036 42.5762 17.5544 42.0029 17.1172 41.9453Z" fill="#381405"/>
<path d="M18.9533 42.0362C18.8915 42.187 18.663 42.1827 18.4427 42.0285C18.2231 41.8742 18.094 41.6284 18.1563 41.4784C18.2177 41.33 18.4477 41.3327 18.6673 41.4869C18.8876 41.6419 19.0155 41.8878 18.9533 42.0362Z" fill="white"/>
<path d="M17.8551 41.5392C17.8423 41.6165 17.7395 41.6529 17.6243 41.6231C17.5084 41.591 17.426 41.5029 17.4388 41.4263C17.4516 41.3483 17.5548 41.3119 17.6703 41.3432C17.784 41.3749 17.8675 41.4635 17.8551 41.5392Z" fill="white"/>
<path d="M22.8832 48.0221C23.0394 48.3572 22.8531 48.7349 22.4669 48.8651C22.0808 48.9958 21.6417 48.8299 21.4851 48.4952C21.3286 48.1597 21.5149 47.7816 21.901 47.6518C22.2872 47.5215 22.7263 47.6881 22.8832 48.0221Z" fill="url(#paint35_linear_670_48102)"/>
<path d="M21.6328 48.5371C21.6328 48.5371 22.0097 48.8599 22.4244 48.7416C22.8392 48.6237 22.8493 48.1896 22.7681 48.0586C22.7681 48.0586 22.6606 48.3033 22.5253 48.3628C22.3904 48.4212 22.4847 48.6894 22.3321 48.6771C22.1786 48.6662 21.8883 48.4103 21.6328 48.5371Z" fill="#381405"/>
<path d="M22.6563 47.9226C22.6783 48.0274 22.5554 48.1078 22.3799 48.1043C22.2056 48.1004 22.0471 48.0142 22.0258 47.9103C22.0046 47.807 22.1279 47.7259 22.3022 47.7286C22.4761 47.7328 22.635 47.8202 22.6563 47.9226Z" fill="white"/>
<path d="M21.8874 48.0487C21.9087 48.0951 21.8669 48.1519 21.7951 48.1766C21.7204 48.2014 21.6443 48.1844 21.623 48.1372C21.601 48.0904 21.6431 48.0328 21.717 48.0089C21.7889 47.9845 21.8658 48.0027 21.8874 48.0487Z" fill="white"/>
<path d="M7.91341 39.6484C8.02126 40.3766 7.27331 41.0909 6.2428 41.244C5.21228 41.3955 4.28922 40.929 4.18215 40.2C4.07469 39.4713 4.82226 38.7562 5.85239 38.6047C6.88251 38.4532 7.80557 38.9198 7.91341 39.6484Z" fill="url(#paint36_linear_670_48102)"/>
<path d="M4.49219 40.3256C4.49219 40.3256 5.13654 41.0941 6.2262 40.9762C7.31623 40.8594 7.68345 39.9762 7.59648 39.6836C7.59648 39.6836 7.14306 40.1529 6.77083 40.2336C6.39898 40.314 6.41406 40.8877 6.05496 40.8185C5.69625 40.7485 5.20496 40.1432 4.49219 40.3256Z" fill="#381405"/>
<path d="M7.18265 39.3227C7.19077 39.5399 6.834 39.727 6.38909 39.7405C5.94419 39.7537 5.57697 39.5886 5.5704 39.371C5.56383 39.1538 5.91983 38.9675 6.36628 38.9539C6.8108 38.94 7.17724 39.1062 7.18265 39.3227Z" fill="white"/>
<path d="M10.9912 38.0478C10.9336 38.3288 10.5648 38.49 10.1671 38.4092C9.77123 38.3273 9.49603 38.0327 9.55478 37.7525C9.61199 37.4715 9.98074 37.3103 10.3769 37.3926C10.7735 37.4734 11.0488 37.7679 10.9912 38.0478Z" fill="url(#paint37_linear_670_48102)"/>
<path d="M9.64062 37.8379C9.64062 37.8379 9.77359 38.2051 10.1872 38.3075C10.6012 38.4096 10.852 38.1363 10.8598 38.0176C10.8598 38.0176 10.6309 38.1286 10.4841 38.1085C10.3379 38.0876 10.2672 38.2998 10.1454 38.2267C10.0241 38.1533 9.92589 37.8665 9.64062 37.8379Z" fill="#381405"/>
<path d="M10.7558 37.8298C10.7295 37.911 10.5745 37.9327 10.4103 37.877C10.2456 37.8225 10.1335 37.7143 10.1602 37.6335C10.1868 37.5535 10.3422 37.5322 10.5061 37.5875C10.6704 37.6412 10.7821 37.751 10.7558 37.8298Z" fill="white"/>
<defs>
<linearGradient id="paint0_linear_670_48102" x1="68.365" y1="59.2608" x2="48.6884" y2="124.216" gradientUnits="userSpaceOnUse">
<stop offset="0.4569" stop-color="#291200"/>
<stop offset="1" stop-color="#3C2717"/>
</linearGradient>
<linearGradient id="paint1_linear_670_48102" x1="68.3646" y1="59.2614" x2="49.2465" y2="122.373" gradientUnits="userSpaceOnUse">
<stop offset="0.1168" stop-color="#473324"/>
<stop offset="0.5939" stop-color="white"/>
</linearGradient>
<linearGradient id="paint2_linear_670_48102" x1="103.687" y1="69.2962" x2="26.5215" y2="105.332" gradientUnits="userSpaceOnUse">
<stop offset="0.2335" stop-color="#A59B94"/>
<stop offset="0.7208" stop-color="#E1DEDB"/>
</linearGradient>
<linearGradient id="paint3_linear_670_48102" x1="98.2814" y1="86.8269" x2="92.5136" y2="103.144" gradientUnits="userSpaceOnUse">
<stop offset="0.0051" stop-color="#85786E"/>
<stop offset="0.736" stop-color="#897D73"/>
</linearGradient>
<linearGradient id="paint4_linear_670_48102" x1="102.569" y1="100.305" x2="82.4267" y2="127.704" gradientUnits="userSpaceOnUse">
<stop offset="0.0051" stop-color="#85786E"/>
<stop offset="0.736" stop-color="#897D73"/>
</linearGradient>
<linearGradient id="paint5_linear_670_48102" x1="16.2367" y1="68.4297" x2="19.4691" y2="104.563" gradientUnits="userSpaceOnUse">
<stop offset="0.2335" stop-color="#8B7F75"/>
<stop offset="0.736" stop-color="#EAE7E6"/>
</linearGradient>
<linearGradient id="paint6_linear_670_48102" x1="102.326" y1="94.5936" x2="112.274" y2="111.403" gradientUnits="userSpaceOnUse">
<stop offset="0.132" stop-color="#493626"/>
<stop offset="0.9898" stop-color="#85786E"/>
</linearGradient>
<linearGradient id="paint7_linear_670_48102" x1="96.5515" y1="108.701" x2="16.595" y2="84.4805" gradientUnits="userSpaceOnUse">
<stop offset="0.0051" stop-color="#A39991"/>
<stop offset="0.5076" stop-color="white"/>
</linearGradient>
<linearGradient id="paint8_linear_670_48102" x1="75.8346" y1="99.9284" x2="108.206" y2="95.8709" gradientUnits="userSpaceOnUse">
<stop stop-color="#453121"/>
<stop offset="1" stop-color="#897D73"/>
</linearGradient>
<linearGradient id="paint9_linear_670_48102" x1="81.8764" y1="98.206" x2="101.04" y2="125.367" gradientUnits="userSpaceOnUse">
<stop stop-color="#453121"/>
<stop offset="1" stop-color="#897D73"/>
</linearGradient>
<linearGradient id="paint10_linear_670_48102" x1="91.276" y1="95.3681" x2="104.247" y2="113.753" gradientUnits="userSpaceOnUse">
<stop offset="0.132" stop-color="#36200F"/>
<stop offset="0.9898" stop-color="#706054"/>
</linearGradient>
<linearGradient id="paint11_linear_670_48102" x1="26.6104" y1="85.921" x2="85.0894" y2="103.636" gradientUnits="userSpaceOnUse">
<stop offset="0.2792" stop-color="#ACA39C"/>
<stop offset="1" stop-color="#291200"/>
</linearGradient>
<linearGradient id="paint12_linear_670_48102" x1="80.8342" y1="86.3781" x2="41.8135" y2="102.057" gradientUnits="userSpaceOnUse">
<stop offset="0.2335" stop-color="#7F7166"/>
<stop offset="0.7208" stop-color="#E1DEDB"/>
</linearGradient>
<linearGradient id="paint13_linear_670_48102" x1="68.1615" y1="99.6295" x2="92.7989" y2="96.7481" gradientUnits="userSpaceOnUse">
<stop offset="0.132" stop-color="#36200F"/>
<stop offset="0.9898" stop-color="#85786E"/>
</linearGradient>
<linearGradient id="paint14_linear_670_48102" x1="80.8025" y1="100.058" x2="88.8693" y2="111.491" gradientUnits="userSpaceOnUse">
<stop offset="0.132" stop-color="#36200F"/>
<stop offset="0.9898" stop-color="#85786E"/>
</linearGradient>
<linearGradient id="paint15_linear_670_48102" x1="56.926" y1="77.4769" x2="55.1814" y2="108.269" gradientUnits="userSpaceOnUse">
<stop offset="0.4569" stop-color="#291200"/>
<stop offset="1" stop-color="#3C2717"/>
</linearGradient>
<linearGradient id="paint16_linear_670_48102" x1="95.2756" y1="109.173" x2="106.717" y2="113.77" gradientUnits="userSpaceOnUse">
<stop stop-color="#453121"/>
<stop offset="1" stop-color="#635143"/>
</linearGradient>
<linearGradient id="paint17_linear_670_48102" x1="69.9832" y1="117.377" x2="77.5948" y2="128.21" gradientUnits="userSpaceOnUse">
<stop stop-color="#453121"/>
<stop offset="1" stop-color="#635143"/>
</linearGradient>
<linearGradient id="paint18_linear_670_48102" x1="79.8976" y1="116.3" x2="94.5445" y2="126.753" gradientUnits="userSpaceOnUse">
<stop stop-color="#453121"/>
<stop offset="1" stop-color="#635143"/>
</linearGradient>
<radialGradient id="paint19_radial_670_48102" cx="0" cy="0" r="1" gradientTransform="matrix(21.9864 2.52924 -2.68856 22.7012 94.5292 63.4989)" gradientUnits="userSpaceOnUse">
<stop offset="0.0964" stop-color="#453121"/>
<stop offset="1" stop-color="#E5E3E0"/>
</radialGradient>
<radialGradient id="paint20_radial_670_48102" cx="0" cy="0" r="1" gradientTransform="matrix(24.2738 4.11909 -4.25696 25.0764 83.7144 86.3626)" gradientUnits="userSpaceOnUse">
<stop offset="0.0051" stop-color="#3C2717"/>
<stop offset="0.2284" stop-color="#615042"/>
<stop offset="1" stop-color="#897D73"/>
</radialGradient>
<radialGradient id="paint21_radial_670_48102" cx="0" cy="0" r="1" gradientTransform="matrix(16.997 1.95527 -2.07844 17.5496 95.2965 62.1013)" gradientUnits="userSpaceOnUse">
<stop stop-color="#564436"/>
<stop offset="0.8325" stop-color="white"/>
</radialGradient>
<radialGradient id="paint22_radial_670_48102" cx="0" cy="0" r="1" gradientTransform="matrix(26.1054 4.42974 -4.81094 28.3398 57.3268 80.4833)" gradientUnits="userSpaceOnUse">
<stop offset="0.1624" stop-color="#948880"/>
<stop offset="0.8325" stop-color="white"/>
</radialGradient>
<radialGradient id="paint23_radial_670_48102" cx="0" cy="0" r="1" gradientTransform="matrix(25.6357 4.35019 -4.4958 26.4834 58.0931 76.0084)" gradientUnits="userSpaceOnUse">
<stop offset="0.0051" stop-color="#948880"/>
<stop offset="0.8325" stop-color="white"/>
</radialGradient>
<radialGradient id="paint24_radial_670_48102" cx="0" cy="0" r="1" gradientTransform="matrix(34.9869 5.93682 -6.44771 37.9815 56.8477 80.4012)" gradientUnits="userSpaceOnUse">
<stop offset="0.0152" stop-color="#85786E"/>
<stop offset="1" stop-color="#EEECEB"/>
</radialGradient>
<radialGradient id="paint25_radial_670_48102" cx="0" cy="0" r="1" gradientTransform="matrix(42.3863 7.1953 -7.76087 45.7169 93.0303 50.2292)" gradientUnits="userSpaceOnUse">
<stop stop-color="#291200"/>
<stop offset="1" stop-color="#BBB3AD"/>
</radialGradient>
<linearGradient id="paint26_linear_670_48102" x1="5.16032" y1="6.85075" x2="3.20389" y2="-1.28891" gradientUnits="userSpaceOnUse">
<stop stop-color="#DE9405"/>
<stop offset="0.8407" stop-color="#5E1405"/>
</linearGradient>
<linearGradient id="paint27_linear_670_48102" x1="4.18454" y1="1.05031" x2="1.52654" y2="-0.186311" gradientUnits="userSpaceOnUse">
<stop stop-color="#DE9405"/>
<stop offset="0.8407" stop-color="#5E1405"/>
</linearGradient>
<linearGradient id="paint28_linear_670_48102" x1="22.2327" y1="14.1467" x2="51.1642" y2="56.8384" gradientUnits="userSpaceOnUse">
<stop stop-color="#9E5205"/>
<stop offset="0.4615" stop-color="#301405"/>
<stop offset="1"/>
</linearGradient>
<linearGradient id="paint29_linear_670_48102" x1="2.03848" y1="22.8421" x2="21.2665" y2="22.8421" gradientUnits="userSpaceOnUse">
<stop stop-color="#CC8233"/>
<stop offset="0.4945" stop-color="#A86321"/>
</linearGradient>
<linearGradient id="paint30_linear_670_48102" x1="5.63856" y1="28.7155" x2="9.91634" y2="30.215" gradientUnits="userSpaceOnUse">
<stop stop-color="#CC8233"/>
<stop offset="0.4945" stop-color="#A86321"/>
</linearGradient>
<linearGradient id="paint31_linear_670_48102" x1="18.2332" y1="26.1891" x2="32.9203" y2="29.1883" gradientUnits="userSpaceOnUse">
<stop stop-color="#592905"/>
<stop offset="1" stop-color="#381405"/>
</linearGradient>
<linearGradient id="paint32_linear_670_48102" x1="31.0672" y1="35.3267" x2="53.3732" y2="39.8817" gradientUnits="userSpaceOnUse">
<stop stop-color="#592905"/>
<stop offset="1" stop-color="#381405"/>
</linearGradient>
<linearGradient id="paint33_linear_670_48102" x1="17.583" y1="20.3363" x2="15.4387" y2="16.0514" gradientUnits="userSpaceOnUse">
<stop stop-color="#9E5205"/>
<stop offset="0.4615" stop-color="#301405"/>
<stop offset="1"/>
</linearGradient>
<linearGradient id="paint34_linear_670_48102" x1="18.1723" y1="42.9424" x2="17.6249" y2="37.9903" gradientUnits="userSpaceOnUse">
<stop stop-color="#9E5205"/>
<stop offset="0.4615" stop-color="#301405"/>
<stop offset="1"/>
</linearGradient>
<linearGradient id="paint35_linear_670_48102" x1="22.5573" y1="48.6788" x2="20.4476" y2="46.1999" gradientUnits="userSpaceOnUse">
<stop stop-color="#9E5205"/>
<stop offset="0.4615" stop-color="#301405"/>
<stop offset="1"/>
</linearGradient>
<linearGradient id="paint36_linear_670_48102" x1="6.57536" y1="40.9526" x2="3.67106" y2="35.1492" gradientUnits="userSpaceOnUse">
<stop stop-color="#9E5205"/>
<stop offset="0.4615" stop-color="#301405"/>
<stop offset="1"/>
</linearGradient>
<linearGradient id="paint37_linear_670_48102" x1="10.3197" y1="38.3394" x2="10.0324" y2="35.8323" gradientUnits="userSpaceOnUse">
<stop stop-color="#9E5205"/>
<stop offset="0.4615" stop-color="#301405"/>
<stop offset="1"/>
</linearGradient>
</defs>
</svg>
