<svg width="119" height="139" viewBox="0 0 119 139" fill="none" xmlns="http://www.w3.org/2000/svg">
<g clip-path="url(#clip0_670_67074)">
<path d="M110.4 38.2612V29.6782H108.082V22.5027H99.2554V12.1258H97.9312V7.48924H79.6835V4.56387H71.2941C69.9648 3.0517 65.0806 1.92969 59.2556 1.92969C53.4306 1.92969 48.5465 3.05177 47.2172 4.56387H38.8277V7.48924H20.58V12.1258H19.2559V22.5027H10.4288V29.6782H8.11173V38.2612H1.13281V40.8692L2.60171 42.6493L6.79932 47.7204L6.7593 48.6915L6.74456 49.0497L5.78989 72.2114H3.97725V73.1654L5.67949 74.8762H5.68008L3.03615 139.022H6.92854H8.82891H12.1391H29.7932H31.5587H35.4757H36.0549H41.2684H44.5786V83.7874L45.1132 81.6351V80.7878L44.9616 80.4542C46.469 74.3065 52.2941 69.7231 59.2556 69.7231C66.2169 69.7231 72.0421 74.3065 73.5494 80.4543L73.3978 80.7878V81.6351L73.9325 83.7874V139.022H77.2426H82.4561H83.0354H86.9524H88.7178H106.372H109.682H111.583H115.475L112.831 74.8762H112.832L114.534 73.1654V72.2114H112.721L111.764 48.9884L111.752 48.6915L111.712 47.7204L115.909 42.6493L117.378 40.8692V38.2612H110.4Z" fill="#DEBF93"/>
<path d="M41.2656 76.032V76.0361L41.7395 74.325V74.3242L41.2656 76.032Z" fill="#824B33"/>
<path d="M73.9297 83.7865V139.021H77.2398V76.0352L73.9297 83.7865Z" fill="#824B33"/>
<path d="M41.2656 76.0352V139.021H44.5758V83.7865L41.2656 76.0352Z" fill="#824B33"/>
<path d="M77.2396 76.0359V76.032L76.7656 74.3242V74.3248L77.2396 76.0359Z" fill="#824B33"/>
<path d="M76.768 73.3726V73.3707H77.2054C76.9968 69.9189 75.8151 66.7316 73.932 64.0756C73.5106 63.4812 73.0581 62.9104 72.5695 62.3724C72.1824 61.9463 71.7751 61.5388 71.3492 61.1516C70.9233 60.7643 70.4787 60.3972 70.017 60.0517C69.7861 59.879 69.551 59.7117 69.3118 59.55C68.8334 59.2266 68.3385 58.9256 67.8288 58.6486C67.5739 58.51 67.3153 58.3776 67.0532 58.2512C64.6941 57.1139 62.049 56.4766 59.2551 56.4766C57.082 56.4766 54.9989 56.8621 53.0705 57.5686C51.4175 58.1741 49.8782 59.0154 48.4931 60.0518C48.0314 60.3973 47.5868 60.7644 47.1609 61.1516C46.9479 61.3453 46.7396 61.5439 46.5362 61.7475C46.1293 62.1546 45.7418 62.5811 45.3753 63.0255C43.0278 65.8714 41.5414 69.4524 41.3047 73.3708H41.742V73.3726L44.9612 80.455C46.4685 74.3073 52.2937 69.7239 59.2551 69.7239C66.2164 69.7239 72.0416 74.3073 73.5489 80.4551L76.768 73.3726Z" fill="#824B33"/>
<path d="M35.4732 50.1835L36.0524 50.5974V49.2313L35.4732 48.6914H6.75674L6.74199 49.0497L6.69531 50.1835H35.4732Z" fill="#E5C9AF"/>
<path d="M83.0323 48.6914L82.4531 49.2313V50.5974L83.0323 50.1835H111.81L111.761 48.9883L111.749 48.6914H83.0323Z" fill="#E5C9AF"/>
<path d="M36.0536 73.3711H35.4743H31.5849L31.2891 73.6196L31.292 74.325H41.7411H41.7411V73.3729V73.3711H41.3038H36.0536Z" fill="#FCF0E2"/>
<path d="M77.2029 73.3711H76.7656V73.3729V74.325H76.7658H87.2148L87.2176 73.6196L86.9219 73.3711H83.0325H82.4532H77.2029Z" fill="#FCF0E2"/>
<path d="M88.7165 72.2109H87.2243H86.6835L86.6797 73.1649H114.533V72.2109H112.72H88.7165Z" fill="#FCF0E2"/>
<path d="M31.8294 73.1649L31.8255 72.2109H31.2848H29.7926H5.7892H3.97656V73.1649H31.8294Z" fill="#FCF0E2"/>
<path d="M86.6797 97.4442H111.024V96.4902H88.7165H87.1249H86.6835L86.6797 97.4442Z" fill="#FCF0E2"/>
<path d="M35.4688 50.1836V73.3701H36.048V50.5976L35.4688 50.1836Z" fill="#C9A07C"/>
<path d="M29.7891 65.7773V72.2122H31.2812L31.2629 67.7368L29.7891 65.7773Z" fill="#C9A07C"/>
<path d="M22.3891 64.2133C25.8504 63.4263 28.0186 59.981 27.232 56.518C26.4454 53.055 23.0018 50.8857 19.5406 51.6727C16.0793 52.4597 13.9111 55.905 14.6977 59.3679C15.4843 62.8309 18.9279 65.0002 22.3891 64.2133Z" fill="#C9A07C"/>
<path d="M21.1549 63.7244C24.4615 63.6198 27.0574 60.8532 26.9528 57.5449C26.8483 54.2367 24.083 51.6396 20.7763 51.7442C17.4696 51.8488 14.8738 54.6155 14.9784 57.9237C15.0829 61.2319 17.8482 63.829 21.1549 63.7244Z" fill="#DEBF93"/>
<path d="M23.6068 62.6513C26.3704 61.1875 27.4246 57.7594 25.9616 54.9945C24.4985 52.2296 21.0721 51.1748 18.3086 52.6386C15.545 54.1024 14.4907 57.5305 15.9538 60.2954C17.4169 63.0603 20.8433 64.115 23.6068 62.6513Z" fill="#C9A07C"/>
<path d="M82.4531 50.5976V73.3701H83.0323V50.1836L82.4531 50.5976Z" fill="#C9A07C"/>
<path d="M87.2448 67.7368L87.2266 72.2122H88.7187V65.7773L87.2448 67.7368Z" fill="#C9A07C"/>
<path d="M59.2557 40.8691H1.13281L2.60171 42.6492L6.79932 47.7203L7.00835 42.6492H35.4757V42.6493V48.6915L36.055 49.2314V42.6493V42.6492H41.2686H59.2557H77.2428H82.4563V42.6493V49.2314L83.0355 48.6915V42.6493V42.6492H111.503L111.712 47.7203L115.91 42.6492L117.378 40.8691H59.2557Z" fill="#C9A07C"/>
<path d="M102.087 62.4922C104.597 59.981 104.597 55.9096 102.087 53.3984C99.5773 50.8872 95.5078 50.8872 92.9978 53.3984C90.4879 55.9096 90.4879 59.981 92.9978 62.4922C95.5078 65.0034 99.5773 65.0034 102.087 62.4922Z" fill="#C9A07C"/>
<path d="M98.1252 63.7004C101.417 63.3744 103.822 60.44 103.496 57.1464C103.17 53.8527 100.237 51.4469 96.9452 51.773C93.6531 52.099 91.2485 55.0333 91.5744 58.327C91.9003 61.6207 94.8332 64.0264 98.1252 63.7004Z" fill="#DEBF93"/>
<path d="M101.542 61.646C103.753 59.4339 103.753 55.8474 101.542 53.6352C99.3305 51.4231 95.7457 51.4231 93.5347 53.6352C91.3236 55.8474 91.3236 59.4339 93.5347 61.646C95.7457 63.8581 99.3305 63.8581 101.542 61.646Z" fill="#C9A07C"/>
<path d="M101.189 60.9802C103.203 58.9654 103.203 55.6987 101.189 53.6839C99.1753 51.6691 95.9102 51.6691 93.8964 53.6839C91.8825 55.6987 91.8825 58.9654 93.8964 60.9802C95.9102 62.995 99.1753 62.995 101.189 60.9802Z" fill="#DEBF93"/>
<path d="M40.5871 20.0427C42.0932 18.5359 42.0932 16.093 40.5871 14.5862C39.0811 13.0794 36.6393 13.0794 35.1332 14.5862C33.6271 16.093 33.6271 18.5359 35.1332 20.0427C36.6393 21.5495 39.0811 21.5495 40.5871 20.0427Z" fill="#C9A07C"/>
<path d="M41.3246 17.7033C41.6546 15.7907 40.3725 13.9726 38.4609 13.6425C36.5493 13.3124 34.7322 14.5952 34.4022 16.5077C34.0722 18.4203 35.3543 20.2383 37.2659 20.5685C39.1775 20.8986 40.9946 19.6158 41.3246 17.7033Z" fill="#DEBF93"/>
<path d="M82.6714 20.6008C84.4834 19.4806 85.0445 17.1029 83.9248 15.2901C82.8051 13.4773 80.4286 12.9158 78.6167 14.0361C76.8048 15.1563 76.2436 17.534 77.3633 19.3468C78.483 21.1596 80.8595 21.721 82.6714 20.6008Z" fill="#C9A07C"/>
<path d="M83.6275 18.9475C84.6474 17.2964 84.1363 15.1308 82.486 14.1104C80.8356 13.0901 78.6711 13.6015 77.6512 15.2526C76.6314 16.9037 77.1425 19.0693 78.7928 20.0897C80.4431 21.11 82.6077 20.5986 83.6275 18.9475Z" fill="#DEBF93"/>
<path d="M41.7418 74.3229V74.3226H31.2927L31.2898 73.6172L31.5857 73.3687L31.8294 73.1641H3.97656L5.6788 74.8749H5.67939H29.7926V96.4888H31.3841L31.3002 75.9982L31.3004 76.0335H35.475V139.021H36.0543V76.0335H41.2671L41.2679 76.0307L41.7418 74.3229Z" fill="#C9A07C"/>
<path d="M41.2656 76.0353L44.5758 83.7866L45.1104 81.6343L41.7395 74.3242L41.2656 76.0353Z" fill="#C9A07C"/>
<path d="M73.3984 81.6343L73.9331 83.7866L77.2433 76.0353L76.7693 74.3242L73.3984 81.6343Z" fill="#C9A07C"/>
<path d="M86.9218 73.3707L87.2175 73.6192L87.2147 74.3246H76.7656V74.3251L77.2396 76.0328L77.2403 76.0354H82.4531V139.023H83.0323V76.0354H87.207L87.2076 75.8916L87.1233 96.4907H88.7148V74.8768V74.8769H112.828H112.829L114.531 73.166H86.678L86.9218 73.3707Z" fill="#C9A07C"/>
<path d="M87.1196 97.8148L86.951 139.023H88.7165V99.1561V99.1562H109.429L111.024 97.4453H86.6797L87.1196 97.8148Z" fill="#C9A07C"/>
<path d="M7.48438 97.4453L9.07857 99.1562H29.7915V99.1561V139.023H31.557L31.3884 97.8148L31.8283 97.4453H7.48438Z" fill="#C9A07C"/>
<path d="M24.611 60.9802C26.6248 58.9654 26.6248 55.6987 24.611 53.6839C22.5971 51.6691 19.3321 51.6691 17.3182 53.6839C15.3044 55.6987 15.3044 58.9654 17.3182 60.9802C19.3321 62.995 22.5971 62.995 24.611 60.9802Z" fill="#DEBF93"/>
<path d="M7.48438 96.4902V97.4442H31.8283L31.8245 96.4902H31.383H29.7915H7.48438Z" fill="#FCF0E2"/>
<path d="M103.205 29.8165H15.3027C15.2262 29.8165 15.1641 29.7543 15.1641 29.6778C15.1641 29.6012 15.2262 29.5391 15.3027 29.5391H103.205C103.282 29.5391 103.344 29.6012 103.344 29.6778C103.344 29.7543 103.282 29.8165 103.205 29.8165Z" fill="#362A26"/>
<path d="M108.081 38.3985H10.4277C10.3512 38.3985 10.2891 38.3364 10.2891 38.2598C10.2891 38.1832 10.3512 38.1211 10.4277 38.1211H108.081C108.158 38.1211 108.22 38.1832 108.22 38.2598C108.22 38.3364 108.158 38.3985 108.081 38.3985Z" fill="#362A26"/>
<path d="M96.011 22.6407H22.498C22.4215 22.6407 22.3594 22.5786 22.3594 22.502C22.3594 22.4254 22.4215 22.3633 22.498 22.3633H96.011C96.0875 22.3633 96.1496 22.4254 96.1496 22.502C96.1496 22.5786 96.0875 22.6407 96.011 22.6407Z" fill="#362A26"/>
<path d="M92.14 12.2657H26.3574C26.2808 12.2657 26.2188 12.2036 26.2188 12.127C26.2188 12.0504 26.2808 11.9883 26.3574 11.9883H92.14C92.2165 11.9883 92.2786 12.0504 92.2786 12.127C92.2786 12.2036 92.2165 12.2657 92.14 12.2657Z" fill="#362A26"/>
<path d="M76.488 7.62897H42.0214C41.9449 7.62897 41.8828 7.56685 41.8828 7.49027C41.8828 7.41369 41.9449 7.35156 42.0214 7.35156H76.488C76.5646 7.35156 76.6267 7.41369 76.6267 7.49027C76.6267 7.56692 76.5646 7.62897 76.488 7.62897Z" fill="#362A26"/>
<path d="M104.439 65.9141H90.1464C90.0699 65.9141 90.0078 65.852 90.0078 65.7754C90.0078 65.6988 90.0699 65.6367 90.1464 65.6367H104.439C104.516 65.6367 104.578 65.6988 104.578 65.7754C104.578 65.852 104.516 65.9141 104.439 65.9141Z" fill="#362A26"/>
<path d="M108.097 71.6308C108.024 71.6308 107.963 71.5733 107.959 71.4992L107.664 65.7826C107.66 65.706 107.719 65.6409 107.795 65.6369C107.872 65.6335 107.937 65.6916 107.941 65.7682L108.236 71.4848C108.24 71.5614 108.181 71.6265 108.105 71.6305L108.097 71.6308Z" fill="#362A26"/>
<path d="M109.351 95.9307C109.278 95.9307 109.217 95.8733 109.213 95.7992L108.18 75.7652C108.176 75.6886 108.235 75.6235 108.311 75.6195C108.387 75.6143 108.453 75.6742 108.457 75.7507L109.49 95.7848C109.494 95.8613 109.435 95.9265 109.358 95.9305L109.351 95.9307Z" fill="#362A26"/>
<path d="M111.498 137.631C111.425 137.631 111.364 137.573 111.36 137.499L109.43 100.064C109.426 99.9875 109.485 99.9224 109.561 99.9184C109.641 99.9126 109.703 99.9733 109.707 100.05L111.637 137.485C111.641 137.561 111.582 137.626 111.506 137.63L111.498 137.631Z" fill="#362A26"/>
<path d="M90.1464 95.9306C90.0699 95.9306 90.0078 95.8684 90.0078 95.7919V75.7578C90.0078 75.6813 90.0699 75.6191 90.1464 75.6191C90.223 75.6191 90.2851 75.6813 90.2851 75.7578V95.7919C90.2851 95.8684 90.223 95.9306 90.1464 95.9306Z" fill="#362A26"/>
<path d="M90.1464 137.63C90.0699 137.63 90.0078 137.568 90.0078 137.492V100.057C90.0078 99.9801 90.0699 99.918 90.1464 99.918C90.223 99.918 90.2851 99.9801 90.2851 100.057V137.492C90.2851 137.568 90.223 137.63 90.1464 137.63Z" fill="#362A26"/>
<path d="M109.676 47.2423H84.498C84.4215 47.2423 84.3594 47.1801 84.3594 47.1035C84.3594 47.027 84.4215 46.9648 84.498 46.9648H109.676C109.752 46.9648 109.814 47.027 109.814 47.1035C109.814 47.1801 109.752 47.2423 109.676 47.2423Z" fill="#362A26"/>
<path d="M101.972 57.4728C101.896 57.4728 101.834 57.4107 101.834 57.3341C101.834 54.968 99.9099 53.043 97.5449 53.043C97.4684 53.043 97.4062 52.9809 97.4062 52.9043C97.4062 52.8277 97.4684 52.7656 97.5449 52.7656C100.063 52.7656 102.111 54.815 102.111 57.3341C102.111 57.4107 102.049 57.4728 101.972 57.4728Z" fill="#362A26"/>
<path d="M80.1074 71.6319C80.0308 71.6319 79.9688 71.5697 79.9688 71.4932V52.1739C79.9688 52.0973 80.0308 52.0352 80.1074 52.0352C80.1839 52.0352 80.246 52.0973 80.246 52.1739V71.4932C80.246 71.5697 80.1839 71.6319 80.1074 71.6319Z" fill="#362A26"/>
<path d="M28.3843 65.9141H14.0918C14.0152 65.9141 13.9531 65.852 13.9531 65.7754C13.9531 65.6988 14.0152 65.6367 14.0918 65.6367H28.3843C28.4608 65.6367 28.5229 65.6988 28.5229 65.7754C28.5229 65.852 28.4608 65.9141 28.3843 65.9141Z" fill="#362A26"/>
<path d="M10.4357 71.6308L10.4283 71.6306C10.3519 71.6267 10.2931 71.5614 10.2971 71.4848L10.5918 65.7682C10.5957 65.6916 10.6624 65.6329 10.7375 65.6369C10.8139 65.6409 10.8726 65.7061 10.8687 65.7827L10.574 71.4993C10.5702 71.5734 10.509 71.6308 10.4357 71.6308Z" fill="#362A26"/>
<path d="M9.17788 95.9308L9.17047 95.9306C9.09415 95.9266 9.03532 95.8614 9.03925 95.7848L10.0721 75.7508C10.076 75.6742 10.1429 75.6137 10.2178 75.6195C10.2942 75.6235 10.3529 75.6887 10.349 75.7653L9.31615 95.7993C9.31237 95.8734 9.25117 95.9308 9.17788 95.9308Z" fill="#362A26"/>
<path d="M7.02945 137.631L7.02204 137.63C6.94564 137.626 6.88688 137.561 6.89081 137.485L8.82074 100.05C8.82467 99.9733 8.89329 99.9121 8.96642 99.9184C9.04281 99.9224 9.10165 99.9876 9.09765 100.064L7.16771 137.499C7.16393 137.573 7.10265 137.631 7.02945 137.631Z" fill="#362A26"/>
<path d="M28.3808 95.9306C28.3043 95.9306 28.2422 95.8684 28.2422 95.7919V75.7578C28.2422 75.6813 28.3043 75.6191 28.3808 75.6191C28.4574 75.6191 28.5195 75.6813 28.5195 75.7578V95.7919C28.5195 95.8684 28.4574 95.9306 28.3808 95.9306Z" fill="#362A26"/>
<path d="M28.3808 137.63C28.3043 137.63 28.2422 137.568 28.2422 137.492V100.057C28.2422 99.9801 28.3043 99.918 28.3808 99.918C28.4574 99.918 28.5195 99.9801 28.5195 100.057V137.492C28.5195 137.568 28.4574 137.63 28.3808 137.63Z" fill="#362A26"/>
<path d="M34.0272 47.2423H8.84957C8.77303 47.2423 8.71094 47.1801 8.71094 47.1035C8.71094 47.027 8.77303 46.9648 8.84957 46.9648H34.0273C34.1038 46.9648 34.1659 47.027 34.1659 47.1035C34.1658 47.1801 34.1037 47.2423 34.0272 47.2423Z" fill="#362A26"/>
<path d="M16.5605 57.4728C16.484 57.4728 16.4219 57.4107 16.4219 57.3341C16.4219 54.815 18.4702 52.7656 20.9881 52.7656C21.0647 52.7656 21.1267 52.8277 21.1267 52.9043C21.1267 52.9809 21.0647 53.043 20.9881 53.043C18.6232 53.043 16.6991 54.968 16.6991 57.3341C16.6991 57.4107 16.6371 57.4728 16.5605 57.4728Z" fill="#362A26"/>
<path d="M38.4199 71.6319C38.3433 71.6319 38.2812 71.5697 38.2812 71.4932V52.1739C38.2812 52.0973 38.3433 52.0352 38.4199 52.0352C38.4964 52.0352 38.5585 52.0973 38.5585 52.1739V71.4932C38.5585 71.5697 38.4964 71.6319 38.4199 71.6319Z" fill="#362A26"/>
</g>
<defs>
<clipPath id="clip0_670_67074">
<rect width="119" height="139" fill="white"/>
</clipPath>
</defs>
</svg>
