<svg width="141" height="119" viewBox="0 0 141 119" fill="none" xmlns="http://www.w3.org/2000/svg">
<g opacity="0.2">
<path d="M95.4573 118.999C119.432 118.999 138.868 114.722 138.868 109.447C138.868 104.171 119.432 99.8945 95.4573 99.8945C71.4824 99.8945 52.0469 104.171 52.0469 109.447C52.0469 114.722 71.4824 118.999 95.4573 118.999Z" fill="black"/>
<path d="M45.0424 109.717C64.0592 109.717 79.4754 106.324 79.4754 102.14C79.4754 97.9548 64.0592 94.5625 45.0424 94.5625C26.0256 94.5625 10.6094 97.9548 10.6094 102.14C10.6094 106.324 26.0256 109.717 45.0424 109.717Z" fill="black"/>
</g>
<path d="M87.2179 43.1172C87.2179 43.1172 88.6399 44.5018 88.8311 45.1197C89.0222 45.7375 88.0589 45.2049 88.1374 45.2476C89.2134 46.3554 88.2408 45.9294 88.037 46.0573C89.2555 47.5058 90.0198 48.209 89.4254 48.4008C88.8311 48.5927 84.7343 45.6148 84.3311 45.3676C83.9279 45.1197 87.2179 43.1172 87.2179 43.1172Z" fill="#4C4240"/>
<path d="M73.7188 37.1456C73.7188 37.1456 74.2919 40.7091 75.9793 43.3297C77.6668 45.9501 80.6108 46.2698 82.2271 46.3977C83.8433 46.5256 85.4674 45.9824 85.8812 45.7905C86.295 45.5987 85.4355 45.3669 85.4355 45.3669C85.4355 45.3669 86.7568 45.4711 87.0117 45.0554C87.2666 44.6401 86.7253 44.7198 86.7253 44.7198C86.7253 44.7198 87.8236 44.56 87.776 44.2405C87.7283 43.9211 87.2823 44.0167 87.2823 44.0167C87.2823 44.0167 88.556 43.905 88.0147 43.0581C87.4735 42.2113 85.6904 40.8211 85.6904 40.8211L78.1868 34.7051L73.7188 37.1456Z" fill="#B2A19D"/>
<path d="M76.6641 36.002C76.6641 36.002 77.0851 37.7668 78.2292 39.6074C79.3734 41.4479 79.346 40.1293 79.346 40.1293C80.8239 42.3817 81.5902 41.6126 81.5357 41.6951C82.7946 44.0851 84.1084 43.6732 84.1084 43.6732C85.1405 44.3381 87.0257 44.7672 86.1884 43.8997C87.299 44.1473 87.9047 44.2587 88.1414 44.0971C88.3778 43.9352 89.0269 42.4371 88.1414 41.7505C87.2559 41.0638 81.5302 37.1373 81.2284 36.8615C80.9266 36.5858 76.6641 36.002 76.6641 36.002Z" fill="#897A75"/>
<path d="M99.1001 23.2397C99.1001 23.2397 102.496 20.8536 102.878 21.9614C103.26 23.0692 99.1001 26.3074 99.1001 26.3074C101.265 25.6256 96.2133 29.844 96.0859 29.9716C98.5058 29.4177 90.3547 35.7665 90.3547 35.7665L89.375 34.1254L99.1001 23.2397Z" fill="#BB462F"/>
<path d="M90.4692 34.4692C90.4692 34.4692 91.6792 34.4265 91.2547 35.1936C91.9553 35.2576 91.1485 36.3441 91.106 36.408C91.8915 36.3867 91.1362 37.3704 91.0043 37.5389C91.7854 37.7926 90.745 38.9218 90.4692 39.1136C91.3184 39.4544 88.9116 41.4146 88.1411 41.3506C87.3704 41.2867 86.3516 38.7729 86.3516 38.7729L90.4692 34.4692Z" fill="#B2A19D"/>
<path d="M87.4766 35.4257C87.4766 35.4257 98.9388 20.9814 101.486 17.9986C104.033 15.0159 105.604 13.7802 106.283 13.8654C106.962 13.9507 100.764 20.555 100.764 20.555C104.16 17.487 105.646 16.8908 105.816 17.5297C105.986 18.1688 98.6415 24.3898 98.6415 24.3898C101.868 22.3873 99.7452 25.2848 97.4953 27.1167C95.2453 28.949 93.2502 31.122 93.2502 31.122C93.2502 31.122 94.6509 30.5254 93.7596 31.8038C92.8682 33.0821 88.1411 37.1455 88.1411 37.1455L87.4766 35.4257Z" fill="#4C4240"/>
<path d="M84.6797 37.1452C84.6797 37.1452 87.7734 34.2604 88.4102 33.9407C89.0471 33.6212 88.7127 35.404 88.7127 35.404C89.7315 34.8501 88.9251 36.5118 88.7127 36.789C89.9227 36.1711 89.0522 37.8755 88.9463 38.0673C90.0289 38.0247 88.8748 40.6715 88.1465 40.9352C87.4178 41.1989 84.6797 37.1452 84.6797 37.1452Z" fill="#FFE447"/>
<path d="M72.0245 28.0547C72.0245 28.0547 73.0858 27.6074 73.7439 27.2877C74.402 26.9679 77.2888 26.9256 78.5196 28.7362C79.7508 30.5472 79.114 31.9957 80.8545 32.997C82.5951 33.9982 85.8214 36.3631 86.2883 36.7891C86.7552 37.2151 85.5665 37.3003 85.397 37.1724C86.8402 38.0035 88.2201 39.1326 88.39 39.6013C88.5599 40.0699 87.6894 39.6013 87.6894 39.6013C89.0265 40.9223 89.4937 41.8382 89.4725 42.0301C89.4513 42.2219 89.6849 42.2219 89.4512 42.2219C89.2176 42.2219 88.8781 41.9025 88.8781 41.9025C88.8781 41.9025 90.173 43.8414 90.2155 43.9476C90.258 44.0542 90.2792 43.9903 90.2155 44.1608C90.1518 44.3313 89.7911 43.9476 89.7911 43.9476C89.7911 43.9476 91.8078 46.5253 91.7016 47.1219C91.5954 47.7184 87.5623 43.01 87.6261 43.0526C88.7086 44.395 87.0954 43.436 86.1616 42.7972C86.289 43.7131 83.1686 40.9749 83.1686 40.9749C83.678 42.2646 80.8549 39.7295 80.8549 39.7295C81.513 41.2207 78.6049 38.707 78.2017 37.8972C77.7985 37.0875 77.7136 36.4697 77.7136 36.4697C77.7136 36.4697 77.3741 37.4282 76.6948 36.8743C77.1829 38.3442 76.0154 37.3003 75.973 37.2364C76.0579 38.6 75.2087 37.8543 75.1453 37.8329C75.1666 38.685 74.0841 37.7903 74.0203 37.705C73.4047 38.9408 73.0015 36.4693 73.2136 35.8088C72.3644 37.0872 72.4918 34.5304 72.98 33.9979C71.7488 34.9565 72.98 32.5067 72.7676 31.4202C72.5552 30.3336 71.8125 29.3324 71.8125 29.3324L72.0245 28.0547Z" fill="#BB462F"/>
<path d="M82.5608 34.0781C82.5608 34.0781 83.9612 35.254 84.1243 35.9682C84.2877 36.6823 81.9483 34.938 81.9483 34.938C84.0284 36.1741 83.6265 36.6685 83.1295 36.6685C82.6324 36.6685 81.5105 35.8444 81.6198 35.9269C82.605 36.8061 82.0435 36.9708 80.9285 36.5864C82.8513 38.3169 83.1798 39.0589 80.2512 37.3005C81.3186 39.773 79.5942 38.3719 79.1016 38.0421C79.649 39.8827 81.8113 41.586 82.0302 41.9429C82.2491 42.3001 84.4665 43.4372 85.3143 43.1174C86.1622 42.798 83.9732 40.5968 84.0006 40.679C85.6977 41.7779 85.9714 41.3931 84.9584 40.102C86.6007 41.0909 87.3122 40.5139 85.4236 38.9206C86.9837 39.5798 87.3101 39.3917 86.353 38.538C87.4489 39.1679 88.3793 38.7281 87.6404 38.1515C86.9015 37.5749 86.4633 37.4257 86.4633 37.4257C86.4633 37.4257 87.8867 37.4374 86.4907 36.2284C85.0961 35.0206 82.5608 34.0781 82.5608 34.0781Z" fill="#D14F35"/>
<path d="M73.7295 29.4608C73.7295 29.4608 72.09 28.582 72.0262 28.0549C70.6731 27.8472 69.2083 28.1828 69.097 28.2787C68.9856 28.3747 71.8138 29.3333 71.8138 29.3333C71.8138 29.3333 72.8964 29.5781 73.7295 29.4608Z" fill="#4C4240"/>
<path d="M74.4531 28.9381C74.4531 29.3462 74.8221 29.677 75.277 29.677C75.7319 29.677 76.1009 29.3462 76.1009 28.9381C76.1009 28.53 75.7319 28.1992 75.277 28.1992C74.8217 28.1992 74.4531 28.53 74.4531 28.9381Z" fill="#4C4240"/>
<path d="M75.2516 29.3323C75.5373 29.3323 75.7689 29.1285 75.7689 28.8771C75.7689 28.6257 75.5373 28.4219 75.2516 28.4219C74.966 28.4219 74.7344 28.6257 74.7344 28.8771C74.7344 29.1285 74.966 29.3323 75.2516 29.3323Z" fill="#3A3A3A"/>
<path d="M75.1955 29.0046C75.3164 29.0046 75.4144 28.917 75.4144 28.8089C75.4144 28.7009 75.3164 28.6133 75.1955 28.6133C75.0746 28.6133 74.9766 28.7009 74.9766 28.8089C74.9766 28.917 75.0746 29.0046 75.1955 29.0046Z" fill="white"/>
<path d="M84.0802 46.0649C84.0802 46.0649 82.2156 48.5724 82.0563 48.732C81.897 48.8918 82.7466 49.2921 83.256 49.8033C83.7654 50.3146 83.2354 50.7135 83.2354 50.7135C83.4827 49.8188 82.5006 50.3232 82.1269 49.9718C81.7535 49.6204 81.3557 49.1153 81.3557 49.1153C80.1777 48.668 79.4953 48.9898 79.089 48.9898C78.569 48.9898 77.8828 49.0889 77.8828 49.0889C77.8828 48.6041 78.8814 48.5085 79.6775 48.2207C80.4733 47.9332 81.5469 48.1248 81.5469 48.1248C81.5469 48.1248 82.774 46.4183 83.6482 45.3683C83.7791 45.2111 84.5447 45.3686 84.0802 46.0649Z" fill="#8A5021"/>
<path d="M19.5455 30.1499C19.5455 30.1499 18.9392 30.6436 19.8816 31.4035C21.3858 32.6162 21.9507 32.7575 22.4118 31.5565C22.8729 30.3558 23.4833 29.0558 25.4161 27.3518C27.4557 25.5536 31.1921 21.7092 31.3363 19.2566C31.4805 16.8041 26.6017 15.9036 26.1707 15.3267C25.7398 14.7494 26.54 4.25599 24.3209 2.70703C24.6542 7.06474 24.8056 12.6575 23.495 13.591C22.1843 14.5245 19.6774 13.5521 15.991 11.6167C12.3047 9.68129 10.5549 7.0417 9.89986 6.42625C9.73475 7.88168 11.7508 12.5537 18.5569 14.8037C25.363 17.0537 28.1275 19.2267 27.8822 21.0765C27.6366 22.9267 25.0533 24.5685 24.8926 24.6362C24.732 24.7043 25.016 19.0225 24.8851 18.755C24.7542 18.4875 23.6714 21.6782 23.4597 23.2482C23.248 24.8181 22.9095 26.1759 22.1528 27.1221C21.3957 28.0687 19.5455 30.1499 19.5455 30.1499Z" fill="#605450"/>
<path d="M28.9531 17.886C28.9531 17.886 32.3908 13.6813 33.4233 8.38598C34.4554 3.09064 33.7288 0.0948465 34.2194 0.00132454C34.71 -0.0918536 35.9648 4.74963 35.2135 8.66414C34.4626 12.5783 31.5405 18.4633 30.9273 19.1211C30.3141 19.7788 28.9531 17.886 28.9531 17.886Z" fill="#605450"/>
<path d="M31.2984 41.1523C31.2984 41.1523 33.2526 46.2452 37.3277 46.5539C41.4028 46.8627 47.1693 46.0138 50.0138 46.0138C52.8583 46.0138 55.0882 43.0042 59.7783 41.9239C64.4683 40.8436 68.2358 41.9239 70.773 44.2389C73.3102 46.5539 75.0787 53.0358 74.9762 59.2602C74.8738 65.4849 75.7313 70.073 76.2575 72.6868C76.7156 74.9609 78.2565 77.7796 78.8715 79.2715C79.4868 80.7634 78.7177 83.5928 79.5378 87.3997C80.358 91.2065 79.9479 98.6656 80.4604 100.312C80.9729 101.958 81.8955 103.347 81.4344 103.707C80.9729 104.067 80.3799 105.143 80.5337 105.966C80.6876 106.789 80.3974 107.453 80.3974 107.453C80.3974 107.453 76.36 107.617 75.6936 107.411C75.0273 107.206 76.0523 103.296 76.4624 100.929C76.8725 98.5631 76.8725 92.39 76.6162 88.8403C76.36 85.2906 75.0273 82.77 74.2585 80.7121C73.4897 78.6543 68.0052 69.7546 67.5438 68.3143C65.801 70.8865 63.6996 71.4009 63.6996 71.4009C63.6996 71.4009 63.5457 75.0018 65.2885 78.0884C67.0312 81.1749 67.4413 82.4096 66.9288 84.3131C66.4163 86.2165 64.0582 97.6369 64.0072 100.929C63.9558 104.222 63.9558 105.096 64.2635 105.868C64.5711 106.639 63.8023 106.717 63.7509 106.794C63.6996 106.871 63.8277 109.495 63.8277 109.495C63.8277 109.495 58.83 110.24 57.4716 108.646C58.4199 105.328 59.804 104.967 60.2908 103.141C60.7776 101.315 61.803 97.0451 61.9822 94.3701C62.1617 91.6951 62.7766 88.1712 62.5461 86.1907C62.3155 84.2103 62.4436 82.5898 60.9571 80.7892C59.4706 78.9885 57.3435 73.9731 57.3435 73.9731C57.3435 73.9731 52.3972 75.259 48.3991 74.0246C47.938 79.4262 46.6307 85.9081 46.0925 88.3772C45.5543 90.8466 44.324 99.3347 44.4011 101.649C44.4779 103.964 44.901 104.466 44.2473 104.967C43.5936 105.469 43.4785 105.237 43.3631 105.777C43.2476 106.318 42.5943 107.012 42.5943 107.012C42.5943 107.012 39.1729 106.896 37.9426 106.125C39.019 102.575 40.5953 102.652 41.2873 100.646C41.9794 98.6398 42.4021 92.8525 42.3254 90.306C42.2486 87.7596 42.9917 75.979 40.7364 72.2236C38.4812 68.4683 37.8148 68.3139 33.8168 65.6389C29.8188 62.9639 22.4377 55.4533 22.5401 50.9261C22.6422 46.3995 31.2984 41.1523 31.2984 41.1523Z" fill="#897A75"/>
<path d="M31.2984 41.1523C31.2984 41.1523 33.2526 46.2452 37.3277 46.5539C41.4028 46.8627 47.1693 46.0138 50.0138 46.0138C52.8583 46.0138 55.0882 43.0042 59.7783 41.9239C64.4683 40.8436 68.2358 41.9239 70.773 44.2389C73.3102 46.5539 75.0787 53.0358 74.9762 59.2602C74.8738 65.4849 75.697 70.4361 76.2575 72.6868C77.028 75.7795 78.2565 77.7796 78.8715 79.2715C79.4868 80.7634 78.7177 83.5928 79.5378 87.3996C80.358 91.2065 79.9479 98.6656 80.4604 100.312C80.9729 101.958 81.8955 103.347 81.4344 103.707C80.9729 104.067 80.2429 105.163 80.3967 105.986C80.5505 106.809 80.3974 107.453 80.3974 107.453C80.3974 107.453 76.36 107.617 75.6936 107.411C75.0273 107.205 76.0523 103.296 76.4624 100.929C76.8725 98.5628 76.8725 92.3897 76.6162 88.84C76.36 85.2902 75.0273 82.7696 74.2585 80.7118C73.4897 78.654 68.0052 69.7543 67.5438 68.3139C65.801 70.8861 63.6996 71.4005 63.6996 71.4005C63.6996 71.4005 63.5457 75.0015 65.2885 78.088C67.0312 81.1746 67.4413 82.4093 66.9288 84.3127C66.4163 86.2162 64.0582 97.6365 64.0072 100.929C63.9558 104.222 63.9558 105.096 64.2635 105.867C64.5711 106.639 63.8023 106.716 63.7509 106.793C63.6996 106.871 63.8277 109.494 63.8277 109.494C63.8277 109.494 58.83 110.24 57.4716 108.645C58.4199 105.327 59.804 104.967 60.2908 103.141C60.7776 101.314 61.803 97.0448 61.9822 94.3698C62.1617 91.6948 62.7766 88.1709 62.5461 86.1904C62.3155 84.2099 62.4436 82.5895 60.9571 80.7888C59.4706 78.9882 57.3435 73.9727 57.3435 73.9727C57.3435 73.9727 52.3972 75.2586 48.3991 74.0243C47.938 79.4259 46.6307 85.9078 46.0925 88.3768C45.5543 90.8462 44.324 99.3344 44.4011 101.649C44.4779 103.964 44.901 104.466 44.2473 104.967C43.5936 105.469 43.4785 105.237 43.3631 105.777C43.2476 106.317 42.5943 107.012 42.5943 107.012C42.5943 107.012 38.8573 107.326 37.6271 106.554C38.7035 103.005 40.5953 102.652 41.2873 100.646C41.9794 98.6395 42.4021 92.8521 42.3254 90.3057C42.2486 87.7593 42.9917 75.9786 40.7364 72.2233C38.4812 68.468 37.8148 68.3136 33.8168 65.6386C29.8188 62.9636 22.4377 55.4529 22.5401 50.9257C22.6422 46.3995 31.2984 41.1523 31.2984 41.1523Z" fill="#897A75"/>
<path d="M39.2308 103.477C38.6563 104.19 38.0805 105.104 37.6406 106.554C38.8708 107.325 42.6075 107.011 42.6075 107.011C42.6075 107.011 43.2611 106.317 43.3762 105.777C43.4917 105.237 43.6068 105.468 44.2604 104.967C44.5803 104.721 44.6417 104.474 44.6125 104.015C42.8213 104.069 40.7302 104.784 39.2308 103.477Z" fill="#776963"/>
<path d="M58.7286 105.816C58.298 106.478 57.853 107.327 57.4766 108.644C58.8348 110.239 63.8322 109.493 63.8322 109.493C63.8322 109.493 63.7387 107.575 63.7438 106.973C61.9197 107.234 59.8817 107.216 58.7286 105.816Z" fill="#776963"/>
<path d="M80.832 104.426C79.1774 104.711 77.5228 104.838 75.8682 103.953C75.525 105.699 75.2787 107.282 75.6959 107.411C76.3622 107.617 80.3993 107.453 80.3993 107.453C80.3993 107.453 80.5525 106.809 80.3987 105.986C80.3065 105.49 80.5357 104.899 80.832 104.426Z" fill="#776963"/>
<path d="M69.4303 52.1484C69.4303 52.1484 71.6594 52.6783 72.0116 58.0365C72.3637 63.3948 70.7797 68.1252 74.2996 75.7796C75.8017 79.0463 76.1518 81.503 76.1768 82.4135C76.2018 83.3243 75.8654 85.1944 75.2786 83.2514C74.6922 81.3084 73.8535 80.6077 72.5696 77.9973C71.0592 74.9276 66.9628 70.0166 66.3993 64.2386C65.8358 58.4605 68.8038 54.4256 68.8038 54.4256L69.4303 52.1484Z" fill="#A89591"/>
<path d="M69.4569 50.4199C69.4569 50.4199 71.5688 55.3267 66.6328 61.9857C65.2197 63.3346 63.71 67.6011 63.7114 71.3998C63.7131 76.0161 66.998 79.6744 67.1788 81.8529C67.3594 84.0314 66.6499 85.5261 66.6499 85.5261C66.6499 85.5261 67.3433 82.7655 64.7237 80.0568C62.1044 77.3481 59.1124 70.5767 60.2857 65.2184C61.459 59.8608 69.8481 55.1699 69.4569 50.4199Z" fill="#B2A19D"/>
<path d="M17.4003 30.4421C17.4003 30.4421 16.1065 27.5557 14.2833 26.9774C12.4602 26.399 10.5781 26.8415 10.5781 26.8415C10.931 28.1698 13.4598 30.9737 14.1949 31.2983C14.9304 31.6225 17.4003 30.4421 17.4003 30.4421Z" fill="#776963"/>
<path d="M15.0471 30.7886C15.0471 30.7886 16.8171 26.6946 16.109 23.9281C15.4009 21.162 11.4056 18.1191 8.62393 16.238C5.84229 14.3569 0.683583 12.9187 0.0768972 10.5947C-0.530131 8.27111 2.65608 6.39001 2.65608 6.39001C1.34097 8.04968 0.633226 9.7647 1.69518 10.6501C2.75714 11.5351 5.43772 11.8717 6.04475 12.0907C6.65143 12.3097 5.74124 9.15613 5.99405 6.11322C6.24686 3.07032 7.30882 0.0274185 7.86549 0.0827753C8.42182 0.138132 7.61268 3.6789 7.91619 7.77289C8.21971 11.8669 9.73693 13.8587 11.3552 15.0205C12.9735 16.1823 13.5631 14.4181 14.0862 12.0907C14.6093 9.76299 15.9573 2.29601 17.1206 1.52136C18.284 0.746712 16.8171 3.29175 16.4125 6.99859C16.008 10.7054 15.1988 16.3487 15.6537 17.6209C16.1087 18.8931 18.2329 20.7745 18.3343 22.1024C19.9526 20.1106 20.5089 17.953 21.0149 17.8423C21.5205 17.7316 20.5093 21.4938 20.0033 23.1535C19.4977 24.8132 19.0931 26.3624 18.6882 28.1328C18.2836 29.9032 18.4857 30.7886 18.4857 30.7886C18.4857 30.7886 18.1319 31.2311 16.7664 31.3418C15.4013 31.4525 15.0471 30.7886 15.0471 30.7886Z" fill="#605450"/>
<path d="M15.0471 30.7886C15.0471 30.7886 16.8171 26.6946 16.109 23.9281C15.4009 21.162 11.4056 18.1191 8.62393 16.238C5.84229 14.3569 0.683583 12.9187 0.0768972 10.5947C-0.530131 8.27111 2.65608 6.39001 2.65608 6.39001C1.34097 8.04968 0.633226 9.7647 1.69518 10.6501C2.75714 11.5351 5.43772 11.8717 6.04475 12.0907C6.65143 12.3097 5.74124 9.15613 5.99405 6.11322C6.24686 3.07032 7.30882 0.0274185 7.86549 0.0827753C8.42182 0.138132 7.61268 3.6789 7.91619 7.77289C8.21971 11.8669 9.73693 13.8587 11.3552 15.0205C12.9735 16.1823 13.5631 14.4181 14.0862 12.0907C14.6093 9.76299 15.9573 2.29601 17.1206 1.52136C18.284 0.746712 16.8171 3.29175 16.4125 6.99859C16.008 10.7054 15.1988 16.3487 15.6537 17.6209C16.1087 18.8931 18.2329 20.7745 18.3343 22.1024C19.9526 20.1106 20.5089 17.953 21.0149 17.8423C21.5205 17.7316 20.5093 21.4938 20.0033 23.1535C19.4977 24.8132 19.0931 26.3624 18.6882 28.1328C18.2836 29.9032 18.4857 30.7886 18.4857 30.7886C18.4857 30.7886 18.1319 31.2311 16.7664 31.3418C15.4013 31.4525 15.0471 30.7886 15.0471 30.7886Z" fill="#605450"/>
<path d="M22.7678 52.4855C21.8374 50.1671 21.2609 44.3319 17.7321 43.8595C14.2033 43.3871 12.6967 43.014 11.1678 42.6007C9.63861 42.1875 6.35991 42.0695 6.13964 40.5199C4.50765 40.2101 4.44359 38.1292 4.98279 37.5093C5.52199 36.8894 8.47731 36.1371 10.4621 34.4103C12.447 32.6836 13.5939 31.0456 15.4023 30.4704C17.2107 29.8948 20.5189 30.249 21.0923 30.4704C21.6658 30.6918 22.5479 30.7358 22.5479 30.7358C22.5479 30.7358 23.342 27.2827 28.635 25.9102C30.2012 32.3474 26.3415 33.7461 26.1209 33.7461C27.5764 36.3138 29.0132 36.6016 31.3087 41.1505C32.4717 43.4569 24.8064 57.5642 22.7678 52.4855Z" fill="#897A75"/>
<path d="M15.5728 35.9165C15.5728 35.9165 18.3874 35.7969 19.4716 35.2804C20.5555 34.764 19.1705 33.3254 17.2631 33.1229C15.3556 32.92 14.5506 35.0508 14.6041 36.0049C15.234 35.955 15.5728 35.9165 15.5728 35.9165Z" fill="#B2A19D"/>
<path d="M8.11719 37.2902C8.2316 37.2496 8.49196 37.622 9.70464 39.4849C10.2192 37.7513 9.00649 36.7188 9.00649 36.7188L8.11719 37.2902Z" fill="#B2A19D"/>
<path d="M4.69531 38.3219C4.72888 37.9833 4.83097 37.6865 4.98444 37.5102C5.52364 36.8902 8.47896 36.1379 10.4638 34.4112C12.4486 32.6845 13.5955 31.0465 15.4039 30.4709C15.9325 30.3028 16.5899 30.2158 17.2689 30.1797C16.4813 30.3227 15.5951 30.77 14.7195 31.7991C12.1571 34.8097 9.35388 37.2997 7.726 37.9307C6.71509 38.3226 5.4839 38.3543 4.69531 38.3219Z" fill="#B2A19D"/>
<path d="M23.7768 32.7284C23.7768 32.7284 23.6469 30.2504 25.1738 28.8156C26.7006 27.3808 28.2274 26.468 28.2274 27.2832C28.2274 28.0984 27.7725 31.0003 26.3433 32.1088C24.9138 33.2174 23.7014 33.8572 23.7768 32.7284Z" fill="#6B5B56"/>
<path d="M14.6016 36.0036C14.6016 36.0036 15.1969 34.4543 16.2116 34.1222C17.2263 33.79 18.6158 35.1626 18.6158 35.1626C16.8289 35.9152 14.6016 36.0036 14.6016 36.0036Z" fill="white"/>
<path d="M15.2891 35.0177C15.2891 35.4437 15.6333 35.7892 16.0578 35.7892C16.4822 35.7892 16.8265 35.4437 16.8265 35.0177C16.8265 34.5916 16.4826 34.2461 16.0578 34.2461C15.6333 34.2461 15.2891 34.5916 15.2891 35.0177Z" fill="#4C4240"/>
<path d="M18.6154 35.1636C18.6154 35.1636 17.5312 34.2249 16.6083 34.3356C15.6854 34.4467 14.6016 36.0046 14.6016 36.0046C14.6016 36.0046 14.9321 34.7795 15.5953 34.2448C16.2582 33.7105 17.7569 33.803 18.6154 35.1636Z" fill="#4C4240"/>
<path d="M6.13281 40.521C6.13281 40.521 8.4263 40.9195 10.0805 40.0781C8.07345 41.5171 6.55177 41.5614 6.13281 40.521Z" fill="#72635F"/>
<path d="M4.98246 37.5112C5.14107 37.329 5.51173 37.1344 6.0016 36.9081C6.21433 36.8717 6.44625 36.8411 6.69084 36.8249C7.70518 36.7586 8.89628 37.4225 8.32283 37.9317C7.74937 38.4409 6.66446 38.7614 6.57608 39.2482C6.48804 39.7344 6.05606 40.3447 5.61415 40.3354C4.5015 39.7275 4.50869 38.0558 4.98246 37.5112Z" fill="#605450"/>
<path d="M23.2179 39.0964C22.9993 40.3245 22.4769 41.2185 19.3517 42.2335C16.2265 43.2485 12.1372 41.7896 11.8433 41.2388C11.6422 40.8619 15.5927 41.1986 18.6217 39.4254C21.6503 37.6523 21.8915 35.2166 22.5749 35.9101C23.258 36.6036 23.3601 38.2963 23.2179 39.0964Z" fill="#91817D"/>
<path d="M48.4352 72.6352C48.4352 72.6352 49.4602 77.5224 49.3578 82.5636C49.2553 87.6052 49.2183 88.4796 49.365 90.5886C49.5116 92.6977 49.6417 98.0295 49.565 99.3415C49.4883 100.653 47.5665 103.858 47.3359 105.671C50.1419 105.941 52.2316 105.923 52.6159 105.73C53.0003 105.537 52.2922 103.231 52.9458 102.305C53.5994 101.379 52.792 101.224 52.6769 100.684C52.5614 100.144 52.1476 98.2131 52.3032 94.8562C52.4587 91.4994 52.7153 88.2991 52.8691 86.6016C53.0229 84.9041 54.7525 79.2711 54.3298 73.985C53.9067 68.6997 48.4352 72.6352 48.4352 72.6352Z" fill="#827470"/>
<path d="M52.7968 102.608C51.3741 103.016 49.8709 102.941 48.4767 102.391C47.9676 103.561 47.449 104.783 47.3359 105.671C50.1419 105.941 52.2316 105.922 52.6159 105.73C52.9633 105.555 52.421 103.655 52.7968 102.608Z" fill="#776963"/>
<path d="M55.2987 51.5938C52.5821 53.4972 52.3773 61.1106 52.8898 64.0432C53.4022 66.9754 51.4034 68.3644 48.7896 65.3291C46.1754 62.2941 44.7918 57.3041 44.8942 56.1206C44.0231 59.31 45.2529 63.2197 46.5345 65.4319C47.8157 67.6441 48.6608 71.5693 48.4052 74.0229C52.403 75.2576 57.3489 73.9713 57.3489 73.9713C57.3489 73.9713 56.2212 70.4216 54.6324 66.0491C53.0436 61.6769 53.2484 54.0119 55.2987 51.5938Z" fill="#776963"/>
<path d="M63.7057 71.4024C63.7057 71.4024 65.807 70.888 67.5496 68.3158C67.5496 68.3158 66.7809 65.0233 66.6271 61.9883C63.5066 65.7319 63.7057 71.4024 63.7057 71.4024Z" fill="#776963"/>
<path d="M68.25 46.88C68.25 46.88 69.3836 50.0763 70.0266 54.4601C70.6692 58.8436 78.4547 60.427 79.3118 59.2091C80.1689 57.9913 76.2407 55.7385 74.9551 52.0856C73.6691 48.4324 70.1218 45.7688 68.25 46.88Z" fill="#B2A19D"/>
<path d="M68.25 46.8807C68.25 46.8807 69.3836 50.0769 70.0266 54.4608C70.6692 58.8443 78.4547 60.4276 79.3118 59.2098C80.1689 57.9919 75.127 56.7693 73.8414 53.116C72.5557 49.4632 70.1218 45.7694 68.25 46.8807Z" fill="#897A75"/>
<path d="M78.4014 57.7968C76.8557 58.3903 71.6504 57.192 69.9688 54.2031C69.9818 54.2891 69.9958 54.3726 70.0088 54.4596C70.6515 58.8431 78.437 60.4265 79.2941 59.2086C79.599 58.7754 79.1554 58.3408 78.4014 57.7968Z" fill="#776963"/>
<path d="M41.5145 74.1929C40.9441 70.9035 38.2567 65.5373 36.1808 62.491C34.1051 59.4446 34.5662 56.86 34.5662 56.86C31.5763 56.5537 29.4709 55.3403 27.9879 53.8302C26.233 51.6366 25.7948 50.6343 24.5825 46.705C23.3691 42.7712 18.2344 43.974 18.2344 43.974C20.4237 44.8958 20.5916 46.9677 21.3541 49.3683C22.1167 51.7689 23.6778 54.7101 23.6778 54.7101C25.8849 58.8697 30.8127 63.6256 33.8229 65.6401C37.8206 68.3151 38.4869 68.4695 40.742 72.2248C41.0548 72.7454 41.3079 73.4241 41.5155 74.2073C41.5149 74.2018 41.5155 74.1984 41.5145 74.1929Z" fill="#776963"/>
<path d="M132.165 108.63C132.173 108.724 134.065 108.873 134.231 110.136C134.993 109.604 134.428 108.46 133.659 108.131C132.891 107.803 132.131 108.21 132.165 108.63Z" fill="#875422"/>
<path d="M134.66 78.1715C134.639 75.8813 132.022 73.6618 134.585 70.7565L111.499 69.9688C111.181 75.3635 111.149 81.2185 111.939 85.502C113.265 92.6922 114.178 97.9714 116.583 100.813C118.988 103.655 117.193 108.172 118.933 109.21C120.672 110.249 123.222 110.419 125.23 110.454C127.238 110.49 129.079 110.48 130.082 110.539C131.085 110.599 131.139 109.886 131.059 109.716C132.086 110.784 132.805 110.334 132.813 109.915C133.721 110.645 134.108 110.022 134.03 109.684C133.952 109.347 133.364 107.237 129.96 106.8C126.556 106.362 127.307 104.108 127.049 102.087C126.791 100.067 126.962 94.2188 128.356 91.0518C129.75 87.8844 134.717 84.4994 134.66 78.1715Z" fill="#BB7C2F"/>
<path d="M124.3 69.9675C124.603 71.3693 124.936 72.6002 125.167 73.5808C126.413 78.8941 125.817 81.9909 123.218 77.4104C122.046 75.343 121.262 72.6666 120.843 69.9675H118.354C117.649 74.9094 118.327 79.0257 119.622 82.135C121.631 86.9572 121.976 91.163 120.961 96.6044C119.946 102.046 126.067 108.327 126.713 102.722C127.501 95.8786 127.805 92.3757 131.38 87.5386C137.042 79.8812 136.837 69.2365 136.837 69.2365C136.837 69.2365 130.204 68.4024 129.043 67.625L124.3 69.9675Z" fill="#AA6B2C"/>
<path d="M129.048 109.345C129.056 109.439 130.948 109.588 131.114 110.851C131.876 110.319 131.31 109.175 130.542 108.846C129.774 108.518 129.013 108.925 129.048 109.345Z" fill="#875422"/>
<path d="M131.064 109.003C131.072 109.097 132.963 109.247 133.13 110.509C133.892 109.977 133.326 108.833 132.558 108.505C131.789 108.176 131.029 108.583 131.064 109.003Z" fill="#875422"/>
<path d="M70.1406 91.8945C70.1406 91.8945 71.937 94.4595 72.8911 97.3528C73.8451 100.246 73.7448 102.82 72.9839 104.879C72.2231 106.937 73.9657 109.375 76.0293 109.411C78.0926 109.447 80.9938 109.442 82.9447 109.532C84.8957 109.622 86.1755 109.812 86.2995 109.086C88.2908 110.073 88.8561 109.635 88.9198 109.188C90.2544 109.435 91.1437 109.619 91.2729 108.613C91.4017 107.608 90.4154 106.583 87.976 105.7C85.5369 104.817 84.686 102.395 84.6702 100.099C84.6541 97.8029 86.8716 92.1864 86.8716 92.1864L70.1406 91.8945Z" fill="#995B23"/>
<path d="M86.8716 92.1864L70.1406 91.8945C70.1406 91.8945 71.937 94.4595 72.8911 97.3528C73.2607 98.4737 73.4704 99.5461 73.5464 100.559C76.757 97.6111 81.3326 96.1371 85.551 95.9535C86.1638 93.9795 86.8716 92.1864 86.8716 92.1864Z" fill="#8A5021"/>
<path d="M93.1126 51.2307C84.8024 47.8602 77.7498 47.8059 68.7335 52.0656C59.7172 56.3249 54.9224 63.2005 53.1724 71.8365C51.4221 80.4725 55.7096 83.1871 55.2023 91.2585C54.8494 96.8705 56.7247 101.139 56.3307 106.297L63.1185 104.704C63.8232 103.948 64.3439 101.298 65.1483 100.787C68.11 98.9074 68.7579 95.5289 70.589 92.8731C76.929 95.3274 89.4647 94.3024 96.4425 90.8407C103.42 87.379 106.065 76.4507 106.065 76.4507L107.515 50.7226C107.515 50.7233 101.423 54.6013 93.1126 51.2307Z" fill="#BB7C2F"/>
<path d="M96.443 90.8411C98.0932 90.0224 99.4984 88.784 100.686 87.3732L97.69 66.8984C97.69 66.8984 94.9224 80.4622 87.0649 81.5185C81.775 82.2299 76.6642 81.0681 76.162 78.1978C76.162 78.1978 74.307 87.421 69 92.5365C76.086 96.2925 89.4653 94.3028 96.443 90.8411Z" fill="#AA6B2C"/>
<path d="M117.267 110.396C117.274 110.489 119.166 110.639 119.333 111.902C120.095 111.369 119.529 110.225 118.761 109.897C117.992 109.569 117.232 109.975 117.267 110.396Z" fill="#875422"/>
<path d="M135.094 61.8053C135.094 61.8053 129.69 58.1603 125.526 53.7201C121.363 49.2802 116.707 47.5191 111.663 48.8868C106.618 50.2546 98.2683 55.6029 97.4875 62.025C96.7067 68.447 95.7242 80.0764 97.05 87.2663C98.3758 94.4565 99.2888 99.7356 101.694 102.577C104.099 105.419 102.305 109.936 104.044 110.974C105.783 112.013 108.334 112.184 110.342 112.219C112.35 112.254 114.191 112.244 115.194 112.303C116.197 112.363 116.252 111.65 116.171 111.481C117.198 112.548 117.918 112.099 117.925 111.679C118.833 112.409 119.22 111.786 119.143 111.449C119.065 111.111 118.476 109.001 115.072 108.564C111.668 108.126 112.419 105.872 112.161 103.852C111.903 101.831 112.074 95.9831 113.468 92.816C114.862 89.6487 119.83 86.264 119.772 79.9358C119.714 73.6083 135.094 61.8053 135.094 61.8053Z" fill="#BB7C2F"/>
<path d="M131.264 72.934C131.264 72.934 111.279 62.8791 116.7 49.4648C100.682 51.5488 107.029 72.0188 109.465 75.0424C112.884 79.287 110.909 83.7585 108.311 79.1777C105.713 74.5968 105.007 67.0257 106 62.8436C102.162 71.8475 102.706 79.08 104.715 83.9022C106.723 88.7248 107.069 92.9302 106.054 98.3717C105.039 103.813 111.16 110.094 111.806 104.489C112.594 97.6458 113.292 89.3104 118.473 86.2709C135.492 76.2847 131.264 72.934 131.264 72.934Z" fill="#AA6B2C"/>
<path d="M131.589 75.043C131.589 75.043 123.807 86.4709 115.741 79.0352C116.199 83.9245 113.939 91.3168 113.242 94.947C113.243 94.946 113.245 94.9453 113.246 94.9442C114.145 91.2071 115.633 87.9401 118.477 86.2714C128.201 80.5656 130.985 77.0289 131.589 75.043Z" fill="#8A5021"/>
<path d="M114.142 111.111C114.149 111.204 116.041 111.354 116.208 112.617C116.97 112.084 116.404 110.941 115.636 110.612C114.867 110.284 114.107 110.69 114.142 111.111Z" fill="#875422"/>
<path d="M84.4543 109.369C84.4622 109.462 86.3538 109.612 86.5203 110.875C87.2825 110.342 86.6803 108.884 85.9119 108.556C85.1436 108.228 84.4197 108.948 84.4543 109.369Z" fill="#693E1A"/>
<path d="M87.1966 109.037C87.2042 109.131 89.0962 109.28 89.2627 110.543C90.0249 110.011 89.338 108.603 88.5696 108.275C87.8013 107.947 87.1624 108.617 87.1966 109.037Z" fill="#693E1A"/>
<path d="M89.1104 108.512C89.1182 108.605 91.0099 108.755 91.1764 110.018C91.9386 109.485 91.4939 108.128 90.7256 107.799C89.9568 107.471 89.0758 108.091 89.1104 108.512Z" fill="#693E1A"/>
<path d="M116.157 110.771C116.165 110.864 118.057 111.014 118.223 112.277C118.985 111.744 118.419 110.6 117.651 110.272C116.883 109.944 116.123 110.35 116.157 110.771Z" fill="#875422"/>
<path d="M55.8172 90.543C55.8172 90.543 55.29 95.8758 56.244 98.7691C57.1981 101.662 57.0977 104.236 56.3369 106.295C55.576 108.353 57.319 110.792 59.3823 110.827C61.4455 110.863 64.3467 110.858 66.2977 110.948C68.2486 111.038 69.5284 111.229 69.6524 110.503C71.6438 111.489 72.209 111.051 72.2727 110.604C73.6074 110.852 74.4966 111.035 74.6258 110.03C74.7546 109.024 73.7684 107.999 71.3289 107.116C68.8899 106.234 68.0389 103.811 68.0232 101.515C68.0071 99.2192 70.2245 93.6027 70.2245 93.6027L55.8172 90.543Z" fill="#BB7C2F"/>
<path d="M73.7832 65.0879C75.5227 67.7295 77.0889 73.5839 74.6283 80.3719C72.1676 87.1601 71.7381 87.693 67.7852 93.0888C66.2666 95.1617 64.9741 98.8187 65.478 100.559C66.0412 102.503 68.9944 105.256 68.9944 105.256C68.1576 98.9232 69.9235 94.9128 71.6973 92.3399C75.4272 88.8985 78.614 83.3556 79.4359 78.6169C81.0199 69.49 73.7832 65.0879 73.7832 65.0879Z" fill="#AA6B2C"/>
<path d="M78.333 70.3223C78.333 70.3223 82.2927 81.9933 69.5078 93.908C77.7304 87.3862 82.8977 79.5352 78.333 70.3223Z" fill="#8A5021"/>
<path d="M67.7903 110.787C67.7978 110.88 69.6898 111.03 69.8563 112.293C70.6185 111.76 70.0162 110.302 69.2479 109.974C68.4795 109.645 67.7557 110.366 67.7903 110.787Z" fill="#693E1A"/>
<path d="M70.5482 110.457C70.5557 110.551 72.4477 110.7 72.6142 111.963C73.3764 111.431 72.6896 110.023 71.9212 109.695C71.1528 109.367 70.5139 110.037 70.5482 110.457Z" fill="#693E1A"/>
<path d="M72.4541 109.929C72.462 110.023 74.3536 110.173 74.5201 111.435C75.2827 110.903 74.8373 109.546 74.0693 109.217C73.3009 108.889 72.4198 109.509 72.4541 109.929Z" fill="#693E1A"/>
<path d="M123.568 48.9546C123.568 48.9546 116.337 47.6587 111.603 52.497C106.868 57.3354 105.835 67.2715 112.119 72.8009C118.403 78.3304 128.877 77.6012 134.559 72.9354C140.24 68.2699 139.838 60.3591 137.944 56.3847C136.05 52.4104 132.004 49.3001 123.568 48.9546Z" fill="#BB7C2F"/>
<path d="M132.911 55.3295C131.192 53.0017 127.135 52.574 124.954 54.3406C123.864 55.2243 123.404 56.5181 123.218 57.5905C123.031 56.5178 122.572 55.2239 121.482 54.3406C119.301 52.574 115.058 53.4639 113.771 56.83C113.29 58.086 114.726 60.794 112.766 62.0249C109.57 64.0335 110.072 66.9939 110.769 68.4339C112.07 71.122 116.24 73.8871 119.913 72.6197C122.116 71.8598 122.887 71.68 123.218 71.583C123.549 71.6797 124.321 71.8598 126.523 72.6197C130.196 73.8871 134.367 71.122 135.668 68.4339C136.367 66.9888 137.276 64.877 134.079 61.6174C132.464 59.9712 134.434 57.3904 132.911 55.3295Z" fill="#CC863B"/>
<path d="M128.485 60.8786C128.485 60.8786 127.969 60.3687 128.262 59.1092C128.556 57.8498 130.502 57.6352 131.558 58.4927C132.614 59.3503 132.1 60.7696 131.556 61.0515C131.012 61.3331 128.485 60.8786 128.485 60.8786Z" fill="#AA6B2C"/>
<path d="M118.941 60.8786C118.941 60.8786 119.978 59.8864 118.941 58.5464C117.904 57.2065 113.971 57.9557 115.87 61.0516C117.877 60.9581 118.941 60.8786 118.941 60.8786Z" fill="#AA6B2C"/>
<path d="M119.547 71.4191C119.547 71.4191 120.235 73.8098 123.076 74.2416C125.917 74.6735 128.414 72.4558 128.758 71.2462C129.102 70.0366 119.619 70.8425 119.547 71.4191Z" fill="#EA9653"/>
<path d="M119.547 70.4909C119.547 70.4909 120.235 72.1235 123.076 72.4185C125.917 72.7135 128.414 71.1989 128.758 70.373C129.102 69.5468 119.619 70.0973 119.547 70.4909Z" fill="#8A5021"/>
<path d="M119.21 63.5158C119.21 63.5158 120.625 58.4085 123.266 58.8692C125.906 59.33 127.321 60.751 128.316 63.9383C129.311 67.1256 131.262 68.3545 130.344 70.2363C129.426 72.1181 128.392 71.8107 125.599 71.3885C122.806 70.9659 122.347 71.1196 120.396 71.8877C118.445 72.6558 116.761 69.8141 117.565 67.5867C118.368 65.359 119.21 63.5158 119.21 63.5158Z" fill="#F1A25C"/>
<path d="M123.11 70.2387C123.11 70.2387 123.118 69.6243 122.464 69.6243C121.81 69.6243 120.662 68.7603 120.451 67.2625C120.241 65.7648 121.58 64.1327 123.627 64.0367C125.674 63.9408 127.453 65.8226 127.358 67.3392C127.262 68.8562 125.789 69.701 124.909 69.7969C124.029 69.8928 124.419 70.4695 124.249 70.8339C124.078 71.1984 123.177 71.3428 123.11 70.2387Z" fill="#8A5021"/>
<path d="M124.545 68.0765C124.522 68.0428 124.22 67.395 124.402 66.6365C124.583 65.878 125.32 65.4844 126.009 66.0221C126.697 66.5599 126.946 67.4332 126.554 67.635C126.162 67.8365 125.875 67.2606 125.31 67.6061C124.746 67.9517 124.775 68.4128 124.545 68.0765Z" fill="#3F1F00"/>
<path d="M123.148 68.0765C123.171 68.0428 123.473 67.395 123.291 66.6365C123.11 65.878 122.373 65.4844 121.684 66.0221C120.996 66.5599 120.747 67.4332 121.139 67.635C121.531 67.8365 121.818 67.2606 122.383 67.6061C122.947 67.9517 122.918 68.4128 123.148 68.0765Z" fill="#3F1F00"/>
<path d="M118.947 60.8772C118.947 60.8772 118.747 59.1492 117.254 59.581C115.762 60.0132 115.877 61.0498 115.877 61.0498C118.001 61.5972 118.947 60.8772 118.947 60.8772Z" fill="#FFF2E2"/>
<path d="M118.388 60.3613C118.388 60.8307 118.009 61.2109 117.542 61.2109C117.074 61.2109 116.695 60.8307 116.695 60.3613C116.695 59.892 117.074 59.5117 117.542 59.5117C118.009 59.5121 118.388 59.8923 118.388 60.3613Z" fill="#3F1F00"/>
<path d="M128.492 60.8772C128.492 60.8772 128.693 59.1492 130.185 59.581C131.677 60.0132 131.563 61.0498 131.563 61.0498C129.439 61.5972 128.492 60.8772 128.492 60.8772Z" fill="#FFF2E2"/>
<path d="M129.047 60.3613C129.047 60.8307 129.426 61.2109 129.893 61.2109C130.361 61.2109 130.74 60.8307 130.74 60.3613C130.74 59.892 130.361 59.5117 129.893 59.5117C129.426 59.5117 129.047 59.8923 129.047 60.3613Z" fill="#3F1F00"/>
<path d="M135.006 54.7039C135.006 54.7039 136.538 53.4875 138.819 52.7861C141.1 52.0846 140.937 48.5281 138.166 46.8612C135.395 45.1943 133.722 45.9731 132.731 47.4642C131.74 48.9554 132.324 49.9863 132.245 51.3654C132.165 52.7445 131.922 53.1553 131.922 53.1553L135.006 54.7039Z" fill="#CC863B"/>
<path d="M135.006 54.704C135.006 54.704 135.929 53.175 138.21 52.4736C140.491 51.7722 140.378 49.1993 137.608 47.5321C134.837 45.8652 133.216 47.1363 132.838 48.0179C132.133 49.6652 132.325 49.986 132.245 51.3651C132.165 52.7442 131.922 53.1551 131.922 53.1551L135.006 54.704Z" fill="#BB7C2F"/>
<path d="M133.211 53.4763C133.211 53.4763 134.09 53.1693 134.301 50.944C134.512 48.7187 134.597 47.7952 136.479 48.3849C138.361 48.9742 139.28 50.7387 138.024 51.6612C136.768 52.5837 134.881 51.9136 134.362 53.0785C133.843 54.2431 133.211 53.4763 133.211 53.4763Z" fill="#8A5021"/>
<path d="M111.971 54.7039C111.971 54.7039 110.44 53.4875 108.159 52.7861C105.877 52.0846 106.041 48.5281 108.812 46.8612C111.583 45.1943 113.255 45.9731 114.247 47.4642C115.238 48.9554 114.653 49.9863 114.733 51.3654C114.812 52.7445 115.056 53.1553 115.056 53.1553L111.971 54.7039Z" fill="#CC863B"/>
<path d="M111.963 54.704C111.963 54.704 111.04 53.175 108.759 52.4736C106.478 51.7722 106.59 49.1993 109.361 47.5321C112.132 45.8652 113.753 47.1363 114.131 48.0179C114.836 49.6652 114.645 49.986 114.724 51.3651C114.804 52.7442 115.047 53.1551 115.047 53.1551L111.963 54.704Z" fill="#BB7C2F"/>
<path d="M113.773 53.4763C113.773 53.4763 112.894 53.1693 112.683 50.944C112.471 48.7187 112.387 47.7952 110.505 48.3849C108.623 48.9742 107.704 50.7387 108.96 51.6612C110.216 52.5837 112.103 51.9136 112.622 53.0785C113.141 54.2431 113.773 53.4763 113.773 53.4763Z" fill="#8A5021"/>
</svg>
