<svg width="51" height="44" viewBox="0 0 51 44" fill="none" xmlns="http://www.w3.org/2000/svg">
<path d="M50.7143 21.7422H41.4776V0.278763C41.4776 0.135165 41.3645 0.0184884 41.2242 0.00951348C41.0839 0.000538573 40.9572 0.103745 40.9391 0.242856C40.577 3.14175 39.3008 8.74658 34.8024 13.7277C33.8927 14.7373 32.9378 15.6079 31.9693 16.3842V0.274271C31.9693 0.130673 31.8562 0.0139965 31.7159 0.00502164C31.5711 -0.00395326 31.4489 0.0992669 31.4308 0.238378C31.0687 3.13727 29.7925 8.74209 25.2941 13.7232C24.3844 14.7328 23.4295 15.6034 22.4611 16.3797V0.269793C22.4611 0.126195 22.3479 0.00951841 22.2076 0.000543503C22.0673 -0.0084314 21.9406 0.0947751 21.9225 0.233886C21.5605 3.13278 20.2843 8.73761 15.7858 13.7187C10.2012 19.9069 3.05079 21.3832 0.235874 21.7333C0.0955806 21.7512 -0.00850306 21.8769 0.000548122 22.016C0.00959931 22.1596 0.127267 22.2673 0.272086 22.2673H9.51334V43.7308C9.51334 43.8743 9.62648 43.991 9.76677 44C9.7713 44 9.77583 44 9.78488 44C9.92064 44 10.0383 43.9013 10.0564 43.7622C10.4094 40.8678 11.6766 35.2719 16.1886 30.2774C17.1028 29.2677 18.0577 28.3926 19.0261 27.6208V43.7308C19.0261 43.8743 19.1393 43.991 19.2796 44C19.2841 44 19.2886 44 19.2977 44C19.4334 44 19.5511 43.9013 19.5692 43.7622C19.9222 40.8678 21.1894 35.2719 25.7014 30.2774C26.6156 29.2677 27.5705 28.3926 28.5389 27.6208V43.7308C28.5389 43.8743 28.6521 43.991 28.7924 44C28.7969 44 28.8014 44 28.8105 44C28.9462 44 29.0639 43.9013 29.082 43.7622C29.435 40.8678 30.7022 35.2719 35.2142 30.2774C40.8078 24.0892 47.9537 22.6128 50.7641 22.2628C50.9044 22.2448 51.0085 22.1192 50.9995 21.9801C50.9904 21.8365 50.8727 21.7288 50.7279 21.7288L50.7143 21.7422Z" fill="white"/>
</svg>
