<svg width="39" height="34" viewBox="0 0 39 34" fill="none" xmlns="http://www.w3.org/2000/svg">
<path d="M38.7816 16.8008H31.7182V0.215408C31.7182 0.104446 31.6317 0.0142865 31.5244 0.00735132C31.4171 0.00041617 31.3202 0.0801666 31.3063 0.187661C31.0295 2.42772 30.0536 6.75872 26.6136 10.6077C25.918 11.3879 25.1877 12.0606 24.4471 12.6605V0.211937C24.4471 0.100975 24.3606 0.0108155 24.2533 0.00388036C24.1426 -0.00305479 24.0492 0.0767062 24.0353 0.184201C23.7585 2.42426 22.7825 6.75525 19.3425 10.6043C18.6469 11.3845 17.9167 12.0572 17.1761 12.6571V0.208477C17.1761 0.0975142 17.0896 0.00735513 16.9823 0.000419979C16.875 -0.00651517 16.7781 0.0732353 16.7643 0.18073C16.4874 2.42078 15.5115 6.75179 12.0715 10.6008C7.80094 15.3826 2.33296 16.5234 0.180374 16.7939C0.073091 16.8078 -0.00650234 16.9049 0.000419152 17.0123C0.00734065 17.1233 0.0973222 17.2065 0.208066 17.2065H7.27491V33.7919C7.27491 33.9029 7.36142 33.9931 7.46871 34C7.47217 34 7.47563 34 7.48255 34C7.58638 34 7.67636 33.9237 7.6902 33.8162C7.96014 31.5796 8.92914 27.2556 12.3795 23.3962C13.0786 22.616 13.8088 21.9398 14.5494 21.3433V33.7919C14.5494 33.9029 14.6359 33.9931 14.7432 34C14.7467 34 14.7501 34 14.757 34C14.8609 34 14.9508 33.9237 14.9647 33.8162C15.2346 31.5796 16.2036 27.2556 19.654 23.3962C20.3531 22.616 21.0833 21.9398 21.8239 21.3433V33.7919C21.8239 33.9029 21.9104 33.9931 22.0177 34C22.0212 34 22.0246 34 22.0315 34C22.1354 34 22.2253 33.9237 22.2392 33.8162C22.5091 31.5796 23.4781 27.2556 26.9285 23.3962C31.206 18.6144 36.6705 17.4735 38.8196 17.2031C38.9269 17.1892 39.0065 17.0921 38.9996 16.9846C38.9927 16.8736 38.9027 16.7904 38.7919 16.7904L38.7816 16.8008Z" fill="#0B1A2C"/>
</svg>
