<svg width="118" height="48" viewBox="0 0 118 48" fill="none" xmlns="http://www.w3.org/2000/svg">
<path d="M65.0783 17.3535C65.2623 17.3535 65.3083 17.5876 65.3083 17.7748C65.3543 18.5237 65.4003 19.2259 65.4003 19.9748C65.4463 20.6769 65.4463 21.379 65.4463 22.0812C65.8603 21.7535 66.2283 21.4259 66.6883 21.2854C67.4244 20.9578 68.2984 20.9578 69.0344 21.3322C69.8165 21.7535 70.3225 22.5025 70.5985 23.2982C70.8285 24.0939 70.9205 24.9365 70.8745 25.7322C70.7825 26.7152 70.5525 27.6514 70.0005 28.4471C69.6785 28.9152 69.2644 29.2897 68.7124 29.4769C67.8384 29.8046 66.9184 29.6642 66.1363 29.1961C65.9063 29.0556 65.6763 28.8216 65.4923 28.6344C65.4003 28.9152 65.3543 29.1961 65.2623 29.4769C64.8483 29.4769 64.4803 29.5237 64.0662 29.4301C64.2043 28.7748 64.2043 28.0727 64.2503 27.4173C64.2963 25.0301 64.2503 22.6429 64.2503 20.3025C64.2043 19.3663 64.2503 18.4301 64.1122 17.5407C64.3883 17.4471 64.7563 17.3535 65.0783 17.3535ZM68.1144 22.2684C67.7464 22.1748 67.3784 22.1748 67.0564 22.2216C66.4123 22.3152 65.9063 22.7833 65.4923 23.2514C65.4923 23.3918 65.4923 23.579 65.4923 23.7195V27.511C65.4923 27.6514 65.5843 27.745 65.6763 27.7918C66.3203 28.4003 67.2404 28.6812 68.0684 28.4939C68.4824 28.4003 68.8504 28.1195 69.0344 27.745C69.3564 27.2301 69.4484 26.6216 69.4944 26.0131C69.5405 25.545 69.5865 25.0769 69.5405 24.6556C69.5405 24.1407 69.4024 23.579 69.1264 23.111C68.8964 22.6429 68.5284 22.362 68.1144 22.2684ZM73.4046 17.6812C73.6346 17.5876 73.9566 17.5876 74.1866 17.728C74.4166 17.8684 74.6006 18.1025 74.6926 18.3365C74.8307 18.8982 74.4166 19.5067 73.8646 19.5535C73.4506 19.6003 72.9906 19.3663 72.8526 18.8982C72.6686 18.4769 72.9446 17.8684 73.4046 17.6812ZM35.3612 18.6642C35.9592 18.2429 36.6952 17.9152 37.4313 17.9152C38.2133 17.9152 38.9953 17.962 39.6853 18.2897C39.9613 18.4301 40.2374 18.5705 40.5134 18.7578C40.3294 19.0854 40.0994 19.3195 39.8693 19.6003C39.5933 19.4599 39.3173 19.2727 38.9953 19.1322C38.2593 18.8514 37.3853 18.8046 36.6492 19.1322C36.0052 19.3663 35.4992 19.8812 35.1772 20.4897C34.9932 20.9578 34.8092 21.4259 34.7171 21.8939C34.6251 22.362 34.6251 22.8301 34.5791 23.2982C34.5791 23.9067 34.5331 24.562 34.5791 25.1705C34.6712 26.0599 34.9932 26.9025 35.5452 27.5578C36.0512 28.1663 36.7872 28.4939 37.5693 28.5876C37.9833 28.5876 38.3513 28.5876 38.7653 28.4939C39.2253 28.4003 39.6393 28.1195 40.0994 27.9322C40.3294 28.1663 40.5594 28.4939 40.7894 28.7748C40.4674 28.962 40.1454 29.1493 39.7773 29.2897C38.8573 29.6642 37.7993 29.711 36.8332 29.5705C36.0972 29.4301 35.4532 29.0556 34.9012 28.5876C34.2571 28.0259 33.7971 27.2769 33.5211 26.4812C33.3371 25.9195 33.2451 25.3578 33.1991 24.7961C33.1991 24.3748 33.1071 23.9535 33.1991 23.4854C33.1991 22.6897 33.3371 21.8471 33.6591 21.0982C33.9811 20.162 34.5331 19.2727 35.3612 18.6642Z" fill="white"/>
<path d="M5 13V35H26.4828V13H5ZM19.6285 19.3191C18.6165 21.3319 17.5585 23.3447 16.5004 25.3574C16.4544 25.4511 16.4544 25.4979 16.4544 25.5915C16.4544 27.0426 16.4544 28.4936 16.4544 29.8979C15.9484 29.8979 15.4424 29.8979 14.9364 29.8979C14.9364 28.4936 14.9364 27.0894 14.9364 25.6851C14.9364 25.5447 14.9364 25.3574 14.8444 25.217C13.8783 23.3915 12.9583 21.566 11.9923 19.6936C11.7623 19.2723 11.5322 18.8511 11.3482 18.383C11.4402 18.383 11.5322 18.3362 11.6242 18.3362C12.0843 18.3362 12.5443 18.3362 13.0043 18.383C13.0963 18.383 13.0963 18.4298 13.1423 18.4766C13.8323 19.9277 14.5224 21.4255 15.2584 22.9234C15.3964 23.2511 15.5344 23.5319 15.7184 23.8128C15.8564 23.5787 15.9944 23.3447 16.1324 23.0638C16.9144 21.4723 17.6965 19.9277 18.4785 18.3362C18.9845 18.3362 19.4905 18.2894 20.0426 18.383C19.9506 18.8043 19.7666 19.0383 19.6285 19.3191Z" fill="white"/>
<path d="M94.3353 19.1323C94.7493 18.9919 95.1633 18.8983 95.6233 18.8047C95.5313 19.6004 95.4853 20.3962 95.4853 21.2387C96.1294 21.2387 96.8194 21.2387 97.4634 21.2855C97.3714 21.6132 97.2334 21.894 97.0954 22.1749C96.5434 22.1749 95.9914 22.1749 95.3933 22.1749C95.3933 22.9238 95.3933 23.6728 95.3933 24.4217C95.3933 24.9834 95.4393 25.5919 95.3933 26.2004C95.3933 26.8558 95.3933 27.5579 95.4393 28.2132C95.4393 28.494 95.7153 28.6813 95.9454 28.7749C96.3594 28.8685 96.7734 28.8217 97.1874 28.7281C97.2794 28.9621 97.3254 29.243 97.3254 29.477C96.9574 29.6643 96.5434 29.7111 96.1294 29.7579C95.5773 29.7579 94.9333 29.6643 94.5193 29.243C94.1973 28.9153 94.1973 28.4004 94.1513 27.9792C94.1053 27.043 94.1513 26.06 94.1053 25.1238C94.1053 24.1409 94.1053 23.2047 94.1053 22.2217C93.7373 22.2217 93.3693 22.2217 93.0472 22.2217C93.0472 21.894 93.0472 21.5664 93.0472 21.2855C93.4153 21.2855 93.7373 21.2855 94.1053 21.2855C94.2433 20.5366 94.2433 19.7877 94.3353 19.1323ZM45.5735 21.0047C45.8955 21.0047 46.2635 21.0047 46.5855 21.0983C47.3215 21.3323 47.9656 21.894 48.3336 22.5494C48.6556 23.1579 48.8856 23.8132 48.9316 24.5153C48.9776 25.4515 49.0236 26.3877 48.7016 27.277C48.4256 28.1196 47.8736 28.8685 47.0915 29.2898C46.3095 29.7111 45.3895 29.7579 44.5614 29.5238C43.8254 29.3366 43.1814 28.8217 42.7214 28.1664C42.2613 27.4643 42.0773 26.6217 42.0773 25.7323C42.0773 24.9366 42.0313 24.094 42.3073 23.2983C42.5374 22.5494 43.0434 21.8472 43.7334 21.3792C44.0554 21.1919 44.3774 21.0047 44.7454 20.9579C45.0214 21.0047 45.2975 21.0047 45.5735 21.0047ZM44.9294 22.0813C44.5154 22.1749 44.1014 22.4558 43.8714 22.8302C43.5494 23.3919 43.4574 24.0472 43.4574 24.7026C43.4114 25.1706 43.4574 25.6387 43.5034 26.1068C43.5954 26.6685 43.6874 27.277 43.9634 27.7919C44.2394 28.3536 44.8374 28.5877 45.4355 28.6345C45.9875 28.6813 46.5855 28.5409 46.9995 28.0728C47.3215 27.6983 47.5055 27.277 47.5515 26.7621C47.6435 26.1536 47.6435 25.5451 47.5975 24.9834C47.5975 24.3749 47.5055 23.7196 47.2755 23.1111C47.1375 22.7366 46.8615 22.4558 46.5395 22.2685C46.0335 21.9877 45.4815 21.9409 44.9294 22.0813ZM51.1857 21.2855C51.5537 21.1451 51.9217 21.0515 52.3357 21.0047C52.4737 21.3792 52.5657 21.7536 52.6117 22.1749C52.8877 22.0345 53.0717 21.8004 53.3478 21.66C53.8998 21.2387 54.5898 21.0047 55.2798 21.0047C55.4178 21.0047 55.6018 21.0515 55.7399 21.1451C55.9699 21.2855 56.1999 21.3792 56.4299 21.5664C56.6139 21.7536 56.7519 22.0345 56.8899 22.2685C57.2119 22.1281 57.4419 21.8472 57.7179 21.66C58.1779 21.3323 58.73 21.0515 59.374 21.0047C59.926 20.9579 60.478 21.1451 60.892 21.5196C61.076 21.7068 61.2601 21.894 61.3521 22.1281C61.4441 22.3621 61.4901 22.5962 61.4901 22.877C61.5821 24.1877 61.5361 25.5451 61.5821 26.8558C61.5821 27.7451 61.5821 28.6345 61.5821 29.5238C61.1681 29.5238 60.708 29.5238 60.294 29.5238C60.294 28.2132 60.294 26.8558 60.294 25.5451C60.294 24.7026 60.294 23.86 60.248 22.9706C60.202 22.6898 60.064 22.4558 59.834 22.2685C59.604 22.1281 59.282 22.1281 58.96 22.1281C58.454 22.1749 58.0399 22.5026 57.6259 22.8302C57.4419 22.9706 57.2579 23.1579 57.0739 23.2983C57.0279 23.3451 57.0279 23.4387 57.0279 23.4855C57.0279 25.4983 57.0279 27.4643 57.0279 29.477C56.6139 29.477 56.1539 29.477 55.7399 29.477V24.7962C55.7399 24.4217 55.7399 24.0472 55.7399 23.6728C55.7399 23.2983 55.7399 22.877 55.6018 22.5494C55.3258 22.1749 54.8198 22.0813 54.4058 22.2217C53.7618 22.3621 53.2098 22.7834 52.7037 23.2515C52.6117 23.2983 52.6117 23.3919 52.6117 23.4855C52.6117 25.4983 52.6117 27.5111 52.6117 29.5238C52.2437 29.5238 51.8757 29.5238 51.5077 29.5238C51.4617 27.4643 51.5077 25.4047 51.4157 23.3451C51.4157 22.877 51.4157 22.4089 51.3237 21.9409C51.2777 21.7068 51.1857 21.4728 51.1857 21.2855ZM73.1285 21.2387C73.5425 21.1919 73.9565 21.0983 74.3705 21.0047C74.4165 22.1749 74.4165 23.3451 74.4165 24.4685C74.4165 26.1536 74.4165 27.7919 74.4165 29.477C74.0025 29.477 73.5425 29.477 73.1285 29.477C73.1285 27.0898 73.1285 24.7026 73.1285 22.3153C73.1285 21.9877 73.0825 21.5664 73.1285 21.2387ZM89.6431 21.0515C90.5172 21.1919 91.2532 22.0345 91.2992 22.9706C91.3452 24.3281 91.2992 25.7323 91.2992 27.0898V27.5111C91.2992 27.7919 91.2992 28.0728 91.3912 28.3068C91.4372 28.5877 91.7132 28.7281 91.8972 28.8685C91.7132 29.1026 91.5752 29.4302 91.3452 29.6175C91.2072 29.7579 91.0232 29.6175 90.9312 29.5238C90.6092 29.2898 90.4251 28.9621 90.2411 28.5877C89.9651 28.7281 89.7811 29.0089 89.4591 29.1494C88.9991 29.477 88.4471 29.6175 87.8491 29.6175C87.343 29.6175 86.837 29.5238 86.377 29.2898C85.641 28.8685 85.227 28.026 85.273 27.1834C85.273 26.3877 85.687 25.5919 86.285 25.1238C87.021 24.5621 87.9871 24.3749 88.9071 24.2813C89.3211 24.2345 89.7351 24.2345 90.1951 24.2345C90.1951 23.8132 90.1951 23.3919 90.1031 22.9706C90.0571 22.643 89.8731 22.2685 89.5511 22.0813C89.1831 21.894 88.7231 21.8472 88.3091 21.9409C87.527 22.0345 86.791 22.3621 86.147 22.8302C85.963 22.5962 85.779 22.3621 85.641 22.0813C85.549 21.9409 85.687 21.8472 85.779 21.8004C86.653 21.3323 87.573 20.9111 88.5851 20.9111H88.9991C89.2291 21.0047 89.4131 21.0047 89.6431 21.0515ZM89.0911 25.2175C88.6771 25.2643 88.3091 25.2643 87.8951 25.3579C87.435 25.4983 87.021 25.7792 86.745 26.2004C86.607 26.4345 86.607 26.7153 86.607 26.9962C86.607 27.277 86.561 27.6047 86.699 27.8855C86.791 28.1664 87.021 28.4472 87.297 28.5409C87.619 28.6813 87.9871 28.6813 88.3551 28.6813C88.7691 28.6345 89.1371 28.4004 89.4591 28.1196C89.7351 27.8855 90.0111 27.6047 90.0111 27.2302C90.0571 26.5749 90.0571 25.8728 90.0571 25.2175C89.7351 25.2643 89.4131 25.1706 89.0911 25.2175ZM103.076 21.0983C103.812 21.2855 104.456 21.7536 104.916 22.3621C105.284 22.877 105.514 23.4387 105.606 24.0472C105.698 24.6089 105.744 25.2175 105.698 25.826C105.698 26.8089 105.376 27.7451 104.824 28.494C104.364 29.1026 103.628 29.477 102.938 29.6175C102.064 29.7579 101.098 29.6175 100.316 29.0558C99.6715 28.5877 99.2575 27.8387 99.0275 27.043C98.8895 26.6217 98.8895 26.2472 98.8435 25.826C98.8435 25.1238 98.8435 24.4685 98.9355 23.7664C99.1195 23.0175 99.4875 22.2685 100.04 21.7068C100.454 21.2855 101.006 21.0515 101.558 20.9579C102.11 20.9579 102.616 21.0047 103.076 21.0983ZM101.696 22.0813C101.098 22.1749 100.592 22.643 100.408 23.2047C100.178 23.8132 100.178 24.4685 100.178 25.077C100.178 25.6855 100.178 26.294 100.316 26.8558C100.408 27.277 100.5 27.6515 100.776 27.9792C101.006 28.3068 101.42 28.494 101.788 28.5409C101.926 28.5877 102.11 28.5877 102.248 28.5877H102.386H102.524C102.846 28.5409 103.122 28.4472 103.398 28.3068C103.72 28.1196 103.95 27.7919 104.088 27.4175C104.226 26.9962 104.272 26.5281 104.318 26.1068C104.318 25.5919 104.364 25.077 104.318 24.5153C104.272 23.9536 104.226 23.3919 103.95 22.9238C103.72 22.5494 103.398 22.2685 102.984 22.0813C102.57 21.9877 102.11 21.9877 101.696 22.0813ZM107.906 21.3323C108.32 21.2387 108.688 21.0983 109.056 21.0047C109.286 21.426 109.286 21.894 109.332 22.3153C109.516 22.1749 109.7 21.9877 109.884 21.8004C110.436 21.2387 111.264 20.9111 112.046 21.0515V21.1451C111.862 21.5196 111.77 21.9409 111.586 22.3621C111.586 22.4558 111.448 22.4089 111.402 22.4089C111.08 22.4089 110.666 22.4089 110.39 22.5962C110.068 22.7834 109.838 23.0175 109.608 23.2983C109.378 23.5792 109.424 23.9536 109.424 24.2813C109.424 24.7494 109.378 25.2175 109.424 25.6855C109.424 26.9494 109.424 28.26 109.424 29.5238C109.01 29.5238 108.55 29.5238 108.136 29.5238C108.136 28.1196 108.136 26.6685 108.136 25.2643C108.136 24.2813 108.136 23.3451 108.09 22.3621C108.044 21.9877 107.952 21.66 107.906 21.3323ZM76.9006 21.3323C77.2687 21.1919 77.6827 21.0515 78.0507 21.0515C78.1887 21.426 78.2807 21.8472 78.3267 22.2217C78.6487 21.9877 78.9707 21.7068 79.2927 21.5196C79.9828 21.0983 80.8108 20.8175 81.5468 21.0983C82.0068 21.2387 82.4208 21.5196 82.6969 21.9409C82.9269 22.2217 82.9729 22.643 83.0189 22.9706C83.1109 24.2813 83.0649 25.5451 83.0649 26.8558C83.0649 27.7451 83.0649 28.5877 83.0649 29.4302C82.6509 29.4302 82.1908 29.4302 81.7768 29.4302C81.7768 28.026 81.7308 26.5749 81.7308 25.1706C81.7308 24.3749 81.7308 23.5792 81.6388 22.7834C81.5008 22.4089 81.1788 22.0813 80.7648 22.0813C80.4888 22.0813 80.1668 22.0813 79.8908 22.1749C79.2927 22.4089 78.7407 22.7834 78.2347 23.2047C78.2347 25.2643 78.2347 27.3706 78.2347 29.4302C77.8667 29.4302 77.4987 29.4302 77.1306 29.4302C77.1306 28.26 77.0846 27.0898 77.0846 25.8728C77.0846 24.6558 77.0846 23.4387 76.9926 22.2217C77.0846 21.9877 76.9926 21.66 76.9006 21.3323Z" fill="white"/>
</svg>
