<svg width="48" height="48" viewBox="0 0 48 48" fill="none" xmlns="http://www.w3.org/2000/svg">
<g clip-path="url(#clip0_546_750)">
<path d="M24.0095 3.40527C25.2184 3.40527 26.0883 3.51066 26.8318 3.63574L27.5408 3.76367C28.3083 3.90788 28.9737 3.98923 29.8914 3.98926C30.6944 3.98926 31.4784 3.75238 32.074 3.4707L35.3337 7.46387C34.8194 8.02635 34.1775 8.98028 34.1775 10.2529C34.1775 10.988 34.2625 11.6684 34.3757 12.373L34.4958 13.0889C34.7183 14.3955 34.9695 15.8506 34.9695 18.0215C34.9694 21.5717 32.5759 24.6809 28.5984 26.0938C26.042 27.0011 24.7081 27.7185 24.0056 28.2139C23.3038 27.7204 21.971 27.001 19.4148 26.0938C15.4401 24.6808 13.0438 21.5687 13.0437 18.0215C13.0437 15.8498 13.2913 14.394 13.5164 13.0889L13.5173 13.0869C13.6822 12.1173 13.8347 11.2331 13.8347 10.2529C13.8347 8.97847 13.1913 8.02611 12.6775 7.46387L15.9441 3.46973C16.5398 3.75167 17.3241 3.98926 18.1277 3.98926C19.0454 3.98924 19.7075 3.90756 20.4773 3.76367C21.3898 3.59438 22.3985 3.40528 24.0095 3.40527Z" stroke="black"/>
<mask id="path-2-inside-1_546_750" fill="white">
<path d="M31.9433 3.20256L35.6237 7.7282C35.1676 8.1434 34.3374 9.0789 34.3374 10.4075C34.3374 11.3127 34.4777 12.1321 34.6385 13.0814C34.8578 14.3576 35.1034 15.8052 35.1034 17.9588C35.1034 21.6512 32.6156 24.8345 28.6137 26.2628C25.7168 27.2953 24.5065 28.0565 24.0066 28.4745C23.5068 28.0537 22.2966 27.2953 19.3996 26.2628C15.3947 24.8345 12.9099 21.654 12.9099 17.9588C12.9099 15.8052 13.1584 14.3576 13.3747 13.0814C13.5384 12.1321 13.6758 11.3127 13.6758 10.4075C13.6758 9.08169 12.8457 8.1434 12.3897 7.7282L16.07 3.20243C16.6078 3.52077 17.4556 3.83354 18.3092 3.83354C19.1627 3.83354 19.7766 3.75887 20.4957 3.62321C21.3874 3.45434 22.3988 3.26607 24.0036 3.26607C25.6086 3.26607 26.62 3.45713 27.5116 3.62321C28.2336 3.75874 28.8446 3.83354 29.6982 3.83354C30.5577 3.83354 31.4025 3.52091 31.9433 3.20256ZM32.0105 2.83984L31.7884 2.97005C31.306 3.25505 30.5051 3.55957 29.7012 3.55957C28.8329 3.55957 28.2425 3.48198 27.5701 3.35469C26.6639 3.18596 25.6407 2.99197 24.0066 2.99197C22.3725 2.99197 21.3465 3.18596 20.4431 3.35469C19.7709 3.48198 19.1803 3.55957 18.3121 3.55957C17.5083 3.55957 16.7072 3.25505 16.2249 2.96992L16.0028 2.83984L15.8449 3.03648L12.1644 7.56212L12.0066 7.75583L12.1908 7.92457C12.638 8.33153 13.3894 9.19515 13.3894 10.4075C13.3894 11.2906 13.2519 12.0988 13.0912 13.0372C12.8719 14.3244 12.6205 15.7831 12.6205 17.9588C12.6205 21.7675 15.1784 25.0476 19.2973 26.5174C22.238 27.5665 23.3898 28.3222 23.8166 28.6792L24.0066 28.8398L24.1966 28.6792C24.6205 28.3222 25.7723 27.5665 28.716 26.5174C32.8349 25.0476 35.3927 21.7703 35.3927 17.9588C35.3927 15.7831 35.1442 14.3244 34.9221 13.0372C34.7613 12.0988 34.6239 11.2878 34.6239 10.4075C34.6239 9.19515 35.3752 8.33154 35.8225 7.9247L36.0066 7.75583L35.8487 7.56212L32.1713 3.03635L32.0105 2.83984Z"/>
</mask>
<path d="M31.9433 3.20256L32.7192 2.57163L32.1768 1.90471L31.436 2.3408L31.9433 3.20256ZM35.6237 7.7282L36.2969 8.46763L36.9962 7.83096L36.3995 7.09727L35.6237 7.7282ZM34.6385 13.0814L33.6525 13.2485L33.653 13.2508L34.6385 13.0814ZM28.6137 26.2628L28.9495 27.2048L28.9499 27.2046L28.6137 26.2628ZM24.0066 28.4745L23.3626 29.2395L24.0044 29.7798L24.648 29.2417L24.0066 28.4745ZM19.3996 26.2628L19.0637 27.2047L19.0639 27.2048L19.3996 26.2628ZM13.3747 13.0814L12.3892 12.9115L12.3887 12.9144L13.3747 13.0814ZM12.3897 7.7282L11.6138 7.09728L11.0172 7.83097L11.7164 8.46763L12.3897 7.7282ZM16.07 3.20243L16.5794 2.34188L15.8378 1.90296L15.2942 2.57151L16.07 3.20243ZM20.4957 3.62321L20.6811 4.60588L20.6818 4.60575L20.4957 3.62321ZM27.5116 3.62321L27.696 2.64037L27.6947 2.64012L27.5116 3.62321ZM32.0105 2.83984L32.7844 2.20655L32.2427 1.54457L31.5048 1.97715L32.0105 2.83984ZM31.7884 2.97005L31.2827 2.10735L31.2798 2.10907L31.7884 2.97005ZM27.5701 3.35469L27.7561 2.37214L27.7531 2.37159L27.5701 3.35469ZM20.4431 3.35469L20.2595 2.37169L20.2571 2.37215L20.4431 3.35469ZM16.2249 2.96992L16.7339 2.1091L16.7303 2.10699L16.2249 2.96992ZM16.0028 2.83984L16.5081 1.97692L15.7633 1.54075L15.223 2.21383L16.0028 2.83984ZM15.8449 3.03648L16.6208 3.66744L16.6248 3.66249L15.8449 3.03648ZM12.1644 7.56212L12.9397 8.19382L12.9403 8.19306L12.1644 7.56212ZM12.0066 7.75583L11.2314 7.12413L10.6352 7.8558L11.3312 8.49328L12.0066 7.75583ZM12.1908 7.92457L11.5154 8.66202L11.5178 8.66416L12.1908 7.92457ZM13.0912 13.0372L12.1056 12.8684L12.1054 12.8692L13.0912 13.0372ZM19.2973 26.5174L18.9612 27.4592L18.9613 27.4592L19.2973 26.5174ZM23.8166 28.6792L24.4623 27.9156L24.4582 27.9121L23.8166 28.6792ZM24.0066 28.8398L23.3609 29.6035L24.0066 30.1494L24.6522 29.6035L24.0066 28.8398ZM24.1966 28.6792L23.5524 27.9143L23.5509 27.9156L24.1966 28.6792ZM28.716 26.5174L29.0517 27.4593L29.0521 27.4592L28.716 26.5174ZM34.9221 13.0372L33.9365 13.2061L33.9367 13.2072L34.9221 13.0372ZM35.8225 7.9247L36.4953 8.66451L36.4985 8.66163L35.8225 7.9247ZM36.0066 7.75583L36.6826 8.49276L37.3776 7.85524L36.7818 7.12413L36.0066 7.75583ZM35.8487 7.56212L35.0726 8.19273L35.0735 8.19382L35.8487 7.56212ZM32.1713 3.03635L32.9474 2.40573L32.9452 2.40306L32.1713 3.03635ZM31.9433 3.20256L31.1675 3.8335L34.8478 8.35913L35.6237 7.7282L36.3995 7.09727L32.7192 2.57163L31.9433 3.20256ZM35.6237 7.7282L34.9504 6.98877C34.4242 7.46793 33.3374 8.65345 33.3374 10.4075H34.3374H35.3374C35.3374 9.50434 35.9111 8.81887 36.2969 8.46763L35.6237 7.7282ZM34.3374 10.4075H33.3374C33.3374 11.4107 33.4941 12.3128 33.6526 13.2485L34.6385 13.0814L35.6245 12.9144C35.4613 11.9515 35.3374 11.2148 35.3374 10.4075H34.3374ZM34.6385 13.0814L33.653 13.2508C33.8697 14.5119 34.1034 15.8921 34.1034 17.9588H35.1034H36.1034C36.1034 15.7182 35.846 14.2034 35.6241 12.9121L34.6385 13.0814ZM35.1034 17.9588H34.1034C34.1034 21.1508 31.9598 24.0068 28.2776 25.321L28.6137 26.2628L28.9499 27.2046C33.2713 25.6622 36.1034 22.1516 36.1034 17.9588H35.1034ZM28.6137 26.2628L28.278 25.3208C25.3373 26.3689 23.9982 27.178 23.3652 27.7073L24.0066 28.4745L24.648 29.2417C25.0149 28.935 26.0962 28.2217 28.9495 27.2048L28.6137 26.2628ZM24.0066 28.4745L24.6506 27.7095C24.0156 27.1748 22.6738 26.3681 19.7353 25.3208L19.3996 26.2628L19.0639 27.2048C21.9193 28.2225 22.998 28.9326 23.3626 29.2395L24.0066 28.4745ZM19.3996 26.2628L19.7355 25.3209C16.0506 24.0067 13.9099 21.1538 13.9099 17.9588H12.9099H11.9099C11.9099 22.1542 14.7388 25.6623 19.0637 27.2047L19.3996 26.2628ZM12.9099 17.9588H13.9099C13.9099 15.8927 14.1463 14.5132 14.3606 13.2485L13.3747 13.0814L12.3887 12.9144C12.1706 14.202 11.9099 15.7176 11.9099 17.9588H12.9099ZM13.3747 13.0814L14.3601 13.2514C14.5225 12.31 14.6758 11.4103 14.6758 10.4075H13.6758H12.6758C12.6758 11.2152 12.5543 11.9543 12.3892 12.9115L13.3747 13.0814ZM13.6758 10.4075H14.6758C14.6758 8.65667 13.5897 7.46841 13.0629 6.98877L12.3897 7.7282L11.7164 8.46763C12.1017 8.81839 12.6758 9.50671 12.6758 10.4075H13.6758ZM12.3897 7.7282L13.1655 8.35912L16.8459 3.83335L16.07 3.20243L15.2942 2.57151L11.6138 7.09728L12.3897 7.7282ZM16.07 3.20243L15.5607 4.06298C16.2157 4.45072 17.2378 4.83354 18.3092 4.83354V3.83354V2.83354C17.6734 2.83354 17 2.59083 16.5794 2.34188L16.07 3.20243ZM18.3092 3.83354V4.83354C19.2354 4.83354 19.9121 4.75094 20.6811 4.60588L20.4957 3.62321L20.3104 2.64054C19.6411 2.76679 19.09 2.83354 18.3092 2.83354V3.83354ZM20.4957 3.62321L20.6818 4.60575C21.552 4.44095 22.4918 4.26607 24.0036 4.26607V3.26607V2.26607C22.3059 2.26607 21.2229 2.46773 20.3097 2.64068L20.4957 3.62321ZM24.0036 3.26607V4.26607C25.5148 4.26607 26.4537 4.44336 27.3284 4.6063L27.5116 3.62321L27.6947 2.64012C26.7862 2.4709 25.7024 2.26607 24.0036 2.26607V3.26607ZM27.5116 3.62321L27.3271 4.60605C28.0979 4.75071 28.7714 4.83354 29.6982 4.83354V3.83354V2.83354C28.9177 2.83354 28.3694 2.76676 27.696 2.64037L27.5116 3.62321ZM29.6982 3.83354V4.83354C30.7757 4.83354 31.7943 4.45071 32.4506 4.06433L31.9433 3.20256L31.436 2.3408C31.0108 2.5911 30.3397 2.83354 29.6982 2.83354V3.83354ZM32.0105 2.83984L31.5048 1.97715L31.2827 2.10735L31.7884 2.97005L32.2941 3.83275L32.5162 3.70254L32.0105 2.83984ZM31.7884 2.97005L31.2798 2.10907C30.9092 2.32797 30.2828 2.55957 29.7012 2.55957V3.55957V4.55957C30.7273 4.55957 31.7027 4.18212 32.297 3.83103L31.7884 2.97005ZM29.7012 3.55957V2.55957C28.9079 2.55957 28.3808 2.49041 27.7561 2.37214L27.5701 3.35469L27.3841 4.33724C28.1041 4.47355 28.758 4.55957 29.7012 4.55957V3.55957ZM27.5701 3.35469L27.7531 2.37159C26.8303 2.19975 25.7346 1.99197 24.0066 1.99197V2.99197V3.99197C25.5468 3.99197 26.4975 4.17216 27.387 4.33779L27.5701 3.35469ZM24.0066 2.99197V1.99197C22.2787 1.99197 21.1803 2.19969 20.2595 2.3717L20.4431 3.35469L20.6267 4.33769C21.5126 4.17222 22.4662 3.99197 24.0066 3.99197V2.99197ZM20.4431 3.35469L20.2571 2.37215C19.6325 2.49041 19.1053 2.55957 18.3121 2.55957V3.55957V4.55957C19.2552 4.55957 19.9092 4.47355 20.6291 4.33724L20.4431 3.35469ZM18.3121 3.55957V2.55957C17.7305 2.55957 17.104 2.32793 16.7339 2.10911L16.2249 2.96992L15.716 3.83073C16.3104 4.18216 17.286 4.55957 18.3121 4.55957V3.55957ZM16.2249 2.96992L16.7303 2.10699L16.5081 1.97692L16.0028 2.83984L15.4975 3.70277L15.7196 3.83284L16.2249 2.96992ZM16.0028 2.83984L15.223 2.21383L15.0651 2.41047L15.8449 3.03648L16.6248 3.66249L16.7826 3.46585L16.0028 2.83984ZM15.8449 3.03648L15.0691 2.40554L11.3886 6.93117L12.1644 7.56212L12.9403 8.19306L16.6208 3.66743L15.8449 3.03648ZM12.1644 7.56212L11.3892 6.93041L11.2314 7.12413L12.0066 7.75583L12.7818 8.38754L12.9397 8.19382L12.1644 7.56212ZM12.0066 7.75583L11.3312 8.49328L11.5154 8.66201L12.1908 7.92457L12.8662 7.18713L12.682 7.01839L12.0066 7.75583ZM12.1908 7.92457L11.5178 8.66416C11.8916 9.00439 12.3894 9.61829 12.3894 10.4075H13.3894H14.3894C14.3894 8.77202 13.3844 7.65867 12.8639 7.18498L12.1908 7.92457ZM13.3894 10.4075H12.3894C12.3894 11.1922 12.2683 11.9181 12.1056 12.8684L13.0912 13.0372L14.0769 13.2059C14.2355 12.2794 14.3894 11.3889 14.3894 10.4075H13.3894ZM13.0912 13.0372L12.1054 12.8692C11.8841 14.1683 11.6205 15.6953 11.6205 17.9588H12.6205H13.6205C13.6205 15.871 13.8597 14.4805 14.077 13.2052L13.0912 13.0372ZM12.6205 17.9588H11.6205C11.6205 22.2664 14.5212 25.8748 18.9612 27.4592L19.2973 26.5174L19.6334 25.5755C15.8357 24.2204 13.6205 21.2685 13.6205 17.9588H12.6205ZM19.2973 26.5174L18.9613 27.4592C21.8544 28.4913 22.8793 29.199 23.175 29.4463L23.8166 28.6792L24.4582 27.9121C23.9002 27.4454 22.6217 26.6416 19.6333 25.5755L19.2973 26.5174ZM23.8166 28.6792L23.171 29.4429L23.3609 29.6035L24.0066 28.8398L24.6522 28.0762L24.4622 27.9156L23.8166 28.6792ZM24.0066 28.8398L24.6522 29.6035L24.8422 29.4428L24.1966 28.6792L23.5509 27.9156L23.3609 28.0762L24.0066 28.8398ZM24.1966 28.6792L24.8408 29.4441C25.1316 29.1991 26.1544 28.4919 29.0517 27.4593L28.716 26.5174L28.3803 25.5754C25.3902 26.641 24.1093 27.4453 23.5524 27.9143L24.1966 28.6792ZM28.716 26.5174L29.0521 27.4592C33.492 25.8749 36.3927 22.2694 36.3927 17.9588H35.3927H34.3927C34.3927 21.2711 32.1778 24.2203 28.38 25.5755L28.716 26.5174ZM35.3927 17.9588H36.3927C36.3927 15.6959 36.1323 14.1696 35.9075 12.8672L34.9221 13.0372L33.9367 13.2072C34.1561 14.4791 34.3927 15.8704 34.3927 17.9588H35.3927ZM34.9221 13.0372L35.9077 12.8683C35.745 11.9185 35.6239 11.1895 35.6239 10.4075H34.6239H33.6239C33.6239 11.386 33.7776 12.2791 33.9365 13.2061L34.9221 13.0372ZM34.6239 10.4075H35.6239C35.6239 9.61823 36.1216 9.00435 36.4953 8.66451L35.8225 7.9247L35.1497 7.1849C34.6287 7.65872 33.6239 8.77208 33.6239 10.4075H34.6239ZM35.8225 7.9247L36.4985 8.66163L36.6826 8.49276L36.0066 7.75583L35.3306 7.01891L35.1465 7.18778L35.8225 7.9247ZM36.0066 7.75583L36.7818 7.12413L36.6239 6.93041L35.8487 7.56212L35.0735 8.19382L35.2314 8.38754L36.0066 7.75583ZM35.8487 7.56212L36.6248 6.9315L32.9474 2.40573L32.1713 3.03635L31.3952 3.66697L35.0726 8.19273L35.8487 7.56212ZM32.1713 3.03635L32.9452 2.40306L32.7844 2.20655L32.0105 2.83984L31.2366 3.47314L31.3974 3.66964L32.1713 3.03635Z" fill="white" mask="url(#path-2-inside-1_546_750)"/>
<path d="M24.0066 4.33984C25.5419 4.33984 26.5148 4.51813 27.3933 4.67969V4.68066C28.1674 4.8261 28.9028 4.91699 29.8962 4.91699C30.6198 4.91699 31.2751 4.79844 31.8445 4.58105L34.363 7.62598C33.8738 8.2867 33.4139 9.21605 33.4138 10.3818C33.4138 11.1512 33.5014 11.851 33.6189 12.5713L33.7439 13.3027C33.9632 14.565 34.2078 15.971 34.2078 18.0586C34.2078 21.2513 32.0108 24.0685 28.3357 25.3564C26.187 26.1094 24.8449 26.7495 24.0066 27.252C23.1684 26.7495 21.8267 26.1093 19.6785 25.3564C16.003 24.0656 13.8054 21.2484 13.8054 18.0586C13.8054 15.9739 14.0499 14.568 14.2693 13.3027C14.4438 12.3103 14.6003 11.4078 14.6003 10.3818C14.6002 9.21541 14.1388 8.28581 13.6492 7.625L16.1677 4.58105C16.7373 4.7986 17.3931 4.91699 18.1169 4.91699C19.1116 4.91699 19.8467 4.82254 20.6179 4.68066C21.497 4.51913 22.4703 4.33984 24.0066 4.33984Z" stroke="white"/>
<path d="M15.1392 5.10852C13.6811 4.83546 13.0066 4.6639 13.0066 4.6639C13.0066 5.38402 13.4573 5.74164 13.4573 5.74164C13.4573 5.74164 13.5545 6.00751 13.8314 6.40387M33.2895 8.83984C33.9463 8.53767 34.1201 8.41448 34.3498 7.87068C34.3498 7.87068 34.8682 7.50099 35.0862 7.20136C35.6811 6.68413 35.8638 6.04857 35.8697 6.0437C36.3322 5.59432 36.4823 4.97315 36.4823 4.97315C36.9478 4.3739 37.0066 3.83984 37.0066 3.83984C37.0066 3.83984 35.9315 4.1346 33.6399 4.73396C33.3071 4.82096 32.0788 5.16895 32.0788 5.16895" fill="#000F46"/>
<path d="M15.6624 12.1895L15.8966 12.74L16.5203 12.5707L16.2161 13.0816L16.7485 13.4626L16.1096 13.5134L16.14 14.1147L15.6746 13.7252L15.1726 14.1147L15.2183 13.5417L14.6098 13.4146L15.1513 13.0618L14.8532 12.5452L15.4251 12.7343L15.6624 12.1895ZM19.0909 13.6122L18.5191 13.4373L18.8142 13.9454L18.2726 14.2925L18.8993 14.4196L18.8384 15.001L19.3343 14.6114L19.8151 15.001L19.7755 14.3998L20.4174 14.349L19.8941 13.9764L20.1892 13.4598L19.5655 13.615L19.3374 13.0788L19.0909 13.6122ZM14.7466 17.0814L14.1748 16.9064L14.4638 17.4088L13.9314 17.7561L14.5399 17.883L14.4882 18.4617L14.9901 18.0665L15.4556 18.4617L15.4251 17.8548L16.0639 17.804L15.5377 17.4229L15.8358 16.9205L15.2091 17.0814L14.981 16.5366L14.7466 17.0814ZM19.1122 17.2931L18.5646 17.3016L19.021 17.6206L18.8536 18.1371L19.3161 17.8267L19.7816 18.1371L19.6081 17.6206L20.0645 17.2959H19.5017L19.3192 16.7935L19.1122 17.2931ZM19.0667 20.8554L18.4947 20.672L18.7837 21.1801L18.2422 21.5272L18.8598 21.6543L18.8142 22.2328L19.31 21.8377L19.7816 22.2414L19.7359 21.6486L20.384 21.578L19.8576 21.197L20.1557 20.6945L19.5382 20.8583L19.31 20.3078L19.0667 20.8554ZM24.6399 22.2357C24.9869 22.0749 25.078 21.9196 25.1906 21.7192L25.1998 21.7023C25.224 21.657 25.2453 21.6119 25.2667 21.5639C25.3032 21.4821 25.3458 21.3917 25.4219 21.2817V21.276C23.5478 19.3001 22.2276 16.9854 21.7712 16.1781C21.7682 16.1724 21.759 16.1753 21.759 16.181C21.7317 16.8809 21.7468 18.3375 22.2762 19.3001C22.5744 19.8392 22.623 19.8929 23.42 20.8018L23.5447 20.9457L23.6331 21.0446C23.636 21.0501 23.6331 21.0558 23.6269 21.053C23.5266 21.0079 23.3683 20.9118 23.3683 20.9118C23.1341 20.7877 22.5834 20.3868 22.0998 19.7376C22.0967 19.7319 22.0875 19.7348 22.0875 19.7405C22.0633 20.6973 22.5926 21.5978 22.9454 21.9506C23.2863 22.2922 23.773 22.343 24.0346 22.343C24.2689 22.343 24.4939 22.3006 24.6399 22.2357ZM28.0504 22.8398C28.5188 22.8144 29.0968 22.645 29.3037 22.3683C29.3675 22.295 29.4711 22.1934 29.7114 22.0663C29.8574 21.9957 29.9973 21.9506 30.122 21.911C30.4902 21.7953 30.7336 21.7192 30.7305 21.0954C28.1386 19.6558 27.0859 18.2077 27.156 18.1993C27.156 18.1993 27.6062 18.6227 28.2602 19.1138C28.8322 19.5428 30.04 20.48 31.0956 20.9175C31.1686 20.9514 31.0987 21.8659 30.5023 22.1143C30.4506 22.1369 30.3745 22.1651 30.2832 22.1963C29.9729 22.3034 29.5045 22.4644 29.5531 22.7579C29.5683 22.7833 29.6688 22.8201 29.8788 22.8201C30.3441 22.8201 30.9496 22.6479 31.1807 22.2667C31.272 22.1143 31.339 21.976 31.3998 21.8547C31.5884 21.4735 31.7041 21.2393 32.2394 21.132C32.0142 20.9091 30.8308 19.7376 30.2832 19.1928C29.7053 18.617 29.2855 17.9677 29.2397 17.8971C29.2397 17.8944 29.1456 17.7561 29.0055 17.6685C28.4183 17.2451 27.7826 17.1294 27.2198 17.0278C26.6022 16.9262 26.295 16.8189 26.085 16.6326C25.7322 16.3277 25.79 15.8394 25.8143 15.6559C25.8143 15.6446 25.8173 15.6333 25.8173 15.6221C25.7839 15.6559 25.7291 15.7378 25.7047 15.7716C25.6135 15.91 25.4736 16.1161 25.215 16.1161C25.1875 16.1161 25.1571 16.1132 25.1268 16.1075C24.9229 16.0737 24.78 15.9806 24.6674 15.6135C24.637 15.5176 24.5792 15.4866 24.5548 15.4837C24.5213 15.4837 24.5062 15.495 24.497 15.5035C24.4057 15.5937 24.427 15.9241 24.4605 16.0708C24.4697 16.1357 24.4483 16.1724 24.4301 16.1922C24.4057 16.2204 24.3663 16.2346 24.3206 16.2346C24.2658 16.2346 24.2172 16.212 24.1959 16.1781C24.1275 16.0859 24.0655 15.9897 24.0103 15.8902C23.9676 16.0398 23.8855 16.2007 23.6969 16.2035C23.5601 16.2035 23.4383 16.1018 23.3076 15.9947C23.1615 15.8733 23.0398 15.78 22.9364 15.78C22.9029 15.78 22.8724 15.7886 22.839 15.8084C22.7842 15.8422 22.7264 15.8592 22.6686 15.8592C22.5956 15.8592 22.5317 15.8309 22.4831 15.7773C22.3066 15.5656 22.5317 15.2917 22.6199 15.2015C22.5621 15.1648 22.4343 15.1281 22.2762 15.1281C22.1575 15.1281 21.8716 15.1507 21.7468 15.3482C21.7073 15.4696 21.7834 15.608 21.8442 15.7208C22.0723 16.1865 23.8733 19.173 25.723 21.0671C25.8417 21.1942 25.8538 21.307 25.7656 21.4172C25.5161 21.7417 25.4309 21.9986 25.5132 22.1792C25.6165 22.4079 25.9482 22.4587 25.9512 22.4587C26.0334 22.4738 26.1169 22.4814 26.2006 22.4813C26.5657 22.4813 26.6843 22.2979 26.8213 22.0861C26.9977 21.7925 27.1711 21.7304 27.2866 21.7304C27.3506 21.7304 27.3963 21.7474 27.4144 21.7559L27.4206 21.7586C27.4632 21.7784 27.518 21.8377 27.5362 21.9139C27.5514 21.9732 27.5545 22.0692 27.4722 22.1765L27.4692 22.1792C27.3932 22.2583 27.2563 22.3175 27.1377 22.3712C27.019 22.4248 26.8851 22.4842 26.8912 22.5293C26.9095 22.5913 27.3689 22.8342 27.9864 22.8342C28.0108 22.8398 28.029 22.8398 28.0504 22.8398ZM24.862 17.3778C25.1875 17.8181 26.0577 18.9924 27.5483 20.5675C27.5483 20.5675 27.6519 20.6973 27.5028 20.9599L27.4357 21.053L27.3871 20.9542C27.3871 20.9542 27.3415 20.8583 27.2442 20.7567C25.4219 18.8174 24.6399 17.1519 24.6491 17.1463C24.6491 17.1492 24.6887 17.1463 24.862 17.3778ZM29.3433 17.5387C29.4194 17.4879 29.4588 17.3524 29.4588 17.1294C29.4588 17.008 29.4588 16.8923 29.5379 16.7962C29.5735 16.7513 29.6191 16.7139 29.6716 16.6867C29.724 16.6594 29.7822 16.6429 29.8421 16.6383C29.7083 16.5648 29.5501 16.483 29.3706 16.3926C28.9235 16.1669 28.2633 15.8337 27.4632 15.2862C27.6548 15.526 27.9013 15.766 28.1811 15.9918L28.2815 16.0737C28.2754 16.0822 28.1659 16.0483 28.1659 16.0483C28.1568 16.0455 27.9439 15.9777 27.81 15.8986C27.8069 15.8959 27.8008 15.893 27.7948 15.8902C27.4054 15.6841 27.0342 15.3511 26.7452 14.9446C26.7421 14.9389 26.3619 14.3631 25.8994 13.3893C25.7626 13.0985 25.0203 11.9299 24.7343 11.6814C24.2871 11.5967 23.7151 11.5912 23.5509 11.5912C23.4627 11.5912 23.3866 11.594 23.3379 11.5967C22.9971 11.6165 22.7416 11.6702 22.6078 11.7181C22.0237 13.2199 21.835 14.2755 21.7834 14.8994L21.7772 14.9502C21.9304 14.8868 22.0963 14.8542 22.2641 14.8542C22.5773 14.8542 22.8572 14.9671 22.9151 15.1195C22.9606 15.2579 22.8937 15.3313 22.8269 15.4019C22.7873 15.447 22.7446 15.4894 22.7264 15.5543C22.7914 15.5233 22.8633 15.5068 22.9364 15.5064C23.1645 15.5064 23.3593 15.6672 23.5022 15.7857L23.5053 15.7886C23.6177 15.8845 23.6665 15.9128 23.6878 15.9241C23.7091 15.893 23.7638 15.7716 23.7943 15.3511V15.3454C23.557 14.047 24.2871 13.1296 24.2871 13.1296C24.2871 13.1296 23.8125 14.62 24.1653 15.5317C24.2262 15.3058 24.3692 15.2325 24.4879 15.2156C24.5062 15.2127 24.5244 15.2099 24.5427 15.2099C24.6947 15.2099 24.8803 15.3115 24.9504 15.5374C25.0355 15.8139 25.0933 15.8225 25.1785 15.8394C25.1894 15.8416 25.2007 15.8426 25.2119 15.8422C25.297 15.8422 25.3518 15.7773 25.4553 15.6249C25.5405 15.4978 25.6469 15.337 25.8386 15.337C25.8622 15.3372 25.8857 15.34 25.9086 15.3454C26.0029 15.3652 26.1307 15.4555 26.1063 15.6249C25.9816 16.5225 26.4136 16.6015 27.2745 16.7568C27.7491 16.8443 28.3363 16.9487 28.8991 17.2677C28.8353 17.1463 28.7287 17.0362 28.6527 16.96C28.626 16.9339 28.6006 16.9066 28.5766 16.8782L28.5371 16.8274L28.6039 16.833C28.6101 16.833 29.1759 16.8838 29.3068 17.5471H29.3098C29.3158 17.5557 29.3281 17.55 29.3433 17.5387ZM29.9518 16.8866C29.9213 16.8866 29.8909 16.8895 29.8574 16.8979C29.7449 16.9233 29.7357 17.0052 29.7326 17.1547C29.7297 17.2649 29.7266 17.3975 29.6505 17.5218C29.9883 17.454 30.2012 17.2931 30.1981 17.1011C30.195 17.0306 30.1616 16.9684 30.1068 16.929C30.0673 16.9007 30.0125 16.8866 29.9518 16.8866ZM25.939 12.8162C25.9451 12.8247 25.9572 12.8247 25.9664 12.8162C26.2098 12.5452 26.0425 11.9693 25.9907 11.752C26.3346 11.944 26.8061 12.0795 27.0647 12.1021C27.0951 11.8283 27.019 11.5488 26.8912 11.2214C27.2776 11.481 27.8525 11.6363 28.0473 11.6279C28.0898 11.34 27.8617 10.798 27.8465 10.7217C27.9925 10.7754 28.3363 10.956 28.6253 10.987C28.7013 10.8121 28.75 10.527 28.7227 10.2504C28.7227 10.2504 28.1872 10.3463 27.9195 10.3463C27.8465 10.3463 27.7795 10.3434 27.7218 10.3379C27.5727 10.3265 27.2989 10.2785 27.0282 10.2249C26.873 10.1939 26.7148 10.1685 26.5778 10.1459C26.5231 10.1374 26.4683 10.129 26.4197 10.1177C26.2616 10.091 26.1022 10.0712 25.942 10.0584C25.869 10.0528 25.7291 10.0471 25.6652 10.0471C25.6621 10.0471 25.6621 10.0471 25.6621 10.0498C25.5679 10.5948 25.224 11.0774 25.0386 11.34C25.0111 11.3794 24.9867 11.4133 24.9685 11.4388V11.4416C25.3306 11.913 25.8477 12.6835 25.939 12.8162ZM19.5138 9.40923C19.3801 9.29908 19.3313 9.16927 19.3739 9.04218C19.1274 9.014 18.7016 8.94056 18.3608 8.76564C18.2118 8.79667 17.7311 8.88691 17.1288 8.88691C16.9949 8.88691 16.855 8.8842 16.7059 8.87566C16.7181 8.8842 16.7303 8.88975 16.7424 8.89829C16.8702 8.97444 16.9979 9.05343 17.1257 9.07606C17.1774 9.06765 17.2992 9.05912 17.6064 9.03947C17.652 9.03649 17.7008 9.03378 17.7463 9.03378C18.0687 9.03378 18.4217 9.13811 18.8233 9.35557C18.8567 9.36682 19.1853 9.48822 19.3587 9.57006C19.386 9.53619 19.4408 9.47968 19.5138 9.40909V9.40923ZM33.5629 8.98853C33.8367 8.92078 34.147 8.66118 34.3203 8.36757C33.9735 8.55672 33.6876 8.63286 33.3559 8.63286C33.292 8.63286 33.222 8.63015 33.146 8.62446C33.0973 8.69776 33.0426 8.8361 32.7749 8.9575C33.0456 9.05912 33.4259 9.0224 33.5629 8.98853ZM29.1729 9.05072C29.3128 9.03649 29.4376 9.0224 29.5471 9.01115C30.259 8.93487 30.3685 8.92363 30.4781 8.85873C30.4932 8.85019 30.5176 8.82756 30.5449 8.79938C30.6331 8.71754 30.764 8.59614 30.9131 8.57934C30.9344 8.5765 30.9556 8.57365 30.974 8.57081C30.9921 8.5681 31.0134 8.56512 31.0316 8.56227C31.0956 8.55387 31.1504 8.54262 31.199 8.50875C31.3237 8.42678 31.4393 8.35063 31.555 8.34494H31.561C31.6522 8.34494 31.6918 8.42692 31.701 8.4551C31.7253 8.49737 31.7222 8.59899 31.7162 8.67243C31.7527 8.66514 31.7883 8.6547 31.8227 8.64126C31.8317 8.63855 31.844 8.63286 31.8592 8.62731C31.9047 8.61037 31.9687 8.5849 32.0265 8.56796C32.0661 8.55672 32.0965 8.55102 32.1268 8.55102C32.1939 8.55102 32.2333 8.58219 32.2729 8.62162C32.3368 8.68367 32.3733 8.7712 32.3824 8.8361C32.5772 8.78529 32.7536 8.66403 32.8297 8.5765C32.5376 8.50022 32.1603 8.3337 31.9322 8.07111C31.8348 7.95825 31.7983 7.84823 31.7892 7.76626C30.7488 8.1333 28.9721 8.50022 28.3941 8.61308C28.4124 8.67527 28.4124 8.73733 28.3941 8.79667C28.3779 8.85002 28.3488 8.89923 28.309 8.94056C28.3728 8.99137 28.5127 9.11846 28.5127 9.11846C28.5127 9.11846 29.0877 9.05912 29.1729 9.05072ZM19.9063 8.75995C19.8802 8.71353 19.8646 8.66261 19.8606 8.61037C19.1793 8.22923 18.4004 8.11352 17.9592 8.0768C18.087 8.24617 18.2422 8.37895 18.4369 8.49182C18.8841 8.74857 19.593 8.78814 19.6904 8.79383C19.7298 8.78529 19.8151 8.7712 19.9063 8.75995ZM18.0232 8.54818C17.8558 8.41553 17.725 8.26311 17.6095 8.07396C17.3934 8.09659 17.1805 8.11068 16.9706 8.11068C16.3104 8.11068 15.6654 7.98928 15.0053 7.74092C15.3338 8.05147 15.9058 8.46919 16.3925 8.56512C16.6267 8.59899 16.8732 8.61593 17.1257 8.61593C17.4908 8.61593 17.8072 8.58205 18.0232 8.54818ZM31.8774 7.44175C31.8865 7.42753 31.9383 7.36547 32.0234 7.30626C32.0692 7.27239 32.1178 7.24407 32.1695 7.22429L32.215 7.20749C32.4006 7.13121 32.5954 7.05493 32.7079 6.97593L32.7415 6.95344C32.8266 6.89694 32.9057 6.84044 32.9665 6.73313C32.6533 6.71904 32.3824 6.64574 32.2029 6.58084C30.3015 6.96469 28.4884 7.6309 27.9103 7.85379C28.0381 7.96394 28.0655 8.11068 27.9956 8.29982C28.0807 8.30551 28.1568 8.32801 28.2237 8.37028C28.5309 8.30836 30.8066 7.85948 31.8774 7.44175ZM34.3082 8.04578C34.5363 7.8905 34.8406 7.68158 35.0992 7.36561C34.4421 7.61952 33.9279 7.67317 33.2312 7.67887H33.1825C32.6836 7.67887 32.3276 7.60543 32.1543 7.56031C32.136 7.57725 32.1238 7.59134 32.1178 7.59689C32.1086 7.61112 32.0326 7.73523 32.1725 7.89335C32.4068 8.16162 32.857 8.31676 33.1035 8.34223C33.1852 8.35146 33.2675 8.35617 33.3498 8.35632C33.5567 8.35903 33.8822 8.32801 34.3082 8.04578ZM17.4694 7.81436C17.3995 7.66464 17.3447 7.51221 17.29 7.36263L17.2809 7.34298C17.147 6.97878 16.8063 6.87716 16.7698 6.86876C15.1482 6.55252 13.9953 6.05852 13.4172 5.68036C13.6211 6.11787 13.8249 6.51025 14.1535 6.84329C14.5489 7.24705 15.0813 7.52075 15.8237 7.7042H15.8297C16.058 7.75786 16.283 7.79458 16.499 7.81151C16.6663 7.8256 16.8336 7.83129 16.9949 7.83129C17.1533 7.83615 17.3119 7.83049 17.4694 7.81436ZM27.4936 7.70705H27.518C27.7583 7.60814 29.6323 6.86293 31.7496 6.3944C31.3085 6.22504 30.8948 6.14605 30.4567 6.14605C30.1251 6.14605 29.7752 6.1913 29.3919 6.28723C28.1659 6.58924 27.3962 7.04083 27.022 7.30897C27.0859 7.3232 27.1406 7.34854 27.1925 7.38525C27.3202 7.47563 27.3871 7.5912 27.3871 7.71558C27.4236 7.70989 27.4601 7.70705 27.4936 7.70705ZM33.2616 7.39948C33.6876 7.39948 34.3234 7.35423 34.9136 7.14814C35.4733 6.94491 35.7684 6.39725 35.8749 6.14605C35.0566 6.55252 34.299 6.66823 33.2829 6.73042C33.1947 6.98447 33.0364 7.09164 32.9117 7.17633L32.8813 7.19895C32.7962 7.2583 32.6806 7.31466 32.571 7.36263C32.714 7.37685 32.9544 7.39935 33.2616 7.39935V7.39948ZM20.3018 9.91448C20.6668 9.61518 20.8311 9.53049 21.2997 9.34419C21.5887 8.99422 21.9872 8.78529 22.404 8.75995C21.9203 8.40429 21.6008 8.04009 21.5978 7.47834C21.5947 6.91957 21.2448 6.34644 20.9254 6.1348C20.4144 5.77345 19.7329 5.74242 18.7867 5.70285C18.1479 5.67467 17.4239 5.64364 16.569 5.50531C16.5568 5.5026 15.0875 5.22863 14.6767 5.14111C14.6646 5.1384 13.5876 4.93516 13.0066 4.7685C13.0856 5.00846 13.3108 5.25411 13.6758 5.50246C13.7215 5.53078 14.8014 6.20539 16.7728 6.59209L16.7941 6.59764C16.7941 6.59764 16.9341 6.62596 16.9827 6.63436C18.659 6.93366 19.0119 7.02674 19.0454 7.03528C19.5626 7.17077 19.9855 7.34569 20.1436 7.48972C20.2166 7.55177 20.3018 7.6477 20.3079 7.65339L20.3809 7.73523L20.0583 7.62236C19.6781 7.48958 19.377 7.39366 18.9693 7.30057C18.9572 7.29786 18.6742 7.22158 17.4178 6.99301C17.4802 7.07531 17.5293 7.16559 17.5638 7.26101L17.573 7.28079C17.6368 7.453 17.7008 7.6309 17.7859 7.79742C18.0993 7.80867 19.088 7.8821 19.958 8.34779C20.0737 8.21514 20.2562 8.18696 20.393 8.18696H20.4144C20.4069 8.07992 20.4452 7.97446 20.5208 7.89335C20.6365 7.7691 20.8098 7.75515 20.9285 7.75515C20.9558 7.75515 20.9833 7.75515 21.0046 7.75786C21.038 7.7042 21.1232 7.6477 21.1749 7.61667C21.2509 7.57156 21.4062 7.53768 21.4152 7.53768L21.5004 7.52075L21.3879 7.65055C21.2419 7.84254 21.2784 7.98928 21.2784 7.99212L21.2905 8.03169L21.1414 8.01475C21.108 8.0119 21.0745 8.00906 21.035 8.00906C20.8951 8.00906 20.7794 8.03453 20.7429 8.07409C20.6607 8.16149 20.7277 8.28289 20.7277 8.28573L20.8403 8.49168L20.7856 8.48612C20.746 8.48341 20.7033 8.47759 20.6638 8.47488C20.5756 8.46634 20.4843 8.4551 20.4052 8.4551C20.2835 8.4551 20.2105 8.47759 20.1801 8.52555L20.1771 8.53409C20.1467 8.5849 20.1071 8.65549 20.384 8.90114L20.4295 8.94341L20.3657 8.95195C20.3627 8.95195 19.9642 8.99991 19.7694 9.06481C19.7177 9.08175 19.6873 9.10708 19.6812 9.13527C19.6781 9.15234 19.6812 9.2087 19.8181 9.28214L19.9611 9.36113C19.9611 9.36113 19.6416 9.50516 19.6356 9.69715L20.3018 9.91448ZM17.2869 5.96544C17.2838 5.96544 17.2869 5.96259 17.2869 5.96259C17.4452 5.96259 18.1844 6.08399 18.6103 6.12627C18.8294 6.15174 19.9459 6.28154 20.2745 6.465C20.6 6.6429 20.7581 6.959 20.8615 7.21304L20.9162 7.35138C20.9162 7.35138 20.8707 7.35138 20.6912 7.17633C20.5696 7.03528 20.39 6.82351 20.1223 6.6994C19.3495 6.35498 18.087 6.36622 17.2869 5.96544ZM33.0852 6.46215H33.1582C33.7696 6.43966 34.9835 6.30132 35.6468 5.93441C36.1973 5.66058 36.3616 5.2682 36.5016 4.91538C36.4936 4.9185 36.4855 4.9213 36.4772 4.92378C36.3312 4.98028 36.1639 5.04518 35.8962 5.12986L35.7654 5.16942C35.4186 5.27944 34.8953 5.42632 34.3691 5.55896C33.4868 5.78198 32.7019 6.12071 32.279 6.3211C32.4585 6.38031 32.7536 6.46215 33.0852 6.46215ZM24.5944 7.45015C24.8073 7.27808 24.8013 7.14259 24.78 7.05777C24.6674 6.79817 24.4545 6.63721 24.1471 6.58355L22.7325 6.40294C22.7268 6.41007 22.7217 6.41764 22.7173 6.42557C22.7295 6.43112 22.7446 6.43966 22.76 6.44521C22.9181 6.51865 23.2467 6.67108 23.3653 6.99287C23.4018 7.08893 23.4657 7.09449 23.8368 7.11427L23.9494 7.11996C24.0376 7.12552 24.0771 7.12836 24.1442 7.13405C24.3023 7.15099 24.4209 7.27225 24.4453 7.29488C24.4666 7.31751 24.5335 7.3965 24.5488 7.48687L24.5944 7.45029V7.45015ZM28.1445 9.20884C28.1689 9.20315 28.1933 9.19746 28.2146 9.19177C28.0533 9.02525 27.8556 8.90954 27.8556 8.90954L27.9651 8.85873C28.0533 8.81632 28.108 8.76835 28.1203 8.72053C28.1263 8.69776 28.1203 8.67812 28.1051 8.64695C28.0655 8.57365 27.9864 8.53693 27.8738 8.53693C27.8283 8.53693 27.7856 8.54262 27.7583 8.54818L27.5028 8.5849L27.6031 8.40998C27.7766 8.09374 27.6822 8.03453 27.6396 8.00621C27.5831 7.96787 27.5149 7.94714 27.4449 7.947C27.3689 7.947 27.3049 7.96949 27.2501 7.98928C27.2363 7.99482 27.2221 7.99957 27.2076 8.0035L26.946 8.0909C26.946 8.0909 27.0403 7.90188 27.0464 7.8905C27.1072 7.7691 27.1194 7.68456 27.0099 7.60258C26.9642 7.57156 26.9156 7.55462 26.8639 7.55462C26.8122 7.55462 26.7573 7.57156 26.7025 7.60543L26.4562 7.7607L26.4683 7.69567C26.511 7.45856 26.2585 7.12836 26.2585 7.12836C26.2585 7.12836 26.4014 7.13974 26.5961 7.23852C26.6084 7.24407 26.6174 7.24976 26.6266 7.25261C26.9763 6.95046 27.7825 6.40294 29.3158 6.02465C29.7266 5.92303 30.1007 5.87506 30.4567 5.87506C30.9586 5.87506 31.4301 5.97113 31.9412 6.17721C32.2304 6.03318 33.1886 5.5759 34.2959 5.29651C34.874 5.14964 35.4368 4.97459 35.6528 4.90684L36.024 4.78273C36.3769 4.65279 36.8027 4.42977 37.0066 3.83984L32.571 5.21739C31.9078 5.46303 30.7153 5.55341 29.6596 5.63511C29.1485 5.67467 28.6679 5.71139 28.3119 5.7622C26.3497 6.0783 26.1459 6.95615 26.0364 7.43037C26.0314 7.45903 26.0243 7.48733 26.015 7.51506C25.9268 7.95269 25.7351 8.29698 25.4492 8.53978C25.5161 8.53693 25.5952 8.53693 25.6317 8.53693C25.8386 8.54262 25.9847 8.59343 26.1398 8.65549C26.1945 8.67812 26.2523 8.70061 26.3102 8.72594C26.3557 8.74586 26.4045 8.76564 26.4531 8.78529C26.6722 8.87566 26.9673 8.9575 27.4298 9.0789L27.4663 9.08744C27.5818 9.11846 27.673 9.14096 27.7522 9.16643C27.8252 9.18892 27.9439 9.23417 27.9743 9.24542C28.0321 9.23417 28.0899 9.22293 28.1445 9.20884ZM24.6977 6.51025C24.8073 6.45659 24.8165 6.30417 24.8013 6.25336C24.7556 6.10648 24.637 5.99646 24.4514 5.92587C24.3509 5.892 24.2201 5.87791 24.065 5.87791C23.5843 5.87791 22.9698 6.04727 22.8328 6.21095L24.1959 6.35498C24.2658 6.36338 24.4483 6.40009 24.637 6.52434C24.6612 6.5215 24.6795 6.5158 24.6977 6.51025ZM16.6115 9.34988C16.5355 9.27943 16.4169 9.23973 16.3226 9.23133C16.1279 9.22008 15.9119 9.29338 15.7263 9.45435C16.1462 9.47684 16.21 9.64905 16.4351 9.48538L16.6115 9.34988ZM16.7272 9.45719L16.5842 9.60678C16.4138 9.79863 16.5842 9.85798 16.5994 10.2222C16.7668 10.0669 16.8458 9.87776 16.8398 9.71124C16.8336 9.62656 16.7971 9.52209 16.7272 9.45719ZM16.1948 9.90594L16.0762 10.0726C15.9392 10.2871 16.1187 10.321 16.1888 10.6795C16.3287 10.5016 16.3804 10.3069 16.3439 10.1402C16.3287 10.0584 16.2739 9.9596 16.1948 9.90594ZM15.8115 10.4846L15.7202 10.6597C15.6168 10.8827 15.7932 10.8968 15.9119 11.2327C16.0244 11.0464 16.0457 10.8488 15.9879 10.6936C15.9606 10.6173 15.8966 10.5297 15.8115 10.4846ZM16.0274 9.80446C15.9362 9.75636 15.8084 9.74782 15.7141 9.76476C15.5255 9.80148 15.3369 9.93142 15.2091 10.1318C15.6199 10.0471 15.7325 10.1939 15.8997 9.97938L16.0274 9.80432V9.80446ZM15.6137 10.3999C15.5104 10.3689 15.3826 10.383 15.2913 10.4197C15.1088 10.4932 14.9474 10.6568 14.8623 10.8827C15.2548 10.7217 15.4008 10.8488 15.5225 10.6032L15.6137 10.3999ZM15.4739 10.9419C15.4039 10.9899 15.3551 11.0746 15.3369 11.1451C15.3034 11.2892 15.343 11.4613 15.4616 11.6194C15.5315 11.3061 15.6868 11.2778 15.5711 11.0886L15.4739 10.9419ZM18.4126 10.2277L18.3639 10.4367C18.3122 10.6991 18.5068 10.6709 18.7229 11.0068C18.7929 10.7811 18.7624 10.5665 18.662 10.414C18.6103 10.3379 18.516 10.2561 18.4126 10.2277ZM18.2574 10.1855C18.1631 10.16 18.0445 10.1769 17.9623 10.2108C17.798 10.2814 17.655 10.4367 17.5851 10.6456C17.938 10.4875 18.0749 10.6003 18.1813 10.3718L18.2574 10.1855ZM18.0749 10.829C17.9836 10.7895 17.865 10.7895 17.7798 10.815C17.6064 10.8629 17.4421 10.9956 17.3357 11.1931C17.7098 11.0859 17.8285 11.2157 17.9684 11.004L18.0749 10.829ZM17.7008 11.4133C17.6185 11.3653 17.5029 11.3512 17.4178 11.3653C17.2444 11.3908 17.0648 11.5008 16.937 11.6787C17.3144 11.6194 17.4087 11.7606 17.573 11.5714L17.7008 11.4133ZM18.2422 10.9023L18.1327 11.0915C18.0049 11.3314 18.1996 11.3541 18.3091 11.7295C18.443 11.529 18.4795 11.3174 18.4247 11.1423C18.3973 11.0576 18.3304 10.956 18.2422 10.9023ZM17.8528 11.5037L17.7037 11.673C17.5242 11.8875 17.7129 11.9497 17.7432 12.3448C17.9198 12.1699 18.0019 11.9609 17.9867 11.7775C17.9775 11.6871 17.9319 11.5743 17.8528 11.5037ZM17.4178 11.9016L17.2291 11.8875C16.9949 11.8791 17.0406 12.023 16.7728 12.2234C16.9766 12.2489 17.1622 12.2009 17.284 12.1077C17.3478 12.0626 17.4056 11.9807 17.4178 11.9016ZM24.8317 10.2418C24.8712 10.6003 24.9047 10.908 24.7435 11.1847V11.1876C24.7133 11.2585 24.6797 11.3281 24.643 11.3963C24.1867 11.323 23.6848 11.3174 23.5418 11.3174C23.4535 11.3174 23.3775 11.3202 23.3228 11.3231C23.1066 11.3343 22.906 11.3625 22.7387 11.402C22.76 11.3371 22.7963 11.2384 22.8634 11.1564L22.8999 11.1084L22.8359 11.1113C22.8055 11.1141 22.7752 11.1141 22.7446 11.1141C22.4922 11.1141 22.3431 11.0576 22.2276 10.9193C22.1484 10.8177 22.1271 10.6907 22.1728 10.5806C22.2093 10.4846 22.2914 10.3887 22.3675 10.2955C22.4343 10.2136 22.5804 9.99916 22.6291 9.90594C22.6595 9.84958 22.6899 9.79023 22.7173 9.72533C22.7811 9.80432 22.8755 9.85798 23.0063 9.88616C23.0749 9.90241 23.1454 9.91096 23.2162 9.91163C23.3441 9.91163 23.4778 9.88331 23.6452 9.81841C23.4231 10.002 22.7994 10.1177 22.7994 10.1177C22.7842 10.1347 22.7934 10.1571 22.8146 10.1657C22.8207 10.1685 22.8269 10.1685 22.8299 10.1714C22.9104 10.1906 22.9932 10.2 23.0763 10.1996C23.3379 10.1996 23.5783 10.1035 23.8398 9.98778C24.2627 9.78183 24.78 9.12687 24.8013 9.09868C24.8317 9.05912 24.8743 9.02525 24.9168 9.00262C24.7312 9.30747 24.7708 9.64065 24.8103 9.99062C24.8134 10.0753 24.8225 10.1571 24.8317 10.2418ZM24.4574 10.6258C24.354 10.8064 24.2445 10.9645 23.8642 10.9786C23.3958 10.9984 23.2771 10.6879 23.2771 10.6879C23.3045 10.8234 23.4169 11.2241 23.8673 11.2072C24.4422 11.1847 24.4574 10.6258 24.4574 10.6258ZM25.0933 10.7274L25.1206 10.6936C25.1541 10.654 25.1815 10.606 25.1846 10.5975C25.3549 10.3069 25.3823 10.0782 25.3944 9.97938L25.3975 9.96529C25.3975 9.96529 25.4219 9.78454 25.498 9.78454C25.9877 9.78454 26.5778 9.87491 27.0403 9.9596C27.1619 9.98222 27.2897 10.0047 27.4115 10.0273C27.5696 10.0639 27.743 10.081 27.9255 10.081C28.1872 10.081 28.4702 10.0443 28.7622 9.97084L29.9608 9.64349C30.0095 9.63211 30.0582 9.62371 30.1068 9.61233C30.2803 9.57575 30.4475 9.53619 30.6423 9.53619C30.6971 9.53348 30.7943 9.54743 30.846 9.54743C31.2659 9.54743 31.7558 9.35273 31.8987 9.25111C32.0478 9.1438 32.0751 9.05058 32.0965 8.94056C32.1057 8.88975 32.1026 8.85873 32.0873 8.84179C32.0825 8.83727 32.0768 8.83368 32.0706 8.83126C32.0643 8.82884 32.0576 8.82763 32.0508 8.8277C32.0142 8.8277 31.9535 8.85019 31.8744 8.87851C31.7648 8.91794 31.2478 9.05058 31.1382 9.05627C31.1594 9.0224 31.2355 8.95465 31.3085 8.90385C31.4059 8.8361 31.4972 8.7712 31.5093 8.6498C31.5093 8.62731 31.491 8.61877 31.4758 8.61877C31.4666 8.61877 31.4515 8.62731 31.4424 8.63015C31.4028 8.6498 31.3663 8.67527 31.3298 8.70061C31.2416 8.75995 31.1504 8.82201 31.0286 8.82201H31.0164C30.8856 8.83339 30.8095 8.90385 30.7305 8.97728C30.6454 9.05627 30.557 9.13825 30.3928 9.15789L28.674 9.36682C28.5432 9.38091 28.4154 9.40638 28.2936 9.43186C28.1751 9.45719 28.0504 9.48253 27.9286 9.49662C27.6884 9.40923 27.4144 9.33864 27.1498 9.27089C26.7848 9.17483 26.441 9.0873 26.1945 8.96319C26.1611 8.94625 25.8446 8.79098 25.5314 8.79098C25.4584 8.79098 25.3883 8.79952 25.3276 8.81645H25.3214C25.2849 8.83895 24.9533 9.05912 24.9959 9.66328C25.0142 9.90879 25.0324 10.0838 25.0507 10.2249C25.0599 10.3069 25.0689 10.3746 25.0751 10.4424C25.0751 10.4564 25.0841 10.5834 25.0811 10.6822L25.0933 10.7274ZM22.5926 8.98568H22.5469C22.1636 8.98568 21.8107 9.17483 21.4944 9.54472C21.0836 9.70555 20.7673 9.90025 20.393 10.1657C20.3383 10.16 19.8911 10.0047 19.4591 9.85513C19.1975 9.76489 18.9266 9.66883 18.7199 9.60109C18.4278 9.41194 18.0718 9.29623 17.8528 9.26805C17.8064 9.26192 17.7597 9.25907 17.7129 9.25951C17.4817 9.25951 17.1956 9.30477 17.1074 9.34419C17.0953 9.34704 17.074 9.35842 17.0709 9.38091C17.0709 9.39229 17.074 9.40354 17.0831 9.41207C17.0953 9.42332 17.1136 9.42888 17.147 9.42888C17.1805 9.42888 17.2262 9.42332 17.2809 9.41478C17.3539 9.40638 17.4452 9.39229 17.5365 9.39229C17.798 9.39229 17.9471 9.48822 18.0111 9.6943C17.9167 9.71124 17.8833 9.73658 17.8497 9.76476C17.8132 9.79592 17.7798 9.8241 17.6581 9.84104L17.6277 9.84673H17.6247C17.6034 9.85229 17.5882 9.86367 17.5882 9.87776C17.5851 9.89754 17.6034 9.91434 17.6095 9.91719C17.6368 9.93697 17.6794 9.94835 17.7311 9.94835C17.7828 9.94835 17.8406 9.93697 17.8862 9.91719C17.935 9.8947 17.9928 9.88901 18.0535 9.88331C18.155 9.87323 18.2533 9.84449 18.3427 9.79877C18.659 9.92288 18.9631 10.1063 19.2523 10.3491C19.4469 10.5128 19.669 10.702 20.0979 10.9109C20.1254 10.9221 20.1649 10.9335 20.2105 10.9335C20.2835 10.9335 20.3657 10.9052 20.4599 10.846C20.7247 10.702 22.0937 9.968 22.2305 9.9031H22.2336L22.2366 9.90039C22.4009 9.75351 22.4952 9.44581 22.5073 9.40909C22.5135 9.38945 22.5196 9.36398 22.5287 9.33864C22.5621 9.22848 22.6078 9.0789 22.6138 8.99991L22.6169 8.98568H22.5926ZM25.4826 7.02959C25.3792 7.12281 25.2818 7.15099 25.2088 7.15099C25.1323 7.14996 25.0567 7.13456 24.9867 7.10573C24.9838 7.1369 24.9929 7.17633 25.005 7.20464C25.0355 7.27795 25.1145 7.32035 25.1875 7.32035C25.3519 7.32035 25.4826 7.18202 25.4826 7.02959ZM24.9564 6.84898C25.0903 6.92797 25.2058 6.94775 25.3032 6.90819C25.4309 6.85453 25.4857 6.71633 25.4888 6.6994C25.507 6.58924 25.4553 6.5723 25.3854 6.55252C25.3245 6.53274 25.2515 6.51025 25.2453 6.41148C25.2453 6.37476 25.2332 6.35213 25.2119 6.34088C25.1754 6.31826 25.1085 6.33519 25.0751 6.34928C25.0538 6.56661 24.932 6.66823 24.8438 6.71633L24.9564 6.84898ZM23.6148 5.73673C23.6148 5.73673 23.4536 5.66898 23.2771 5.65489C23.0611 5.63795 22.9181 5.68036 22.8359 5.71708C22.7021 5.77629 22.6382 5.93156 22.7081 6.02749C22.9151 5.87222 23.2467 5.78198 23.6148 5.73673ZM24.9381 8.67243C24.8651 8.6498 24.8195 8.63855 24.7525 8.61308C24.2689 8.43531 24.4545 7.99781 24.3874 7.65055C24.3784 7.58009 24.3571 7.5095 24.2597 7.53768C24.2141 7.54893 24.0406 7.72398 23.7668 7.63361C23.8733 7.60258 23.9707 7.57156 24.0377 7.52359C24.1288 7.45856 24.1593 7.37401 24.1136 7.31466C24.0863 7.27239 24.0224 7.26385 23.9707 7.27808C23.9251 7.29204 23.8733 7.35978 23.8886 7.42753C23.8886 7.42753 23.7791 7.43891 23.6634 7.33729C23.6148 7.29488 23.5326 7.28079 23.4383 7.28364C23.3045 7.29217 23.2192 7.26101 23.1706 7.12267C23.1128 6.89125 22.8482 6.70495 22.6351 6.60049C22.5804 6.73042 22.5287 6.81795 22.5317 6.97309C22.5469 7.07755 22.7477 7.05777 22.8207 7.06915C23.0276 7.11712 22.6868 7.25261 22.6899 7.34569C22.6686 7.31751 22.6534 7.26101 22.6839 7.23567C22.7356 7.16793 22.6261 7.17348 22.5986 7.13961C22.5926 7.3232 22.4374 7.57996 22.4495 7.64499C22.4526 7.66193 22.6261 7.67317 22.6261 7.67317C22.6716 7.71274 22.6413 7.78888 22.6474 7.84254C22.6474 7.84525 22.6534 7.84823 22.6564 7.84823C22.6686 7.85379 22.7295 7.85948 22.7477 7.85948C22.7629 7.86219 22.7781 7.87357 22.7781 7.88766C22.7781 7.90459 22.766 7.91598 22.7477 7.91598C22.7477 7.91598 22.7233 7.91598 22.696 7.91028C22.7081 7.95825 22.7051 8.00919 22.7781 8.03738C22.8146 8.08534 22.7629 8.21799 22.8572 8.24061C23.1189 8.29698 23.4596 8.02315 23.7426 7.83969C23.6999 7.99497 23.4657 8.16149 23.4079 8.31676C23.4079 8.31676 23.3987 8.56512 23.341 8.72594C23.2709 8.92078 23.0459 8.8842 22.8786 8.96305C22.8786 8.97444 22.8755 8.98853 22.8724 9.00546C22.8693 9.02809 22.8634 9.05356 22.8634 9.08175V9.09584C22.8634 9.10153 22.8603 9.10993 22.8603 9.12131C22.8482 9.22293 22.8146 9.49662 23.0033 9.58984C23.0641 9.61802 23.1341 9.63211 23.2162 9.63211C23.4048 9.63211 23.6421 9.55597 23.8977 9.41194C24.1715 9.25951 24.3144 9.14096 24.4697 9.014C24.6131 8.88595 24.7701 8.77152 24.9381 8.67243ZM28.9417 10.1996C29.2428 10.6483 29.7053 10.6371 30.0246 10.5524C29.6596 10.4395 29.5289 10.3802 29.2551 10.1177C29.2581 10.1177 29.0847 10.1685 28.9417 10.1996ZM22.413 11.3794C22.3096 11.3512 22.2549 11.3286 22.1667 11.2722C21.8867 11.0972 21.7194 10.7217 21.9202 10.3971C21.9232 10.3887 21.9355 10.3689 21.972 10.3153C21.8199 10.4028 20.4935 11.1254 20.4935 11.1254C20.4935 11.1254 20.4995 11.2157 20.6303 11.2609C20.9011 11.34 21.2266 11.2694 21.4091 11.2355C21.2813 11.3625 21.1232 11.6222 21.2083 11.913C21.4761 11.8508 21.6039 11.8085 21.8047 11.5263C21.7985 11.7887 21.7803 12.2234 22.0298 12.438C22.0723 12.3223 22.2214 11.896 22.413 11.3794ZM29.541 10.0471C29.678 10.1741 29.8847 10.3463 30.3593 10.4226C30.6118 10.4593 31.0316 10.4085 31.202 10.3661C30.7305 10.2616 30.4688 10.0669 30.2072 9.86367C30.1251 9.87776 29.8057 9.95391 29.541 10.0471ZM30.5784 9.77885C30.7701 9.92288 31.0105 10.1036 31.412 10.1996C31.8895 10.3069 32.5284 10.0443 32.5649 10.0104C32.1451 9.99062 31.8288 9.85513 31.5033 9.66314C31.1077 9.85229 30.7275 9.72235 30.5784 9.77885ZM31.8196 9.51925C32.0325 9.62656 32.2029 9.68861 32.4006 9.73658C32.924 9.88345 33.2495 9.53063 33.3986 9.32739C33.4046 9.31886 33.4046 9.30192 33.3894 9.30192C32.7109 9.29908 32.6562 9.24257 32.3916 9.13811C32.352 9.22008 32.215 9.42048 31.8196 9.51925Z" fill="white"/>
<path d="M24.0037 25.2606C28.9771 25.2606 29.8331 28.8398 34.9348 28.8398C38.0249 28.8398 38.0849 27.6646 38.0849 27.6646L37.5626 25.2632C38.2389 24.5402 41.0066 24.6246 41.0066 24.6246L38.6069 21.8398C36.3756 21.9676 34.5438 22.4838 34.5438 23.3497V25.93C31.5364 25.93 29.5277 22.3662 24.0066 22.3662C18.4854 22.3662 16.4739 25.93 13.4693 25.93V23.3497C13.4693 22.4862 11.6347 21.9702 9.40625 21.8398L7.00659 24.6246C7.00659 24.6246 9.77727 24.5376 10.4506 25.2632L9.92833 27.6646C9.92833 27.6646 9.98832 28.8398 13.0784 28.8398C18.1745 28.8398 19.0333 25.2606 24.0037 25.2606Z" fill="#000F46"/>
<path d="M35.4461 24.3695C36.6371 24.6848 36.7487 24.8876 36.7774 25.0027C36.8002 25.1206 36.7717 25.2302 36.6858 25.3344C36.3824 25.7043 35.4662 25.9538 34.3468 25.973V23.8407C34.5701 24.0599 34.9337 24.2354 35.4461 24.3695ZM34.3497 23.1966C34.3497 23.7201 34.9194 23.9612 35.5206 24.1202C36.6628 24.4216 36.9606 24.6465 37.0494 24.9589C37.5848 24.5643 38.5266 24.397 40.0066 24.3422L37.9998 21.8426C37.2555 21.9139 36.4337 22.0235 35.8555 22.1879C34.9565 22.4429 34.3497 22.8047 34.3497 23.1966ZM36.8832 25.5207C36.4424 26.0251 35.2915 26.2196 34.3497 26.2361H34.0777C32.715 26.2361 31.587 25.529 30.2816 24.7123C28.6125 23.668 26.7259 22.4867 23.7771 22.4182H23.2332C20.2816 22.4867 18.3979 23.668 16.7288 24.7123C15.4234 25.529 14.2953 26.2361 12.9327 26.2361H12.6608C11.7188 26.2196 10.5679 26.0251 10.1271 25.5207L9.65462 27.8449C9.69474 27.9984 10.024 28.8398 12.5376 28.8398C15.0283 28.8398 16.4453 27.9189 17.9455 26.946C19.3655 26.0223 20.8342 25.0713 23.2332 25.0027H23.7771C26.1763 25.0713 27.6448 26.0223 29.0649 26.946C30.5649 27.9189 31.9821 28.8398 34.4728 28.8398C36.9863 28.8398 37.3184 27.9956 37.3557 27.8449L36.8832 25.5207ZM11.5642 24.3695C10.3733 24.6848 10.2616 24.8876 10.233 25.0027C10.2101 25.1206 10.2388 25.2302 10.3247 25.3344C10.6281 25.7043 11.5442 25.9538 12.6635 25.973V23.8407C12.4402 24.0599 12.0795 24.2354 11.5642 24.3695ZM11.1577 22.1852C10.5794 22.0207 9.75768 21.9111 9.01343 21.8398L7.00659 24.3394C8.48657 24.3943 9.42568 24.5643 9.9638 24.9562C10.0498 24.6465 10.3475 24.4216 11.4927 24.1175C12.091 23.9584 12.6635 23.7173 12.6635 23.1938C12.6607 22.8047 12.0538 22.4429 11.1577 22.1852Z" fill="white"/>
<path d="M36.9464 28.1579C36.9464 28.1579 37.0171 28.4881 37.0052 28.5066C37.0052 28.5066 36.9669 28.522 36.9522 28.5128C36.9405 28.4849 36.9317 28.4789 36.8668 28.4912C36.8668 28.4912 35.8915 28.7196 35.8738 28.7071C35.8738 28.7071 35.8621 28.6671 35.8738 28.6486C35.9415 28.6239 35.9415 28.6085 35.9357 28.5746L35.6676 27.3124C35.6616 27.2785 35.6558 27.2661 35.5615 27.263C35.5615 27.263 35.5526 27.223 35.5645 27.2045L36.5102 26.9852C36.5722 26.9698 36.5781 26.9575 36.5899 26.9143C36.5899 26.9143 36.6252 26.8989 36.6429 26.9112C36.6429 26.9112 36.7166 27.2507 36.7047 27.2692C36.7047 27.2692 36.6664 27.2785 36.6488 27.2692C36.637 27.2476 36.6282 27.2384 36.5662 27.2538C36.5662 27.2538 35.9975 27.3865 35.9946 27.3711C35.9946 27.3741 36.0565 27.6734 36.0565 27.7198C36.0565 27.7229 36.0565 27.7258 36.0536 27.7258C36.0565 27.7258 36.3984 27.6457 36.3984 27.6457C36.4631 27.6303 36.4661 27.6241 36.4778 27.5808C36.4778 27.5808 36.5191 27.5654 36.5339 27.5716C36.5339 27.5716 36.6135 27.911 36.6016 27.9295C36.6016 27.9295 36.5603 27.9451 36.5456 27.9419C36.5368 27.9203 36.5191 27.9049 36.4542 27.9172C36.4542 27.9172 36.1509 27.9882 36.1213 27.9944C36.1302 28.0376 36.192 28.3245 36.1892 28.3678C36.1892 28.3708 36.1862 28.3739 36.1862 28.3739C36.189 28.3739 36.805 28.232 36.805 28.232C36.8698 28.2166 36.8727 28.2103 36.8845 28.1641C36.8845 28.1641 36.9228 28.1456 36.9405 28.1548L36.9464 28.1579ZM30.9561 27.3062C30.9561 27.3062 30.9914 27.3247 30.9974 27.3464C30.9974 27.3464 30.8029 27.658 30.7823 27.6611C30.7823 27.6611 30.7499 27.6426 30.7441 27.6241C30.7558 27.5962 30.7558 27.5777 30.6998 27.5407C30.6998 27.5407 29.8954 26.9884 29.8925 26.9667C29.8925 26.9667 29.913 26.9297 29.9309 26.9236C29.9838 26.9513 29.9986 26.9453 30.0163 26.9143L30.6909 25.8373C30.7116 25.8065 30.7145 25.7911 30.6615 25.7262C30.6615 25.7262 30.6792 25.6892 30.6998 25.6862C30.6998 25.6862 31.0828 25.9484 31.0858 25.97C31.0858 25.97 31.0711 26.0071 31.0504 26.0133C30.9827 25.9763 30.968 25.9825 30.9473 26.0133C30.9473 26.0133 30.3522 26.9638 30.3345 26.9638L30.8412 27.3124C30.8943 27.3464 30.906 27.3464 30.9561 27.3062ZM21.1709 24.6586C21.1709 24.6586 21.1502 24.6956 21.1355 24.6987C21.1179 24.6894 21.1061 24.6833 21.0942 24.6864C21.0147 24.7449 20.9882 24.9363 20.667 25.0351C20.284 25.1585 19.9274 24.9363 19.8007 24.4982C19.6446 23.9644 19.9157 23.6155 20.2546 23.5044C20.5404 23.4212 20.6582 23.5477 20.6936 23.5076C20.72 23.4768 20.7349 23.452 20.7525 23.4551L20.7849 23.4582L20.776 23.5015C20.776 23.5015 20.6965 23.8903 20.6818 23.9026L20.6493 23.8964C20.6493 23.8964 20.6435 23.8502 20.6081 23.81C20.5551 23.7514 20.4343 23.7328 20.337 23.7637C20.2162 23.8007 19.9481 23.9088 20.0925 24.3994C20.1691 24.6339 20.3223 24.8406 20.6139 24.7605C20.6995 24.7327 20.779 24.6679 20.8143 24.5968C20.8143 24.5968 20.8497 24.5198 20.8084 24.4272C20.8084 24.4272 20.8261 24.3963 20.8438 24.3963L21.1709 24.6586ZM12.6055 27.4173C12.4905 27.2908 12.3285 27.2199 12.1457 27.2136C11.9602 27.2105 11.7981 27.2723 11.6773 27.3926C11.5359 27.5315 11.4563 27.7444 11.4505 27.9882C11.4387 28.4635 11.7038 28.7874 12.1104 28.7997C12.2961 28.8028 12.4582 28.7442 12.5789 28.6208C12.7204 28.482 12.7999 28.269 12.8058 28.0221C12.8088 27.7814 12.7381 27.5623 12.6055 27.4173ZM12.4965 28.016C12.4935 28.2043 12.4463 28.3493 12.3609 28.4356C12.2991 28.5005 12.2136 28.5313 12.1134 28.5282C11.8748 28.522 11.748 28.3339 11.754 28.0006C11.7568 27.8092 11.807 27.6672 11.8924 27.5808C11.9542 27.5192 12.0368 27.4883 12.137 27.4914C12.2371 27.4945 12.3197 27.5284 12.3785 27.5933C12.4611 27.6827 12.5023 27.8277 12.4965 28.016ZM34.819 27.2877L34.212 27.2846C34.1973 27.3 34.1943 27.3401 34.1943 27.3401C34.2533 27.3618 34.262 27.3772 34.2592 27.4173L34.2562 28.7071C34.2562 28.7473 34.2503 28.7566 34.2002 28.7658L34.1885 28.8213C34.2032 28.8367 34.7571 28.8398 34.7571 28.8398C34.9988 28.8398 35.1843 28.7751 35.3081 28.6455C35.4348 28.5159 35.4967 28.3214 35.4967 28.0653C35.4996 27.5839 35.2463 27.2908 34.819 27.2877ZM35.1932 28.0684C35.1903 28.4479 35.0753 28.5683 34.71 28.5683H34.5508C34.5656 28.5652 34.5685 27.6488 34.5715 27.5654C34.5951 27.5654 34.7159 27.5685 34.7159 27.5685C35.0782 27.5685 35.1962 27.6919 35.1962 28.0653V28.0684H35.1932ZM25.1369 23.0663C25.1369 23.0663 25.2577 23.1404 25.2754 23.1466C25.293 23.1527 25.3137 23.1404 25.3314 23.125L25.3755 23.162C25.3755 23.162 25.125 23.4984 25.1044 23.5015C25.1044 23.5015 25.069 23.4799 25.0602 23.4645C25.0602 23.4645 25.0662 23.4243 25.069 23.415C25.0839 23.3409 24.9482 23.2392 24.745 23.2144C24.6683 23.2021 24.6094 23.2144 24.5682 23.2484C24.5269 23.2793 24.5181 23.3163 24.5152 23.3534C24.5033 23.4705 24.6477 23.5261 24.8157 23.5878C25.0602 23.6804 25.3638 23.7915 25.3225 24.1587C25.3078 24.276 25.2488 24.3809 25.1576 24.458C25.0632 24.5352 24.8922 24.6216 24.6065 24.5783C24.6065 24.5783 24.3265 24.5259 24.1203 24.3809C24.1203 24.3809 24.1144 24.3746 24.0585 24.4148L24.0202 24.384L24.0289 24.3717C24.0289 24.3717 24.2411 24.0291 24.2617 24.0229L24.3001 24.0445C24.3001 24.0445 24.2971 24.0723 24.2971 24.0815C24.2853 24.1926 24.5358 24.2821 24.6536 24.2976C24.7921 24.3161 24.8894 24.3006 24.9454 24.2544C24.9719 24.2296 24.9983 24.1865 25.0072 24.1279C25.0249 24.0014 24.8658 23.9427 24.689 23.8747C24.4532 23.7853 24.1616 23.6773 24.1999 23.3534C24.2264 23.1404 24.4002 22.909 24.801 22.9614C24.9181 22.9749 25.0319 23.0104 25.1369 23.0663ZM27.5589 23.8316C27.5383 23.8408 27.5236 23.8779 27.5236 23.8779C27.5707 23.9211 27.5677 23.9303 27.5647 23.9365L27.4852 24.0322L26.6307 24.9394C26.6307 24.9394 26.6071 24.9642 26.5806 24.9671C26.5659 24.9702 26.5453 24.9733 26.5276 24.9733L26.5069 25.0227L26.8871 25.2078L26.9078 25.1585C26.9004 25.154 26.8943 25.1476 26.8899 25.14C26.8841 25.1308 26.8841 25.1215 26.8871 25.1092L26.9078 25.0753C26.9078 25.0753 27.0756 24.887 27.0816 24.8745C27.0933 24.8839 27.5236 25.0907 27.5236 25.0938C27.5206 25.1152 27.491 25.359 27.491 25.359C27.491 25.359 27.4852 25.3869 27.4823 25.3961C27.4798 25.4007 27.4764 25.4048 27.4723 25.4079C27.4682 25.4111 27.4636 25.4134 27.4586 25.4146C27.4469 25.4146 27.438 25.4146 27.4322 25.4115L27.4115 25.461L27.7917 25.6461L27.8122 25.5966C27.8004 25.5827 27.7905 25.5672 27.7828 25.5504C27.7681 25.5288 27.7739 25.4918 27.7739 25.4918L27.8801 24.2236L27.8948 24.1063C27.8978 24.0969 27.9066 24.0784 27.9478 24.094C27.9655 24.0846 27.9832 24.0476 27.9832 24.0476C27.9832 24.026 27.5589 23.8316 27.5589 23.8316ZM27.5559 24.8531C27.5559 24.8531 27.2818 24.7204 27.2377 24.6987C27.3668 24.549 27.4964 24.3999 27.6267 24.2513C27.6267 24.2513 27.5589 24.8375 27.5559 24.8531ZM32.0404 26.544C32.0198 26.5502 32.0051 26.5872 32.0051 26.5872C32.0494 26.6335 32.0464 26.6428 32.0434 26.6459L31.961 26.7385C31.961 26.7385 31.077 27.6118 31.077 27.6147C31.077 27.6147 31.0534 27.6395 31.0268 27.6426C31.0092 27.6452 30.9915 27.6462 30.9738 27.6457L30.9503 27.6919L31.3245 27.8894L31.348 27.8432C31.3407 27.8386 31.3346 27.8323 31.3303 27.8246C31.3245 27.8155 31.3245 27.8061 31.3303 27.7938C31.3363 27.7845 31.3539 27.7629 31.3539 27.7629C31.3539 27.7629 31.5278 27.5808 31.5367 27.5685C31.5484 27.5777 31.9697 27.7999 31.9727 27.803C31.9697 27.8246 31.9314 28.0684 31.9314 28.0684C31.9314 28.0684 31.9256 28.0961 31.9197 28.1055C31.9137 28.1147 31.9079 28.1209 31.896 28.1209C31.8843 28.1209 31.8754 28.1209 31.8696 28.1178L31.846 28.1641L32.2202 28.3616L32.2438 28.3154C32.2319 28.2968 32.2232 28.2813 32.2143 28.2659C32.2025 28.2443 32.2055 28.2072 32.2055 28.2072L32.3527 26.9421L32.3734 26.8248C32.3763 26.8156 32.3853 26.7971 32.4264 26.8156C32.4441 26.8094 32.4618 26.7693 32.4618 26.7693C32.456 26.7539 32.0404 26.544 32.0404 26.544ZM32.0021 27.5654C32.0021 27.5654 31.734 27.4235 31.6898 27.3988C31.7135 27.3711 32.0494 27.0131 32.0935 26.9638C32.0905 26.9667 32.0051 27.55 32.0021 27.5654ZM23.92 24.134C23.92 24.134 23.9318 24.4734 23.9171 24.4888C23.9171 24.4888 23.8758 24.4982 23.8611 24.4857C23.8551 24.458 23.8463 24.4487 23.7814 24.4487C23.7814 24.4487 22.7826 24.4828 22.7679 24.4672C22.7679 24.4672 22.765 24.4241 22.7767 24.4087C22.8474 24.3963 22.8504 24.384 22.8504 24.3469L22.8121 23.054C22.8121 23.0201 22.8091 23.0045 22.7149 22.9831C22.7149 22.9831 22.7149 22.9429 22.7296 22.9275L23.699 22.8966C23.7637 22.8935 23.7727 22.8812 23.7903 22.841C23.7903 22.841 23.8287 22.835 23.8434 22.8504C23.8434 22.8504 23.8551 23.199 23.8404 23.2144C23.8404 23.2144 23.8021 23.2175 23.7874 23.2052C23.7814 23.1805 23.7727 23.1712 23.7079 23.1743C23.7079 23.1743 23.1273 23.1928 23.1243 23.1774C23.1243 23.1805 23.1332 23.4859 23.1243 23.5323C23.1243 23.5354 23.1215 23.5385 23.1215 23.5385L23.4751 23.5261C23.5399 23.523 23.5458 23.52 23.5635 23.4767C23.5635 23.4767 23.6076 23.4674 23.6193 23.4767C23.6193 23.4767 23.637 23.8254 23.6223 23.8408C23.6223 23.8408 23.5782 23.847 23.5665 23.8408C23.5605 23.8162 23.5486 23.7977 23.4809 23.8007C23.4809 23.8007 23.1686 23.81 23.142 23.81C23.145 23.8533 23.1539 24.1464 23.145 24.1926C23.145 24.1957 23.142 24.1957 23.142 24.1957L23.7756 24.1741C23.8404 24.171 23.8463 24.1649 23.864 24.1248C23.864 24.1248 23.9052 24.1125 23.92 24.1279V24.134ZM13.7192 27.084C13.7192 27.084 13.8518 27.1148 13.8725 27.1148C13.8902 27.1148 13.9078 27.0963 13.9166 27.0749L13.9696 27.0934C13.9696 27.0934 13.8371 27.4851 13.8194 27.4976C13.8194 27.4976 13.7781 27.4883 13.7664 27.476C13.7664 27.476 13.7605 27.4358 13.7605 27.4266C13.7517 27.3555 13.5956 27.3031 13.4011 27.3432C13.3274 27.3587 13.2773 27.3896 13.2478 27.4296C13.2184 27.4697 13.2213 27.5099 13.2301 27.5438C13.2537 27.658 13.4011 27.6611 13.5779 27.6642C13.8312 27.6703 14.1464 27.6765 14.2142 28.0283C14.2342 28.143 14.211 28.2613 14.1494 28.3585C14.0846 28.4604 13.952 28.596 13.675 28.6455C13.675 28.6455 13.4009 28.6857 13.1683 28.6208C13.1683 28.6208 13.1594 28.6177 13.121 28.6701L13.0769 28.6547L13.0799 28.6393C13.0799 28.6393 13.1741 28.2536 13.1918 28.2413L13.2331 28.2505C13.2331 28.2505 13.239 28.2783 13.2418 28.2875C13.2625 28.3955 13.5219 28.3955 13.6367 28.3709C13.7694 28.3431 13.8548 28.2968 13.896 28.2351C13.9138 28.2043 13.9255 28.1548 13.9166 28.0961C13.8961 27.9728 13.734 27.9696 13.5453 27.9636C13.3008 27.9574 13.0003 27.9511 12.9385 27.6364C12.9001 27.4296 12.9915 27.1612 13.3804 27.0809C13.5012 27.0686 13.6161 27.0655 13.7192 27.084ZM16.9014 26.7785C16.9014 26.7785 17.0782 27.0624 17.0753 27.084C17.0753 27.084 17.0458 27.1148 17.0281 27.1119C17.0074 27.0903 16.9957 27.0872 16.9427 27.1242C16.9427 27.1242 16.1058 27.695 16.0853 27.6919C16.0853 27.6919 16.0617 27.658 16.0647 27.6364C16.1207 27.5871 16.1147 27.5748 16.097 27.5438L15.4223 26.4608C15.4046 26.4298 15.3929 26.4206 15.3045 26.4514C15.3045 26.4514 15.2838 26.4175 15.2868 26.3959L16.097 25.8435C16.1501 25.8065 16.1531 25.7911 16.1471 25.7479C16.1471 25.7479 16.1765 25.7202 16.1972 25.7262C16.1972 25.7262 16.3799 26.0164 16.374 26.0379C16.374 26.0379 16.3416 26.0626 16.3239 26.0595C16.3062 26.041 16.2945 26.038 16.2385 26.0751C16.2385 26.0751 15.7524 26.4083 15.7435 26.3959C15.7435 26.399 15.9026 26.6551 15.9173 26.6983V26.7046C15.9203 26.7046 16.2149 26.5039 16.2149 26.5039C16.2709 26.4668 16.2709 26.4608 16.2649 26.4144C16.2649 26.4144 16.2975 26.3836 16.3122 26.3836C16.3122 26.3836 16.5007 26.6705 16.4949 26.6921C16.4949 26.6921 16.4594 26.7231 16.4477 26.7231C16.43 26.7046 16.4093 26.6983 16.3563 26.7354C16.3563 26.7354 16.0941 26.9112 16.0705 26.9297C16.0941 26.9667 16.2472 27.2136 16.2621 27.2538V27.26C16.2649 27.26 16.7925 26.8989 16.7925 26.8989C16.8483 26.8619 16.8483 26.8527 16.8455 26.8063C16.8455 26.8063 16.8749 26.7755 16.8956 26.7785H16.9014ZM18.1124 24.5537C18.1065 24.5753 18.1242 24.6093 18.1242 24.6093C18.1861 24.5968 18.1919 24.6062 18.1919 24.6093L18.2185 24.7327L18.3894 25.9948C18.3894 25.9948 18.3953 26.0318 18.3836 26.0534C18.3747 26.0688 18.3659 26.0842 18.354 26.1028L18.3776 26.1491L18.7489 25.9423L18.7253 25.896C18.7195 25.8991 18.7106 25.8991 18.7018 25.8991C18.6899 25.8991 18.6811 25.8929 18.6782 25.8837C18.6722 25.8744 18.6664 25.8467 18.6664 25.8467C18.6664 25.8467 18.6251 25.5937 18.6192 25.5781C18.6311 25.5752 19.0524 25.3436 19.0524 25.3405C19.0671 25.359 19.235 25.5288 19.235 25.5288C19.235 25.5288 19.2528 25.5504 19.2586 25.5596C19.2615 25.5642 19.263 25.5696 19.263 25.5751C19.263 25.5806 19.2615 25.586 19.2586 25.5906C19.2543 25.5982 19.2482 25.6046 19.2409 25.6091L19.2645 25.6553L19.6358 25.4485L19.6122 25.4023C19.5915 25.4023 19.5738 25.4023 19.5591 25.3992C19.5357 25.3961 19.5091 25.3715 19.5091 25.3715L18.6104 24.5136L18.5308 24.4302C18.525 24.421 18.5161 24.4025 18.5544 24.3778C18.5604 24.3561 18.5397 24.3191 18.5397 24.3191C18.5161 24.3222 18.1124 24.5537 18.1124 24.5537ZM18.8873 25.1801C18.8873 25.1801 18.6222 25.3251 18.578 25.353C18.5721 25.3159 18.4837 24.8221 18.472 24.7574C18.472 24.7574 18.8756 25.1678 18.8873 25.1801ZM26.5953 24.8437C26.5953 24.8437 26.56 24.8623 26.5453 24.856C26.5364 24.8375 26.5306 24.8252 26.5159 24.8221C26.4186 24.8252 26.2948 24.9671 25.9766 24.8654C25.5936 24.7481 25.4109 24.3561 25.5346 23.9149C25.6849 23.378 26.0974 23.2452 26.4362 23.3503C26.7191 23.4459 26.7515 23.6186 26.8015 23.6064C26.8399 23.597 26.8665 23.5847 26.8782 23.597L26.9048 23.6186L26.8752 23.6496C26.8752 23.6496 26.6043 23.9303 26.5866 23.9303L26.563 23.9088C26.563 23.9088 26.5836 23.8687 26.5747 23.8131C26.56 23.7328 26.4686 23.6496 26.3715 23.6186C26.2507 23.5816 25.9708 23.5138 25.8322 24.0106C25.7733 24.2513 25.7939 24.5105 26.0767 24.6153C26.1623 24.6401 26.2624 24.6339 26.3302 24.5939C26.3302 24.5939 26.4009 24.5506 26.4156 24.4487C26.4156 24.4487 26.448 24.4333 26.4599 24.4426L26.5953 24.8437ZM10.9525 27.0223L10.2924 26.8897C10.2747 26.902 10.2777 26.9421 10.2777 26.9421C10.3397 26.9792 10.3425 26.9946 10.3337 27.0316L10.098 28.2998C10.0922 28.3368 10.0803 28.3524 10.0272 28.3493C10.0096 28.3616 10.0066 28.4109 10.0066 28.4109C10.0096 28.414 10.4487 28.5005 10.4487 28.5005L10.4575 28.4479C10.4074 28.4202 10.3985 28.4048 10.3985 28.3801C10.3985 28.3739 10.3985 28.3678 10.4015 28.3616C10.4015 28.3616 10.4958 27.8617 10.4958 27.8554C10.4958 27.871 10.7845 27.9295 10.7845 27.9295C11.1557 28.0067 11.3325 27.7969 11.3738 27.5777C11.4181 27.3587 11.3267 27.0963 10.9525 27.0223ZM10.7874 27.6488C10.7874 27.6488 10.5488 27.5993 10.5459 27.5993C10.5606 27.5531 10.6048 27.2754 10.6136 27.2322C10.6402 27.2384 10.8552 27.2815 10.8552 27.2815C11.0349 27.3216 11.0999 27.3834 11.0762 27.5192C11.0496 27.6549 10.9731 27.6858 10.7874 27.6488ZM18.2479 26.1367C18.1949 26.146 18.1742 26.1367 18.0888 26.0842L17.6675 25.8344C17.8355 25.643 17.8119 25.43 17.7146 25.2758C17.5968 25.0875 17.361 24.9671 17.04 25.1832L16.4771 25.5658C16.4742 25.5874 16.5037 25.6151 16.5037 25.6151C16.5714 25.5966 16.5831 25.606 16.6038 25.6368L17.2756 26.72C17.2962 26.7508 17.2992 26.7724 17.2549 26.8063C17.2521 26.8279 17.2815 26.865 17.2815 26.865C17.2875 26.865 17.6587 26.6089 17.6587 26.6089L17.6262 26.5533C17.5732 26.5687 17.5555 26.5656 17.5378 26.5471C17.535 26.5409 17.529 26.5379 17.5261 26.5317C17.5261 26.5317 17.2728 26.1244 17.2698 26.1182C17.2698 26.1182 17.3493 26.0657 17.417 26.0195C17.4877 26.0688 17.9062 26.3187 17.912 26.3218C17.9239 26.3312 17.8944 26.362 17.8856 26.3682C17.8826 26.3774 17.918 26.4268 17.918 26.4268C17.9267 26.4298 18.2803 26.183 18.2803 26.183C18.2745 26.1737 18.2479 26.1367 18.2479 26.1367ZM16.9367 25.5843C16.9603 25.5689 17.1431 25.4424 17.1431 25.4424C17.2992 25.3405 17.3846 25.3374 17.4583 25.4516C17.529 25.5689 17.4966 25.6492 17.3375 25.7541C17.3375 25.7541 17.1342 25.8929 17.1312 25.896C17.1107 25.8558 16.9574 25.6214 16.9367 25.5843ZM22.5646 24.4611C22.5115 24.4487 22.4968 24.4302 22.4349 24.3469L22.1373 23.9458C22.3613 23.8377 22.4172 23.6311 22.3878 23.452C22.3494 23.2329 22.1756 23.0231 21.8014 23.0942L21.1415 23.2207C21.1296 23.2392 21.1473 23.2762 21.1473 23.2762C21.218 23.2885 21.2239 23.3008 21.2328 23.3378L21.4538 24.6093C21.4597 24.6463 21.4567 24.6648 21.4037 24.6802C21.3918 24.6987 21.4037 24.7449 21.4037 24.7449C21.4095 24.7481 21.8457 24.6617 21.8457 24.6617L21.8338 24.5968C21.7779 24.5876 21.7632 24.5783 21.7543 24.5568C21.7513 24.5506 21.7513 24.5444 21.7484 24.5383C21.7484 24.5383 21.6659 24.0599 21.6629 24.0538C21.6629 24.0538 21.7543 24.0384 21.8367 24.0229C21.884 24.0969 22.1786 24.4982 22.1816 24.5013C22.1903 24.5136 22.152 24.529 22.1403 24.5321C22.1343 24.5383 22.1492 24.5968 22.1492 24.5968C22.155 24.603 22.5735 24.5198 22.5735 24.5198C22.5764 24.5043 22.5646 24.4611 22.5646 24.4611ZM21.5569 23.4212C21.5834 23.415 21.7986 23.3748 21.7986 23.3748C21.9782 23.344 22.0608 23.3748 22.0843 23.5107C22.1079 23.6465 22.0459 23.7081 21.8604 23.7422C21.8604 23.7422 21.6216 23.7884 21.6188 23.7884C21.6188 23.7422 21.5658 23.4645 21.5569 23.4212ZM15.3162 27.9696C15.3309 28.0067 15.3428 28.0129 15.4046 28.0067L15.4282 28.0561L15.4135 28.0622C15.4135 28.0622 15.0717 28.2257 15.0393 28.2382C15.0393 28.2382 15.0157 28.1949 15.0186 28.1826C15.0274 28.1764 15.0452 28.1548 15.0452 28.1394C15.0445 28.1261 15.0404 28.1133 15.0333 28.1024C15.0333 28.1024 14.5973 27.1148 14.5796 27.0593L14.2791 27.2074C14.232 27.2322 14.2201 27.2445 14.2201 27.2877C14.2201 27.2939 14.2201 27.3031 14.2231 27.3124C14.2231 27.3124 14.1907 27.3401 14.17 27.331C14.17 27.331 14.0197 26.9946 14.0256 26.973C14.0256 26.973 14.0552 26.9513 14.0727 26.9544C14.0906 26.9792 14.1023 26.9852 14.1613 26.9544L15.0157 26.5471C15.0717 26.5193 15.0834 26.5163 15.0834 26.4668C15.0834 26.4668 15.107 26.4483 15.1277 26.4422C15.1277 26.4422 15.2898 26.7878 15.2838 26.8063C15.2838 26.8063 15.2514 26.8311 15.2337 26.8248C15.2101 26.7878 15.1954 26.7631 15.1394 26.7909C15.1394 26.7909 14.8713 26.9236 14.8595 26.9236C14.8684 26.9328 15.3162 27.9696 15.3162 27.9696ZM33.0128 28.6424C32.6445 28.5344 32.509 28.2875 32.6032 27.9141L32.8183 27.0934C32.8272 27.0563 32.8095 27.0254 32.7623 27.0038C32.7623 26.9823 32.7742 26.9453 32.7742 26.9453C32.7742 26.9453 33.0747 27.0285 33.2073 27.0717C33.2073 27.0717 33.1985 27.1149 33.1838 27.1273C33.1365 27.1211 33.1248 27.1396 33.1159 27.1766L32.9008 28.0036C32.8773 28.0961 32.8831 28.1795 32.9185 28.2443C32.951 28.306 33.007 28.3493 33.0865 28.3739C33.166 28.3955 33.2367 28.3863 33.2956 28.3553C33.3576 28.3183 33.4047 28.2505 33.4311 28.1579L33.6581 27.3341C33.6669 27.297 33.6669 27.2754 33.6256 27.2538C33.6168 27.2353 33.6315 27.192 33.6315 27.192C33.7642 27.229 34.0647 27.3185 34.0647 27.3185C34.0647 27.3185 34.0588 27.3587 34.0471 27.3741C33.9969 27.368 33.9645 27.3865 33.9557 27.4204L33.7288 28.2382C33.6198 28.6146 33.3781 28.7504 33.0128 28.6424ZM28.5194 26.1182C28.5136 26.1121 28.5047 26.109 28.4987 26.1028C28.4987 26.1028 28.6785 25.0967 28.7257 24.9271C28.7287 24.9178 28.7285 24.9086 28.7315 24.8993C28.6697 25.0042 28.2041 25.7726 28.2041 25.7726C28.1983 25.7794 28.1951 25.7882 28.1954 25.7973C28.1954 25.8096 28.2041 25.8281 28.2307 25.8589L28.2041 25.9053C28.2041 25.9053 27.8829 25.6923 27.8623 25.6769C27.8623 25.6769 27.8829 25.6368 27.8948 25.6337C27.9213 25.6492 27.9507 25.6337 27.9655 25.6122L28.6431 24.492C28.655 24.4703 28.6578 24.4549 28.6254 24.4117C28.6254 24.4117 28.6373 24.3717 28.6608 24.3655C28.6608 24.3655 29.094 24.6494 29.094 24.6555C29.094 24.6555 29.0734 24.6894 29.0586 24.6956C29.0291 24.6894 29.0144 24.711 29.0086 24.7172C28.9937 24.742 28.8406 25.5906 28.8376 25.5966C28.8435 25.5937 29.5094 25.0844 29.5271 25.0628C29.533 25.0567 29.5418 25.032 29.5241 25.0073C29.5241 24.9887 29.5447 24.9548 29.5447 24.9548C29.5507 24.9517 29.978 25.2419 29.978 25.2419C29.9838 25.2634 29.9543 25.2943 29.9543 25.2943C29.9043 25.2819 29.8896 25.2912 29.8777 25.3128L29.2001 26.4329C29.1854 26.4576 29.1883 26.4916 29.2118 26.5101C29.2148 26.5224 29.1882 26.5594 29.1882 26.5594C29.1647 26.5471 28.8435 26.3312 28.8435 26.3312L28.8729 26.2848C28.9113 26.2971 28.9319 26.2972 28.9408 26.291C28.9496 26.2879 28.9526 26.2817 28.9584 26.2725C28.9584 26.2725 29.424 25.5041 29.4887 25.3992C29.4829 25.4054 29.474 25.4115 29.4653 25.4177C29.3415 25.535 28.546 26.1336 28.546 26.1336C28.5341 26.1275 28.5253 26.1213 28.5194 26.1182Z" fill="#000F46"/>
<path d="M3.35763 37.3944H44.8604V37.6392H3.35763V37.3944ZM8.54511 31.9077H8.43089L8.03712 31.8959C8.01438 31.8959 7.94302 31.8959 7.94302 31.9608C7.94302 31.9932 7.96864 32.0168 8.00288 32.0168L8.13135 32.0286C8.23681 32.0522 8.26831 32.0964 8.2768 32.2322L8.28543 33.1053V33.1909L6.62763 33.182L6.63324 33.1024L6.64187 32.2292C6.65036 32.0906 6.67885 32.0405 6.76459 32.0256L6.85581 32.0139C6.89005 32.0139 6.91868 31.9902 6.91868 31.9578C6.91868 31.9166 6.88717 31.8929 6.82444 31.8929L6.50491 31.9017H6.38794L5.99691 31.89C5.93418 31.89 5.90282 31.9106 5.90282 31.9548C5.90282 31.9874 5.92857 32.0109 5.96281 32.0109L6.08827 32.0228C6.19674 32.0463 6.22811 32.0906 6.23386 32.2263L6.24235 33.1024V33.8162C6.24235 34.1968 6.24235 34.5242 6.22235 34.6924C6.20523 34.8133 6.18811 34.8782 6.13114 34.8901L6.01978 34.9048C5.97705 34.9048 5.95706 34.9313 5.95706 34.9609C5.95706 35.0227 6.02554 35.0227 6.05115 35.0227L6.37082 35.0139H6.48204L6.91868 35.0257C7.0014 35.0257 7.00989 34.9814 7.00989 34.9637C7.00989 34.9372 6.99003 34.9078 6.95004 34.9078L6.77596 34.8929C6.6846 34.8782 6.66187 34.8163 6.64749 34.6954C6.62763 34.5271 6.62763 34.1998 6.62763 33.8192V33.3944L8.28831 33.4003L8.27968 33.8192C8.27968 34.1998 8.27968 34.5271 8.25968 34.6954C8.24544 34.8133 8.22544 34.8811 8.16847 34.8929L8.05711 34.9078C8.01438 34.9078 7.99439 34.9372 7.99439 34.9637C7.99439 35.0257 8.06287 35.0257 8.08848 35.0257L8.41103 35.0168H8.51936L8.95888 35.0287C9.04435 35.0287 9.05297 34.9844 9.05297 34.9667C9.05297 34.9402 9.03298 34.9106 8.99025 34.9106L8.81617 34.8959C8.72193 34.8811 8.6992 34.8193 8.68769 34.6982C8.66783 34.5301 8.66783 34.2026 8.66783 33.8222V33.1082L8.67633 32.2352C8.68495 32.0964 8.71331 32.0463 8.79617 32.0316L8.88752 32.0198C8.9245 32.0198 8.95025 31.9962 8.95025 31.9637C8.95025 31.8989 8.88177 31.8989 8.85602 31.8989L8.54511 31.9077ZM11.0618 31.887C11.0082 31.8982 10.9538 31.9051 10.8991 31.9077L10.0003 31.9106L9.94611 31.9077L9.55522 31.8989C9.53235 31.8989 9.46099 31.8989 9.46099 31.9608C9.46099 31.9932 9.48674 32.0139 9.52098 32.0168L9.64644 32.0286C9.74916 32.0375 9.7834 32.0964 9.79203 32.2322L9.80052 33.1053V33.8192C9.80052 34.1998 9.80052 34.5271 9.78066 34.6954C9.7634 34.8163 9.74642 34.8811 9.68931 34.8929C9.67219 34.8959 9.57796 34.9078 9.57796 34.9078C9.53235 34.9106 9.5181 34.9342 9.5181 34.9637C9.5181 35.0257 9.58658 35.0257 9.60932 35.0257L9.92899 35.0168L10.1429 35.0198L10.9647 35.0375C11.1188 35.0375 11.173 35.0375 11.2044 34.9106C11.2244 34.8251 11.2558 34.5448 11.2558 34.5095C11.2558 34.48 11.2558 34.418 11.2017 34.418C11.153 34.418 11.1445 34.4741 11.1388 34.5035C11.1132 34.66 11.0703 34.7336 10.9791 34.772C10.882 34.8133 10.7137 34.8133 10.6138 34.8133C10.2343 34.8133 10.1972 34.7632 10.1887 34.5095V33.4593C10.1887 33.4622 10.745 33.4829 10.745 33.4829C10.8791 33.4976 10.9162 33.5537 10.922 33.6008C10.9305 33.6481 10.9362 33.7277 10.9362 33.7277C10.942 33.772 10.9591 33.7955 10.9933 33.7955C11.0503 33.7955 11.0503 33.7219 11.0503 33.6893L11.0647 33.4328L11.0961 33.2027C11.0961 33.1436 11.0561 33.1378 11.0476 33.1407C11.0276 33.1407 10.9962 33.182 10.9676 33.1997C10.9049 33.2381 10.9049 33.2411 10.7993 33.2498L10.1772 33.2588L10.1829 32.129C10.2285 32.1201 10.648 32.123 10.7108 32.1318C10.9249 32.1555 10.9476 32.2056 10.9647 32.2529L10.9847 32.3855C10.9847 32.4593 11.0276 32.4681 11.0476 32.4681C11.0674 32.4681 11.0932 32.4563 11.1045 32.3973L11.1188 32.1909L11.1217 32.126L11.1445 31.9874L11.153 31.9343C11.153 31.8723 11.1188 31.8663 11.1074 31.8663C11.0961 31.8663 11.0961 31.8812 11.0618 31.887ZM16.3805 32.0759L16.3776 34.4033C16.3776 34.7662 16.3491 34.8782 16.2807 34.8901C16.2122 34.9018 16.1295 34.9136 16.1295 34.9136C16.0837 34.9165 16.0666 34.9402 16.0666 34.9696C16.0666 35.0316 16.1323 35.0316 16.1608 35.0316L16.4747 35.0227H16.5973L16.9569 35.0316C16.9855 35.0316 17.0568 35.0316 17.0568 34.9696C17.0568 34.9432 17.0453 34.9195 16.994 34.9136C16.994 34.9136 16.8799 34.9018 16.8056 34.8901C16.7315 34.8782 16.6829 34.7897 16.6744 34.4476C16.6744 34.4476 16.6316 32.7395 16.626 32.5862C16.7229 32.6982 17.5961 33.6893 17.5961 33.6893C18.0212 34.1644 18.5806 34.7513 18.6233 34.7926C18.8487 35.0227 18.8858 35.0611 18.9315 35.0611C18.9914 35.0611 18.9971 35.0139 18.9971 34.7425L19.0028 32.3649C19.0028 32.1113 19.0228 32.0552 19.1255 32.0316L19.214 32.0198C19.2654 32.0139 19.2881 31.9874 19.2881 31.9608C19.2881 31.9017 19.2196 31.9017 19.1883 31.9017L18.9257 31.9106H18.7716L18.4463 31.9017C18.4093 31.9017 18.338 31.9017 18.338 31.9608C18.338 31.9991 18.3522 32.0168 18.4007 32.0198L18.5862 32.0405C18.6804 32.0552 18.7118 32.1201 18.7146 32.3973C18.7146 32.3973 18.7489 33.9991 18.7574 34.3796C18.6804 34.2941 18.4634 34.0522 18.4634 34.0522L17.8671 33.3797L16.5831 31.949C16.5288 31.884 16.4919 31.8486 16.4576 31.8486C16.3863 31.8428 16.3805 31.9343 16.3805 32.0759ZM20.2384 31.9077H20.1156L19.779 31.8989C19.7561 31.8989 19.6876 31.8989 19.6876 31.9637C19.6876 31.9962 19.7076 32.0168 19.7475 32.0198L19.8617 32.0345C19.9216 32.0433 19.9644 32.0906 19.9729 32.2352L19.9816 33.1082V33.8222C19.9816 34.2026 19.9816 34.5301 19.9616 34.6982C19.9444 34.8221 19.9273 34.8841 19.8702 34.8959L19.759 34.9106C19.7076 34.9165 19.6961 34.9402 19.6961 34.9667C19.6961 35.0287 19.7675 35.0287 19.7903 35.0287L20.1128 35.0198H20.2212L20.6606 35.0316C20.7462 35.0316 20.752 34.9873 20.752 34.9696C20.752 34.9432 20.7348 34.9165 20.692 34.9136L20.5208 34.8988C20.4267 34.8841 20.4038 34.8221 20.3924 34.7012C20.3724 34.5331 20.3724 34.2056 20.3724 33.8251V33.1112L20.3809 32.238C20.3896 32.0994 20.4181 32.0493 20.5008 32.0345L20.595 32.0228C20.635 32.0198 20.6577 31.9991 20.6577 31.9667C20.6577 31.9017 20.5864 31.9017 20.5636 31.9017L20.2384 31.9077ZM23.8564 31.9077H23.708L23.4141 31.8989C23.3743 31.8989 23.2972 31.8989 23.2972 31.9608C23.2972 31.9814 23.3058 32.0109 23.3714 32.0168L23.5112 32.0316C23.5426 32.0375 23.5482 32.0699 23.5426 32.0964L23.5084 32.241C23.4284 32.5094 22.9434 33.8251 22.6979 34.421C22.6495 34.2853 21.9704 32.415 21.9704 32.415C21.9133 32.2646 21.8648 32.1348 21.8648 32.0906C21.8648 32.0699 21.8704 32.0433 21.899 32.0375L22.036 32.0198C22.1045 32.0139 22.1045 31.9785 22.1045 31.9608C22.1045 31.9017 22.0189 31.9017 21.9675 31.9017L21.6821 31.9106H21.5053L21.1429 31.9017C21.0886 31.9017 21.0117 31.9017 21.0117 31.9608C21.0117 31.9962 21.0288 32.0168 21.0744 32.0198L21.2142 32.0345C21.3312 32.0552 21.391 32.1053 21.4766 32.3295L22.4469 34.8428C22.521 35.0316 22.541 35.0906 22.6066 35.0906C22.6552 35.0906 22.6723 35.0493 22.7293 34.9165L22.7978 34.7632L23.2829 33.5861L23.514 33.005L23.7452 32.4299C23.8479 32.1614 23.905 32.0936 23.9506 32.061C24.0162 32.0168 24.0961 32.0168 24.1218 32.0168C24.1874 32.0168 24.1988 31.9785 24.1988 31.9578C24.1988 31.9194 24.1674 31.8989 24.1018 31.8989L23.8564 31.9077ZM29.8429 32.6039C29.8429 32.8811 29.9314 33.1407 30.365 33.5095L30.542 33.6599C30.8901 33.9548 30.9842 34.1053 30.9842 34.3679C30.9842 34.6186 30.8017 34.8752 30.4535 34.8752C30.3108 34.8752 29.9712 34.837 29.8999 34.4858L29.8885 34.3414C29.8885 34.3177 29.8885 34.2646 29.8314 34.2646C29.78 34.2646 29.7744 34.3237 29.7687 34.3561L29.7658 34.3973L29.7487 34.7926C29.7487 34.9018 29.7516 34.9372 29.8258 34.9756C29.977 35.0522 30.154 35.0876 30.365 35.0876C30.6047 35.0876 30.8159 35.0257 30.9757 34.9106C31.2325 34.7218 31.3238 34.4269 31.3238 34.2115C31.3238 33.893 31.2268 33.6304 30.7388 33.2321L30.6305 33.1436C30.2538 32.8251 30.1624 32.6954 30.1624 32.4858C30.1624 32.2233 30.345 32.0463 30.6162 32.0463C30.9415 32.0463 31.0498 32.1849 31.0812 32.2469C31.1012 32.2883 31.1269 32.3915 31.1298 32.4386C31.1326 32.4681 31.1383 32.5212 31.1897 32.5212C31.2468 32.5212 31.2468 32.4386 31.2468 32.3973L31.261 31.9991V31.9697C31.261 31.9166 31.2125 31.9106 31.1925 31.9106C31.1726 31.9106 31.0613 31.89 31.0613 31.89C30.95 31.8605 30.8301 31.8486 30.6903 31.8486C30.1824 31.8428 29.8429 32.1495 29.8429 32.6039ZM38.2662 31.9077H38.1006L37.9038 31.8989C37.8239 31.8989 37.8095 31.9343 37.8095 31.9548C37.8095 31.9962 37.8495 32.0109 37.8866 32.0228C37.9066 32.0316 37.9322 32.0345 37.9322 32.1083C37.9322 32.1672 37.9122 32.2322 37.8695 32.3C37.8039 32.415 37.3615 33.1997 37.2418 33.4445C37.1105 33.2204 36.6055 32.3207 36.5484 32.2115C36.5199 32.1555 36.5028 32.1113 36.5028 32.067C36.5028 32.0493 36.5141 32.0345 36.537 32.0198L36.557 32.0109C36.5826 31.9991 36.6111 31.9902 36.6111 31.9548C36.6111 31.9166 36.5826 31.8959 36.5312 31.8959L36.2544 31.9047H36.109L35.8122 31.8959C35.7352 31.8959 35.7295 31.946 35.7295 31.9548C35.7295 31.9902 35.7579 32.0139 35.7979 32.0139C35.8264 32.0139 35.8949 32.0345 35.9491 32.0729C36.0263 32.126 36.1232 32.2352 36.206 32.3649C36.3487 32.5802 36.8708 33.4711 36.8965 33.53C36.9479 33.6481 36.9849 33.7337 36.9849 33.9431V34.2911L36.9735 34.6954C36.9679 34.7749 36.9479 34.8752 36.8765 34.8901L36.7652 34.9048C36.7138 34.9106 36.7024 34.9313 36.7024 34.9609C36.7024 35.0227 36.7709 35.0227 36.7938 35.0227L37.1162 35.0139H37.2246L37.6612 35.0227C37.7439 35.0227 37.7525 34.9785 37.7525 34.9609C37.7525 34.9342 37.7325 34.9048 37.6926 34.9048L37.5185 34.8901C37.4329 34.8782 37.393 34.8193 37.3844 34.6954L37.373 34.2911V33.9431C37.373 33.8132 37.373 33.6893 37.43 33.5477C37.4957 33.3827 38.0436 32.4299 38.1748 32.2646C38.2633 32.1525 38.3033 32.1083 38.3774 32.064C38.4316 32.0286 38.5001 32.0109 38.5428 32.0109C38.6028 32.0109 38.6228 31.9755 38.6228 31.946C38.6228 31.9194 38.6028 31.89 38.5428 31.89L38.2662 31.9077ZM39.7128 33.4593C39.7128 32.834 40.1408 31.8398 41.2907 31.8398C42.2323 31.8398 42.8629 32.4653 42.8629 33.3944C42.8629 34.3738 42.1923 35.0876 41.2678 35.0876C40.1979 35.0876 39.7128 34.244 39.7128 33.4593ZM40.1465 33.3472C40.1465 34.244 40.6515 34.8724 41.3734 34.8724C41.5504 34.8724 42.4293 34.8074 42.4293 33.5095C42.4293 32.5007 41.8243 32.0405 41.2651 32.0405C40.5745 32.0433 40.1465 32.5419 40.1465 33.3472ZM44.769 31.9047C44.7548 31.9047 44.7234 31.9077 44.7234 31.9077L43.7589 31.9106L43.7076 31.9077L43.3167 31.8989C43.2938 31.8989 43.2224 31.8989 43.2224 31.9637C43.2224 31.9962 43.2424 32.0168 43.2853 32.0198L43.4108 32.0316C43.5164 32.0463 43.5506 32.0994 43.5564 32.2352L43.5649 33.1112V33.8251C43.5649 34.2056 43.5649 34.5331 43.5449 34.7012C43.5277 34.8221 43.5106 34.8871 43.4536 34.8988L43.3423 34.9136C43.2909 34.9195 43.2824 34.9402 43.2824 34.9696C43.2824 35.0316 43.3538 35.0316 43.3737 35.0316L43.6933 35.0227H43.8045L44.2412 35.0345C44.3239 35.0345 44.3353 34.9903 44.3353 34.9726C44.3353 34.946 44.321 34.9195 44.2725 34.9165L44.1013 34.9018C44.0071 34.8901 43.9844 34.8251 43.9729 34.7071C43.953 34.5389 43.953 34.2086 43.953 33.8309V33.4859C44.0985 33.4799 44.4522 33.4829 44.5407 33.4918C44.6463 33.5065 44.7062 33.5714 44.7206 33.6185C44.7348 33.6658 44.7405 33.7219 44.7405 33.7573C44.7405 33.7955 44.7633 33.8192 44.7975 33.8192C44.8546 33.8192 44.8546 33.7484 44.8546 33.71L44.8718 33.4416L44.9031 33.2115C44.9089 33.1555 44.866 33.1496 44.8546 33.1496C44.8261 33.1496 44.809 33.1732 44.7947 33.1938C44.7604 33.2411 44.7262 33.2558 44.6292 33.2617L44.4551 33.2646L43.953 33.2675L43.9557 32.1407C43.9615 32.126 44.5636 32.1378 44.5636 32.1378C44.7034 32.1407 44.7918 32.1998 44.8062 32.2499C44.8175 32.2883 44.8375 32.3915 44.8375 32.3915C44.8518 32.4711 44.886 32.4711 44.8946 32.4711C44.9145 32.4711 44.946 32.4653 44.9545 32.4032C44.9545 32.4032 44.9659 32.1821 44.9745 32.1318C44.9774 32.1053 44.9974 31.9932 44.9974 31.9932L45.0058 31.9401C45.0116 31.8959 44.983 31.8693 44.9516 31.8723C44.9174 31.8693 44.8346 31.8989 44.769 31.9047ZM15.5816 31.9077H15.4589L15.0965 31.8989C15.0736 31.8989 15.0051 31.8989 15.0051 31.9608C15.0051 31.9932 15.0309 32.0168 15.0651 32.0168L15.1907 32.0286C15.3077 32.0433 15.3304 32.1053 15.3362 32.2322L15.3448 33.1082V33.6157C15.3448 34.1024 15.2791 34.3915 15.125 34.592C14.9853 34.7662 14.7569 34.8724 14.5315 34.8724C14.3089 34.8724 14.1435 34.837 13.958 34.657C13.8182 34.5184 13.6726 34.2941 13.6726 33.6776V33.1082L13.6812 32.2322C13.6897 32.0906 13.7184 32.0405 13.8011 32.0286L13.8952 32.0168C13.9352 32.0139 13.958 31.9932 13.958 31.9608C13.958 31.8989 13.8896 31.8989 13.8638 31.8989L13.5728 31.9077H13.3931L13.022 31.8989C12.9993 31.8989 12.9279 31.8989 12.9279 31.9608C12.9279 31.9932 12.9536 32.0168 12.9907 32.0168L13.1163 32.0286C13.219 32.0405 13.2532 32.0964 13.2617 32.2322L13.2703 33.1082V33.7012C13.2703 34.3591 13.4587 34.6304 13.6212 34.7926C13.8867 35.0522 14.2547 35.0906 14.4517 35.0906C14.6627 35.0906 14.9795 35.0581 15.2819 34.7809C15.6101 34.477 15.653 33.9608 15.653 33.5449V33.1082L15.6615 32.2322C15.6701 32.0936 15.6986 32.0463 15.7813 32.0286L15.8727 32.0168C15.9125 32.0139 15.9354 31.9932 15.9354 31.9608C15.9354 31.8989 15.8669 31.8989 15.844 31.8989L15.5816 31.9077ZM3.09795 31.9313C3.09219 31.946 3.00659 32.3237 3.00659 32.3738C3.00659 32.4239 3.03234 32.4416 3.05795 32.4416C3.09795 32.4416 3.11507 32.4062 3.1237 32.3796L3.18642 32.2587C3.24053 32.1732 3.32613 32.1467 3.56307 32.1437C3.56307 32.1437 3.9967 32.1378 4.11367 32.1348V33.8222C4.11367 34.2026 4.11367 34.5301 4.09381 34.6982C4.07669 34.8193 4.05957 34.8841 4.00245 34.8959C3.9111 34.9106 3.8911 34.9106 3.8911 34.9106C3.84837 34.9106 3.83125 34.9372 3.83125 34.9667C3.83125 35.0287 3.89973 35.0287 3.9226 35.0287L4.24501 35.0198H4.35335L4.78999 35.0316C4.87272 35.0316 4.88135 34.9873 4.88135 34.9696C4.88135 34.9432 4.86135 34.9136 4.82136 34.9136L4.65015 34.8988C4.55606 34.8841 4.53319 34.8221 4.52182 34.7041C4.50182 34.5361 4.50182 34.2056 4.50182 33.8251V32.1378C4.55606 32.1378 4.96695 32.1467 4.96695 32.1467C5.3436 32.1555 5.4092 32.2499 5.42057 32.3442L5.42345 32.3885C5.42619 32.4269 5.43208 32.4858 5.48618 32.4858C5.4948 32.4858 5.54329 32.483 5.54329 32.4032L5.54603 32.2734L5.55466 31.9578C5.55466 31.9343 5.55466 31.8752 5.50617 31.8752L5.45769 31.884C5.40345 31.8959 5.29785 31.9166 5.11528 31.9166H3.64292C3.64292 31.9166 3.36626 31.9017 3.3375 31.8959C3.29551 31.8858 3.25369 31.875 3.21204 31.8635L3.16355 31.8486H3.16081C3.12657 31.8458 3.11233 31.89 3.09795 31.9313ZM26.0678 31.887C25.9879 31.9047 25.9052 31.9077 25.9052 31.9077L25.0063 31.9106L24.9521 31.9077L24.5612 31.8989C24.5385 31.8989 24.4671 31.8989 24.4671 31.9608C24.4671 31.9932 24.4927 32.0139 24.527 32.0168L24.6525 32.0286C24.7553 32.0375 24.7895 32.0964 24.798 32.2322L24.8066 33.1053V33.8192C24.8066 34.1998 24.8066 34.5271 24.7866 34.6954C24.7695 34.8163 24.7524 34.8811 24.6953 34.8929C24.6782 34.8959 24.5841 34.9078 24.5841 34.9078C24.5385 34.9106 24.5241 34.9342 24.5241 34.9637C24.5241 35.0257 24.5926 35.0257 24.6154 35.0257L24.935 35.0168L25.149 35.0198L25.9708 35.0375C26.1249 35.0375 26.1791 35.0375 26.2105 34.9106C26.2305 34.8251 26.2619 34.5448 26.2619 34.5095C26.2619 34.48 26.2619 34.418 26.2076 34.418C26.1591 34.418 26.1505 34.4741 26.1449 34.5035C26.1192 34.66 26.0764 34.7336 25.9851 34.772C25.8881 34.8133 25.7198 34.8133 25.6198 34.8133C25.2404 34.8133 25.2033 34.7632 25.1947 34.5095V33.4593C25.1947 33.4622 25.7511 33.4829 25.7511 33.4829C25.8852 33.4976 25.9223 33.5537 25.9279 33.6008C25.9366 33.6481 25.9423 33.7277 25.9423 33.7277C25.9479 33.772 25.9651 33.7955 25.9993 33.7955C26.0564 33.7955 26.0564 33.7219 26.0564 33.6893L26.0707 33.4328L26.102 33.2027C26.102 33.1436 26.0622 33.1378 26.0535 33.1407C26.0336 33.1407 26.0022 33.182 25.9737 33.1997C25.9108 33.2381 25.9108 33.2411 25.8054 33.2498L25.1833 33.2588L25.189 32.129C25.2346 32.1201 25.654 32.123 25.7169 32.1318C25.9308 32.1555 25.9537 32.2056 25.9708 32.2529L25.9908 32.3855C25.9908 32.4593 26.0336 32.4681 26.0535 32.4681C26.0735 32.4681 26.0992 32.4563 26.1107 32.3973L26.1249 32.1909L26.1278 32.126L26.1505 31.9874L26.1591 31.9343C26.1591 31.8723 26.1249 31.8663 26.1135 31.8663C26.102 31.8663 26.102 31.8812 26.0678 31.887ZM32.2055 31.9077H32.0828L31.7462 31.8989C31.7233 31.8989 31.6548 31.8989 31.6548 31.9637C31.6548 31.9962 31.6748 32.0168 31.7147 32.0198L31.8289 32.0345C31.8887 32.0433 31.9316 32.0906 31.9401 32.2352L31.9487 33.1082V33.8222C31.9487 34.2026 31.9487 34.5301 31.9287 34.6982C31.9116 34.8221 31.8945 34.8841 31.8374 34.8959L31.7262 34.9106C31.6748 34.9165 31.6633 34.9402 31.6633 34.9667C31.6633 35.0287 31.7346 35.0287 31.7575 35.0287L32.0799 35.0198H32.1884L32.6278 35.0316C32.7134 35.0316 32.7191 34.9873 32.7191 34.9696C32.7191 34.9432 32.702 34.9165 32.6592 34.9136L32.4879 34.8988C32.3939 34.8841 32.371 34.8221 32.3596 34.7012C32.3396 34.5331 32.3396 34.2056 32.3396 33.8251V33.1112L32.3481 32.238C32.3567 32.0994 32.3852 32.0493 32.468 32.0345L32.5622 32.0228C32.602 32.0198 32.6249 31.9991 32.6249 31.9667C32.6249 31.9017 32.5536 31.9017 32.5308 31.9017L32.2055 31.9077ZM32.9787 31.9313C32.9731 31.946 32.8875 32.3237 32.8875 32.3738C32.8875 32.4239 32.9131 32.4416 32.9388 32.4416C32.9788 32.4416 32.9959 32.4062 33.0044 32.3796L33.0672 32.2587C33.1214 32.1732 33.207 32.1467 33.4438 32.1437C33.4438 32.1437 33.8776 32.1378 33.9945 32.1348V33.8222C33.9945 34.2026 33.9945 34.5301 33.9745 34.6982C33.9574 34.8193 33.9403 34.8841 33.8833 34.8959C33.792 34.9106 33.772 34.9106 33.772 34.9106C33.7292 34.9106 33.7121 34.9372 33.7121 34.9667C33.7121 35.0287 33.7806 35.0287 33.8033 35.0287L34.1259 35.0198H34.2342L34.6709 35.0316C34.7536 35.0316 34.7621 34.9873 34.7621 34.9696C34.7621 34.9432 34.7422 34.9136 34.7022 34.9136L34.531 34.8988C34.4368 34.8841 34.4141 34.8221 34.4026 34.7041C34.3826 34.5361 34.3827 34.2056 34.3827 33.8251V32.1378C34.4368 32.1378 34.8477 32.1467 34.8477 32.1467C35.2243 32.1555 35.2901 32.2499 35.3014 32.3442L35.3043 32.3885C35.3071 32.4269 35.3128 32.4858 35.3671 32.4858C35.3757 32.4858 35.4242 32.483 35.4242 32.4032L35.427 32.2734L35.4355 31.9578C35.4355 31.9343 35.4355 31.8752 35.387 31.8752L35.3386 31.884C35.2843 31.8959 35.1787 31.9166 34.9962 31.9166H33.5238C33.5238 31.9166 33.247 31.9017 33.2184 31.8959C33.1899 31.89 33.0929 31.8635 33.0929 31.8635L33.0444 31.8486H33.0416C33.0044 31.8458 32.9902 31.89 32.9787 31.9313ZM29.5061 34.9667C29.5061 35.0287 29.432 35.0287 29.3807 35.0287H29.2322C29.0125 35.0287 28.9069 35.008 28.7986 34.949C28.6387 34.8605 28.5075 34.6835 28.3106 34.415C28.3106 34.415 27.8398 33.7337 27.8227 33.7307C27.8227 33.7307 27.3205 33.7219 27.3205 33.7247V33.8222C27.3205 34.2026 27.3205 34.5301 27.3405 34.7012C27.3518 34.8221 27.3747 34.8841 27.4688 34.8959L27.64 34.9106C27.6914 34.9136 27.7029 34.9402 27.7029 34.9667C27.7029 34.9844 27.6942 35.0287 27.6086 35.0287L27.1721 35.0168H27.1093L26.7555 35.0287C26.7326 35.0287 26.6614 35.0287 26.6614 34.9667C26.6614 34.9372 26.6728 34.9165 26.7212 34.9106L26.8326 34.8959C26.8896 34.8841 26.9067 34.8163 26.9238 34.6982C26.9438 34.5301 26.9438 34.2026 26.9438 33.8222V33.1082L26.9353 32.2322C26.9267 32.0964 26.8924 32.0405 26.7897 32.0286L26.6641 32.0168C26.6271 32.0139 26.6014 31.9932 26.6014 31.9608C26.6014 31.8989 26.6699 31.8989 26.6956 31.8989L27.0865 31.9077L27.2691 31.9047L27.603 31.8959C27.8454 31.8959 28.1194 31.9166 28.3392 32.0787C28.4447 32.1584 28.6216 32.3678 28.6216 32.657C28.6216 32.9903 28.4733 33.2882 28.1565 33.598C28.1794 33.6275 28.2336 33.6983 28.2336 33.6983C28.5104 34.067 28.7501 34.3885 28.9583 34.6127C29.1581 34.831 29.3178 34.8782 29.4205 34.8959L29.4405 34.8988C29.4776 34.9078 29.5061 34.9372 29.5061 34.9667ZM28.2365 32.8723C28.2365 32.3826 27.9939 32.0906 27.5859 32.0906C27.4632 32.0906 27.3633 32.1053 27.3318 32.1141C27.3233 32.1171 27.3205 32.123 27.3205 32.1348V33.4622C27.3205 33.4711 27.3205 33.4769 27.3347 33.4859C27.3804 33.5153 27.5459 33.5449 27.7313 33.5449C27.8141 33.5449 27.9225 33.536 28.0082 33.4741C28.1536 33.3708 28.2365 33.1466 28.2365 32.8723ZM7.66047 40.0523C7.66047 40.0523 6.17674 43.2765 6.03978 43.5685C6.01403 43.5124 4.41334 40.0965 4.41334 40.0965C4.33911 39.9401 4.29925 39.896 4.2394 39.896C4.19941 39.896 4.14804 39.9254 4.1223 40.07L3.52883 44.1171C3.49733 44.3443 3.44323 44.5656 3.29476 44.595L3.11794 44.6127C3.0722 44.6157 3.00659 44.6127 3.00659 44.6718C3.00659 44.7573 3.09507 44.7573 3.12931 44.7573L3.49747 44.7455L3.72277 44.7366L3.91397 44.7426L4.35349 44.7543C4.43046 44.7543 4.51319 44.7485 4.51319 44.6688C4.51319 44.6304 4.48182 44.6187 4.40773 44.6098L4.15941 44.5773C4.04518 44.5509 3.99095 44.4888 3.99095 44.3945L4.0082 44.1054C4.0082 44.1054 4.28213 41.9431 4.31637 41.6659C4.36486 41.7484 4.60742 42.2824 4.60742 42.2824L4.93832 43.0168C5.00968 43.188 5.47481 44.1231 5.62889 44.427L5.64601 44.4624C5.73737 44.6393 5.7916 44.7455 5.85146 44.7455C5.9172 44.7455 5.94843 44.6835 6.0884 44.3886L7.39805 41.5714C7.39805 41.5951 7.7547 44.2971 7.7547 44.2971C7.76319 44.3532 7.76607 44.3974 7.76607 44.4328C7.76607 44.5065 7.75182 44.5419 7.7347 44.5479C7.69471 44.5656 7.65759 44.5892 7.65759 44.6304C7.65759 44.6865 7.72046 44.7042 7.84605 44.7131C8.08286 44.7308 8.91026 44.7513 9.06722 44.7513C9.17857 44.7513 9.23842 44.7219 9.23842 44.6658C9.23842 44.6069 9.16433 44.6069 9.12721 44.6069C9.04435 44.6069 8.93025 44.601 8.75905 44.5449C8.58223 44.4888 8.52799 44.3031 8.47663 43.9314L7.92878 40.0965C7.90878 39.9578 7.86879 39.89 7.80606 39.89C7.7432 39.893 7.70895 39.952 7.66047 40.0523ZM14.66 40.0405L14.3432 40.0493L14.0379 40.0434L13.5214 40.0316C13.45 40.0316 13.3759 40.0376 13.3759 40.1024C13.3759 40.1732 13.4358 40.1673 13.4929 40.1732L13.6869 40.1909C13.8809 40.2086 13.9238 40.3355 13.9323 40.5302C13.9437 40.7278 13.9437 40.8989 13.9437 41.8458V42.9372C13.9437 43.5066 13.9437 43.9962 13.9123 44.2558C13.8867 44.4564 13.8524 44.5626 13.7497 44.5833L13.5356 44.6069C13.4787 44.6127 13.4244 44.6127 13.4244 44.6718C13.4244 44.7485 13.5272 44.7485 13.5585 44.7485L13.9723 44.7366L14.3147 44.7308L15.2506 44.7543L16.061 44.7662C16.3776 44.7662 16.4148 44.7336 16.4547 44.5862C16.5032 44.4033 16.546 43.9402 16.546 43.8694C16.546 43.8105 16.546 43.7484 16.4832 43.7484C16.4119 43.7484 16.4063 43.8163 16.4005 43.8546C16.3891 43.9698 16.3178 44.1408 16.2493 44.2175C16.1095 44.3739 15.8954 44.3856 15.5587 44.3856C15.0794 44.3856 14.9366 44.3385 14.8426 44.2529C14.7227 44.1467 14.7227 43.713 14.7227 42.9313V41.8399C14.7227 40.8929 14.7227 40.7219 14.7341 40.5242C14.7456 40.2971 14.7997 40.2116 14.9453 40.185L15.1763 40.1673C15.2392 40.1673 15.2991 40.1585 15.2991 40.0965C15.2991 40.0346 15.2306 40.0257 15.1592 40.0257L14.66 40.0405ZM18.4863 44.3886C18.6462 44.4564 18.7831 44.4624 18.9201 44.4624C19.0399 44.4624 19.6305 44.424 19.6305 43.6836C19.6305 43.4416 19.5735 42.837 19.0542 42.4594C18.9286 42.3649 18.7916 42.3266 18.5634 42.3148L18.3066 42.3089C18.2951 42.3089 18.2866 42.3118 18.2866 42.3384V43.8105C18.2866 44.2146 18.3038 44.3118 18.4863 44.3886ZM18.5234 40.3148L18.3294 40.3265C18.298 40.3355 18.2866 40.3502 18.2866 40.418V41.952C18.2866 41.9962 18.298 42.0022 18.318 42.0051L18.5977 42.0228C18.7745 42.0228 18.9143 42.0022 19.0199 41.9077C19.1769 41.775 19.2596 41.5508 19.2596 41.2618C19.2596 40.8959 19.0599 40.3148 18.5234 40.3148ZM18.6262 40.0286C19.8275 40.0286 19.9187 40.7543 19.9187 40.9756C19.9187 41.4535 19.679 41.7544 19.3195 42.0553C19.8446 42.25 20.3981 42.6982 20.3981 43.4004C20.3981 44.0817 19.8988 44.769 18.7802 44.769L18.5919 44.7603L18.358 44.7485L17.91 44.7308L17.5676 44.7366L17.1538 44.7485C17.1196 44.7485 17.0197 44.7485 17.0197 44.6718C17.0197 44.6127 17.0711 44.6098 17.1309 44.6069L17.345 44.5833C17.4562 44.5596 17.4848 44.421 17.5076 44.2558C17.5362 43.9962 17.5362 43.5036 17.5362 42.9372V41.8458C17.5362 40.8989 17.5362 40.7308 17.5247 40.5302C17.5133 40.3355 17.4905 40.2116 17.2765 40.1909L17.0453 40.1732C16.9769 40.1673 16.9284 40.1732 16.9284 40.1024C16.9284 40.0376 17.0055 40.0316 17.074 40.0316L17.6588 40.0434L17.89 40.0493L18.3237 40.0376L18.6262 40.0286ZM21.8704 42.1998C21.8704 43.5537 22.621 44.5007 23.6996 44.5007C24.1132 44.5007 25.0777 44.306 25.0777 42.5095C25.0777 41.191 24.3615 40.2734 23.3343 40.2734C22.7864 40.2706 21.8704 40.5212 21.8704 42.1998ZM21.0144 42.3915C21.0144 41.2115 21.7963 39.9431 23.5084 39.9431C25.015 39.9431 25.9479 40.8398 25.9479 42.2794C25.9479 43.7868 24.9207 44.8398 23.4484 44.8398C21.7763 44.8398 21.0144 43.5714 21.0144 42.3915ZM30.405 40.0434L29.5404 40.0316C29.4719 40.0316 29.4007 40.0376 29.4007 40.1024C29.4007 40.1732 29.589 40.1762 29.7287 40.1909C29.8999 40.2086 29.9656 40.3355 29.977 40.5302C29.9884 40.7278 29.9884 40.8989 29.9884 41.8458V42.6216C29.9884 43.2853 29.9628 43.8222 29.646 44.1496C29.3578 44.4476 28.9783 44.4801 28.8271 44.4801C28.6187 44.4801 28.3477 44.4505 28.0851 44.2293C27.8454 44.0257 27.6229 43.7013 27.6229 42.7131V41.8429C27.6229 40.8959 27.6229 40.7278 27.6344 40.5272C27.6486 40.3001 27.7 40.2145 27.8454 40.1879L28.0166 40.1702C28.0653 40.1644 28.128 40.1702 28.128 40.0994C28.128 40.0346 28.0509 40.0286 27.9824 40.0286L27.543 40.0405L27.2435 40.0493L26.9238 40.0405L26.3675 40.0286C26.2961 40.0286 26.2219 40.0346 26.2219 40.0994C26.2219 40.1702 26.2847 40.1673 26.3388 40.1702C26.3388 40.1702 26.3931 40.1732 26.57 40.1879C26.747 40.2027 26.8068 40.3325 26.8153 40.5272C26.8268 40.7248 26.8268 40.8959 26.8268 41.8429V42.7485C26.8268 43.536 26.998 44.0611 27.3661 44.4033C27.8283 44.837 28.4447 44.837 28.7072 44.837C29.0582 44.837 29.5147 44.7867 29.9656 44.3856C30.4706 43.9372 30.542 43.2175 30.542 42.5065V41.8429C30.542 40.8959 30.542 40.7278 30.5533 40.5272C30.5648 40.3001 30.6189 40.2145 30.7645 40.1879L30.9357 40.1702C31.0071 40.1644 31.0585 40.1614 31.0585 40.0994C31.0585 40.0346 30.9871 40.0286 30.9186 40.0286L30.405 40.0434ZM32.9131 42.4328C33.0244 42.4711 33.1928 42.4948 33.364 42.4948C33.6036 42.4948 33.6779 42.4681 33.7806 42.3915C33.9118 42.2941 34.1286 42.0434 34.1286 41.4742C34.1286 40.5892 33.5609 40.3532 33.2241 40.3532C33.0616 40.3532 32.9644 40.3619 32.9103 40.3768C32.8761 40.3856 32.8675 40.4033 32.8675 40.4476V42.3355C32.8703 42.4003 32.8817 42.418 32.9131 42.4328ZM33.3411 40.0316C33.7035 40.0316 34.1173 40.064 34.4539 40.3001C34.5966 40.4003 34.8677 40.7101 34.8677 41.1614C34.8677 41.6717 34.6309 42.0877 34.0801 42.5538C34.0944 42.5743 34.2827 42.8163 34.2827 42.8163C34.7222 43.3885 35.0703 43.8399 35.3755 44.1732C35.701 44.5213 35.9349 44.5715 36.0319 44.5921L36.0461 44.595C36.1146 44.6098 36.1317 44.6481 36.1317 44.6747C36.1317 44.7513 36.0434 44.7513 36.0034 44.7513H35.5925C35.2643 44.7513 35.1045 44.7219 34.9419 44.6304C34.688 44.4918 34.4654 44.2116 34.1144 43.713L33.8091 43.2676L33.5209 42.8575C33.4952 42.8251 33.4667 42.8193 33.424 42.8193L32.9017 42.8074C32.876 42.8074 32.8675 42.8163 32.8675 42.8428V42.9283C32.8675 43.5007 32.8675 43.9962 32.896 44.2558C32.916 44.4505 32.956 44.5626 33.1185 44.5833L33.4096 44.6069C33.4867 44.6069 33.4952 44.6511 33.4952 44.6718C33.4952 44.7485 33.3925 44.7485 33.3611 44.7485L32.6734 44.7336L32.4795 44.7278L32.2369 44.7336L31.7489 44.7455C31.7147 44.7455 31.6148 44.7455 31.6148 44.6688C31.6148 44.6098 31.6719 44.6098 31.7262 44.6039L31.9401 44.5803C32.0543 44.5567 32.0799 44.418 32.1028 44.2529C32.1313 43.9933 32.1313 43.5007 32.1313 42.9343V41.8429C32.1313 40.8959 32.1313 40.7248 32.1199 40.5272C32.1084 40.3295 32.0686 40.2116 31.8716 40.1879L31.6406 40.1702C31.6034 40.1702 31.5236 40.1702 31.5236 40.0994C31.5236 40.0346 31.6006 40.0286 31.669 40.0286L32.2511 40.0405L32.4908 40.0463L32.9331 40.0376L33.3411 40.0316ZM37.0962 40.1496L37.042 43.8252C37.0364 44.3591 37.0106 44.5332 36.8652 44.5803C36.7937 44.6014 36.7196 44.6113 36.6453 44.6098C36.614 44.6098 36.5341 44.6098 36.5341 44.6747C36.5341 44.7513 36.6197 44.7513 36.6796 44.7513L37.1818 44.7366H37.45L37.9894 44.7485C38.0378 44.7485 38.1434 44.7485 38.1434 44.6718C38.1434 44.6069 38.0607 44.6069 38.0265 44.6069C37.938 44.6069 37.8609 44.601 37.7582 44.5626C37.6298 44.5155 37.5698 44.3148 37.5585 43.8871C37.5585 43.8871 37.4929 41.365 37.4929 41.3089C37.5271 41.3384 37.6156 41.4388 37.6156 41.4388C37.8695 41.7248 38.3945 42.3208 38.9139 42.8575L39.7099 43.6806L40.6857 44.6806C40.7542 44.7513 40.8285 44.8221 40.8998 44.8221C40.9825 44.8221 40.9912 44.7189 40.9912 44.6157L41.0568 40.6982C41.0624 40.3502 41.0739 40.2145 41.228 40.185L41.4048 40.1673C41.499 40.1614 41.5275 40.1437 41.5275 40.0965C41.5275 40.0257 41.4363 40.0257 41.3734 40.0257L40.9341 40.0405L40.8256 40.0463L40.6145 40.0405L40.1379 40.0286C40.0667 40.0286 39.9667 40.0286 39.9667 40.0994C39.9667 40.1614 40.0267 40.1702 40.078 40.1702C40.1608 40.1702 40.2635 40.1702 40.352 40.2056C40.4776 40.2617 40.5403 40.3561 40.546 40.7513C40.546 40.7513 40.603 43.3768 40.6059 43.542L40.5917 43.5243C40.5917 43.5183 40.1693 43.0641 40.1693 43.0641L39.2791 42.1113C38.366 41.1733 37.4273 40.129 37.4186 40.1201L37.3616 40.0582C37.2903 39.9785 37.2445 39.9254 37.1847 39.9254C37.1048 39.9254 37.0962 40.0523 37.0962 40.1496ZM44.4551 40.0434C44.3724 40.0493 43.3737 40.0493 42.9571 40.0493L42.6517 40.0405L42.5805 40.0376L42.0925 40.0316C42.0211 40.0316 41.9442 40.0376 41.9442 40.1024C41.9442 40.1732 42.0184 40.1732 42.0611 40.1732L42.2923 40.1909C42.5034 40.2175 42.5291 40.3355 42.5405 40.5302C42.5519 40.7278 42.5519 40.8989 42.5519 41.8458V42.9372C42.5519 43.5066 42.5519 43.9992 42.5205 44.2587C42.4978 44.424 42.472 44.5626 42.3579 44.5862L42.1439 44.6098C42.0783 44.6157 42.0326 44.6157 42.0326 44.6747C42.0326 44.7513 42.1325 44.7513 42.1667 44.7513L42.5805 44.7396L42.9229 44.7336L43.5477 44.7513L43.7218 44.7573L44.5865 44.772C44.8118 44.772 44.8802 44.772 44.926 44.598C44.9574 44.4711 45.0058 44.0523 45.0058 43.9048C45.0058 43.8429 45.0058 43.7779 44.9431 43.7779C44.886 43.7779 44.8718 43.8222 44.8631 43.8841C44.8204 44.1408 44.749 44.2617 44.6007 44.3325C44.4466 44.4063 44.1927 44.4063 44.0414 44.4063C43.4194 44.4063 43.348 44.3031 43.3365 43.899V42.4476C43.3365 42.4003 43.348 42.4003 43.3565 42.4003C43.4908 42.4003 44.0927 42.4063 44.2069 42.418C44.398 42.4387 44.498 42.5095 44.5294 42.6481L44.5493 42.8134L44.5522 42.8694C44.5522 42.9136 44.575 42.9402 44.6206 42.9402C44.6891 42.9402 44.6892 42.8547 44.6892 42.8074L44.7006 42.6069L44.7119 42.3915L44.7519 42.0051L44.7604 41.9372C44.7604 41.896 44.7405 41.8723 44.7034 41.8723C44.6692 41.8723 44.6434 41.9018 44.6036 41.9491C44.5465 42.0169 44.458 42.0346 44.3182 42.0463C44.2297 42.0553 43.8901 42.0582 43.3594 42.0582C43.3394 42.0582 43.3338 42.0523 43.3338 42.0051V40.4357C43.3338 40.3886 43.348 40.3886 43.3594 40.3886C43.4764 40.3886 44.1071 40.4003 44.2098 40.4122C44.5122 40.4504 44.5607 40.5242 44.6007 40.6274C44.6349 40.7101 44.6349 40.831 44.6349 40.8458C44.6349 40.8752 44.6349 40.949 44.7034 40.949C44.7633 40.949 44.7747 40.8871 44.7775 40.8694L44.8004 40.5862L44.809 40.4594L44.8489 40.1171L44.8575 40.0553C44.8631 39.9992 44.8404 39.9845 44.8062 39.9845C44.7575 39.9815 44.5665 40.0405 44.4551 40.0434ZM12.1718 40.0434C12.089 40.0493 11.0903 40.0493 10.6737 40.0493L10.3684 40.0405L10.2971 40.0376L9.80915 40.0316C9.73779 40.0316 9.66068 40.0376 9.66068 40.1024C9.66068 40.1732 9.73491 40.1732 9.77778 40.1732L10.0088 40.1909C10.22 40.2175 10.2458 40.3355 10.2572 40.5302C10.2685 40.7278 10.2685 40.8989 10.2685 41.8458V42.9372C10.2685 43.5066 10.2685 43.9992 10.237 44.2587C10.2143 44.424 10.1887 44.5626 10.0744 44.5862L9.86051 44.6098C9.79477 44.6157 9.74916 44.6157 9.74916 44.6747C9.74916 44.7513 9.84914 44.7513 9.88338 44.7513L10.297 44.7396L10.6394 44.7336L11.2644 44.7513L11.4385 44.7573L12.303 44.772C12.5284 44.772 12.5969 44.772 12.6425 44.598C12.674 44.4711 12.7225 44.0523 12.7225 43.9048C12.7225 43.8429 12.7225 43.7779 12.6596 43.7779C12.6027 43.7779 12.5884 43.8222 12.5798 43.8841C12.537 44.1408 12.4657 44.2617 12.3172 44.3325C12.1631 44.4063 11.9092 44.4063 11.758 44.4063C11.1359 44.4063 11.0647 44.3031 11.0532 43.899V42.4476C11.0532 42.4003 11.0647 42.4003 11.0732 42.4003C11.2073 42.4003 11.8094 42.4063 11.9235 42.418C12.1147 42.4387 12.2145 42.5095 12.246 42.6481L12.2659 42.8134L12.2687 42.8694C12.2687 42.9136 12.2916 42.9402 12.3372 42.9402C12.4057 42.9402 12.4057 42.8547 12.4057 42.8074L12.4172 42.6069L12.4286 42.3915L12.4686 42.0051L12.4771 41.9372C12.4771 41.896 12.4571 41.8723 12.4199 41.8723C12.3857 41.8723 12.3601 41.9018 12.3201 41.9491C12.2631 42.0169 12.1746 42.0346 12.0348 42.0463C11.9463 42.0553 11.6068 42.0582 11.0761 42.0582C11.0561 42.0582 11.0503 42.0523 11.0503 42.0051V40.4357C11.0503 40.3886 11.0647 40.3886 11.0761 40.3886C11.193 40.3886 11.8236 40.4003 11.9263 40.4122C12.2289 40.4504 12.2774 40.5242 12.3172 40.6274C12.3515 40.7101 12.3515 40.831 12.3515 40.8458C12.3515 40.8752 12.3515 40.949 12.4199 40.949C12.4799 40.949 12.4913 40.8871 12.4942 40.8694L12.5171 40.5862L12.5255 40.4594L12.5655 40.1171L12.574 40.0553C12.5798 39.9992 12.5569 39.9845 12.5227 39.9845C12.4742 39.9815 12.283 40.0405 12.1718 40.0434Z" fill="white"/>
</g>
<defs>
<clipPath id="clip0_546_750">
<rect width="48" height="48" fill="white"/>
</clipPath>
</defs>
</svg>
